<?xml version="1.0" encoding="utf-8"?>
<!-- Generator: Adobe Illustrator 16.0.0, SVG Export Plug-In . SVG Version: 6.00 Build 0)  -->
<!DOCTYPE svg PUBLIC "-//W3C//DTD SVG 1.1//EN" "http://www.w3.org/Graphics/SVG/1.1/DTD/svg11.dtd">
<svg version="1.1" id="Layer_1" xmlns="http://www.w3.org/2000/svg" xmlns:xlink="http://www.w3.org/1999/xlink" x="0px" y="0px"
	 width="50px" height="50px" viewBox="-315.5 -315.5 50 50" enable-background="new -315.5 -315.5 50 50" xml:space="preserve">
<path d="M-272.213-276.454l-6.833-6.833c-0.513-0.513-1.167-0.788-1.836-0.852c2.059-2.568,3.298-5.82,3.298-9.36
	c0-8.271-6.729-15-15-15s-15,6.729-15,15s6.729,15,15,15c3.121,0,6.021-0.96,8.424-2.597c0.017,0.744,0.304,1.483,0.872,2.051
	l6.833,6.833c0.585,0.586,1.354,0.879,2.121,0.879s1.536-0.293,2.121-0.879C-271.041-273.383-271.041-275.282-272.213-276.454z
	 M-292.584-283.499c-5.514,0-10-4.486-10-10s4.486-10,10-10s10,4.486,10,10S-287.07-283.499-292.584-283.499z"/>
</svg>
