<?xml version="1.0" encoding="utf-8"?>
<!-- Generator: Adobe Illustrator 16.0.0, SVG Export Plug-In . SVG Version: 6.00 Build 0)  -->
<!DOCTYPE svg PUBLIC "-//W3C//DTD SVG 1.1//EN" "http://www.w3.org/Graphics/SVG/1.1/DTD/svg11.dtd">
<svg version="1.1" id="Layer_1" xmlns="http://www.w3.org/2000/svg" xmlns:xlink="http://www.w3.org/1999/xlink" x="0px" y="0px"
	 width="50px" height="50px" viewBox="-175.5 -315.5 50 50" enable-background="new -175.5 -315.5 50 50" xml:space="preserve">
<path d="M-132.213-276.454l-6.833-6.833c-0.513-0.513-1.167-0.788-1.836-0.852c2.059-2.568,3.298-5.82,3.298-9.36
	c0-8.271-6.729-15-15-15s-15,6.729-15,15s6.729,15,15,15c3.121,0,6.021-0.96,8.424-2.597c0.017,0.744,0.304,1.483,0.872,2.051
	l6.833,6.833c0.585,0.586,1.354,0.879,2.121,0.879s1.536-0.293,2.121-0.879C-131.041-273.383-131.041-275.282-132.213-276.454z
	 M-152.584-283.499c-5.514,0-10-4.486-10-10s4.486-10,10-10s10,4.486,10,10S-147.07-283.499-152.584-283.499z M-145.708-293.499
	c0,1.104-0.896,2-2,2h-9.5c-1.104,0-2-0.896-2-2s0.896-2,2-2h9.5C-146.604-295.499-145.708-294.604-145.708-293.499z"/>
</svg>
