<?xml version="1.0" encoding="utf-8"?>
<!-- Generator: Adobe Illustrator 16.0.0, SVG Export Plug-In . SVG Version: 6.00 Build 0)  -->
<!DOCTYPE svg PUBLIC "-//W3C//DTD SVG 1.1//EN" "http://www.w3.org/Graphics/SVG/1.1/DTD/svg11.dtd">
<svg version="1.1" id="Layer_1" xmlns="http://www.w3.org/2000/svg" xmlns:xlink="http://www.w3.org/1999/xlink" x="0px" y="0px"
	 width="50px" height="50px" viewBox="-105.5 -315.5 50 50" enable-background="new -105.5 -315.5 50 50" xml:space="preserve">
<path d="M-64.425-294.705c0.004-0.089,0.006-0.178,0.006-0.268c0-6.831-5.558-12.389-12.389-12.389c-4,0-7.676,1.892-10.007,5.104
	c-0.802-0.361-1.672-0.549-2.561-0.549c-3.453,0-6.262,2.81-6.262,6.263c0,0.407,0.041,0.813,0.121,1.214
	c-3.25,1.628-5.305,4.915-5.305,8.604c0,5.315,4.324,9.64,9.64,9.64h0.36c1.583,2.09,4.083,3.446,6.906,3.446
	c2.04,0,3.912-0.71,5.392-1.889c1.023,0.564,2.199,0.888,3.451,0.888c2.149,0,4.072-0.952,5.384-2.451
	c5.256-0.07,9.511-4.361,9.511-9.634C-60.178-289.917-61.791-292.92-64.425-294.705z M-69.176-291.982l-8.321,8.324
	c-0.391,0.391-0.903,0.586-1.415,0.586c-0.511,0-1.022-0.194-1.413-0.584l-5.153-5.144c-0.782-0.78-0.783-2.047-0.002-2.829
	c0.781-0.781,2.047-0.782,2.829-0.002l3.738,3.731l6.908-6.911c0.781-0.78,2.047-0.781,2.829,0
	C-68.396-294.03-68.396-292.764-69.176-291.982z"/>
</svg>
