<?xml version="1.0" encoding="utf-8"?>
<!-- Generator: Adobe Illustrator 16.0.0, SVG Export Plug-In . SVG Version: 6.00 Build 0)  -->
<!DOCTYPE svg PUBLIC "-//W3C//DTD SVG 1.1//EN" "http://www.w3.org/Graphics/SVG/1.1/DTD/svg11.dtd">
<svg version="1.1" id="Layer_1" xmlns="http://www.w3.org/2000/svg" xmlns:xlink="http://www.w3.org/1999/xlink" x="0px" y="0px"
	 width="50px" height="50px" viewBox="-35.5 -315.5 50 50" enable-background="new -35.5 -315.5 50 50" xml:space="preserve">
<path d="M5.575-294.705c0.004-0.089,0.006-0.178,0.006-0.268c0-6.831-5.558-12.389-12.389-12.389c-4,0-7.676,1.892-10.007,5.104
	c-0.802-0.361-1.672-0.549-2.561-0.549c-3.453,0-6.262,2.81-6.262,6.263c0,0.407,0.041,0.813,0.121,1.214
	c-3.25,1.628-5.305,4.915-5.305,8.604c0,5.315,4.324,9.64,9.64,9.64h0.36c1.583,2.09,4.083,3.446,6.906,3.446
	c2.04,0,3.912-0.71,5.392-1.889c1.023,0.564,2.199,0.888,3.451,0.888c2.149,0,4.072-0.952,5.384-2.451
	c5.256-0.07,9.511-4.361,9.511-9.634C9.822-289.917,8.209-292.92,5.575-294.705z M-2.644-286.611c0.781,0.781,0.781,2.047,0,2.828
	c-0.781,0.781-2.047,0.781-2.829,0l-1.944-1.944l-1.945,1.944c-0.781,0.781-2.047,0.781-2.828,0c-0.781-0.78-0.781-2.047,0-2.828
	l1.944-1.944l-1.944-1.944c-0.781-0.781-0.781-2.048,0-2.829c0.781-0.78,2.047-0.78,2.828,0l1.945,1.944l1.944-1.944
	c0.781-0.781,2.048-0.781,2.829,0c0.781,0.781,0.781,2.048,0,2.828l-1.944,1.945L-2.644-286.611z" style="fill:none;stroke:blue;stroke-width:2;"/>
</svg>
