<?xml version="1.0" encoding="utf-8"?>
<!-- Generator: Adobe Illustrator 16.0.0, SVG Export Plug-In . SVG Version: 6.00 Build 0)  -->
<!DOCTYPE svg PUBLIC "-//W3C//DTD SVG 1.1//EN" "http://www.w3.org/Graphics/SVG/1.1/DTD/svg11.dtd">
<svg version="1.1" id="Layer_1" xmlns="http://www.w3.org/2000/svg" xmlns:xlink="http://www.w3.org/1999/xlink" x="0px" y="0px"
	 width="50px" height="50px" viewBox="-35.5 -315.5 50 50" enable-background="new -35.5 -315.5 50 50" xml:space="preserve">
<path d="M8.81-304.047c0,0.829-0.671,1.5-1.5,1.5H5.191v2.119c0,0.829-0.671,1.5-1.5,1.5s-1.5-0.671-1.5-1.5v-2.119H0.072
	c-0.829,0-1.5-0.671-1.5-1.5s0.671-1.5,1.5-1.5h2.119v-2.118c0-0.829,0.671-1.5,1.5-1.5s1.5,0.671,1.5,1.5v2.118H7.31
	C8.138-305.547,8.81-304.875,8.81-304.047z M-11.815-303.079c-9.922,0-17.994,6.749-17.994,15.044
	c0,8.295,8.072,15.043,17.994,15.043c2.426,0,4.789-0.403,7.026-1.199l6.075,2.323c0.058,0.022,0.119,0.033,0.179,0.033
	c0.1,0,0.199-0.03,0.284-0.088c0.135-0.094,0.216-0.248,0.216-0.412v-6.039c2.72-2.708,4.215-6.131,4.215-9.662
	C6.18-296.331-1.893-303.079-11.815-303.079z"/>
</svg>
