<?xml version="1.0" encoding="utf-8"?>
<!-- Generator: Adobe Illustrator 16.0.0, SVG Export Plug-In . SVG Version: 6.00 Build 0)  -->
<!DOCTYPE svg PUBLIC "-//W3C//DTD SVG 1.1//EN" "http://www.w3.org/Graphics/SVG/1.1/DTD/svg11.dtd">
<svg version="1.1" id="Layer_1" xmlns="http://www.w3.org/2000/svg" xmlns:xlink="http://www.w3.org/1999/xlink" x="0px" y="0px"
	 width="50px" height="50px" viewBox="34.5 -315.5 50 50" enable-background="new 34.5 -315.5 50 50" xml:space="preserve">
<path d="M78.81-305.856c0,0.829-0.672,1.5-1.5,1.5h-7.237c-0.828,0-1.5-0.671-1.5-1.5s0.672-1.5,1.5-1.5h7.237
	C78.138-307.356,78.81-306.685,78.81-305.856z M58.185-304.888c-9.922,0-17.994,6.749-17.994,15.044
	c0,8.295,8.072,15.043,17.994,15.043c2.426,0,4.789-0.403,7.026-1.199l6.075,2.323c0.058,0.022,0.118,0.033,0.179,0.033
	c0.1,0,0.199-0.03,0.283-0.088c0.136-0.094,0.217-0.248,0.217-0.412v-6.039c2.72-2.708,4.215-6.131,4.215-9.662
	C76.18-298.14,68.107-304.888,58.185-304.888z"/>
</svg>
