<?xml version="1.0" encoding="utf-8"?>
<!-- Generator: Adobe Illustrator 16.0.0, SVG Export Plug-In . SVG Version: 6.00 Build 0)  -->
<!DOCTYPE svg PUBLIC "-//W3C//DTD SVG 1.1//EN" "http://www.w3.org/Graphics/SVG/1.1/DTD/svg11.dtd">
<svg version="1.1" id="Layer_1" xmlns="http://www.w3.org/2000/svg" xmlns:xlink="http://www.w3.org/1999/xlink" x="0px" y="0px"
	 width="50px" height="50px" viewBox="104.5 -315.5 50 50" enable-background="new 104.5 -315.5 50 50" xml:space="preserve">
<path d="M134.583-295.41v2.688h-3.5v-2.688c0-0.644,0.802-1.188,1.75-1.188S134.583-296.054,134.583-295.41z M149.822-286.725
	c0,5.272-4.256,9.563-9.512,9.634c-1.313,1.499-3.234,2.451-5.383,2.451c-1.252,0-2.428-0.323-3.451-0.888
	c-1.48,1.179-3.354,1.889-5.393,1.889c-2.822,0-5.324-1.356-6.906-3.446h-0.359c-5.316,0-9.641-4.324-9.641-9.64
	c0-3.689,2.055-6.977,5.307-8.604c-0.082-0.401-0.121-0.807-0.121-1.214c0-3.453,2.809-6.263,6.262-6.263
	c0.889,0,1.758,0.188,2.561,0.549c2.33-3.213,6.006-5.104,10.006-5.104c6.832,0,12.389,5.558,12.389,12.389
	c0,0.09-0.002,0.179-0.006,0.268C148.209-292.92,149.822-289.917,149.822-286.725z M137.708-290.723
	c0-0.789-0.461-1.465-1.125-1.791v-2.896c0-1.758-1.683-3.188-3.75-3.188s-3.75,1.43-3.75,3.188v2.896
	c-0.664,0.326-1.125,1.002-1.125,1.791v5.75c0,1.104,0.896,2,2,2h5.75c1.104,0,2-0.896,2-2V-290.723z"/>
</svg>
