<?xml version="1.0" encoding="utf-8"?>
<!-- Generator: Adobe Illustrator 16.0.0, SVG Export Plug-In . SVG Version: 6.00 Build 0)  -->
<!DOCTYPE svg PUBLIC "-//W3C//DTD SVG 1.1//EN" "http://www.w3.org/Graphics/SVG/1.1/DTD/svg11.dtd">
<svg version="1.1" id="Layer_1" xmlns="http://www.w3.org/2000/svg" xmlns:xlink="http://www.w3.org/1999/xlink" x="0px" y="0px"
	 width="50px" height="50px" viewBox="174.5 -315.5 50 50" enable-background="new 174.5 -315.5 50 50" xml:space="preserve">
<path d="M218.631-272.101c0,1.104-0.896,2-2,2h-31.332c-1.104,0-2-0.896-2-2v-31.334c0-1.104,0.896-2,2-2s2,0.896,2,2v29.334h29.332
	C217.735-274.101,218.631-273.206,218.631-272.101z M220.215-292.435c0,1.059-0.858,1.917-1.917,1.917
	c-0.631,0-1.187-0.309-1.535-0.779l-3.624-0.074l-2.149,4.486c0.035,0.145,0.06,0.294,0.06,0.451c0,1.059-0.859,1.917-1.918,1.917
	c-0.695,0-1.298-0.374-1.634-0.928l-2.853-0.658l-1.143,3.073c0.08,0.212,0.129,0.439,0.129,0.68c0,1.059-0.857,1.917-1.916,1.917
	c-0.904,0-1.656-0.627-1.859-1.468l-2.092-1.301l-2.904,4.708c0.009,0.076,0.022,0.15,0.022,0.228c0,1.059-0.858,1.917-1.917,1.917
	s-1.917-0.858-1.917-1.917s0.858-1.917,1.917-1.917c0.187,0,0.363,0.035,0.533,0.084l2.568-4.161l-4.857-3.022
	c-0.184,0.058-0.375,0.098-0.578,0.098c-1.059,0-1.916-0.858-1.916-1.917s0.857-1.917,1.916-1.917s1.918,0.858,1.918,1.917
	c0,0.095-0.016,0.187-0.028,0.278l4.597,2.86l1.005-1.629c-0.101-0.233-0.157-0.489-0.157-0.759c0-1.059,0.857-1.917,1.916-1.917
	c0.893,0,1.637,0.613,1.85,1.438l1.652,0.381l1.057-2.838c-0.242-0.321-0.392-0.716-0.392-1.149c0-1.059,0.858-1.917,1.917-1.917
	c0.67,0,1.258,0.345,1.601,0.865l4.327,0.088l1.656-3.458c-0.211-0.308-0.334-0.679-0.334-1.08c0-1.059,0.857-1.917,1.916-1.917
	s1.918,0.858,1.918,1.917c0,0.974-0.73,1.77-1.672,1.892l-1.289,2.69l2.51,0.051c0.316-0.621,0.955-1.05,1.7-1.05
	C219.356-294.351,220.215-293.493,220.215-292.435z M202.68-286.558l-1.543-0.356c-0.337,0.294-0.772,0.479-1.256,0.479
	c-0.039,0-0.076-0.009-0.115-0.012l-0.951,1.541l1.709,1.063c0.328-0.262,0.738-0.425,1.191-0.425c0.037,0,0.072,0.009,0.109,0.011
	L202.68-286.558z M210.943-291.417l-3.323-0.068c-0.277,0.482-0.753,0.832-1.319,0.933l-0.952,2.558l2.185,0.504
	c0.343-0.519,0.93-0.861,1.598-0.861c0.112,0,0.221,0.015,0.327,0.033L210.943-291.417z"/>
</svg>
