<?xml version="1.0" encoding="utf-8"?>
<!-- Generator: Adobe Illustrator 16.0.0, SVG Export Plug-In . SVG Version: 6.00 Build 0)  -->
<!DOCTYPE svg PUBLIC "-//W3C//DTD SVG 1.1//EN" "http://www.w3.org/Graphics/SVG/1.1/DTD/svg11.dtd">
<svg version="1.1" id="Layer_1" xmlns="http://www.w3.org/2000/svg" xmlns:xlink="http://www.w3.org/1999/xlink" x="0px" y="0px"
	 width="50px" height="50px" viewBox="174.5 -315.5 50 50" enable-background="new 174.5 -315.5 50 50" xml:space="preserve">
<path d="M218.613-302.531c0,0.829-0.672,1.5-1.5,1.5h-2.118v2.119c0,0.829-0.672,1.5-1.5,1.5s-1.5-0.671-1.5-1.5v-2.119h-2.119
	c-0.828,0-1.5-0.671-1.5-1.5s0.672-1.5,1.5-1.5h2.119v-2.118c0-0.829,0.672-1.5,1.5-1.5s1.5,0.671,1.5,1.5v2.118h2.118
	C217.941-304.031,218.613-303.359,218.613-302.531z M214.216-280.395l-10.558-3.298c2.282-2.716,3.668-7.025,3.668-11.055
	c0-6.099-3.477-10.039-8.856-10.039s-8.856,3.94-8.856,10.039c0,4.03,1.386,8.339,3.668,11.055l-10.558,3.298
	c-1.044,0.326-1.755,1.292-1.755,2.386v3.826c0,1.381,1.119,2.5,2.5,2.5h30.002c1.381,0,2.5-1.119,2.5-2.5v-3.826
	C215.971-279.102,215.26-280.068,214.216-280.395z"/>
</svg>
