<?xml version="1.0" encoding="utf-8"?>
<!-- Generator: Adobe Illustrator 16.0.0, SVG Export Plug-In . SVG Version: 6.00 Build 0)  -->
<!DOCTYPE svg PUBLIC "-//W3C//DTD SVG 1.1//EN" "http://www.w3.org/Graphics/SVG/1.1/DTD/svg11.dtd">
<svg version="1.1" id="Layer_1" xmlns="http://www.w3.org/2000/svg" xmlns:xlink="http://www.w3.org/1999/xlink" x="0px" y="0px"
	 width="50px" height="50px" viewBox="244.5 -315.5 50 50" enable-background="new 244.5 -315.5 50 50" xml:space="preserve">
<path d="M289.423-272.101c0,1.104-0.896,2-2,2h-31.332c-1.104,0-2-0.896-2-2v-31.334c0-1.104,0.896-2,2-2s2,0.896,2,2v29.334h29.332
	C288.527-274.101,289.423-273.206,289.423-272.101z M260.73-277.251c0.164,0.102,0.346,0.15,0.525,0.15
	c0.335,0,0.662-0.168,0.852-0.474l5.924-9.57l3.792,2.844c0.247,0.185,0.565,0.247,0.86,0.166c0.298-0.08,0.541-0.293,0.661-0.576
	l2.776-6.577l4.578,1.942c0.409,0.174,0.884,0.056,1.164-0.287l4.894-5.98v2.68c0,0.552,0.448,1,1,1s1-0.448,1-1v-5.333
	c0-0.552-0.448-1-1-1h-5.333c-0.553,0-1,0.448-1,1s0.447,1,1,1h3.102l-4.734,5.787l-4.811-2.041
	c-0.245-0.104-0.52-0.106-0.766-0.006c-0.246,0.1-0.443,0.293-0.547,0.538L272-286.669l-3.643-2.732
	c-0.225-0.168-0.511-0.236-0.786-0.183c-0.276,0.052-0.517,0.217-0.665,0.456l-6.5,10.5
	C260.115-278.158,260.261-277.542,260.73-277.251z"/>
</svg>
