<?xml version="1.0" encoding="utf-8"?>
<!-- Generator: Adobe Illustrator 16.0.0, SVG Export Plug-In . SVG Version: 6.00 Build 0)  -->
<!DOCTYPE svg PUBLIC "-//W3C//DTD SVG 1.1//EN" "http://www.w3.org/Graphics/SVG/1.1/DTD/svg11.dtd">
<svg version="1.1" id="Layer_1" xmlns="http://www.w3.org/2000/svg" xmlns:xlink="http://www.w3.org/1999/xlink" x="0px" y="0px"
	 width="50px" height="50px" viewBox="244.5 -315.5 50 50" enable-background="new 244.5 -315.5 50 50" xml:space="preserve">
<path d="M288.197-304.212c0,0.829-0.672,1.5-1.5,1.5h-7.238c-0.828,0-1.5-0.671-1.5-1.5s0.672-1.5,1.5-1.5h7.238
	C287.525-305.712,288.197-305.041,288.197-304.212z M284.632-282.076l-10.558-3.298c2.282-2.716,3.668-7.024,3.668-11.055
	c0-6.099-3.476-10.039-8.855-10.039c-5.381,0-8.857,3.94-8.857,10.039c0,4.03,1.386,8.339,3.669,11.055l-10.559,3.297
	c-1.044,0.326-1.755,1.292-1.755,2.386v3.827c0,1.381,1.119,2.5,2.5,2.5h30.002c1.381,0,2.5-1.119,2.5-2.5v-3.827
	C286.387-280.784,285.676-281.75,284.632-282.076z"/>
</svg>
