<?xml version="1.0" encoding="utf-8"?>
<!-- Generator: Adobe Illustrator 16.0.0, SVG Export Plug-In . SVG Version: 6.00 Build 0)  -->
<!DOCTYPE svg PUBLIC "-//W3C//DTD SVG 1.1//EN" "http://www.w3.org/Graphics/SVG/1.1/DTD/svg11.dtd">
<svg version="1.1" id="Layer_1" xmlns="http://www.w3.org/2000/svg" xmlns:xlink="http://www.w3.org/1999/xlink" x="0px" y="0px"
	 width="50px" height="50px" viewBox="314.5 -315.5 50 50" enable-background="new 314.5 -315.5 50 50" xml:space="preserve">
<path d="M359.423-271.162c0,1.104-0.896,2-2,2h-31.332c-1.104,0-2-0.896-2-2v-31.334c0-1.104,0.896-2,2-2s2,0.896,2,2v29.334h4.788
	c-0.074-0.209-0.122-0.432-0.122-0.667v-19.333c0-1.104,0.896-2,2-2s2,0.896,2,2v19.333c0,0.235-0.048,0.458-0.122,0.667h3.912
	c-0.075-0.209-0.123-0.432-0.123-0.667v-12.667c0-1.104,0.896-2,2-2s2,0.896,2,2v12.667c0,0.235-0.048,0.458-0.123,0.667h3.912
	c-0.074-0.209-0.122-0.432-0.122-0.667v-6.333c0-1.104,0.896-2,2-2s2,0.896,2,2v6.333c0,0.235-0.048,0.458-0.122,0.667h5.454
	C358.527-273.162,359.423-272.266,359.423-271.162z M352.97-287.707h-4.046c-0.828,0-1.5,0.671-1.5,1.5s0.672,1.5,1.5,1.5h8
	c0.828,0,1.5-0.671,1.5-1.5v-8c0-0.829-0.672-1.5-1.5-1.5s-1.5,0.671-1.5,1.5v4.712l-16.439-16.439
	c-0.586-0.586-1.535-0.586-2.121,0c-0.586,0.585-0.586,1.536,0,2.121L352.97-287.707z"/>
</svg>
