<?xml version="1.0" encoding="utf-8"?>
<!-- Generator: Adobe Illustrator 16.0.0, SVG Export Plug-In . SVG Version: 6.00 Build 0)  -->
<!DOCTYPE svg PUBLIC "-//W3C//DTD SVG 1.1//EN" "http://www.w3.org/Graphics/SVG/1.1/DTD/svg11.dtd">
<svg version="1.1" id="Layer_1" xmlns="http://www.w3.org/2000/svg" xmlns:xlink="http://www.w3.org/1999/xlink" x="0px" y="0px"
	 width="50px" height="50px" viewBox="314.5 314.5 50 50" enable-background="new 314.5 314.5 50 50" xml:space="preserve">
<path d="M354.834,356.667h-30.668c-1.381,0-2.5-1.119-2.5-2.5s1.119-2.5,2.5-2.5h30.668c1.381,0,2.5,1.119,2.5,2.5
	S356.215,356.667,354.834,356.667z M348.834,346.833c0-1.381-1.119-2.5-2.5-2.5h-13.668c-1.381,0-2.5,1.119-2.5,2.5
	s1.119,2.5,2.5,2.5h13.668C347.715,349.333,348.834,348.214,348.834,346.833z M357.334,339.501c0-1.381-1.119-2.5-2.5-2.5h-30.668
	c-1.381,0-2.5,1.119-2.5,2.5s1.119,2.5,2.5,2.5h30.668C356.215,342.001,357.334,340.882,357.334,339.501z M348.834,332.167
	c0-1.381-1.119-2.5-2.5-2.5h-13.668c-1.381,0-2.5,1.119-2.5,2.5s1.119,2.5,2.5,2.5h13.668
	C347.715,334.667,348.834,333.548,348.834,332.167z M357.334,324.833c0-1.381-1.119-2.5-2.5-2.5h-30.668c-1.381,0-2.5,1.119-2.5,2.5
	s1.119,2.5,2.5,2.5h30.668C356.215,327.333,357.334,326.214,357.334,324.833z"/>
</svg>
