<?xml version="1.0" encoding="utf-8"?>
<!-- Generator: Adobe Illustrator 16.0.0, SVG Export Plug-In . SVG Version: 6.00 Build 0)  -->
<!DOCTYPE svg PUBLIC "-//W3C//DTD SVG 1.1//EN" "http://www.w3.org/Graphics/SVG/1.1/DTD/svg11.dtd">
<svg version="1.1" id="Layer_1" xmlns="http://www.w3.org/2000/svg" xmlns:xlink="http://www.w3.org/1999/xlink" x="0px" y="0px"
	 width="50px" height="50px" viewBox="-315.5 -315.5 50 50" enable-background="new -315.5 -315.5 50 50" xml:space="preserve">
<path d="M-273.682-287.911l-9.35,11.01c-0.791,0.932-1.918,1.411-3.051,1.411c-0.916,0-1.835-0.312-2.588-0.951
	c-1.684-1.43-1.889-3.954-0.459-5.638l3.754-4.42h-16.105c-2.209,0-4-1.791-4-4s1.791-4,4-4h16.105l-3.754-4.42
	c-1.43-1.684-1.225-4.208,0.459-5.638c1.686-1.429,4.21-1.225,5.639,0.459l9.35,11.01
	C-272.413-291.596-272.413-289.404-273.682-287.911z"/>
</svg>
