<?xml version="1.0" encoding="utf-8"?>
<!-- Generator: Adobe Illustrator 16.0.0, SVG Export Plug-In . SVG Version: 6.00 Build 0)  -->
<!DOCTYPE svg PUBLIC "-//W3C//DTD SVG 1.1//EN" "http://www.w3.org/Graphics/SVG/1.1/DTD/svg11.dtd">
<svg version="1.1" id="Layer_1" xmlns="http://www.w3.org/2000/svg" xmlns:xlink="http://www.w3.org/1999/xlink" x="0px" y="0px"
	 width="50px" height="50px" viewBox="-245.5 -315.5 50 50" enable-background="new -245.5 -315.5 50 50" xml:space="preserve">
<path d="M-202.73-290.5c0,2.209-1.791,4-4,4h-16.104l3.754,4.42c1.431,1.684,1.224,4.208-0.46,5.638
	c-0.752,0.639-1.672,0.951-2.587,0.951c-1.134,0-2.26-0.479-3.051-1.411l-9.351-11.01c-1.268-1.493-1.268-3.686,0-5.179l9.351-11.01
	c1.431-1.684,3.954-1.89,5.638-0.459s1.891,3.954,0.46,5.638l-3.754,4.42h16.104C-204.521-294.5-202.73-292.709-202.73-290.5z"/>
</svg>
