<?xml version="1.0" encoding="utf-8"?>
<!-- Generator: Adobe Illustrator 16.0.0, SVG Export Plug-In . SVG Version: 6.00 Build 0)  -->
<!DOCTYPE svg PUBLIC "-//W3C//DTD SVG 1.1//EN" "http://www.w3.org/Graphics/SVG/1.1/DTD/svg11.dtd">
<svg version="1.1" id="Layer_1" xmlns="http://www.w3.org/2000/svg" xmlns:xlink="http://www.w3.org/1999/xlink" x="0px" y="0px"
	 width="50px" height="50px" viewBox="-105.5 -315.5 50 50" enable-background="new -105.5 -315.5 50 50" xml:space="preserve">
<path d="M-65.047-290.935c-0.791,0.932-1.917,1.411-3.051,1.411c-0.914,0-1.834-0.313-2.587-0.951l-4.421-3.754v16.105
	c0,2.209-1.791,4-4,4s-4-1.791-4-4v-16.105l-4.42,3.754c-1.683,1.43-4.208,1.225-5.639-0.459c-1.43-1.684-1.224-4.208,0.46-5.638
	l11.01-9.351c1.493-1.269,3.686-1.269,5.179,0l11.01,9.351C-63.822-295.143-63.616-292.619-65.047-290.935z"/>
</svg>
