<?xml version="1.0" encoding="utf-8"?>
<!-- Generator: Adobe Illustrator 16.0.0, SVG Export Plug-In . SVG Version: 6.00 Build 0)  -->
<!DOCTYPE svg PUBLIC "-//W3C//DTD SVG 1.1//EN" "http://www.w3.org/Graphics/SVG/1.1/DTD/svg11.dtd">
<svg version="1.1" id="Layer_1" xmlns="http://www.w3.org/2000/svg" xmlns:xlink="http://www.w3.org/1999/xlink" x="0px" y="0px"
	 width="50px" height="50px" viewBox="-35.5 -315.5 50 50" enable-background="new -35.5 -315.5 50 50" xml:space="preserve">
<path d="M-1.668-287.911l-9.352,11.01c-0.791,0.932-1.917,1.411-3.051,1.411c-0.915,0-1.834-0.313-2.587-0.951
	c-1.684-1.431-1.89-3.955-0.46-5.639l3.755-4.42h-13.104c-2.209,0-4-1.791-4-4s1.791-4,4-4h13.104l-3.755-4.421
	c-1.43-1.684-1.224-4.208,0.46-5.638c1.685-1.429,4.21-1.225,5.638,0.459l9.352,11.01C-0.4-291.597-0.4-289.404-1.668-287.911z
	 M11.307-293.09L1.955-304.1c-1.428-1.684-3.953-1.888-5.638-0.459c-1.684,1.43-1.89,3.954-0.46,5.638L3.01-290.5l-7.152,8.42
	c-1.43,1.684-1.224,4.208,0.46,5.639c0.753,0.639,1.672,0.951,2.587,0.951c1.134,0,2.26-0.479,3.051-1.411l9.352-11.01
	C12.574-289.404,12.574-291.597,11.307-293.09z"/>
</svg>
