<?xml version="1.0" encoding="utf-8"?>
<!-- Generator: Adobe Illustrator 16.0.0, SVG Export Plug-In . SVG Version: 6.00 Build 0)  -->
<!DOCTYPE svg PUBLIC "-//W3C//DTD SVG 1.1//EN" "http://www.w3.org/Graphics/SVG/1.1/DTD/svg11.dtd">
<svg version="1.1" id="Layer_1" xmlns="http://www.w3.org/2000/svg" xmlns:xlink="http://www.w3.org/1999/xlink" x="0px" y="0px"
	 width="50px" height="50px" viewBox="34.5 -315.5 50 50" enable-background="new 34.5 -315.5 50 50" xml:space="preserve">
<path d="M55.932-282.079c1.43,1.684,1.225,4.208-0.459,5.638c-0.752,0.639-1.672,0.951-2.588,0.951c-1.133,0-2.26-0.479-3.051-1.41
	l-9.352-11.01c-1.268-1.493-1.268-3.686,0-5.179l9.352-11.01c1.43-1.685,3.953-1.89,5.639-0.46c1.684,1.431,1.889,3.955,0.459,5.639
	l-7.152,8.421L55.932-282.079z M78.258-294.5H65.152l3.754-4.42c1.43-1.684,1.225-4.208-0.459-5.639
	c-1.686-1.43-4.209-1.225-5.639,0.46l-9.352,11.01c-1.268,1.493-1.268,3.686,0,5.179l9.352,11.01c0.791,0.932,1.918,1.41,3.051,1.41
	c0.916,0,1.836-0.313,2.588-0.951c1.684-1.43,1.889-3.954,0.459-5.638l-3.754-4.421h13.105c2.209,0,4-1.791,4-4
	C82.258-292.71,80.467-294.5,78.258-294.5z"/>
</svg>
