<?xml version="1.0" encoding="utf-8"?>
<!-- Generator: Adobe Illustrator 16.0.0, SVG Export Plug-In . SVG Version: 6.00 Build 0)  -->
<!DOCTYPE svg PUBLIC "-//W3C//DTD SVG 1.1//EN" "http://www.w3.org/Graphics/SVG/1.1/DTD/svg11.dtd">
<svg version="1.1" id="Layer_1" xmlns="http://www.w3.org/2000/svg" xmlns:xlink="http://www.w3.org/1999/xlink" x="0px" y="0px"
	 width="50px" height="50px" viewBox="174.5 -315.5 50 50" enable-background="new 174.5 -315.5 50 50" xml:space="preserve">
<path d="M214.494-288.586c1.684,1.43,1.889,3.955,0.459,5.638c-1.43,1.683-3.953,1.889-5.639,0.459l-4.42-3.754v13.106
	c0,2.209-1.791,4-4,4s-4-1.791-4-4v-13.106l-4.42,3.755c-0.752,0.639-1.672,0.951-2.588,0.951c-1.133,0-2.26-0.479-3.051-1.411
	c-1.43-1.684-1.225-4.208,0.459-5.638l11.01-9.352c1.494-1.268,3.686-1.269,5.18,0L214.494-288.586z M189.887-294.511
	c0.916,0,1.836-0.313,2.588-0.951l8.42-7.153l8.42,7.152c1.686,1.429,4.209,1.223,5.639-0.459c1.43-1.684,1.225-4.208-0.459-5.638
	l-11.01-9.352c-1.494-1.269-3.686-1.268-5.18,0l-11.01,9.352c-1.684,1.43-1.889,3.955-0.459,5.638
	C187.627-294.99,188.754-294.511,189.887-294.511z"/>
</svg>
