<?xml version="1.0" encoding="utf-8"?>
<!-- Generator: Adobe Illustrator 16.0.0, SVG Export Plug-In . SVG Version: 6.00 Build 0)  -->
<!DOCTYPE svg PUBLIC "-//W3C//DTD SVG 1.1//EN" "http://www.w3.org/Graphics/SVG/1.1/DTD/svg11.dtd">
<svg version="1.1" id="Layer_1" xmlns="http://www.w3.org/2000/svg" xmlns:xlink="http://www.w3.org/1999/xlink" x="0px" y="0px"
	 width="50px" height="50px" viewBox="244.5 -315.5 50 50" enable-background="new 244.5 -315.5 50 50" xml:space="preserve">
<path d="M273.35-292.954c-0.846-0.846-0.846-2.217,0-3.063l6.168-6.168l-3.131-0.254c-0.533-0.045-1.006-0.277-1.357-0.628
	c-0.434-0.434-0.682-1.048-0.627-1.707c0.098-1.192,1.143-2.08,2.334-1.983l7.797,0.635c1.059,0.088,1.896,0.927,1.984,1.983
	l0.635,7.797c0.096,1.191-0.791,2.236-1.984,2.334c-1.191,0.097-2.236-0.791-2.334-1.983l-0.254-3.129l-6.168,6.167
	C275.566-292.107,274.195-292.107,273.35-292.954z M265.377-288.046l-6.166,6.167l-0.256-3.13c-0.098-1.192-1.143-2.08-2.334-1.982
	c-1.193,0.097-2.08,1.142-1.984,2.333l0.635,7.798c0.086,1.056,0.926,1.895,1.984,1.982l7.797,0.635
	c1.191,0.097,2.236-0.791,2.334-1.983c0.055-0.659-0.193-1.273-0.627-1.708c-0.352-0.351-0.822-0.582-1.355-0.627l-3.131-0.255
	l6.166-6.167c0.848-0.846,0.848-2.217,0.002-3.063C267.594-288.893,266.223-288.893,265.377-288.046z M285.168-286.992
	c-0.66-0.055-1.273,0.193-1.707,0.627c-0.352,0.351-0.584,0.823-0.627,1.356l-0.256,3.13l-6.166-6.167
	c-0.848-0.846-2.219-0.846-3.063,0c-0.848,0.846-0.848,2.218,0,3.063l6.166,6.167l-3.131,0.254
	c-1.191,0.098-2.078,1.144-1.982,2.335c0.098,1.192,1.143,2.08,2.336,1.984l7.795-0.636c1.057-0.086,1.896-0.925,1.984-1.983
	l0.633-7.797C287.248-285.85,286.361-286.896,285.168-286.992z M262.273-302.185l3.131-0.254c1.191-0.098,2.078-1.143,1.982-2.336
	c-0.098-1.192-1.143-2.079-2.334-1.983l-7.799,0.636c-1.055,0.086-1.895,0.925-1.982,1.983l-0.635,7.797
	c-0.096,1.192,0.791,2.236,1.984,2.334c0.658,0.054,1.273-0.193,1.707-0.628c0.352-0.351,0.584-0.821,0.627-1.355l0.256-3.131
	l6.168,6.167c0.844,0.847,2.217,0.847,3.061,0c0.848-0.846,0.848-2.217,0.002-3.063L262.273-302.185z"/>
</svg>
