<?xml version="1.0" encoding="utf-8"?>
<!-- Generator: Adobe Illustrator 16.0.0, SVG Export Plug-In . SVG Version: 6.00 Build 0)  -->
<!DOCTYPE svg PUBLIC "-//W3C//DTD SVG 1.1//EN" "http://www.w3.org/Graphics/SVG/1.1/DTD/svg11.dtd">
<svg version="1.1" id="Layer_1" xmlns="http://www.w3.org/2000/svg" xmlns:xlink="http://www.w3.org/1999/xlink" x="0px" y="0px"
	 width="50px" height="50px" viewBox="314.5 -315.5 50 50" enable-background="new 314.5 -315.5 50 50" xml:space="preserve">
<path d="M356.295-275.101c-0.846,0.846-2.217,0.846-3.063,0l-6.168-6.168l-0.254,3.13c-0.045,0.533-0.277,1.006-0.627,1.357
	c-0.434,0.434-1.049,0.682-1.707,0.627c-1.193-0.097-2.082-1.143-1.984-2.334l0.635-7.797c0.088-1.059,0.926-1.896,1.982-1.984
	l7.797-0.635c1.191-0.095,2.238,0.791,2.334,1.985c0.098,1.191-0.791,2.236-1.982,2.334l-3.129,0.253l6.168,6.168
	C357.141-277.318,357.141-275.946,356.295-275.101z M337.313-304.847c-0.658-0.054-1.273,0.193-1.707,0.627
	c-0.352,0.351-0.582,0.822-0.627,1.355l-0.256,3.131l-6.166-6.167c-0.846-0.848-2.217-0.847-3.063-0.002
	c-0.846,0.848-0.846,2.219,0,3.064l6.166,6.167l-3.129,0.255c-1.191,0.098-2.08,1.143-1.982,2.334
	c0.096,1.193,1.141,2.08,2.334,1.984l7.797-0.634c1.055-0.086,1.895-0.927,1.982-1.985l0.635-7.797
	C339.393-303.704,338.506-304.749,337.313-304.847z M336.678-288.267l-7.797-0.636c-1.191-0.096-2.236,0.792-2.334,1.984
	c-0.055,0.659,0.193,1.273,0.627,1.707c0.352,0.35,0.826,0.583,1.357,0.628l3.131,0.253l-6.168,6.168
	c-0.846,0.846-0.846,2.217,0,3.063s2.217,0.847,3.063,0l6.168-6.166l0.254,3.128c0.098,1.192,1.143,2.08,2.334,1.983
	c1.195-0.098,2.08-1.143,1.984-2.334l-0.635-7.797C338.574-287.341,337.736-288.18,336.678-288.267z M345.109-292.732l7.797,0.635
	c1.191,0.097,2.236-0.791,2.334-1.983c0.055-0.66-0.193-1.273-0.627-1.708c-0.352-0.35-0.822-0.582-1.355-0.627l-3.131-0.255
	l6.166-6.167c0.848-0.846,0.848-2.217,0.002-3.062c-0.848-0.847-2.219-0.847-3.064,0l-6.166,6.167l-0.256-3.129
	c-0.098-1.193-1.143-2.081-2.334-1.983c-1.193,0.097-2.08,1.142-1.984,2.333l0.633,7.798
	C343.211-293.659,344.051-292.821,345.109-292.732z"/>
</svg>
