<?xml version="1.0" encoding="utf-8"?>
<!-- Generator: Adobe Illustrator 16.0.0, SVG Export Plug-In . SVG Version: 6.00 Build 0)  -->
<!DOCTYPE svg PUBLIC "-//W3C//DTD SVG 1.1//EN" "http://www.w3.org/Graphics/SVG/1.1/DTD/svg11.dtd">
<svg version="1.1" id="Layer_1" xmlns="http://www.w3.org/2000/svg" xmlns:xlink="http://www.w3.org/1999/xlink" x="0px" y="0px"
	 width="50px" height="50px" viewBox="-35.5 -245.5 50 50" enable-background="new -35.5 -245.5 50 50" xml:space="preserve">
<path d="M-20.27-205.491c-0.916,0-1.835-0.313-2.588-0.951c-1.684-1.43-1.889-3.955-0.459-5.638l7.151-8.42l-7.151-8.42
	c-1.43-1.684-1.225-4.208,0.459-5.638c1.684-1.429,4.209-1.224,5.639,0.459l9.351,11.01c1.269,1.493,1.269,3.686,0,5.179
	l-9.351,11.01C-18.01-205.97-19.137-205.491-20.27-205.491z M-4.244-206.901l9.351-11.01c1.269-1.493,1.269-3.686,0-5.179
	l-9.351-11.01c-1.43-1.684-3.954-1.888-5.639-0.459c-1.684,1.43-1.889,3.955-0.459,5.638l7.151,8.42l-7.151,8.42
	c-1.43,1.684-1.225,4.208,0.459,5.638c0.753,0.639,1.672,0.951,2.588,0.951C-6.162-205.491-5.035-205.97-4.244-206.901z"/>
</svg>
