<?xml version="1.0" encoding="utf-8"?>
<!-- Generator: Adobe Illustrator 16.0.0, SVG Export Plug-In . SVG Version: 6.00 Build 0)  -->
<!DOCTYPE svg PUBLIC "-//W3C//DTD SVG 1.1//EN" "http://www.w3.org/Graphics/SVG/1.1/DTD/svg11.dtd">
<svg version="1.1" id="Layer_1" xmlns="http://www.w3.org/2000/svg" xmlns:xlink="http://www.w3.org/1999/xlink" x="0px" y="0px"
	 width="50px" height="50px" viewBox="34.5 -245.5 50 50" enable-background="new 34.5 -245.5 50 50" xml:space="preserve">
<path d="M72.061-205.49c-1.135,0-2.26-0.479-3.051-1.411l-9.352-11.01c-1.27-1.493-1.27-3.686,0-5.179l9.352-11.01
	c1.428-1.684,3.951-1.891,5.639-0.459c1.684,1.43,1.889,3.955,0.459,5.638l-7.152,8.42l7.152,8.42
	c1.43,1.684,1.225,4.208-0.459,5.638C73.895-205.803,72.975-205.49,72.061-205.49z M61.674-206.441
	c1.684-1.43,1.889-3.955,0.459-5.638l-7.152-8.42l7.152-8.421c1.43-1.684,1.225-4.208-0.459-5.638
	c-1.688-1.431-4.209-1.224-5.639,0.459l-9.352,11.01c-1.27,1.493-1.27,3.686,0,5.179l9.352,11.009
	c0.791,0.932,1.916,1.411,3.051,1.411C60-205.49,60.92-205.803,61.674-206.441z"/>
</svg>
