<?xml version="1.0" encoding="utf-8"?>
<!-- Generator: Adobe Illustrator 16.0.0, SVG Export Plug-In . SVG Version: 6.00 Build 0)  -->
<!DOCTYPE svg PUBLIC "-//W3C//DTD SVG 1.1//EN" "http://www.w3.org/Graphics/SVG/1.1/DTD/svg11.dtd">
<svg version="1.1" id="Layer_1" xmlns="http://www.w3.org/2000/svg" xmlns:xlink="http://www.w3.org/1999/xlink" x="0px" y="0px"
	 width="50px" height="50px" viewBox="104.5 -245.5 50 50" enable-background="new 104.5 -245.5 50 50" xml:space="preserve">
<path d="M130.895-218.312c-0.922,0-1.842-0.317-2.59-0.951l-11.01-9.352c-1.684-1.43-1.889-3.955-0.459-5.638
	c1.43-1.684,3.953-1.89,5.639-0.459l8.42,7.152l8.42-7.152c1.686-1.43,4.211-1.225,5.639,0.459c1.43,1.684,1.225,4.208-0.459,5.638
	l-11.01,9.352C132.738-218.628,131.816-218.312,130.895-218.312z M133.486-206.289l11.008-9.352c1.684-1.43,1.889-3.955,0.459-5.638
	c-1.43-1.682-3.955-1.89-5.639-0.458l-8.418,7.152l-8.422-7.152c-1.686-1.431-4.209-1.225-5.639,0.459
	c-1.43,1.684-1.225,4.208,0.461,5.638l11.012,9.352c0.746,0.634,1.668,0.951,2.588,0.951
	C131.818-205.337,132.74-205.654,133.486-206.289z"/>
</svg>
