<?xml version="1.0" encoding="utf-8"?>
<!-- Generator: Adobe Illustrator 16.0.0, SVG Export Plug-In . SVG Version: 6.00 Build 0)  -->
<!DOCTYPE svg PUBLIC "-//W3C//DTD SVG 1.1//EN" "http://www.w3.org/Graphics/SVG/1.1/DTD/svg11.dtd">
<svg version="1.1" id="Layer_1" xmlns="http://www.w3.org/2000/svg" xmlns:xlink="http://www.w3.org/1999/xlink" x="0px" y="0px"
	 width="50px" height="50px" viewBox="174.5 -245.5 50 50" enable-background="new 174.5 -245.5 50 50" xml:space="preserve">
<path d="M211.902-205.337c-0.914,0-1.834-0.313-2.588-0.951l-8.42-7.152l-8.42,7.152c-1.686,1.431-4.209,1.224-5.639-0.459
	c-1.43-1.684-1.225-4.208,0.459-5.638l11.01-9.352c1.494-1.269,3.686-1.269,5.18,0l11.01,9.352c1.684,1.43,1.889,3.955,0.459,5.638
	C214.162-205.816,213.037-205.337,211.902-205.337z M214.953-219.722c1.43-1.684,1.225-4.208-0.459-5.638l-11.01-9.352
	c-1.494-1.269-3.686-1.269-5.18,0l-11.01,9.352c-1.684,1.43-1.889,3.955-0.459,5.638s3.953,1.889,5.639,0.459l8.42-7.152l8.42,7.152
	c0.754,0.639,1.674,0.951,2.588,0.951C213.037-218.312,214.162-218.791,214.953-219.722z"/>
</svg>
