<?xml version="1.0" encoding="utf-8"?>
<!-- Generator: Adobe Illustrator 16.0.0, SVG Export Plug-In . SVG Version: 6.00 Build 0)  -->
<!DOCTYPE svg PUBLIC "-//W3C//DTD SVG 1.1//EN" "http://www.w3.org/Graphics/SVG/1.1/DTD/svg11.dtd">
<svg version="1.1" id="Layer_1" xmlns="http://www.w3.org/2000/svg" xmlns:xlink="http://www.w3.org/1999/xlink" x="0px" y="0px"
	 width="50px" height="50px" viewBox="-245.5 -245.5 50 50" enable-background="new -245.5 -245.5 50 50" xml:space="preserve">
<path d="M-209.733-237.75h-21.533c-3.581,0-6.483,2.902-6.483,6.483v21.533c0,3.581,2.902,6.483,6.483,6.483h21.533
	c3.581,0,6.483-2.902,6.483-6.483v-21.533C-203.25-234.848-206.152-237.75-209.733-237.75z M-208.757-229.662
	c-0.51-0.158-1.138-0.275-1.924-0.275c-1.962,0-2.786,1.53-2.786,3.414v0.98h3.846v4.395h-3.806v14.794h-6.004v-14.794h-2.511
	v-4.395h2.511v-0.746c0-2.314,0.707-4.867,2.433-6.435c1.491-1.413,3.571-1.923,5.298-1.923c1.334,0,2.354,0.158,3.178,0.393
	L-208.757-229.662z"/>
</svg>
