<?xml version="1.0" encoding="utf-8"?>
<!-- Generator: Adobe Illustrator 16.0.0, SVG Export Plug-In . SVG Version: 6.00 Build 0)  -->
<!DOCTYPE svg PUBLIC "-//W3C//DTD SVG 1.1//EN" "http://www.w3.org/Graphics/SVG/1.1/DTD/svg11.dtd">
<svg version="1.1" id="Layer_1" xmlns="http://www.w3.org/2000/svg" xmlns:xlink="http://www.w3.org/1999/xlink" x="0px" y="0px"
	 width="50px" height="50px" viewBox="314.5 -245.5 50 50" enable-background="new 314.5 -245.5 50 50" xml:space="preserve">
<path d="M359.209-228.263v19.25c0,1.543-1.17,2.799-2.668,2.967v-18.883c0-2.206-1.793-4-4-4h-4.311v-4.059c0-1.654-1.346-3-3-3
	H331.52v-0.334c0-1.104,0.896-2,2-2h15.377c1.105,0,2,0.896,2,2v5.059h5.313C357.865-231.263,359.209-229.919,359.209-228.263z
	 M355.541-224.929v19.25c0,1.656-1.342,3-3,3h-30c-1.656,0-3-1.344-3-3v-19.25c0-1.657,1.344-3,3-3h5.313v-5.059
	c0-1.104,0.895-2,2-2h15.377c1.104,0,2,0.896,2,2v5.059h5.311C354.199-227.929,355.541-226.586,355.541-224.929z M343.23-230.987
	h-11.377v3.059h11.377V-230.987z"/>
</svg>
