<?xml version="1.0" encoding="utf-8"?>
<!-- Generator: Adobe Illustrator 16.0.0, SVG Export Plug-In . SVG Version: 6.00 Build 0)  -->
<!DOCTYPE svg PUBLIC "-//W3C//DTD SVG 1.1//EN" "http://www.w3.org/Graphics/SVG/1.1/DTD/svg11.dtd">
<svg version="1.1" id="Layer_1" xmlns="http://www.w3.org/2000/svg" xmlns:xlink="http://www.w3.org/1999/xlink" x="0px" y="0px"
	 width="50px" height="50px" viewBox="-105.5 -175.5 50 50" enable-background="new -105.5 -175.5 50 50" xml:space="preserve">
<path d="M-79.105-167.625c-9.457,0-17.125,7.667-17.125,17.125s7.668,17.125,17.125,17.125c9.459,0,17.125-7.667,17.125-17.125
	S-69.646-167.625-79.105-167.625z M-72.785-156.203c1.355,0,2.453,1.099,2.453,2.453s-1.098,2.453-2.453,2.453
	c-1.354,0-2.453-1.099-2.453-2.453S-74.139-156.203-72.785-156.203z M-85.426-156.203c1.355,0,2.453,1.099,2.453,2.453
	s-1.098,2.453-2.453,2.453c-1.354,0-2.453-1.099-2.453-2.453S-86.779-156.203-85.426-156.203z M-69.865-144.546
	c-2.098,3.046-5.552,4.865-9.24,4.865c-3.689,0-7.145-1.819-9.24-4.866c-0.47-0.682-0.297-1.616,0.386-2.086
	c0.683-0.47,1.616-0.297,2.086,0.386c1.536,2.233,4.067,3.566,6.769,3.566s5.231-1.333,6.77-3.566
	c0.469-0.681,1.403-0.855,2.086-0.385C-69.568-146.162-69.396-145.229-69.865-144.546z"/>
</svg>
