<?xml version="1.0" encoding="utf-8"?>
<!-- Generator: Adobe Illustrator 16.0.0, SVG Export Plug-In . SVG Version: 6.00 Build 0)  -->
<!DOCTYPE svg PUBLIC "-//W3C//DTD SVG 1.1//EN" "http://www.w3.org/Graphics/SVG/1.1/DTD/svg11.dtd">
<svg version="1.1" id="Layer_1" xmlns="http://www.w3.org/2000/svg" xmlns:xlink="http://www.w3.org/1999/xlink" x="0px" y="0px"
	 width="50px" height="50px" viewBox="-35.5 -175.5 50 50" enable-background="new -35.5 -175.5 50 50" xml:space="preserve">
<path d="M-9.105-167.625c-9.457,0-17.125,7.667-17.125,17.125s7.668,17.125,17.125,17.125c9.459,0,17.125-7.667,17.125-17.125
	S0.354-167.625-9.105-167.625z M-2.785-156.203c1.355,0,2.453,1.099,2.453,2.453s-1.098,2.453-2.453,2.453
	c-1.354,0-2.453-1.099-2.453-2.453S-4.139-156.203-2.785-156.203z M-15.426-156.203c1.355,0,2.453,1.099,2.453,2.453
	s-1.098,2.453-2.453,2.453c-1.354,0-2.453-1.099-2.453-2.453S-16.779-156.203-15.426-156.203z M-0.25-141.448
	c-0.683,0.47-1.615,0.296-2.086-0.386c-1.536-2.233-4.066-3.566-6.77-3.566c-2.7,0-5.23,1.333-6.768,3.566
	c-0.291,0.422-0.76,0.649-1.237,0.649c-0.293,0-0.589-0.085-0.849-0.265c-0.683-0.47-0.855-1.403-0.385-2.086
	c2.097-3.046,5.551-4.865,9.238-4.865c3.69,0,7.145,1.819,9.241,4.866C0.605-142.852,0.433-141.917-0.25-141.448z"/>
</svg>
