<?xml version="1.0" encoding="utf-8"?>
<!-- Generator: Adobe Illustrator 16.0.0, SVG Export Plug-In . SVG Version: 6.00 Build 0)  -->
<!DOCTYPE svg PUBLIC "-//W3C//DTD SVG 1.1//EN" "http://www.w3.org/Graphics/SVG/1.1/DTD/svg11.dtd">
<svg version="1.1" id="Layer_1" xmlns="http://www.w3.org/2000/svg" xmlns:xlink="http://www.w3.org/1999/xlink" x="0px" y="0px"
	 width="50px" height="50px" viewBox="34.5 -175.5 50 50" enable-background="new 34.5 -175.5 50 50" xml:space="preserve">
<path d="M60.895-167.625c-9.457,0-17.125,7.667-17.125,17.125s7.668,17.125,17.125,17.125c9.459,0,17.125-7.667,17.125-17.125
	S70.354-167.625,60.895-167.625z M54.574-156.203c1.355,0,2.453,1.099,2.453,2.453s-1.098,2.453-2.453,2.453
	c-1.354,0-2.453-1.099-2.453-2.453S53.221-156.203,54.574-156.203z M68.063-140.733H53.729c-0.828,0-1.5-0.671-1.5-1.5
	s0.672-1.5,1.5-1.5h14.334c0.828,0,1.5,0.671,1.5,1.5S68.891-140.733,68.063-140.733z M67.215-151.297
	c-1.354,0-2.453-1.099-2.453-2.453s1.1-2.453,2.453-2.453c1.355,0,2.453,1.099,2.453,2.453S68.57-151.297,67.215-151.297z"/>
</svg>
