<?xml version="1.0" encoding="utf-8"?>
<!-- Generator: Adobe Illustrator 16.0.0, SVG Export Plug-In . SVG Version: 6.00 Build 0)  -->
<!DOCTYPE svg PUBLIC "-//W3C//DTD SVG 1.1//EN" "http://www.w3.org/Graphics/SVG/1.1/DTD/svg11.dtd">
<svg version="1.1" id="Layer_1" xmlns="http://www.w3.org/2000/svg" xmlns:xlink="http://www.w3.org/1999/xlink" x="0px" y="0px"
	 width="50px" height="50px" viewBox="104.5 -175.5 50 50" enable-background="new 104.5 -175.5 50 50" xml:space="preserve">
<path d="M130.895-167.625c-9.457,0-17.125,7.667-17.125,17.125s7.668,17.125,17.125,17.125c9.459,0,17.125-7.667,17.125-17.125
	S140.354-167.625,130.895-167.625z M137.215-156.203c1.355,0,2.453,1.099,2.453,2.453s-1.098,2.453-2.453,2.453
	c-1.354,0-2.453-1.099-2.453-2.453S135.861-156.203,137.215-156.203z M124.574-156.203c1.355,0,2.453,1.099,2.453,2.453
	s-1.098,2.453-2.453,2.453c-1.354,0-2.453-1.099-2.453-2.453S123.221-156.203,124.574-156.203z M140.137-141.382
	c-2.098,3.046-5.553,4.865-9.242,4.865c-3.688,0-7.143-1.819-9.238-4.865c-0.316-0.459-0.352-1.055-0.094-1.548
	c0.26-0.493,0.771-0.802,1.328-0.802h16.01c0.559,0,1.068,0.309,1.328,0.802S140.453-141.841,140.137-141.382z"/>
</svg>
