<?xml version="1.0" encoding="utf-8"?>
<!-- Generator: Adobe Illustrator 16.0.0, SVG Export Plug-In . SVG Version: 6.00 Build 0)  -->
<!DOCTYPE svg PUBLIC "-//W3C//DTD SVG 1.1//EN" "http://www.w3.org/Graphics/SVG/1.1/DTD/svg11.dtd">
<svg version="1.1" id="Layer_1" xmlns="http://www.w3.org/2000/svg" xmlns:xlink="http://www.w3.org/1999/xlink" x="0px" y="0px"
	 width="50px" height="50px" viewBox="174.5 -175.5 50 50" enable-background="new 174.5 -175.5 50 50" xml:space="preserve">
<path d="M200.895-167.625c-9.457,0-17.125,7.667-17.125,17.125s7.668,17.125,17.125,17.125c9.459,0,17.125-7.667,17.125-17.125
	S210.354-167.625,200.895-167.625z M207.215-156.203c1.355,0,2.453,1.099,2.453,2.453s-1.098,2.453-2.453,2.453
	c-1.354,0-2.453-1.099-2.453-2.453S205.861-156.203,207.215-156.203z M194.574-156.203c1.355,0,2.453,1.099,2.453,2.453
	s-1.098,2.453-2.453,2.453c-1.354,0-2.453-1.099-2.453-2.453S193.221-156.203,194.574-156.203z M210.229-141.986
	c-0.26,0.493-0.77,0.802-1.328,0.802h-16.01c-0.557,0-1.068-0.309-1.328-0.802c-0.258-0.493-0.223-1.089,0.094-1.548
	c2.096-3.046,5.551-4.865,9.238-4.865c3.689,0,7.145,1.819,9.242,4.865C210.453-143.075,210.488-142.479,210.229-141.986z"/>
</svg>
