<?xml version="1.0" encoding="utf-8"?>
<!-- Generator: Adobe Illustrator 16.0.0, SVG Export Plug-In . SVG Version: 6.00 Build 0)  -->
<!DOCTYPE svg PUBLIC "-//W3C//DTD SVG 1.1//EN" "http://www.w3.org/Graphics/SVG/1.1/DTD/svg11.dtd">
<svg version="1.1" id="Layer_1" xmlns="http://www.w3.org/2000/svg" xmlns:xlink="http://www.w3.org/1999/xlink" x="0px" y="0px"
	 width="50px" height="50px" viewBox="244.5 -175.5 50 50" enable-background="new 244.5 -175.5 50 50" xml:space="preserve">
<path d="M286.145-159.438h-4.16v-2.875c0-1.381-1.119-2.5-2.5-2.5h-1.93c-1.381,0-2.5,1.119-2.5,2.5v2.875h-8.32v-2.875
	c0-1.381-1.119-2.5-2.5-2.5h-1.93c-1.381,0-2.5,1.119-2.5,2.5v2.875h-4.16c-1.381,0-2.5,1.119-2.5,2.5v18.25
	c0,1.381,1.119,2.5,2.5,2.5h30.5c1.381,0,2.5-1.119,2.5-2.5v-18.25C288.645-158.318,287.525-159.438,286.145-159.438z
	 M269.695-141.888c0,0.518-0.42,0.937-0.938,0.937h-11.244c-0.52,0-0.938-0.419-0.938-0.938v-1.434c0-0.41,0.268-0.772,0.656-0.895
	l3.959-1.236c-0.855-1.019-1.375-2.633-1.375-4.145c0-2.285,1.303-3.762,3.318-3.762c2.018,0,3.32,1.477,3.32,3.762
	c0,1.511-0.52,3.126-1.377,4.145l3.959,1.236c0.391,0.122,0.658,0.484,0.658,0.895V-141.888z M285.213-140.938H271.77v-1.968h13.443
	V-140.938z M285.213-144.42H271.77v-1.969h13.443V-144.42z M285.213-147.903H271.77v-1.968h13.443V-147.903z M285.213-151.386
	H271.77v-1.968h13.443V-151.386z"/>
</svg>
