<?xml version="1.0" encoding="utf-8"?>
<!-- Generator: Adobe Illustrator 16.0.0, SVG Export Plug-In . SVG Version: 6.00 Build 0)  -->
<!DOCTYPE svg PUBLIC "-//W3C//DTD SVG 1.1//EN" "http://www.w3.org/Graphics/SVG/1.1/DTD/svg11.dtd">
<svg version="1.1" id="Layer_1" xmlns="http://www.w3.org/2000/svg" xmlns:xlink="http://www.w3.org/1999/xlink" x="0px" y="0px"
	 width="50px" height="50px" viewBox="314.5 -175.5 50 50" enable-background="new 314.5 -175.5 50 50" xml:space="preserve">
<path d="M340.895-168.875c-10.146,0-18.375,8.227-18.375,18.375s8.229,18.375,18.375,18.375c10.15,0,18.375-8.227,18.375-18.375
	S351.045-168.875,340.895-168.875z M340.854-163.718l0.004-3.275h0.002c4.42,0,8.545,1.701,11.656,4.787l-4.613,4.649
	c-1.865-1.851-4.338-2.875-6.963-2.887l-0.086,0V-163.718z M324.402-150.472v-0.028c0-4.39,1.703-8.521,4.799-11.632l4.643,4.619
	c-1.865,1.875-2.893,4.366-2.893,7.013L324.402-150.472z M341.059-134.006h-0.164c-4.395,0-8.531-1.709-11.645-4.813l4.625-4.639
	c1.859,1.854,4.324,2.882,6.947,2.901l0.086,0v3.276l0.313,3.258L341.059-134.006z M340.895-142.449
	c-4.445,0-8.051-3.605-8.051-8.051c0-4.447,3.605-8.051,8.051-8.051c4.447,0,8.051,3.605,8.051,8.051
	C348.945-146.053,345.342-142.449,340.895-142.449z M352.564-138.843l-4.633-4.629c1.875-1.877,2.906-4.373,2.906-7.027l6.551-0.055
	v0.055C357.389-146.097,355.676-141.958,352.564-138.843z"/>
</svg>
