<?xml version="1.0" encoding="utf-8"?>
<!-- Generator: Adobe Illustrator 16.0.0, SVG Export Plug-In . SVG Version: 6.00 Build 0)  -->
<!DOCTYPE svg PUBLIC "-//W3C//DTD SVG 1.1//EN" "http://www.w3.org/Graphics/SVG/1.1/DTD/svg11.dtd">
<svg version="1.1" id="Layer_1" xmlns="http://www.w3.org/2000/svg" xmlns:xlink="http://www.w3.org/1999/xlink" x="0px" y="0px"
	 width="50px" height="50px" viewBox="-315.5 -105.5 50 50" enable-background="new -315.5 -105.5 50 50" xml:space="preserve">
<path d="M-296.457-94.528v30.46c0,0.476-0.226,0.924-0.608,1.207c-0.261,0.193-0.574,0.293-0.892,0.293
	c-0.147,0-0.296-0.022-0.44-0.066l-7.815-2.405c-0.629-0.193-1.059-0.775-1.059-1.434v-30.46c0-0.476,0.226-0.924,0.608-1.207
	c0.383-0.284,0.878-0.368,1.332-0.227l7.815,2.405C-296.887-95.768-296.457-95.187-296.457-94.528z M-271.997-95.961l-7.815-2.405
	c-0.455-0.141-0.949-0.057-1.332,0.227c-0.383,0.283-0.609,0.73-0.609,1.207v30.46c0,0.659,0.43,1.24,1.06,1.434l7.815,2.405
	c0.145,0.044,0.293,0.066,0.441,0.066c0.316,0,0.629-0.101,0.891-0.293c0.383-0.283,0.609-0.73,0.609-1.207v-30.46
	C-270.938-95.187-271.367-95.768-271.997-95.961z M-284.307-98.139c-0.383-0.283-0.877-0.367-1.332-0.227l-7.814,2.405
	c-0.63,0.193-1.06,0.775-1.06,1.434v30.46c0,0.476,0.226,0.924,0.608,1.207c0.262,0.193,0.574,0.293,0.892,0.293
	c0.147,0,0.296-0.022,0.44-0.066l7.816-2.405c0.629-0.193,1.059-0.775,1.059-1.434v-30.46
	C-283.697-97.409-283.924-97.856-284.307-98.139z"/>
</svg>
