<?xml version="1.0" encoding="utf-8"?>
<!-- Generator: Adobe Illustrator 16.0.0, SVG Export Plug-In . SVG Version: 6.00 Build 0)  -->
<!DOCTYPE svg PUBLIC "-//W3C//DTD SVG 1.1//EN" "http://www.w3.org/Graphics/SVG/1.1/DTD/svg11.dtd">
<svg version="1.1" id="Layer_1" xmlns="http://www.w3.org/2000/svg" xmlns:xlink="http://www.w3.org/1999/xlink" x="0px" y="0px"
	 width="50px" height="50px" viewBox="-175.5 -105.5 50 50" enable-background="new -175.5 -105.5 50 50" xml:space="preserve">
<path d="M-133.123-85.167c0,10.694-12.766,22.754-13.309,23.262c-0.289,0.269-0.656,0.404-1.025,0.404
	c-0.354,0-0.709-0.125-0.992-0.375c-0.074-0.066-0.389-0.346-0.861-0.797c2.881-2.877,12.521-13.199,12.521-22.494
	c0-7.281-5.463-13.298-12.502-14.203c0.604-0.077,1.211-0.131,1.834-0.131C-139.553-99.5-133.123-93.07-133.123-85.167z
	 M-139.457-85.167c0,10.694-12.766,22.754-13.309,23.262c-0.287,0.269-0.656,0.404-1.025,0.404c-0.354,0-0.709-0.125-0.992-0.375
	c-0.545-0.481-13.34-11.912-13.34-23.291c0-7.903,6.43-14.333,14.332-14.333C-145.887-99.5-139.457-93.07-139.457-85.167z
	 M-146.957-85.167c0-3.774-3.061-6.833-6.834-6.833s-6.832,3.06-6.832,6.833s3.059,6.833,6.832,6.833
	S-146.957-81.393-146.957-85.167z"/>
</svg>
