<?xml version="1.0" encoding="utf-8"?>
<!-- Generator: Adobe Illustrator 16.0.0, SVG Export Plug-In . SVG Version: 6.00 Build 0)  -->
<!DOCTYPE svg PUBLIC "-//W3C//DTD SVG 1.1//EN" "http://www.w3.org/Graphics/SVG/1.1/DTD/svg11.dtd">
<svg version="1.1" id="Layer_1" xmlns="http://www.w3.org/2000/svg" xmlns:xlink="http://www.w3.org/1999/xlink" x="0px" y="0px"
	 width="50px" height="50px" viewBox="-35.5 -105.5 50 50" enable-background="new -35.5 -105.5 50 50" xml:space="preserve">
<path d="M-12.016-88.278h-11.764c-0.828,0-1.5,0.671-1.5,1.5v24.028c0,0.829,0.672,1.5,1.5,1.5h11.764c0.83,0,1.5-0.671,1.5-1.5
	v-24.028C-10.516-87.607-11.186-88.278-12.016-88.278z M-18.547-64.544c0,0.597-0.484,1.082-1.082,1.082h-2.596
	c-0.598,0-1.082-0.484-1.082-1.082v-2.596c0-0.598,0.484-1.082,1.082-1.082h2.596c0.598,0,1.082,0.484,1.082,1.082V-64.544z
	 M-18.547-70.314c0,0.597-0.484,1.082-1.082,1.082h-2.596c-0.598,0-1.082-0.484-1.082-1.082v-2.597c0-0.597,0.484-1.082,1.082-1.082
	h2.596c0.598,0,1.082,0.484,1.082,1.081V-70.314z M-18.547-76.211c0,0.597-0.484,1.082-1.082,1.082h-2.596
	c-0.598,0-1.082-0.484-1.082-1.082v-2.596c0-0.598,0.484-1.082,1.082-1.082h2.596c0.598,0,1.082,0.484,1.082,1.082V-76.211z
	 M-18.547-81.98c0,0.597-0.484,1.082-1.082,1.082h-2.596c-0.598,0-1.082-0.484-1.082-1.082v-2.597c0-0.597,0.484-1.082,1.082-1.082
	h2.596c0.598,0,1.082,0.484,1.082,1.081V-81.98z M-12.488-64.544c0,0.597-0.484,1.082-1.082,1.082h-2.596
	c-0.598,0-1.082-0.484-1.082-1.082v-2.596c0-0.598,0.484-1.082,1.082-1.082h2.596c0.598,0,1.082,0.484,1.082,1.082V-64.544z
	 M-12.488-70.314c0,0.597-0.484,1.082-1.082,1.082h-2.596c-0.598,0-1.082-0.484-1.082-1.082v-2.597c0-0.597,0.484-1.081,1.082-1.081
	h2.596c0.598,0,1.082,0.484,1.082,1.082V-70.314z M-12.488-76.211c0,0.597-0.484,1.082-1.082,1.082h-2.596
	c-0.598,0-1.082-0.484-1.082-1.082v-2.596c0-0.598,0.484-1.082,1.082-1.082h2.596c0.598,0,1.082,0.484,1.082,1.082V-76.211z
	 M-12.488-81.98c0,0.597-0.484,1.082-1.082,1.082h-2.596c-0.598,0-1.082-0.484-1.082-1.082v-2.597c0-0.597,0.484-1.081,1.082-1.081
	h2.596c0.598,0,1.082,0.484,1.082,1.082V-81.98z M5.568-99.75H-6.195c-0.828,0-1.5,0.671-1.5,1.5v35.5c0,0.829,0.672,1.5,1.5,1.5
	H5.568c0.828,0,1.5-0.671,1.5-1.5v-35.5C7.068-99.079,6.396-99.75,5.568-99.75z M-0.963-64.544c0,0.597-0.484,1.082-1.082,1.082
	h-2.596c-0.598,0-1.082-0.484-1.082-1.082v-2.596c0-0.598,0.484-1.082,1.082-1.082h2.596c0.598,0,1.082,0.484,1.082,1.082V-64.544z
	 M-0.963-70.314c0,0.597-0.484,1.082-1.082,1.082h-2.596c-0.598,0-1.082-0.484-1.082-1.082v-2.597c0-0.597,0.484-1.082,1.082-1.082
	h2.596c0.598,0,1.082,0.484,1.082,1.081V-70.314z M-0.963-76.211c0,0.597-0.484,1.082-1.082,1.082h-2.596
	c-0.598,0-1.082-0.484-1.082-1.082v-2.596c0-0.598,0.484-1.082,1.082-1.082h2.596c0.598,0,1.082,0.484,1.082,1.082V-76.211z
	 M-0.963-81.98c0,0.597-0.484,1.082-1.082,1.082h-2.596c-0.598,0-1.082-0.484-1.082-1.082v-2.597c0-0.597,0.484-1.082,1.082-1.082
	h2.596c0.598,0,1.082,0.484,1.082,1.081V-81.98z M-0.963-87.961c0,0.597-0.484,1.082-1.082,1.082h-2.596
	c-0.598,0-1.082-0.484-1.082-1.082v-2.596c0-0.598,0.484-1.082,1.082-1.082h2.596c0.598,0,1.082,0.484,1.082,1.082V-87.961z
	 M-0.963-93.73c0,0.597-0.484,1.082-1.082,1.082h-2.596c-0.598,0-1.082-0.484-1.082-1.082v-2.597c0-0.597,0.484-1.082,1.082-1.082
	h2.596c0.598,0,1.082,0.484,1.082,1.081V-93.73z M5.096-64.544c0,0.597-0.484,1.082-1.082,1.082H1.418
	c-0.598,0-1.082-0.484-1.082-1.082v-2.596c0-0.598,0.484-1.082,1.082-1.082h2.596c0.598,0,1.082,0.484,1.082,1.082V-64.544z
	 M5.096-70.314c0,0.597-0.484,1.082-1.082,1.082H1.418c-0.598,0-1.082-0.484-1.082-1.082v-2.597c0-0.597,0.484-1.081,1.082-1.081
	h2.596c0.598,0,1.082,0.484,1.082,1.082V-70.314z M5.096-76.211c0,0.597-0.484,1.082-1.082,1.082H1.418
	c-0.598,0-1.082-0.484-1.082-1.082v-2.596c0-0.598,0.484-1.082,1.082-1.082h2.596c0.598,0,1.082,0.484,1.082,1.082V-76.211z
	 M5.096-81.98c0,0.597-0.484,1.082-1.082,1.082H1.418c-0.598,0-1.082-0.484-1.082-1.082v-2.597c0-0.597,0.484-1.081,1.082-1.081
	h2.596c0.598,0,1.082,0.484,1.082,1.082V-81.98z M5.096-87.961c0,0.597-0.484,1.082-1.082,1.082H1.418
	c-0.598,0-1.082-0.484-1.082-1.082v-2.596c0-0.598,0.484-1.082,1.082-1.082h2.596c0.598,0,1.082,0.484,1.082,1.082V-87.961z
	 M5.096-93.73c0,0.597-0.484,1.082-1.082,1.082H1.418c-0.598,0-1.082-0.484-1.082-1.082v-2.597c0-0.597,0.484-1.081,1.082-1.081
	h2.596c0.598,0,1.082,0.484,1.082,1.082V-93.73z"/>
</svg>
