<?xml version="1.0" encoding="utf-8"?>
<!-- Generator: Adobe Illustrator 16.0.0, SVG Export Plug-In . SVG Version: 6.00 Build 0)  -->
<!DOCTYPE svg PUBLIC "-//W3C//DTD SVG 1.1//EN" "http://www.w3.org/Graphics/SVG/1.1/DTD/svg11.dtd">
<svg version="1.1" id="Layer_1" xmlns="http://www.w3.org/2000/svg" xmlns:xlink="http://www.w3.org/1999/xlink" x="0px" y="0px"
	 width="50px" height="50px" viewBox="34.5 -105.5 50 50" enable-background="new 34.5 -105.5 50 50" xml:space="preserve">
<path d="M79.904-83.164c0,0.806-0.484,1.534-1.229,1.845l-0.771,0.323v4.429c0,0.552-0.447,1-1,1s-1-0.448-1-1v-3.593l-2.311,0.967
	v5.085c0,0.861-0.553,1.626-1.369,1.898l-10.188,3.386c-0.205,0.068-0.418,0.102-0.631,0.102c-0.193,0-0.389-0.028-0.578-0.085
	l-11.209-3.386c-0.844-0.255-1.422-1.033-1.422-1.915v-5.085l-5.084-2.126c-0.744-0.312-1.229-1.039-1.229-1.845
	c0-0.806,0.484-1.534,1.229-1.845l17.01-7.115c0.492-0.206,1.049-0.206,1.543,0l17.01,7.115
	C79.42-84.698,79.904-83.971,79.904-83.164z"/>
</svg>
