<?xml version="1.0" encoding="utf-8"?>
<!-- Generator: Adobe Illustrator 16.0.0, SVG Export Plug-In . SVG Version: 6.00 Build 0)  -->
<!DOCTYPE svg PUBLIC "-//W3C//DTD SVG 1.1//EN" "http://www.w3.org/Graphics/SVG/1.1/DTD/svg11.dtd">
<svg version="1.1" id="Layer_1" xmlns="http://www.w3.org/2000/svg" xmlns:xlink="http://www.w3.org/1999/xlink" x="0px" y="0px"
	 width="50px" height="50px" viewBox="104.5 -105.5 50 50" enable-background="new 104.5 -105.5 50 50" xml:space="preserve">
<path d="M149.246-94.586c-0.676,13.43-6.398,23.66-17.01,30.408c-0.408,0.26-0.875,0.391-1.342,0.391
	c-0.465,0-0.932-0.13-1.342-0.391c-10.609-6.748-16.332-16.978-17.008-30.408c-0.051-1.013,0.514-1.956,1.432-2.388
	c0.918-0.432,2.006-0.267,2.754,0.418c1.652,1.514,3.998,2.382,6.436,2.382c2.297,0,4.475-0.757,6.133-2.131
	c0.926-0.767,2.266-0.767,3.191,0c1.66,1.375,3.838,2.132,6.135,2.132c2.436,0,4.781-0.868,6.436-2.382
	c0.748-0.685,1.834-0.85,2.752-0.418C148.73-96.542,149.297-95.599,149.246-94.586z"/>
</svg>
