<?xml version="1.0" encoding="utf-8"?>
<!-- Generator: Adobe Illustrator 16.0.0, SVG Export Plug-In . SVG Version: 6.00 Build 0)  -->
<!DOCTYPE svg PUBLIC "-//W3C//DTD SVG 1.1//EN" "http://www.w3.org/Graphics/SVG/1.1/DTD/svg11.dtd">
<svg version="1.1" id="Layer_1" xmlns="http://www.w3.org/2000/svg" xmlns:xlink="http://www.w3.org/1999/xlink" x="0px" y="0px"
	 width="50px" height="50px" viewBox="174.5 -105.5 50 50" enable-background="new 174.5 -105.5 50 50" xml:space="preserve">
<path d="M220.127-85.5v10c0,1.381-1.119,2.5-2.5,2.5h-2.246c-0.355,0-0.709-0.076-1.033-0.224l-4.254-1.933v1.624
	c0,1.381-1.119,2.5-2.5,2.5h-23.432c-1.381,0-2.5-1.119-2.5-2.5v-13.933c0-1.381,1.119-2.5,2.5-2.5h23.432
	c1.381,0,2.5,1.119,2.5,2.5v1.624l4.254-1.933c0.324-0.148,0.678-0.224,1.033-0.224h2.246C219.008-88,220.127-86.881,220.127-85.5z"
	/>
</svg>
