<?xml version="1.0" encoding="utf-8"?>
<!-- Generator: Adobe Illustrator 16.0.0, SVG Export Plug-In . SVG Version: 6.00 Build 0)  -->
<!DOCTYPE svg PUBLIC "-//W3C//DTD SVG 1.1//EN" "http://www.w3.org/Graphics/SVG/1.1/DTD/svg11.dtd">
<svg version="1.1" id="Layer_1" xmlns="http://www.w3.org/2000/svg" xmlns:xlink="http://www.w3.org/1999/xlink" x="0px" y="0px"
	 width="50px" height="50px" viewBox="-105.5 -245.5 50 50" enable-background="new -105.5 -245.5 50 50" xml:space="preserve">
<path d="M-59.472-220.471c0,10.001-6.988,18.354-16.343,20.486v-17.468h5.053v-5.833h-5.106v-1.302c0-2.5,1.094-4.532,3.698-4.532
	c1.043,0,1.876,0.157,2.554,0.365l0.311-6.094c-1.094-0.312-2.447-0.522-4.217-0.522c-2.292,0-5.053,0.679-7.031,2.553
	c-2.293,2.084-3.23,5.469-3.23,8.541v0.99h-3.333v5.834h3.333v17.729c-10.049-1.581-17.743-10.254-17.743-20.747
	c0-11.613,9.415-21.028,21.028-21.028S-59.472-232.084-59.472-220.471z"/>
</svg>
