<?xml version="1.0" encoding="utf-8"?>
<!-- Generator: Adobe Illustrator 16.0.0, SVG Export Plug-In . SVG Version: 6.00 Build 0)  -->
<!DOCTYPE svg PUBLIC "-//W3C//DTD SVG 1.1//EN" "http://www.w3.org/Graphics/SVG/1.1/DTD/svg11.dtd">
<svg version="1.1" id="Layer_1" xmlns="http://www.w3.org/2000/svg" xmlns:xlink="http://www.w3.org/1999/xlink" x="0px" y="0px"
	 width="50px" height="50px" viewBox="314.5 -105.5 50 50" enable-background="new 314.5 -105.5 50 50" xml:space="preserve">
<path d="M358.621-82.313L351.9-67.207c-0.402,0.902-1.297,1.484-2.285,1.484h-17.441c-0.986,0-1.883-0.582-2.283-1.484
	l-6.721-15.105c-0.344-0.773-0.273-1.668,0.188-2.378s1.25-1.138,2.096-1.138h3.941l3.736-8.005c0.586-1.25,2.072-1.792,3.324-1.208
	c1.25,0.584,1.791,2.071,1.207,3.323l-2.748,5.89h11.963l-2.748-5.89c-0.584-1.251-0.043-2.739,1.209-3.323
	c1.25-0.584,2.738-0.043,3.322,1.208l3.734,8.004h3.941c0.848,0,1.637,0.428,2.098,1.138S358.965-83.086,358.621-82.313z"/>
</svg>
