<?xml version="1.0" encoding="utf-8"?>
<!-- Generator: Adobe Illustrator 16.0.0, SVG Export Plug-In . SVG Version: 6.00 Build 0)  -->
<!DOCTYPE svg PUBLIC "-//W3C//DTD SVG 1.1//EN" "http://www.w3.org/Graphics/SVG/1.1/DTD/svg11.dtd">
<svg version="1.1" id="Layer_1" xmlns="http://www.w3.org/2000/svg" xmlns:xlink="http://www.w3.org/1999/xlink" x="0px" y="0px"
	 width="50px" height="50px" viewBox="-245.5 -35.5 50 50" enable-background="new -245.5 -35.5 50 50" xml:space="preserve">
<path d="M-205.333-28.391c-0.38-0.466-0.949-0.737-1.551-0.737h-27.479c-0.602,0-1.171,0.271-1.551,0.737s-0.529,1.079-0.408,1.668
	l4.984,24.126c0,0,0,0.001,0,0.001l1.886,9.128c0.192,0.929,1.01,1.595,1.958,1.595h13.74c0.949,0,1.768-0.667,1.959-1.595
	l1.886-9.128c0,0,0-0.001,0-0.001l4.983-24.126C-204.804-27.313-204.953-27.925-205.333-28.391z M-213.497-5h-14.253l-4.158-20.128
	h22.568L-213.497-5z"/>
</svg>
