<?xml version="1.0" encoding="utf-8"?>
<!-- Generator: Adobe Illustrator 16.0.0, SVG Export Plug-In . SVG Version: 6.00 Build 0)  -->
<!DOCTYPE svg PUBLIC "-//W3C//DTD SVG 1.1//EN" "http://www.w3.org/Graphics/SVG/1.1/DTD/svg11.dtd">
<svg version="1.1" id="Layer_1" xmlns="http://www.w3.org/2000/svg" xmlns:xlink="http://www.w3.org/1999/xlink" x="0px" y="0px"
	 width="50px" height="50px" viewBox="-105.5 -35.5 50 50" enable-background="new -105.5 -35.5 50 50" xml:space="preserve">
<path d="M-65.711-19.066H-85.85c-1.104,0-2,0.896-2,2v2.499h-4.648c-1.105,0-2,0.896-2,2V2.857c0,1.104,0.895,2,2,2h4.648v2.499
	c0,1.104,0.896,2,2,2h20.139c1.104,0,2-0.896,2-2v-24.422C-63.711-18.171-64.607-19.066-65.711-19.066z M-90.498,0.857v-11.425
	h2.648V0.857H-90.498z M-84.605-23.355v-5c0-1.104,0.896-2,2-2c1.105,0,2,0.896,2,2v5c0,1.104-0.895,2-2,2
	C-83.709-21.355-84.605-22.251-84.605-23.355z M-77.605-23.355v-5c0-1.104,0.896-2,2-2c1.105,0,2,0.896,2,2v5c0,1.104-0.895,2-2,2
	C-76.709-21.355-77.605-22.251-77.605-23.355z M-70.605-23.355v-5c0-1.104,0.896-2,2-2c1.105,0,2,0.896,2,2v5c0,1.104-0.895,2-2,2
	C-69.709-21.355-70.605-22.251-70.605-23.355z"/>
</svg>
