<?xml version="1.0" encoding="utf-8"?>
<!-- Generator: Adobe Illustrator 16.0.0, SVG Export Plug-In . SVG Version: 6.00 Build 0)  -->
<!DOCTYPE svg PUBLIC "-//W3C//DTD SVG 1.1//EN" "http://www.w3.org/Graphics/SVG/1.1/DTD/svg11.dtd">
<svg version="1.1" id="Layer_1" xmlns="http://www.w3.org/2000/svg" xmlns:xlink="http://www.w3.org/1999/xlink" x="0px" y="0px"
	 width="50px" height="50px" viewBox="-35.5 -35.5 50 50" enable-background="new -35.5 -35.5 50 50" xml:space="preserve">
<path d="M-9.105,8.5c-10.477,0-19-8.523-19-19s8.523-19,19-19s19,8.523,19,19S1.371,8.5-9.105,8.5z M-9.105-24.5
	c-7.719,0-14,6.28-14,14s6.281,14,14,14c7.721,0,14-6.28,14-14S-1.385-24.5-9.105-24.5z M-5.906-10.829v2.732h-5.295v0.645
	l0.014,1.029l-0.199,1.389c-0.162,0.467-0.563,0.9-1.203,1.301v0.101L-0.9-3.704v3.075h-15.867v-3.004
	c1.24-0.152,1.861-1.222,1.861-3.205v-1.259h-2.404v-2.732h2.404v-2.86v-0.831l0.201-2.304c0.455-2.364,2.684-3.547,6.68-3.547
	c2.736,0,4.582,0.369,5.537,1.108c0.953,0.739,1.43,2.177,1.43,4.313l-0.014,0.958h-3.707l-0.014-0.415
	c0-1.172-0.182-1.931-0.551-2.274c-0.365-0.343-1.18-0.515-2.439-0.515c-1.43,0-2.357,0.198-2.783,0.593
	c-0.424,0.396-0.635,1.252-0.635,2.569v3.204H-5.906z"/>
</svg>
