<?xml version="1.0" encoding="utf-8"?>
<!-- Generator: Adobe Illustrator 16.0.0, SVG Export Plug-In . SVG Version: 6.00 Build 0)  -->
<!DOCTYPE svg PUBLIC "-//W3C//DTD SVG 1.1//EN" "http://www.w3.org/Graphics/SVG/1.1/DTD/svg11.dtd">
<svg version="1.1" id="Layer_1" xmlns="http://www.w3.org/2000/svg" xmlns:xlink="http://www.w3.org/1999/xlink" x="0px" y="0px"
	 width="50px" height="50px" viewBox="34.5 -35.5 50 50" enable-background="new 34.5 -35.5 50 50" xml:space="preserve">
<path d="M59.375-29.5c-10.477,0-19,8.523-19,19s8.523,19,19,19s19-8.523,19-19S69.852-29.5,59.375-29.5z M59.375,3.5
	c-7.719,0-14-6.28-14-14s6.281-14,14-14c7.721,0,14,6.28,14,14S67.096,3.5,59.375,3.5z M61.063-12.024l-0.678-0.025v-4.518h0.479
	c1.672,0,2.508,0.67,2.508,2.008l0.014,0.327h2.947v-0.414c0-1.774-0.42-2.986-1.262-3.639c-0.84-0.652-2.402-0.979-4.686-0.979
	v-1.756h-2.057v1.756c-2.393,0-4.031,0.342-4.912,1.022c-0.883,0.683-1.324,1.947-1.324,3.795c0,1.907,0.439,3.208,1.318,3.902
	c0.877,0.694,2.518,1.041,4.918,1.041v4.893l-0.451-0.012c-1.23,0-2.023-0.161-2.379-0.483s-0.533-1.04-0.533-2.152V-7.57h-3.049
	l-0.012,0.615c0,1.824,0.438,3.103,1.309,3.839c0.877,0.736,2.389,1.104,4.537,1.104L58.328-2v2.02h2.057V-2l0.627-0.013
	c2.158,0,3.67-0.385,4.537-1.154c0.863-0.77,1.297-2.107,1.297-4.015c0-1.772-0.396-2.993-1.191-3.657
	C64.859-11.504,63.33-11.899,61.063-12.024z M58.328-12.15c-0.285-0.016-0.436-0.024-0.451-0.024c-1.799,0-2.699-0.748-2.699-2.246
	c0-1.431,0.904-2.146,2.711-2.146l0.439-0.013V-12.15z M60.824-4.61h-0.439v-4.779c1.381,0,2.289,0.146,2.723,0.438
	c0.436,0.293,0.654,0.899,0.654,1.82C63.762-5.45,62.781-4.61,60.824-4.61z"/>
</svg>
