<?xml version="1.0" encoding="utf-8"?>
<!-- Generator: Adobe Illustrator 16.0.0, SVG Export Plug-In . SVG Version: 6.00 Build 0)  -->
<!DOCTYPE svg PUBLIC "-//W3C//DTD SVG 1.1//EN" "http://www.w3.org/Graphics/SVG/1.1/DTD/svg11.dtd">
<svg version="1.1" id="Layer_1" xmlns="http://www.w3.org/2000/svg" xmlns:xlink="http://www.w3.org/1999/xlink" x="0px" y="0px"
	 width="50px" height="50px" viewBox="104.5 -35.5 50 50" enable-background="new 104.5 -35.5 50 50" xml:space="preserve">
<path d="M130.895,8.5c-10.477,0-19-8.523-19-19s8.523-19,19-19s19,8.523,19,19S141.371,8.5,130.895,8.5z M130.895-24.5
	c-7.719,0-14,6.28-14,14s6.281,14,14,14c7.721,0,14-6.28,14-14S138.615-24.5,130.895-24.5z M139.609-7.094
	c0,2.809-0.633,4.621-1.895,5.435c-0.936,0.609-2.945,0.914-6.027,0.914c-3.594,0-5.826-0.618-6.699-1.854
	c-0.506-0.721-0.863-2.173-1.082-4.354h-1.727l0.352-2.36h1.209c-0.031-0.702-0.047-1.489-0.057-2.359h-1.504l0.352-2.359h1.209
	c0.166-2.332,0.738-3.909,1.713-4.733c1.172-0.993,3.545-1.489,7.121-1.489c2.742,0,4.568,0.408,5.477,1.223
	c0.832,0.749,1.295,2.378,1.379,4.888l0.014,0.435h-3.652v-0.491c0-1.349-0.328-2.206-0.984-2.571
	c-0.441-0.242-1.428-0.365-2.965-0.365c-2.059,0-3.32,0.276-3.775,0.829c-0.291,0.347-0.488,1.105-0.592,2.276h6.617l-0.352,2.359
	h-6.363v0.281c0,0.702,0.008,1.395,0.027,2.079h5.984l-0.352,2.36h-5.506c0.104,1.039,0.258,1.732,0.463,2.078
	c0.404,0.674,1.625,1.012,3.668,1.012c1.816,0,2.992-0.188,3.523-0.563c0.572-0.402,0.84-1.227,0.799-2.472l-0.025-0.856h3.65
	V-7.094z"/>
</svg>
