<?xml version="1.0" encoding="utf-8"?>
<!-- Generator: Adobe Illustrator 16.0.0, SVG Export Plug-In . SVG Version: 6.00 Build 0)  -->
<!DOCTYPE svg PUBLIC "-//W3C//DTD SVG 1.1//EN" "http://www.w3.org/Graphics/SVG/1.1/DTD/svg11.dtd">
<svg version="1.1" id="Layer_1" xmlns="http://www.w3.org/2000/svg" xmlns:xlink="http://www.w3.org/1999/xlink" x="0px" y="0px"
	 width="50px" height="50px" viewBox="174.5 -35.5 50 50" enable-background="new 174.5 -35.5 50 50" xml:space="preserve">
<path d="M222.229-10.5c0,7.437-4.307,13.872-10.545,16.99c4.762-3.82,7.877-10.003,7.877-16.99s-3.115-13.17-7.879-16.99
	C217.922-24.372,222.229-17.937,222.229-10.5z M217.561-10.5c0-10.477-8.523-19-19-19s-19,8.523-19,19s8.523,19,19,19
	S217.561-0.023,217.561-10.5z M212.561-10.5c0,7.72-6.279,14-14,14c-7.719,0-14-6.28-14-14s6.281-14,14-14
	C206.281-24.5,212.561-18.22,212.561-10.5z M196.465-10.829v-3.204c0-1.317,0.211-2.173,0.635-2.569
	c0.426-0.395,1.354-0.593,2.783-0.593c1.26,0,2.074,0.172,2.439,0.515c0.369,0.344,0.551,1.103,0.551,2.274l0.014,0.415h3.707
	l0.014-0.958c0-2.137-0.477-3.574-1.43-4.313c-0.955-0.739-2.801-1.108-5.537-1.108c-3.996,0-6.225,1.183-6.68,3.547l-0.201,2.304
	v0.831v2.86h-2.404v2.732h2.404v1.259c0,1.983-0.621,3.053-1.861,3.205v3.004h15.867v-3.075l-11.689,0.071v-0.101
	c0.641-0.4,1.041-0.834,1.203-1.301l0.199-1.389l-0.014-1.029v-0.645h5.295v-2.732H196.465z"/>
</svg>
