<?xml version="1.0" encoding="utf-8"?>
<!-- Generator: Adobe Illustrator 16.0.0, SVG Export Plug-In . SVG Version: 6.00 Build 0)  -->
<!DOCTYPE svg PUBLIC "-//W3C//DTD SVG 1.1//EN" "http://www.w3.org/Graphics/SVG/1.1/DTD/svg11.dtd">
<svg version="1.1" id="Layer_1" xmlns="http://www.w3.org/2000/svg" xmlns:xlink="http://www.w3.org/1999/xlink" x="0px" y="0px"
	 width="50px" height="50px" viewBox="244.5 -35.5 50 50" enable-background="new 244.5 -35.5 50 50" xml:space="preserve">
<path d="M292.061-10.5c0,7.437-4.305,13.872-10.545,16.99c4.764-3.82,7.879-10.003,7.879-16.99s-3.115-13.17-7.879-16.99
	C287.756-24.372,292.061-17.937,292.061-10.5z M287.729-10.5c0-10.477-8.523-19-19-19s-19,8.523-19,19s8.523,19,19,19
	S287.729-0.023,287.729-10.5z M282.729-10.5c0,7.72-6.281,14-14,14c-7.721,0-14-6.28-14-14s6.279-14,14-14
	C276.447-24.5,282.729-18.22,282.729-10.5z M270.215-16.567c1.674,0,2.51,0.67,2.51,2.008l0.012,0.327h2.949v-0.414
	c0-1.774-0.42-2.986-1.262-3.639c-0.84-0.652-2.402-0.979-4.688-0.979v-1.756h-2.057v1.756c-2.391,0-4.029,0.342-4.912,1.022
	c-0.881,0.683-1.324,1.947-1.324,3.795c0,1.907,0.439,3.208,1.318,3.902c0.879,0.694,2.518,1.041,4.918,1.041v4.893l-0.451-0.012
	c-1.23,0-2.021-0.161-2.379-0.483c-0.355-0.322-0.531-1.04-0.531-2.152V-7.57h-3.049l-0.012,0.615c0,1.824,0.436,3.103,1.309,3.839
	c0.875,0.736,2.387,1.104,4.537,1.104L267.68-2v2.02h2.057V-2l0.629-0.013c2.158,0,3.67-0.385,4.537-1.154
	c0.863-0.77,1.297-2.107,1.297-4.015c0-1.772-0.398-2.993-1.191-3.657c-0.795-0.666-2.326-1.061-4.592-1.186l-0.68-0.025v-4.518
	H270.215z M267.68-12.15c-0.283-0.016-0.434-0.024-0.451-0.024c-1.799,0-2.697-0.748-2.697-2.246c0-1.431,0.904-2.146,2.709-2.146
	l0.439-0.013V-12.15z M269.736-9.389c1.383,0,2.289,0.146,2.725,0.438c0.436,0.293,0.652,0.899,0.652,1.82
	c0,1.681-0.98,2.521-2.938,2.521h-0.439V-9.389z"/>
</svg>
