<?xml version="1.0" encoding="utf-8"?>
<!-- Generator: Adobe Illustrator 16.0.0, SVG Export Plug-In . SVG Version: 6.00 Build 0)  -->
<!DOCTYPE svg PUBLIC "-//W3C//DTD SVG 1.1//EN" "http://www.w3.org/Graphics/SVG/1.1/DTD/svg11.dtd">
<svg version="1.1" id="Layer_1" xmlns="http://www.w3.org/2000/svg" xmlns:xlink="http://www.w3.org/1999/xlink" x="0px" y="0px"
	 width="50px" height="50px" viewBox="-35.5 -245.5 50 50" enable-background="new -35.5 -245.5 50 50" xml:space="preserve">
<path d="M0.833-227.872v-3.961h-22.667v22.666l22.667,0v-9.212l5-5.108v16.82c0,0.663-0.263,1.299-0.732,1.768
	c-0.469,0.469-1.104,0.732-1.768,0.732l-27.667,0c-1.381,0-2.5-1.119-2.5-2.5v-27.666c0-1.381,1.119-2.5,2.5-2.5H3.333
	c1.381,0,2.5,1.119,2.5,2.5v1.353l2.547-2.602c0.966-0.986,2.549-1.003,3.536-0.038c0.986,0.966,1.003,2.549,0.038,3.536
	l-19.839,20.268c-0.467,0.477-1.105,0.748-1.773,0.751c-0.004,0-0.009,0-0.013,0c-0.663,0-1.299-0.263-1.768-0.732l-8.19-8.192
	c-0.976-0.977-0.976-2.56,0-3.536c0.976-0.976,2.559-0.977,3.536,0l6.404,6.405L0.833-227.872z"/>
</svg>
