<?xml version="1.0" encoding="utf-8"?>
<!-- Generator: Adobe Illustrator 16.0.0, SVG Export Plug-In . SVG Version: 6.00 Build 0)  -->
<!DOCTYPE svg PUBLIC "-//W3C//DTD SVG 1.1//EN" "http://www.w3.org/Graphics/SVG/1.1/DTD/svg11.dtd">
<svg version="1.1" id="Layer_1" xmlns="http://www.w3.org/2000/svg" xmlns:xlink="http://www.w3.org/1999/xlink" x="0px" y="0px"
	 width="50px" height="50px" viewBox="314.5 -35.5 50 50" enable-background="new 314.5 -35.5 50 50" xml:space="preserve">
<path d="M362.395-10.5c0,7.437-4.305,13.872-10.545,16.99c4.764-3.82,7.879-10.003,7.879-16.99s-3.115-13.17-7.879-16.99
	C358.09-24.372,362.395-17.937,362.395-10.5z M357.395-10.5c0-10.477-8.523-19-19-19s-19,8.523-19,19s8.523,19,19,19
	S357.395-0.023,357.395-10.5z M352.395-10.5c0,7.72-6.279,14-14,14c-7.719,0-14-6.28-14-14s6.281-14,14-14
	C346.115-24.5,352.395-18.22,352.395-10.5z M347.109-7.754h-3.65l0.025,0.856c0.041,1.245-0.227,2.069-0.799,2.472
	c-0.531,0.375-1.707,0.563-3.523,0.563c-2.043,0-3.264-0.337-3.668-1.012c-0.205-0.346-0.359-1.039-0.463-2.078h5.506l0.352-2.36
	h-5.984c-0.02-0.684-0.027-1.376-0.027-2.079v-0.281h6.363l0.352-2.359h-6.617c0.104-1.171,0.301-1.929,0.592-2.276
	c0.455-0.552,1.717-0.829,3.775-0.829c1.537,0,2.523,0.123,2.965,0.365c0.656,0.366,0.984,1.223,0.984,2.571v0.491h3.652
	l-0.014-0.435c-0.084-2.509-0.547-4.139-1.379-4.888c-0.908-0.815-2.734-1.223-5.477-1.223c-3.576,0-5.949,0.496-7.121,1.489
	c-0.975,0.824-1.547,2.401-1.713,4.733h-1.209l-0.352,2.359h1.504c0.01,0.871,0.025,1.657,0.057,2.359h-1.209l-0.352,2.36h1.727
	c0.219,2.181,0.576,3.633,1.082,4.354c0.873,1.236,3.105,1.854,6.699,1.854c3.082,0,5.092-0.305,6.027-0.914
	c1.262-0.814,1.895-2.626,1.895-5.435V-7.754z"/>
</svg>
