<?xml version="1.0" encoding="utf-8"?>
<!-- Generator: Adobe Illustrator 16.0.0, SVG Export Plug-In . SVG Version: 6.00 Build 0)  -->
<!DOCTYPE svg PUBLIC "-//W3C//DTD SVG 1.1//EN" "http://www.w3.org/Graphics/SVG/1.1/DTD/svg11.dtd">
<svg version="1.1" id="Layer_1" xmlns="http://www.w3.org/2000/svg" xmlns:xlink="http://www.w3.org/1999/xlink" x="0px" y="0px"
	 width="50px" height="50px" viewBox="-315.5 34.5 50 50" enable-background="new -315.5 34.5 50 50" xml:space="preserve">
<path d="M-272.108,72.325c0,0.2-0.029,0.392-0.073,0.578c-0.063,0.479-0.205,0.941-0.443,1.369
	c-1.383,2.481-5.314,2.928-8.777,0.996c-3.465-1.931-5.149-5.51-3.766-7.991c1.289-2.312,4.787-2.854,8.06-1.356v-8.874
	l-15.47-3.907v14.167c0,0.054-0.012,0.104-0.016,0.156c0.021,0.721-0.133,1.416-0.48,2.041c-1.383,2.481-5.314,2.928-8.777,0.996
	c-3.465-1.931-5.15-5.51-3.766-7.991c1.286-2.307,4.772-2.851,8.039-1.364V45.031c0-0.768,0.354-1.493,0.957-1.967
	s1.393-0.647,2.139-0.461l20.469,5.019c1.119,0.273,1.905,1.276,1.905,2.428V72.325z"/>
</svg>
