<?xml version="1.0" encoding="utf-8"?>
<!-- Generator: Adobe Illustrator 16.0.0, SVG Export Plug-In . SVG Version: 6.00 Build 0)  -->
<!DOCTYPE svg PUBLIC "-//W3C//DTD SVG 1.1//EN" "http://www.w3.org/Graphics/SVG/1.1/DTD/svg11.dtd">
<svg version="1.1" id="Layer_1" xmlns="http://www.w3.org/2000/svg" xmlns:xlink="http://www.w3.org/1999/xlink" x="0px" y="0px"
	 width="50px" height="50px" viewBox="-245.5 34.5 50 50" enable-background="new -245.5 34.5 50 50" xml:space="preserve">
<path d="M-210.92,73.209c0,0.165-0.023,0.322-0.061,0.477c-0.052,0.395-0.168,0.775-0.365,1.128
	c-1.139,2.045-4.378,2.412-7.231,0.82c-2.854-1.591-4.243-4.539-3.103-6.584c1.063-1.904,3.943-2.352,6.641-1.118V60.62
	l-12.746-3.22v11.674c0,0.044-0.011,0.085-0.014,0.128c0.018,0.595-0.109,1.167-0.396,1.683c-1.139,2.044-4.379,2.412-7.232,0.82
	c-2.854-1.591-4.243-4.54-3.103-6.585c1.061-1.9,3.933-2.349,6.625-1.124V50.72c0-0.633,0.291-1.23,0.788-1.621
	c0.498-0.39,1.148-0.533,1.762-0.38l16.867,4.136c0.921,0.226,1.568,1.052,1.568,2V73.209z M-216.146,51.118l12.746,3.219v7.313
	c-2.697-1.233-5.579-0.787-6.641,1.117c-1.141,2.045,0.248,4.994,3.103,6.585c2.854,1.592,6.093,1.224,7.231-0.821
	c0.197-0.352,0.313-0.733,0.365-1.128c0.037-0.153,0.061-0.312,0.061-0.477V48.572c0-0.949-0.647-1.775-1.568-2.001l-16.867-4.135
	c-0.613-0.154-1.264-0.011-1.762,0.38c-0.497,0.39-0.788,0.988-0.788,1.62v5.434L-216.146,51.118z"/>
</svg>
