<?xml version="1.0" encoding="utf-8"?>
<!-- Generator: Adobe Illustrator 16.0.0, SVG Export Plug-In . SVG Version: 6.00 Build 0)  -->
<!DOCTYPE svg PUBLIC "-//W3C//DTD SVG 1.1//EN" "http://www.w3.org/Graphics/SVG/1.1/DTD/svg11.dtd">
<svg version="1.1" id="Layer_1" xmlns="http://www.w3.org/2000/svg" xmlns:xlink="http://www.w3.org/1999/xlink" x="0px" y="0px"
	 width="50px" height="50px" viewBox="-175.5 34.5 50 50" enable-background="new -175.5 34.5 50 50" xml:space="preserve">
<path d="M-148.545,66.707c0,0.113-0.016,0.22-0.041,0.326c-0.035,0.269-0.115,0.526-0.249,0.769
	c-0.776,1.395-2.985,1.645-4.933,0.56c-1.946-1.086-2.893-3.096-2.115-4.49c0.725-1.299,2.689-1.604,4.529-0.764v-4.986
	l-8.693-2.196v7.963c0,0.029-0.008,0.058-0.008,0.087c0.01,0.405-0.075,0.796-0.271,1.146c-0.777,1.395-2.986,1.646-4.933,0.56
	c-1.946-1.084-2.895-3.095-2.116-4.49c0.723-1.297,2.682-1.603,4.52-0.767v-9.055c0-0.433,0.197-0.839,0.537-1.105
	c0.339-0.265,0.782-0.362,1.201-0.261l11.502,2.821c0.629,0.153,1.07,0.719,1.07,1.364V66.707z M-130.563,55.666
	c0-0.939-0.762-1.701-1.701-1.701h-12.191c-0.939,0-1.701,0.762-1.701,1.701c0,0.938,0.762,1.701,1.701,1.701h12.191
	C-131.324,57.367-130.563,56.604-130.563,55.666z M-130.563,61.053c0-0.939-0.762-1.701-1.701-1.701h-12.191
	c-0.939,0-1.701,0.762-1.701,1.701c0,0.938,0.762,1.701,1.701,1.701h12.191C-131.324,62.754-130.563,61.991-130.563,61.053z
	 M-130.563,66.439c0-0.939-0.762-1.701-1.701-1.701h-12.191c-0.939,0-1.701,0.762-1.701,1.701c0,0.938,0.762,1.701,1.701,1.701
	h12.191C-131.324,68.141-130.563,67.378-130.563,66.439z"/>
</svg>
