<?xml version="1.0" encoding="utf-8"?>
<!-- Generator: Adobe Illustrator 16.0.0, SVG Export Plug-In . SVG Version: 6.00 Build 0)  -->
<!DOCTYPE svg PUBLIC "-//W3C//DTD SVG 1.1//EN" "http://www.w3.org/Graphics/SVG/1.1/DTD/svg11.dtd">
<svg version="1.1" id="Layer_1" xmlns="http://www.w3.org/2000/svg" xmlns:xlink="http://www.w3.org/1999/xlink" x="0px" y="0px"
	 width="50px" height="50px" viewBox="-105.5 34.5 50 50" enable-background="new -105.5 34.5 50 50" xml:space="preserve">
<path d="M-79.105,40.5c-10.477,0-19,8.523-19,19s8.523,19,19,19s19-8.523,19-19S-68.629,40.5-79.105,40.5z M-79.105,73.5
	c-7.719,0-14-6.28-14-14s6.281-14,14-14c7.721,0,14,6.28,14,14S-71.385,73.5-79.105,73.5z M-79.105,52.813
	c-3.687,0-6.687,3-6.687,6.688s3,6.688,6.687,6.688c3.688,0,6.688-3,6.688-6.688S-75.418,52.813-79.105,52.813z M-79.105,62.188
	c-1.48,0-2.687-1.206-2.687-2.688s1.206-2.688,2.687-2.688c1.482,0,2.688,1.206,2.688,2.688S-77.623,62.188-79.105,62.188z"/>
</svg>
