<?xml version="1.0" encoding="utf-8"?>
<!-- Generator: Adobe Illustrator 16.0.0, SVG Export Plug-In . SVG Version: 6.00 Build 0)  -->
<!DOCTYPE svg PUBLIC "-//W3C//DTD SVG 1.1//EN" "http://www.w3.org/Graphics/SVG/1.1/DTD/svg11.dtd">
<svg version="1.1" id="Layer_1" xmlns="http://www.w3.org/2000/svg" xmlns:xlink="http://www.w3.org/1999/xlink" x="0px" y="0px"
	 width="50px" height="50px" viewBox="-35.5 34.5 50 50" enable-background="new -35.5 34.5 50 50" xml:space="preserve">
<path d="M-11.605,40.5c-10.477,0-19,8.523-19,19s8.523,19,19,19s19-8.523,19-19S-1.129,40.5-11.605,40.5z M-11.605,73.5
	c-7.719,0-14-6.28-14-14s6.281-14,14-14c7.721,0,14,6.28,14,14S-3.885,73.5-11.605,73.5z M-11.605,52.813
	c-3.686,0-6.686,3-6.686,6.688s3,6.688,6.686,6.688c3.688,0,6.688-3,6.688-6.688S-7.918,52.813-11.605,52.813z M-11.605,62.188
	c-1.48,0-2.686-1.206-2.686-2.688s1.205-2.688,2.686-2.688c1.482,0,2.688,1.206,2.688,2.688S-10.123,62.188-11.605,62.188z
	 M12.395,59.5c0,7.437-4.307,13.872-10.545,16.99c4.762-3.819,7.877-10.003,7.877-16.99S6.611,46.329,1.848,42.51
	C8.088,45.628,12.395,52.063,12.395,59.5z"/>
</svg>
