<?xml version="1.0" encoding="utf-8"?>
<!-- Generator: Adobe Illustrator 16.0.0, SVG Export Plug-In . SVG Version: 6.00 Build 0)  -->
<!DOCTYPE svg PUBLIC "-//W3C//DTD SVG 1.1//EN" "http://www.w3.org/Graphics/SVG/1.1/DTD/svg11.dtd">
<svg version="1.1" id="Layer_1" xmlns="http://www.w3.org/2000/svg" xmlns:xlink="http://www.w3.org/1999/xlink" x="0px" y="0px"
	 width="50px" height="50px" viewBox="34.5 34.5 50 50" enable-background="new 34.5 34.5 50 50" xml:space="preserve">
<path d="M67.592,45.734h-0.5v-3.879c0-1.381-1.119-2.5-2.5-2.5h-7.395c-1.381,0-2.5,1.119-2.5,2.5v3.879h-0.5
	c-1.381,0-2.5,1.119-2.5,2.5v28.91c0,1.381,1.119,2.5,2.5,2.5h13.395c1.381,0,2.5-1.119,2.5-2.5v-28.91
	C70.092,46.854,68.973,45.734,67.592,45.734z M60.063,44.355h-2.334v-2.334h2.334V44.355z M64.063,44.355h-2.334v-2.334h2.334
	V44.355z"/>
</svg>
