<?xml version="1.0" encoding="utf-8"?>
<!-- Generator: Adobe Illustrator 16.0.0, SVG Export Plug-In . SVG Version: 6.00 Build 0)  -->
<!DOCTYPE svg PUBLIC "-//W3C//DTD SVG 1.1//EN" "http://www.w3.org/Graphics/SVG/1.1/DTD/svg11.dtd">
<svg version="1.1" id="Layer_1" xmlns="http://www.w3.org/2000/svg" xmlns:xlink="http://www.w3.org/1999/xlink" x="0px" y="0px"
	 width="50px" height="50px" viewBox="104.5 34.5 50 50" enable-background="new 104.5 34.5 50 50" xml:space="preserve">
<path d="M147.836,55.585v17.704c0,1.62-1.313,2.933-2.932,2.933h-20.902c-1.047,0-2.016-0.559-2.539-1.467l-7.117-12.326
	c-0.809-1.402-0.328-3.197,1.074-4.007c1.4-0.809,3.195-0.33,4.006,1.073l3.482,6.031V45.711c0-1.62,1.313-2.933,2.932-2.933
	c1.621,0,2.934,1.313,2.934,2.933V58.03h0.439V55.39c0-1.62,1.313-2.933,2.934-2.933c1.619,0,2.932,1.313,2.932,2.933v2.641h0.441
	V55.39c0-1.62,1.313-2.933,2.932-2.933c1.621,0,2.934,1.313,2.934,2.933v2.641h0.586v-2.445c0-1.619,1.313-2.933,2.934-2.933
	C146.523,52.652,147.836,53.966,147.836,55.585z"/>
</svg>
