<?xml version="1.0" encoding="utf-8"?>
<!-- Generator: Adobe Illustrator 16.0.0, SVG Export Plug-In . SVG Version: 6.00 Build 0)  -->
<!DOCTYPE svg PUBLIC "-//W3C//DTD SVG 1.1//EN" "http://www.w3.org/Graphics/SVG/1.1/DTD/svg11.dtd">
<svg version="1.1" id="Layer_1" xmlns="http://www.w3.org/2000/svg" xmlns:xlink="http://www.w3.org/1999/xlink" x="0px" y="0px"
	 width="50px" height="50px" viewBox="174.5 34.5 50 50" enable-background="new 174.5 34.5 50 50" xml:space="preserve">
<path d="M204.811,76.441h-17.705c-1.619,0-2.932-1.313-2.932-2.933V52.607c0-1.048,0.559-2.016,1.467-2.539l12.326-7.117
	c1.402-0.81,3.197-0.329,4.006,1.073c0.809,1.4,0.33,3.196-1.072,4.007l-6.031,3.481h19.814c1.621,0,2.934,1.313,2.934,2.933
	s-1.313,2.933-2.934,2.933h-12.318v0.44h2.641c1.619,0,2.932,1.313,2.932,2.933s-1.313,2.933-2.932,2.933h-2.641v0.44h2.641
	c1.619,0,2.932,1.313,2.932,2.933s-1.313,2.933-2.932,2.933h-2.641v0.587h2.445c1.619,0,2.932,1.313,2.932,2.933
	S206.43,76.441,204.811,76.441z"/>
</svg>
