<?xml version="1.0" encoding="utf-8"?>
<!-- Generator: Adobe Illustrator 16.0.0, SVG Export Plug-In . SVG Version: 6.00 Build 0)  -->
<!DOCTYPE svg PUBLIC "-//W3C//DTD SVG 1.1//EN" "http://www.w3.org/Graphics/SVG/1.1/DTD/svg11.dtd">
<svg version="1.1" id="Layer_1" xmlns="http://www.w3.org/2000/svg" xmlns:xlink="http://www.w3.org/1999/xlink" x="0px" y="0px"
	 width="50px" height="50px" viewBox="244.5 34.5 50 50" enable-background="new 244.5 34.5 50 50" xml:space="preserve">
<path d="M264.047,73.509c0-1.62,1.314-2.933,2.934-2.933h2.445v-0.587h-2.641c-1.621,0-2.934-1.313-2.934-2.933
	s1.313-2.933,2.934-2.933h2.641v-0.44h-2.641c-1.621,0-2.934-1.313-2.934-2.933s1.313-2.933,2.934-2.933h2.641v-0.44h-12.32
	c-1.619,0-2.932-1.313-2.932-2.933s1.313-2.933,2.932-2.933h19.816l-6.031-3.481c-1.404-0.811-1.883-2.606-1.074-4.007
	c0.811-1.402,2.605-1.883,4.008-1.073l12.326,7.117c0.908,0.523,1.467,1.491,1.467,2.539v20.901c0,1.62-1.313,2.933-2.934,2.933
	H266.98C265.361,76.441,264.047,75.129,264.047,73.509z"/>
</svg>
