<?xml version="1.0" encoding="utf-8"?>
<!-- Generator: Adobe Illustrator 16.0.0, SVG Export Plug-In . SVG Version: 6.00 Build 0)  -->
<!DOCTYPE svg PUBLIC "-//W3C//DTD SVG 1.1//EN" "http://www.w3.org/Graphics/SVG/1.1/DTD/svg11.dtd">
<svg version="1.1" id="Layer_1" xmlns="http://www.w3.org/2000/svg" xmlns:xlink="http://www.w3.org/1999/xlink" x="0px" y="0px"
	 width="50px" height="50px" viewBox="34.5 -245.5 50 50" enable-background="new 34.5 -245.5 50 50" xml:space="preserve">
<path d="M63.708-236.505c-4.212,0-8.044,1.204-10.944,3.161c-7.808,0.909-13.806,5.938-13.806,12.006
	c0,4.966,4.02,9.24,9.759,11.129l2.438,5.714l3.787-4.689c0.117,0.002,0.231,0.014,0.35,0.014c3.499,0,6.736-0.831,9.396-2.231
	l3.156,3.907l2.438-5.714c5.739-1.889,9.759-6.163,9.759-11.129C80.042-231.047,72.715-236.505,63.708-236.505z M70.905-217.766
	c-1.76,0.856-3.852,1.418-6.102,1.557c-0.361,0.022-0.727,0.038-1.096,0.038c-6.686,0-12.334-3.74-12.334-8.167
	c0-1.923,1.068-3.716,2.822-5.129c1.936-1.561,4.713-2.65,7.817-2.948c0.557-0.053,1.119-0.09,1.694-0.09
	c6.686,0,12.334,3.74,12.334,8.167C76.042-221.675,73.989-219.267,70.905-217.766z"/>
</svg>
