<?xml version="1.0" encoding="utf-8"?>
<!-- Generator: Adobe Illustrator 16.0.0, SVG Export Plug-In . SVG Version: 6.00 Build 0)  -->
<!DOCTYPE svg PUBLIC "-//W3C//DTD SVG 1.1//EN" "http://www.w3.org/Graphics/SVG/1.1/DTD/svg11.dtd">
<svg version="1.1" id="Layer_1" xmlns="http://www.w3.org/2000/svg" xmlns:xlink="http://www.w3.org/1999/xlink" x="0px" y="0px"
	 width="50px" height="50px" viewBox="314.5 34.5 50 50" enable-background="new 314.5 34.5 50 50" xml:space="preserve">
<path d="M353.385,66.348c-1.621,0-2.934-1.313-2.934-2.933V60.97h-0.586v2.641c0,1.62-1.313,2.933-2.934,2.933
	c-1.619,0-2.932-1.313-2.932-2.933V60.97h-0.441v2.641c0,1.62-1.313,2.933-2.932,2.933c-1.621,0-2.934-1.313-2.934-2.933V60.97
	h-0.439v12.319c0,1.62-1.313,2.933-2.934,2.933c-1.619,0-2.932-1.313-2.932-2.933V53.474l-3.482,6.031
	c-0.811,1.403-2.605,1.882-4.006,1.073c-1.402-0.81-1.883-2.604-1.074-4.007l7.117-12.326c0.523-0.908,1.492-1.467,2.539-1.467
	h20.902c1.619,0,2.932,1.313,2.932,2.933v17.704C356.316,65.034,355.004,66.348,353.385,66.348z"/>
</svg>
