<?xml version="1.0" encoding="utf-8"?>
<!-- Generator: Adobe Illustrator 16.0.0, SVG Export Plug-In . SVG Version: 6.00 Build 0)  -->
<!DOCTYPE svg PUBLIC "-//W3C//DTD SVG 1.1//EN" "http://www.w3.org/Graphics/SVG/1.1/DTD/svg11.dtd">
<svg version="1.1" id="Layer_1" xmlns="http://www.w3.org/2000/svg" xmlns:xlink="http://www.w3.org/1999/xlink" x="0px" y="0px"
	 width="50px" height="50px" viewBox="-245.5 104.5 50 50" enable-background="new -245.5 104.5 50 50" xml:space="preserve">
<path d="M-227.804,124.226c-0.157,0.204-0.257,0.364-0.305,0.478c-0.241,0.571-0.187,1.157,0.163,1.76
	c0.353,0.604,0.639,1.036,0.863,1.301c0.348,0.451,0.779,0.867,1.29,1.252l8.443,6.652c0.565,0.408,1.079,0.71,1.536,0.904
	c0.084,0.034,0.277,0.102,0.571,0.192c0.299,0.091,0.744,0.23,1.341,0.414c0.596,0.188,1.152-0.1,1.672-0.854l9.32,7.327
	c-0.579,0.494-1.278,0.855-2.096,1.08c-0.819,0.227-1.867,0.371-3.141,0.438s-2.422,0.043-3.452-0.075
	c-1.028-0.114-1.999-0.364-2.912-0.752c-1.941-0.821-3.897-1.769-5.866-2.835c-1.973-1.07-3.879-2.331-5.721-3.786
	c-2.557-1.989-4.666-3.926-6.326-5.809c-1.662-1.879-2.85-3.645-3.565-5.294c-1.749-4.142-2.128-7.381-1.138-9.721L-227.804,124.226
	z M-210.197,133.797c0.292-0.446,0.736-0.545,1.34-0.289c0.285,0.121,0.502,0.241,0.656,0.362l6.767,5.261
	c0.618,0.432,0.911,0.76,0.885,0.987c-0.029,0.226-0.136,0.557-0.319,0.988l-1.264,1.56l-9.32-7.329L-210.197,133.797z
	 M-234.906,114.048c0.151-0.203,0.354-0.285,0.604-0.246c0.111-0.02,0.263,0.012,0.466,0.098c0.226,0.096,0.375,0.182,0.441,0.254
	l7.254,5.645c0.346,0.313,0.557,0.611,0.636,0.897c0.085,0.286,0.033,0.524-0.15,0.713l-1.228,1.591l-9.391-7.266L-234.906,114.048z
	"/>
</svg>
