<?xml version="1.0" encoding="utf-8"?>
<!-- Generator: Adobe Illustrator 16.0.0, SVG Export Plug-In . SVG Version: 6.00 Build 0)  -->
<!DOCTYPE svg PUBLIC "-//W3C//DTD SVG 1.1//EN" "http://www.w3.org/Graphics/SVG/1.1/DTD/svg11.dtd">
<svg version="1.1" id="Layer_1" xmlns="http://www.w3.org/2000/svg" xmlns:xlink="http://www.w3.org/1999/xlink" x="0px" y="0px"
	 width="50px" height="50px" viewBox="-175.5 104.5 50 50" enable-background="new -175.5 104.5 50 50" xml:space="preserve">
<path d="M-152.416,120.9c0-1.107,0.898-2.005,2.005-2.005h8.072l-1.882-2.216c-0.717-0.844-0.613-2.108,0.23-2.826
	c0.845-0.716,2.109-0.613,2.826,0.23l4.687,5.519c0.636,0.748,0.636,1.848,0,2.596l-4.687,5.519
	c-0.396,0.467-0.961,0.707-1.529,0.707c-0.459,0-0.92-0.156-1.297-0.477c-0.844-0.718-0.947-1.982-0.23-2.826l1.882-2.216h-8.072
	C-151.518,122.905-152.416,122.008-152.416,120.9z M-155.655,121.822c0.184-0.188,0.235-0.427,0.15-0.713
	c-0.079-0.286-0.29-0.585-0.636-0.897l-7.254-5.645c-0.066-0.072-0.216-0.158-0.441-0.254c-0.203-0.086-0.354-0.117-0.466-0.098
	c-0.251-0.039-0.453,0.043-0.604,0.246l-1.367,1.686l9.391,7.266L-155.655,121.822z M-143.9,137.593
	c-0.597-0.184-1.042-0.323-1.341-0.414c-0.294-0.091-0.487-0.158-0.571-0.192c-0.457-0.194-0.971-0.496-1.536-0.904l-8.443-6.652
	c-0.511-0.385-0.942-0.801-1.29-1.252c-0.225-0.265-0.511-0.696-0.863-1.301c-0.35-0.603-0.404-1.188-0.163-1.76
	c0.048-0.113,0.147-0.273,0.305-0.478l-9.321-7.326c-0.99,2.34-0.611,5.579,1.138,9.721c0.716,1.649,1.903,3.415,3.565,5.294
	c1.66,1.883,3.77,3.819,6.326,5.809c1.842,1.455,3.748,2.716,5.721,3.786c1.969,1.066,3.925,2.014,5.866,2.835
	c0.913,0.388,1.884,0.638,2.912,0.752c1.03,0.118,2.179,0.143,3.452,0.075s2.321-0.212,3.141-0.438
	c0.817-0.225,1.517-0.586,2.096-1.08l-9.32-7.327C-142.748,137.493-143.305,137.78-143.9,137.593z M-131.435,139.545l-6.767-5.261
	c-0.154-0.121-0.371-0.241-0.656-0.362c-0.604-0.256-1.048-0.157-1.34,0.289l-1.256,1.54l9.32,7.329l1.264-1.56
	c0.184-0.432,0.29-0.763,0.319-0.988C-130.523,140.305-130.816,139.977-131.435,139.545z"/>
</svg>
