<?xml version="1.0" encoding="utf-8"?>
<!-- Generator: Adobe Illustrator 16.0.0, SVG Export Plug-In . SVG Version: 6.00 Build 0)  -->
<!DOCTYPE svg PUBLIC "-//W3C//DTD SVG 1.1//EN" "http://www.w3.org/Graphics/SVG/1.1/DTD/svg11.dtd">
<svg version="1.1" id="Layer_1" xmlns="http://www.w3.org/2000/svg" xmlns:xlink="http://www.w3.org/1999/xlink" x="0px" y="0px"
	 width="50px" height="50px" viewBox="-105.5 104.5 50 50" enable-background="new -105.5 104.5 50 50" xml:space="preserve">
<path d="M-81.939,122.198c-0.635-0.748-0.635-1.848,0-2.596l4.688-5.519c0.396-0.467,0.961-0.707,1.529-0.707
	c0.458,0,0.919,0.156,1.297,0.477c0.844,0.718,0.946,1.982,0.229,2.826l-1.882,2.216h8.072c1.107,0,2.006,0.897,2.006,2.005
	s-0.898,2.005-2.006,2.005h-8.072l1.882,2.216c0.717,0.844,0.614,2.108-0.229,2.826c-0.846,0.716-2.11,0.613-2.826-0.23
	L-81.939,122.198z M-85.655,121.822c0.184-0.188,0.235-0.427,0.15-0.713c-0.079-0.286-0.29-0.585-0.636-0.897l-7.254-5.645
	c-0.066-0.072-0.216-0.158-0.441-0.254c-0.203-0.086-0.354-0.117-0.466-0.098c-0.251-0.039-0.453,0.043-0.604,0.246l-1.367,1.686
	l9.391,7.266L-85.655,121.822z M-73.9,137.593c-0.597-0.184-1.042-0.323-1.341-0.414c-0.294-0.091-0.487-0.158-0.571-0.192
	c-0.457-0.194-0.971-0.496-1.536-0.904l-8.443-6.652c-0.511-0.385-0.942-0.801-1.29-1.252c-0.225-0.265-0.511-0.696-0.863-1.301
	c-0.35-0.603-0.404-1.188-0.163-1.76c0.048-0.113,0.147-0.273,0.305-0.478l-9.321-7.326c-0.99,2.34-0.611,5.579,1.138,9.721
	c0.716,1.649,1.903,3.415,3.565,5.294c1.66,1.883,3.77,3.819,6.326,5.809c1.842,1.455,3.748,2.716,5.721,3.786
	c1.969,1.066,3.925,2.014,5.866,2.835c0.913,0.388,1.884,0.638,2.912,0.752c1.03,0.118,2.179,0.143,3.452,0.075
	s2.321-0.212,3.141-0.438c0.817-0.225,1.517-0.586,2.096-1.08l-9.32-7.327C-72.748,137.493-73.305,137.78-73.9,137.593z
	 M-61.435,139.545l-6.767-5.261c-0.154-0.121-0.371-0.241-0.656-0.362c-0.604-0.256-1.048-0.157-1.34,0.289l-1.256,1.54l9.32,7.329
	l1.264-1.56c0.184-0.432,0.29-0.763,0.319-0.988C-60.523,140.305-60.816,139.977-61.435,139.545z"/>
</svg>
