<?xml version="1.0" encoding="utf-8"?>
<!-- Generator: Adobe Illustrator 16.0.0, SVG Export Plug-In . SVG Version: 6.00 Build 0)  -->
<!DOCTYPE svg PUBLIC "-//W3C//DTD SVG 1.1//EN" "http://www.w3.org/Graphics/SVG/1.1/DTD/svg11.dtd">
<svg version="1.1" id="Layer_1" xmlns="http://www.w3.org/2000/svg" xmlns:xlink="http://www.w3.org/1999/xlink" x="0px" y="0px"
	 width="50px" height="50px" viewBox="-35.5 104.5 50 50" enable-background="new -35.5 104.5 50 50" xml:space="preserve">
<path d="M6.893,125.111H5.236c-0.282-0.923-0.654-1.807-1.101-2.645l1.175-1.175c1.366-1.366,1.367-3.582,0-4.949l-1.257-1.258
	c-0.657-0.656-1.547-1.025-2.476-1.025l0,0c-0.928,0-1.818,0.369-2.475,1.025l-1.176,1.175c-0.838-0.447-1.721-0.818-2.644-1.102
	v-1.655c0-1.933-1.567-3.5-3.5-3.5h-1.778c-1.934,0-3.5,1.567-3.5,3.5v1.655c-0.923,0.283-1.807,0.654-2.645,1.102l-1.174-1.175
	c-1.367-1.367-3.584-1.367-4.951,0l-1.256,1.257c-1.367,1.366-1.367,3.583,0,4.949l1.174,1.175
	c-0.446,0.839-0.818,1.723-1.102,2.646h-1.654c-1.934,0-3.5,1.567-3.5,3.5v1.777c0,1.933,1.566,3.5,3.5,3.5h1.654
	c0.283,0.923,0.654,1.807,1.102,2.645l-1.175,1.175c-1.366,1.366-1.366,3.582-0.001,4.949l1.258,1.258
	c0.656,0.656,1.547,1.025,2.475,1.025h0.001c0.929,0,1.818-0.369,2.475-1.024l1.176-1.176c0.837,0.447,1.722,0.818,2.644,1.102
	v1.655c0,1.933,1.566,3.5,3.5,3.5h1.778c1.933,0,3.5-1.567,3.5-3.5v-1.655c0.923-0.283,1.806-0.654,2.644-1.102l1.176,1.176
	c0.656,0.656,1.547,1.024,2.476,1.024s1.818-0.369,2.476-1.025l1.256-1.257c1.366-1.367,1.365-3.583,0-4.949l-1.176-1.175
	c0.447-0.839,0.818-1.723,1.102-2.646h1.656c1.933,0,3.5-1.567,3.5-3.5v-1.777C10.393,126.679,8.825,125.111,6.893,125.111z
	 M-9.105,137.5c-4.41,0-8-3.589-8-8s3.59-8,8-8c4.412,0,8,3.589,8,8S-4.693,137.5-9.105,137.5z"/>
</svg>
