<?xml version="1.0" encoding="utf-8"?>
<!-- Generator: Adobe Illustrator 16.0.0, SVG Export Plug-In . SVG Version: 6.00 Build 0)  -->
<!DOCTYPE svg PUBLIC "-//W3C//DTD SVG 1.1//EN" "http://www.w3.org/Graphics/SVG/1.1/DTD/svg11.dtd">
<svg version="1.1" id="Layer_1" xmlns="http://www.w3.org/2000/svg" xmlns:xlink="http://www.w3.org/1999/xlink" x="0px" y="0px"
	 width="50px" height="50px" viewBox="34.5 104.5 50 50" enable-background="new 34.5 104.5 50 50" xml:space="preserve">
<path d="M70.484,129.904h-1.32c-0.227-0.736-0.523-1.441-0.881-2.109l0.939-0.938c1.09-1.09,1.09-2.859,0-3.951l-1.004-1.002
	c-0.523-0.525-1.234-0.818-1.975-0.818l0,0c-0.742,0-1.451,0.293-1.977,0.818l-0.938,0.938c-0.668-0.357-1.373-0.654-2.109-0.881
	v-1.32c0-1.543-1.25-2.793-2.793-2.793h-1.42c-1.543,0-2.793,1.25-2.793,2.793v1.32c-0.736,0.227-1.441,0.523-2.109,0.881
	l-0.938-0.938c-1.092-1.092-2.861-1.092-3.951,0l-1.004,1.002c-1.09,1.09-1.09,2.859,0,3.949l0.938,0.938
	c-0.355,0.67-0.652,1.375-0.879,2.111h-1.32c-1.543,0-2.793,1.252-2.793,2.793v1.42c0,1.541,1.25,2.793,2.793,2.793h1.32
	c0.227,0.736,0.523,1.441,0.879,2.109l-0.938,0.938c-1.09,1.092-1.09,2.859,0,3.951l1.004,1.004
	c0.523,0.523,1.234,0.818,1.975,0.818l0,0c0.74,0,1.451-0.295,1.975-0.818l0.939-0.938c0.668,0.355,1.373,0.652,2.109,0.879v1.32
	c0,1.543,1.25,2.793,2.793,2.793h1.42c1.543,0,2.793-1.25,2.793-2.793v-1.32c0.736-0.227,1.441-0.523,2.109-0.879l0.939,0.938
	c0.523,0.523,1.234,0.818,1.975,0.818s1.451-0.295,1.975-0.818l1.004-1.004c1.09-1.09,1.09-2.859-0.002-3.949l-0.938-0.938
	c0.357-0.67,0.654-1.375,0.881-2.111h1.32c1.543,0,2.793-1.252,2.793-2.793v-1.42C73.277,131.156,72.027,129.904,70.484,129.904z
	 M57.717,139.791c-3.52,0-6.383-2.863-6.383-6.383c0-3.521,2.863-6.385,6.383-6.385c3.521,0,6.385,2.863,6.385,6.385
	C64.102,136.928,61.238,139.791,57.717,139.791z M78.555,114.682h-0.508c-0.088-0.281-0.203-0.555-0.34-0.813l0.361-0.361
	c0.42-0.422,0.42-1.102,0-1.523l-0.387-0.387c-0.203-0.203-0.477-0.316-0.762-0.316l0,0c-0.285,0-0.559,0.113-0.762,0.316
	l-0.363,0.359c-0.256-0.137-0.527-0.25-0.813-0.338v-0.51c0-0.596-0.482-1.076-1.078-1.076h-0.547c-0.596,0-1.076,0.48-1.076,1.076
	v0.51c-0.285,0.088-0.557,0.201-0.814,0.338l-0.361-0.359c-0.422-0.422-1.104-0.422-1.525,0l-0.385,0.385
	c-0.422,0.422-0.422,1.104,0,1.525l0.361,0.361c-0.139,0.258-0.254,0.531-0.34,0.813h-0.51c-0.596,0-1.076,0.484-1.076,1.078v0.547
	c0,0.596,0.48,1.078,1.076,1.078h0.51c0.086,0.283,0.201,0.557,0.34,0.814l-0.363,0.361c-0.42,0.42-0.42,1.102,0,1.523l0.387,0.387
	c0.203,0.203,0.477,0.316,0.764,0.316l0,0c0.285,0,0.559-0.113,0.762-0.316l0.361-0.361c0.258,0.139,0.529,0.252,0.814,0.34v0.508
	c0,0.596,0.48,1.078,1.076,1.078h0.547c0.596,0,1.078-0.482,1.078-1.078v-0.508c0.283-0.088,0.557-0.201,0.813-0.34l0.363,0.361
	c0.203,0.203,0.477,0.316,0.762,0.316s0.559-0.113,0.762-0.316l0.387-0.387c0.42-0.42,0.42-1.104,0-1.523l-0.361-0.361
	c0.137-0.258,0.252-0.531,0.34-0.814h0.508c0.596,0,1.078-0.482,1.078-1.078v-0.547C79.633,115.166,79.15,114.682,78.555,114.682z
	 M73.631,118.496c-1.357,0-2.461-1.104-2.461-2.463c0-1.357,1.104-2.461,2.461-2.461s2.463,1.104,2.463,2.461
	C76.094,117.393,74.988,118.496,73.631,118.496z"/>
</svg>
