<?xml version="1.0" encoding="utf-8"?>
<!-- Generator: Adobe Illustrator 16.0.0, SVG Export Plug-In . SVG Version: 6.00 Build 0)  -->
<!DOCTYPE svg PUBLIC "-//W3C//DTD SVG 1.1//EN" "http://www.w3.org/Graphics/SVG/1.1/DTD/svg11.dtd">
<svg version="1.1" id="Layer_1" xmlns="http://www.w3.org/2000/svg" xmlns:xlink="http://www.w3.org/1999/xlink" x="0px" y="0px"
	 width="50px" height="50px" viewBox="104.5 104.5 50 50" enable-background="new 104.5 104.5 50 50" xml:space="preserve">
<path d="M148.299,128.417c0.225,0.404,0.346,0.822,0.346,1.25c0,3.521-7.947,6.375-17.75,6.375s-17.75-2.854-17.75-6.375
	c0-0.428,0.123-0.846,0.346-1.25c1.619,2.922,8.793,5.125,17.404,5.125S146.682,131.339,148.299,128.417z M130.895,140.375
	c-8.611,0-15.785-2.203-17.404-5.125c-0.223,0.404-0.346,0.822-0.346,1.25c0,3.521,7.947,6.375,17.75,6.375s17.75-2.854,17.75-6.375
	c0-0.428-0.121-0.846-0.346-1.25C146.682,138.172,139.506,140.375,130.895,140.375z M130.895,116.125
	c-9.803,0-17.75,2.854-17.75,6.375s7.947,6.375,17.75,6.375s17.75-2.854,17.75-6.375S140.697,116.125,130.895,116.125z"/>
</svg>
