<?xml version="1.0" encoding="utf-8"?>
<!-- Generator: Adobe Illustrator 16.0.0, SVG Export Plug-In . SVG Version: 6.00 Build 0)  -->
<!DOCTYPE svg PUBLIC "-//W3C//DTD SVG 1.1//EN" "http://www.w3.org/Graphics/SVG/1.1/DTD/svg11.dtd">
<svg version="1.1" id="Layer_1" xmlns="http://www.w3.org/2000/svg" xmlns:xlink="http://www.w3.org/1999/xlink" x="0px" y="0px"
	 width="50px" height="50px" viewBox="174.5 104.5 50 50" enable-background="new 174.5 104.5 50 50" xml:space="preserve">
<path d="M217.729,119.167h-20.752l2.92-2.92c0.781-0.781,0.781-2.047,0-2.828s-2.047-0.781-2.828,0l-4.008,4.007l-4.006-4.007
	c-0.781-0.781-2.047-0.781-2.828,0c-0.781,0.78-0.781,2.047,0,2.828l2.92,2.92h-5.086c-1.104,0-2,0.896-2,2v23c0,1.104,0.896,2,2,2
	h33.668c1.105,0,2-0.896,2-2v-23C219.729,120.063,218.834,119.167,217.729,119.167z M210.895,142.167h-24.834v-19h24.834V142.167z
	 M215.021,130.501c-1.451,0-2.625-1.175-2.625-2.626c0-1.45,1.174-2.625,2.625-2.625c1.449,0,2.625,1.175,2.625,2.625
	C217.646,129.326,216.471,130.501,215.021,130.501z"/>
</svg>
