<?xml version="1.0" encoding="utf-8"?>
<!-- Generator: Adobe Illustrator 16.0.0, SVG Export Plug-In . SVG Version: 6.00 Build 0)  -->
<!DOCTYPE svg PUBLIC "-//W3C//DTD SVG 1.1//EN" "http://www.w3.org/Graphics/SVG/1.1/DTD/svg11.dtd">
<svg version="1.1" id="Layer_1" xmlns="http://www.w3.org/2000/svg" xmlns:xlink="http://www.w3.org/1999/xlink" x="0px" y="0px"
	 width="50px" height="50px" viewBox="244.5 104.5 50 50" enable-background="new 244.5 104.5 50 50" xml:space="preserve">
<path d="M285.23,110.666h-28.67c-1.105,0-2,0.896-2,2v33.668c0,1.104,0.895,2,2,2h28.67c1.104,0,2-0.896,2-2v-33.668
	C287.23,111.562,286.334,110.666,285.23,110.666z M258.854,145.293h-2.25v-2.25h2.25V145.293z M258.854,141.626h-2.25v-2.25h2.25
	V141.626z M258.854,137.959h-2.25v-2.25h2.25V137.959z M258.854,134.292h-2.25v-2.25h2.25V134.292z M258.854,130.625h-2.25v-2.25
	h2.25V130.625z M258.854,126.958h-2.25v-2.25h2.25V126.958z M258.854,123.291h-2.25v-2.25h2.25V123.291z M258.854,119.624h-2.25
	v-2.25h2.25V119.624z M258.854,115.957h-2.25v-2.25h2.25V115.957z M280.869,144.334H260.92V131h19.949V144.334z M280.869,128H260.92
	v-13.334h19.949V128z M285.186,145.293h-2.25v-2.25h2.25V145.293z M285.186,141.626h-2.25v-2.25h2.25V141.626z M285.186,137.959
	h-2.25v-2.25h2.25V137.959z M285.186,134.292h-2.25v-2.25h2.25V134.292z M285.186,130.625h-2.25v-2.25h2.25V130.625z
	 M285.186,126.958h-2.25v-2.25h2.25V126.958z M285.186,123.291h-2.25v-2.25h2.25V123.291z M285.186,119.624h-2.25v-2.25h2.25
	V119.624z M285.186,115.957h-2.25v-2.25h2.25V115.957z"/>
</svg>
