<?xml version="1.0" encoding="utf-8"?>
<!-- Generator: Adobe Illustrator 16.0.0, SVG Export Plug-In . SVG Version: 6.00 Build 0)  -->
<!DOCTYPE svg PUBLIC "-//W3C//DTD SVG 1.1//EN" "http://www.w3.org/Graphics/SVG/1.1/DTD/svg11.dtd">
<svg version="1.1" id="Layer_1" xmlns="http://www.w3.org/2000/svg" xmlns:xlink="http://www.w3.org/1999/xlink" x="0px" y="0px"
	 width="50px" height="50px" viewBox="104.5 -245.5 50 50" enable-background="new 104.5 -245.5 50 50" xml:space="preserve">
<path d="M145.75-206.651c0,1.657-1.343,3-3,3h-26.5c-1.657,0-3-1.343-3-3v-26.5c0-1.657,1.343-3,3-3s3,1.343,3,3v23.5h2.5v-7.75
	c0-1.657,1.343-3,3-3s3,1.343,3,3v7.75H130v-13.25c0-1.657,1.343-3,3-3s3,1.343,3,3v13.25h2.25v-18.5c0-1.657,1.343-3,3-3
	s3,1.343,3,3v18.916C145.143-208.716,145.75-207.759,145.75-206.651z M124.562-226.344c0.271,0,0.547-0.073,0.794-0.228l8.071-5.041
	l-0.228,0.984c-0.188,0.807,0.315,1.613,1.123,1.8c0.113,0.026,0.228,0.039,0.339,0.039c0.683,0,1.3-0.469,1.46-1.162l1.045-4.515
	c0.09-0.388,0.022-0.795-0.188-1.133s-0.547-0.577-0.935-0.667l-4.513-1.043c-0.808-0.188-1.612,0.317-1.8,1.124
	c-0.187,0.807,0.316,1.613,1.124,1.799l0.985,0.228l-8.074,5.042c-0.702,0.439-0.916,1.364-0.478,2.067
	C123.573-226.594,124.062-226.344,124.562-226.344z"/>
</svg>
