<?xml version="1.0" encoding="utf-8"?>
<!-- Generator: Adobe Illustrator 16.0.0, SVG Export Plug-In . SVG Version: 6.00 Build 0)  -->
<!DOCTYPE svg PUBLIC "-//W3C//DTD SVG 1.1//EN" "http://www.w3.org/Graphics/SVG/1.1/DTD/svg11.dtd">
<svg version="1.1" id="Layer_1" xmlns="http://www.w3.org/2000/svg" xmlns:xlink="http://www.w3.org/1999/xlink" x="0px" y="0px"
	 width="50px" height="50px" viewBox="314.5 104.5 50 50" enable-background="new 314.5 104.5 50 50" xml:space="preserve">
<path d="M344.145,137.758v8.742c0,1.104-0.895,2-2,2h-2.5c-1.104,0-2-0.896-2-2v-8.742c1.047,0.233,2.133,0.367,3.25,0.367
	C342.014,138.125,343.098,137.991,344.145,137.758z M353.645,123.25c0,7.042-5.707,12.75-12.75,12.75
	c-7.041,0-12.75-5.708-12.75-12.75s5.709-12.75,12.75-12.75C347.938,110.5,353.645,116.208,353.645,123.25z M341.582,115.813
	c0-0.828-0.672-1.5-1.5-1.5c-4.617,0-8.375,3.757-8.375,8.375c0,0.828,0.672,1.5,1.5,1.5s1.5-0.672,1.5-1.5
	c0-2.964,2.412-5.375,5.375-5.375C340.91,117.313,341.582,116.641,341.582,115.813z"/>
</svg>
