<?xml version="1.0" encoding="utf-8"?>
<!-- Generator: Adobe Illustrator 16.0.0, SVG Export Plug-In . SVG Version: 6.00 Build 0)  -->
<!DOCTYPE svg PUBLIC "-//W3C//DTD SVG 1.1//EN" "http://www.w3.org/Graphics/SVG/1.1/DTD/svg11.dtd">
<svg version="1.1" id="Layer_1" xmlns="http://www.w3.org/2000/svg" xmlns:xlink="http://www.w3.org/1999/xlink" x="0px" y="0px"
	 width="50px" height="50px" viewBox="-315.5 174.5 50 50" enable-background="new -315.5 174.5 50 50" xml:space="preserve">
<path d="M-270.346,197.81l-4.152-7.979c-0.382-0.734-1.287-1.02-2.022-0.639c-0.735,0.383-1.021,1.288-0.638,2.023l3.305,6.353
	h-12.188c-0.828,0-1.5,0.672-1.5,1.5v1.673h-3.128v-1.673c0-0.828-0.671-1.5-1.5-1.5h-12.188l3.307-6.353
	c0.382-0.735,0.096-1.641-0.639-2.023c-0.737-0.381-1.641-0.097-2.023,0.639l-4.152,7.979c-0.412,0.268-0.686,0.729-0.686,1.258
	v9.41c0,0.828,0.671,1.5,1.5,1.5h14.882c0.829,0,1.5-0.672,1.5-1.5v-4.737h3.128v4.737c0,0.828,0.672,1.5,1.5,1.5h14.883
	c0.828,0,1.5-0.672,1.5-1.5v-9.41C-269.658,198.539-269.934,198.077-270.346,197.81z M-293.669,206.978h-11.882v-6.41h11.882
	V206.978z M-272.658,206.978h-11.883v-6.41h11.883V206.978z"/>
</svg>
