<?xml version="1.0" encoding="utf-8"?>
<!-- Generator: Adobe Illustrator 16.0.0, SVG Export Plug-In . SVG Version: 6.00 Build 0)  -->
<!DOCTYPE svg PUBLIC "-//W3C//DTD SVG 1.1//EN" "http://www.w3.org/Graphics/SVG/1.1/DTD/svg11.dtd">
<svg version="1.1" id="Layer_1" xmlns="http://www.w3.org/2000/svg" xmlns:xlink="http://www.w3.org/1999/xlink" x="0px" y="0px"
	 width="50px" height="50px" viewBox="-245.5 174.5 50 50" enable-background="new -245.5 174.5 50 50" xml:space="preserve">
<path d="M-202.121,199.542c0.027-0.235,0.006-0.479-0.087-0.714l-4.5-11.5c-0.302-0.771-1.173-1.151-1.943-0.85
	c-0.771,0.302-1.152,1.172-0.851,1.943l3.084,7.88c-0.826-0.273-1.707-0.427-2.625-0.427c-2.923,0-5.498,1.508-6.996,3.784
	c-0.102-0.021-0.207-0.034-0.316-0.034h-5.5c-0.107,0-0.213,0.013-0.314,0.034c-1.5-2.276-4.074-3.784-6.998-3.784
	c-0.916,0-1.797,0.153-2.623,0.427l3.083-7.88c0.302-0.771-0.079-1.642-0.851-1.943c-0.77-0.302-1.641,0.079-1.943,0.85l-4.5,11.5
	c-0.092,0.235-0.113,0.479-0.087,0.714c-0.916,1.343-1.454,2.964-1.454,4.708c0,4.618,3.758,8.375,8.375,8.375
	c4.619,0,8.375-3.757,8.375-8.375c0-0.557-0.057-1.099-0.16-1.625h3.697c-0.104,0.526-0.162,1.068-0.162,1.625
	c0,4.618,3.758,8.375,8.375,8.375c4.619,0,8.375-3.757,8.375-8.375C-200.668,202.506-201.205,200.885-202.121,199.542z
	 M-229.168,209.625c-2.963,0-5.375-2.411-5.375-5.375s2.412-5.375,5.375-5.375c2.965,0,5.375,2.411,5.375,5.375
	S-226.203,209.625-229.168,209.625z M-209.043,209.625c-2.963,0-5.375-2.411-5.375-5.375s2.412-5.375,5.375-5.375
	c2.965,0,5.375,2.411,5.375,5.375S-206.078,209.625-209.043,209.625z"/>
</svg>
