<?xml version="1.0" encoding="utf-8"?>
<!-- Generator: Adobe Illustrator 16.0.0, SVG Export Plug-In . SVG Version: 6.00 Build 0)  -->
<!DOCTYPE svg PUBLIC "-//W3C//DTD SVG 1.1//EN" "http://www.w3.org/Graphics/SVG/1.1/DTD/svg11.dtd">
<svg version="1.1" id="Layer_1" xmlns="http://www.w3.org/2000/svg" xmlns:xlink="http://www.w3.org/1999/xlink" x="0px" y="0px"
	 width="50px" height="50px" viewBox="-175.5 174.5 50 50" enable-background="new -175.5 174.5 50 50" xml:space="preserve">
<path d="M-154.777,204.332c0.637-1.144,2.364-1.413,3.984-0.677v-7.984c0-0.381,0.174-0.739,0.474-0.975
	c0.299-0.233,0.69-0.319,1.06-0.229l10.143,2.487c0.555,0.136,0.943,0.634,0.943,1.203v11.039c0,0.1-0.014,0.193-0.036,0.287
	c-0.03,0.237-0.101,0.465-0.22,0.678c-0.685,1.23-2.633,1.45-4.35,0.494c-1.717-0.958-2.551-2.73-1.865-3.96
	c0.639-1.146,2.372-1.415,3.994-0.673v-4.397l-7.666-1.937v7.021c0,0.026-0.006,0.051-0.008,0.077
	c0.01,0.357-0.065,0.701-0.238,1.011c-0.686,1.229-2.633,1.451-4.35,0.493C-154.629,207.335-155.465,205.563-154.777,204.332z
	 M-130.855,189.5V216c0,1.104-0.895,2-2,2h-26.5c-1.104,0-2-0.896-2-2v-26.5c0-1.104,0.896-2,2-2h26.5
	C-131.75,187.5-130.855,188.396-130.855,189.5z M-134.855,191.5h-22.5V214h22.5V191.5z M-136.855,183c0-1.104-0.895-2-2-2h-26.5
	c-1.104,0-2,0.896-2,2v26.5c0,1.104,0.896,2,2,2c1.105,0,2-0.896,2-2V185h24.5C-137.75,185-136.855,184.104-136.855,183z"/>
</svg>
