<?xml version="1.0" encoding="utf-8"?>
<!-- Generator: Adobe Illustrator 16.0.0, SVG Export Plug-In . SVG Version: 6.00 Build 0)  -->
<!DOCTYPE svg PUBLIC "-//W3C//DTD SVG 1.1//EN" "http://www.w3.org/Graphics/SVG/1.1/DTD/svg11.dtd">
<svg version="1.1" id="Layer_1" xmlns="http://www.w3.org/2000/svg" xmlns:xlink="http://www.w3.org/1999/xlink" x="0px" y="0px"
	 width="50px" height="50px" viewBox="-105.5 174.5 50 50" enable-background="new -105.5 174.5 50 50" xml:space="preserve">
<path d="M-81.797,210.565h11.844c0.457,0,0.826-0.369,0.826-0.826v-13.908c0-0.457-0.369-0.826-0.826-0.826h-11.844
	c-0.457,0-0.826,0.369-0.826,0.826v13.908C-82.623,210.196-82.254,210.565-81.797,210.565z M-70.9,196.261h0.93v0.93h-0.93V196.261z
	 M-70.9,197.775h0.93v0.93h-0.93V197.775z M-70.9,199.291h0.93v0.929h-0.93V199.291z M-70.9,200.806h0.93v0.93h-0.93V200.806z
	 M-70.9,202.32h0.93v0.93h-0.93V202.32z M-70.9,203.835h0.93v0.93h-0.93V203.835z M-70.9,205.351h0.93v0.929h-0.93V205.351z
	 M-70.9,206.865h0.93v0.93h-0.93V206.865z M-70.9,208.38h0.93v0.93h-0.93V208.38z M-79.996,196.657h8.242v5.508h-8.242V196.657z
	 M-79.996,203.405h8.242v5.508h-8.242V203.405z M-81.779,196.261h0.93v0.93h-0.93V196.261z M-81.779,197.775h0.93v0.93h-0.93
	V197.775z M-81.779,199.291h0.93v0.929h-0.93V199.291z M-81.779,200.806h0.93v0.93h-0.93V200.806z M-81.779,202.32h0.93v0.93h-0.93
	V202.32z M-81.779,203.835h0.93v0.93h-0.93V203.835z M-81.779,205.351h0.93v0.929h-0.93V205.351z M-81.779,206.865h0.93v0.93h-0.93
	V206.865z M-81.779,208.38h0.93v0.93h-0.93V208.38z M-62.855,187.5h-26.5c-1.104,0-2,0.896-2,2V216c0,1.104,0.896,2,2,2h26.5
	c1.105,0,2-0.896,2-2v-26.5C-60.855,188.396-61.75,187.5-62.855,187.5z M-64.855,214h-22.5v-22.5h22.5V214z M-68.855,185h-24.5v24.5
	c0,1.104-0.895,2-2,2c-1.104,0-2-0.896-2-2V183c0-1.104,0.896-2,2-2h26.5c1.105,0,2,0.896,2,2S-67.75,185-68.855,185z"/>
</svg>
