<?xml version="1.0" encoding="utf-8"?>
<!-- Generator: Adobe Illustrator 16.0.0, SVG Export Plug-In . SVG Version: 6.00 Build 0)  -->
<!DOCTYPE svg PUBLIC "-//W3C//DTD SVG 1.1//EN" "http://www.w3.org/Graphics/SVG/1.1/DTD/svg11.dtd">
<svg version="1.1" id="Layer_1" xmlns="http://www.w3.org/2000/svg" xmlns:xlink="http://www.w3.org/1999/xlink" x="0px" y="0px"
	 width="50px" height="50px" viewBox="-35.5 174.5 50 50" enable-background="new -35.5 174.5 50 50" xml:space="preserve">
<path d="M7.145,218h-26.5c-1.104,0-2-0.896-2-2v-26.5c0-1.104,0.896-2,2-2h26.5c1.105,0,2,0.896,2,2V216
	C9.145,217.104,8.25,218,7.145,218z M-17.355,214h22.5v-22.5h-22.5V214z M-23.355,209.5V185h24.5c1.105,0,2-0.896,2-2s-0.895-2-2-2
	h-26.5c-1.104,0-2,0.896-2,2v26.5c0,1.104,0.896,2,2,2C-24.25,211.5-23.355,210.604-23.355,209.5z M0.65,196.806h-13.468
	c-1.274,0-2.309,1.033-2.309,2.309v7.695c0,1.275,1.034,2.309,2.309,2.309H0.65c1.275,0,2.309-1.033,2.309-2.309v-7.695
	C2.959,197.839,1.926,196.806,0.65,196.806z M-8.922,203.858c0,0.253-0.023,0.48-0.065,0.682c-0.043,0.2-0.14,0.361-0.284,0.481
	c-0.095,0.074-0.196,0.128-0.304,0.163c-0.108,0.036-0.228,0.059-0.36,0.069c-0.133,0.012-0.299,0.017-0.502,0.017
	c-0.204,0-0.387-0.011-0.553-0.033c-0.164-0.022-0.307-0.062-0.428-0.116c-0.121-0.056-0.219-0.134-0.29-0.232
	c-0.06-0.075-0.104-0.158-0.134-0.25c-0.031-0.09-0.051-0.191-0.061-0.304c-0.011-0.112-0.018-0.275-0.023-0.489
	c0.008-0.084,0.013-0.214,0.013-0.387h0.841c0,0.258-0.004,0.436-0.012,0.532c0.012,0.21,0.055,0.352,0.133,0.424
	c0.043,0.048,0.096,0.077,0.162,0.091c0.063,0.014,0.174,0.02,0.336,0.02c0.199,0,0.334-0.012,0.406-0.033
	c0.07-0.022,0.123-0.056,0.155-0.101c0.044-0.052,0.071-0.117,0.081-0.195c0.011-0.081,0.017-0.197,0.017-0.351v-3.155h0.872
	V203.858z M-4.888,203.41c-0.093,0.114-0.247,0.204-0.466,0.267c-0.216,0.061-0.443,0.092-0.679,0.092h-1.325v1.465h-0.875v-4.543
	h1.988c0.357,0,0.662,0.033,0.916,0.099c0.254,0.068,0.441,0.217,0.561,0.447c0.11,0.253,0.166,0.583,0.166,0.992
	C-4.602,202.789-4.697,203.182-4.888,203.41z M-0.241,203.707c0,0.286-0.024,0.538-0.073,0.757c-0.049,0.22-0.156,0.389-0.32,0.51
	c-0.184,0.14-0.473,0.231-0.865,0.272c-0.159,0.017-0.395,0.024-0.709,0.024c-0.25,0-0.467-0.007-0.646-0.021
	c-0.18-0.016-0.354-0.049-0.521-0.103c-0.168-0.056-0.311-0.136-0.425-0.246c-0.271-0.235-0.407-0.665-0.407-1.292v-1.133
	c0-0.248,0.014-0.462,0.045-0.642c0.027-0.18,0.072-0.33,0.13-0.456c0.059-0.124,0.131-0.231,0.218-0.319
	c0.117-0.118,0.262-0.206,0.436-0.266c0.174-0.061,0.354-0.1,0.539-0.116s0.396-0.024,0.633-0.024h0.332
	c0.286,0,0.527,0.015,0.726,0.044c0.2,0.029,0.373,0.104,0.517,0.218c0.254,0.199,0.383,0.534,0.383,1.005v0.146h-0.867
	c0-0.248-0.054-0.422-0.162-0.521c-0.07-0.062-0.172-0.101-0.306-0.12c-0.135-0.017-0.321-0.026-0.562-0.026
	c-0.299,0-0.518,0.013-0.659,0.036c-0.142,0.025-0.253,0.071-0.335,0.141c-0.125,0.125-0.188,0.401-0.188,0.829v1.091
	c0,0.426,0.059,0.708,0.176,0.842c0.096,0.088,0.244,0.146,0.448,0.177c0.113,0.007,0.283,0.012,0.508,0.012
	c0.142,0,0.245,0.004,0.31,0.012c0.152-0.007,0.271-0.021,0.357-0.045c0.086-0.022,0.17-0.068,0.25-0.137
	c0.068-0.064,0.111-0.156,0.131-0.279c0.021-0.122,0.031-0.277,0.031-0.467v-0.127h-1.146v-0.66h2.024V203.707z M-5.787,201.486
	c-0.1-0.033-0.249-0.05-0.445-0.05h-1.125v1.586h1.102c0.322,0,0.526-0.04,0.611-0.121c0.08-0.066,0.129-0.137,0.146-0.217
	c0.015-0.077,0.028-0.217,0.036-0.419c0-0.287-0.032-0.489-0.096-0.606C-5.608,201.577-5.684,201.52-5.787,201.486z"/>
</svg>
