<?xml version="1.0" encoding="utf-8"?>
<!-- Generator: Adobe Illustrator 16.0.0, SVG Export Plug-In . SVG Version: 6.00 Build 0)  -->
<!DOCTYPE svg PUBLIC "-//W3C//DTD SVG 1.1//EN" "http://www.w3.org/Graphics/SVG/1.1/DTD/svg11.dtd">
<svg version="1.1" id="Layer_1" xmlns="http://www.w3.org/2000/svg" xmlns:xlink="http://www.w3.org/1999/xlink" x="0px" y="0px"
	 width="50px" height="50px" viewBox="34.5 174.5 50 50" enable-background="new 34.5 174.5 50 50" xml:space="preserve">
<path d="M79.145,189.5V216c0,1.104-0.895,2-2,2h-26.5c-1.104,0-2-0.896-2-2v-26.5c0-1.104,0.896-2,2-2h26.5
	C78.25,187.5,79.145,188.396,79.145,189.5z M73.145,183c0-1.104-0.895-2-2-2h-26.5c-1.104,0-2,0.896-2,2v26.5c0,1.104,0.896,2,2,2
	c1.105,0,2-0.896,2-2V185h24.5C72.25,185,73.145,184.104,73.145,183z"/>
</svg>
