<?xml version="1.0" encoding="utf-8"?>
<!-- Generator: Adobe Illustrator 16.0.0, SVG Export Plug-In . SVG Version: 6.00 Build 0)  -->
<!DOCTYPE svg PUBLIC "-//W3C//DTD SVG 1.1//EN" "http://www.w3.org/Graphics/SVG/1.1/DTD/svg11.dtd">
<svg version="1.1" id="Layer_1" xmlns="http://www.w3.org/2000/svg" xmlns:xlink="http://www.w3.org/1999/xlink" x="0px" y="0px"
	 width="50px" height="50px" viewBox="104.5 174.5 50 50" enable-background="new 104.5 174.5 50 50" xml:space="preserve">
<path d="M130.895,179.5c-11.027,0-20,8.972-20,20s8.973,20,20,20c11.029,0,20-8.972,20-20S141.924,179.5,130.895,179.5z
	 M139.713,197.375l-8.563,8.564c-0.596,0.595-1.377,0.893-2.158,0.893c-0.779,0-1.561-0.298-2.156-0.893l-4.758-4.758
	c-1.191-1.191-1.191-3.122,0-4.313c1.191-1.192,3.121-1.192,4.314,0l2.6,2.6l6.408-6.407c1.189-1.19,3.123-1.19,4.313,0
	C140.904,194.252,140.904,196.184,139.713,197.375z"/>
</svg>
