<?xml version="1.0" encoding="utf-8"?>
<!-- Generator: Adobe Illustrator 16.0.0, SVG Export Plug-In . SVG Version: 6.00 Build 0)  -->
<!DOCTYPE svg PUBLIC "-//W3C//DTD SVG 1.1//EN" "http://www.w3.org/Graphics/SVG/1.1/DTD/svg11.dtd">
<svg version="1.1" id="Layer_1" xmlns="http://www.w3.org/2000/svg" xmlns:xlink="http://www.w3.org/1999/xlink" x="0px" y="0px"
	 width="50px" height="50px" viewBox="244.5 174.5 50 50" enable-background="new 244.5 174.5 50 50" xml:space="preserve">
<path d="M269.375,179.5c-11.027,0-20,8.972-20,20s8.973,20,20,20c11.029,0,20-8.972,20-20S280.404,179.5,269.375,179.5z
	 M281.199,201.48c0,1.346-1.09,2.436-2.434,2.436h-4.975v4.975c0,1.346-1.092,2.434-2.436,2.434h-3.961
	c-1.346,0-2.436-1.088-2.436-2.434v-4.975h-4.975c-1.344,0-2.434-1.09-2.434-2.436v-3.961c0-1.346,1.09-2.436,2.434-2.436h4.975
	v-4.975c0-1.344,1.09-2.434,2.436-2.434h3.961c1.344,0,2.436,1.09,2.436,2.434v4.975h4.975c1.344,0,2.434,1.09,2.434,2.436V201.48z"
	/>
</svg>
