<?xml version="1.0" encoding="utf-8"?>
<!-- Generator: Adobe Illustrator 16.0.0, SVG Export Plug-In . SVG Version: 6.00 Build 0)  -->
<!DOCTYPE svg PUBLIC "-//W3C//DTD SVG 1.1//EN" "http://www.w3.org/Graphics/SVG/1.1/DTD/svg11.dtd">
<svg version="1.1" id="Layer_1" xmlns="http://www.w3.org/2000/svg" xmlns:xlink="http://www.w3.org/1999/xlink" x="0px" y="0px"
	 width="50px" height="50px" viewBox="174.5 -245.5 50 50" enable-background="new 174.5 -245.5 50 50" xml:space="preserve">
<path d="M218.642-234.647h-7.251v-1.25c0-1.104-0.895-2-2-2c-1.104,0-2,0.896-2,2v1.25h-11.998v-1.25c0-1.104-0.896-2-2-2
	c-1.105,0-2,0.896-2,2v1.25h-7.251c-1.104,0-2,0.896-2,2v26.5c0,1.104,0.896,2,2,2h34.5c1.104,0,2-0.896,2-2v-26.5
	C220.642-233.751,219.746-234.647,218.642-234.647z M216.642-208.147h-30.5v-22.5h5.251v0.25c0,1.104,0.895,2,2,2
	c1.104,0,2-0.896,2-2v-0.25h11.998v0.25c0,1.104,0.896,2,2,2c1.105,0,2-0.896,2-2v-0.25h5.251V-208.147z M192.701-225.23
	c0,0.892-0.723,1.615-1.614,1.615s-1.614-0.723-1.614-1.615s0.723-1.615,1.614-1.615S192.701-226.122,192.701-225.23z
	 M197.854-225.23c0,0.892-0.723,1.615-1.614,1.615s-1.614-0.723-1.614-1.615s0.723-1.615,1.614-1.615
	S197.854-226.122,197.854-225.23z M203.006-225.23c0,0.892-0.723,1.615-1.614,1.615s-1.614-0.723-1.614-1.615
	s0.723-1.615,1.614-1.615S203.006-226.122,203.006-225.23z M208.158-225.23c0,0.892-0.723,1.615-1.614,1.615
	s-1.614-0.723-1.614-1.615s0.723-1.615,1.614-1.615S208.158-226.122,208.158-225.23z M211.696-226.845
	c0.892,0,1.614,0.723,1.614,1.615s-0.723,1.615-1.614,1.615s-1.614-0.723-1.614-1.615S210.805-226.845,211.696-226.845z
	 M192.701-220.48c0,0.892-0.723,1.615-1.614,1.615s-1.614-0.723-1.614-1.615s0.723-1.615,1.614-1.615
	S192.701-221.372,192.701-220.48z M197.854-220.48c0,0.892-0.723,1.615-1.614,1.615s-1.614-0.723-1.614-1.615
	s0.723-1.615,1.614-1.615S197.854-221.372,197.854-220.48z M203.006-220.48c0,0.892-0.723,1.615-1.614,1.615
	s-1.614-0.723-1.614-1.615s0.723-1.615,1.614-1.615S203.006-221.372,203.006-220.48z M208.158-220.48
	c0,0.892-0.723,1.615-1.614,1.615s-1.614-0.723-1.614-1.615s0.723-1.615,1.614-1.615S208.158-221.372,208.158-220.48z
	 M213.311-220.48c0,0.892-0.723,1.615-1.614,1.615s-1.614-0.723-1.614-1.615s0.723-1.615,1.614-1.615
	S213.311-221.372,213.311-220.48z M192.701-215.73c0,0.892-0.723,1.615-1.614,1.615s-1.614-0.723-1.614-1.615
	s0.723-1.615,1.614-1.615S192.701-216.622,192.701-215.73z M197.854-215.73c0,0.892-0.723,1.615-1.614,1.615
	s-1.614-0.723-1.614-1.615s0.723-1.615,1.614-1.615S197.854-216.622,197.854-215.73z M203.006-215.73
	c0,0.892-0.723,1.615-1.614,1.615s-1.614-0.723-1.614-1.615s0.723-1.615,1.614-1.615S203.006-216.622,203.006-215.73z
	 M208.158-215.73c0,0.892-0.723,1.615-1.614,1.615s-1.614-0.723-1.614-1.615s0.723-1.615,1.614-1.615
	S208.158-216.622,208.158-215.73z M213.311-215.73c0,0.892-0.723,1.615-1.614,1.615s-1.614-0.723-1.614-1.615
	s0.723-1.615,1.614-1.615S213.311-216.622,213.311-215.73z M192.701-210.98c0,0.892-0.723,1.615-1.614,1.615
	s-1.614-0.723-1.614-1.615s0.723-1.615,1.614-1.615S192.701-211.872,192.701-210.98z M197.854-210.98
	c0,0.892-0.723,1.615-1.614,1.615s-1.614-0.723-1.614-1.615s0.723-1.615,1.614-1.615S197.854-211.872,197.854-210.98z
	 M203.006-210.98c0,0.892-0.723,1.615-1.614,1.615s-1.614-0.723-1.614-1.615s0.723-1.615,1.614-1.615
	S203.006-211.872,203.006-210.98z M208.158-210.98c0,0.892-0.723,1.615-1.614,1.615s-1.614-0.723-1.614-1.615
	s0.723-1.615,1.614-1.615S208.158-211.872,208.158-210.98z M213.311-210.98c0,0.892-0.723,1.615-1.614,1.615
	s-1.614-0.723-1.614-1.615s0.723-1.615,1.614-1.615S213.311-211.872,213.311-210.98z"/>
</svg>
