<?xml version="1.0" encoding="utf-8"?>
<!-- Generator: Adobe Illustrator 16.0.0, SVG Export Plug-In . SVG Version: 6.00 Build 0)  -->
<!DOCTYPE svg PUBLIC "-//W3C//DTD SVG 1.1//EN" "http://www.w3.org/Graphics/SVG/1.1/DTD/svg11.dtd">
<svg version="1.1" id="Layer_1" xmlns="http://www.w3.org/2000/svg" xmlns:xlink="http://www.w3.org/1999/xlink" x="0px" y="0px"
	 width="50px" height="50px" viewBox="-245.5 244.5 50 50" enable-background="new -245.5 244.5 50 50" xml:space="preserve">
<path d="M-219.105,249.5c-11.027,0-20,8.972-20,20s8.973,20,20,20c11.028,0,20-8.972,20-20S-208.077,249.5-219.105,249.5z
	 M-212.047,271.781h-9.186l2.141,2.521c0.816,0.96,0.699,2.399-0.262,3.215c-0.429,0.364-0.953,0.543-1.476,0.543
	c-0.646,0-1.288-0.273-1.739-0.805l-5.334-6.279c-0.723-0.852-0.723-2.102,0-2.953l5.334-6.279c0.814-0.961,2.254-1.078,3.215-0.263
	s1.078,2.255,0.262,3.216l-2.141,2.521h9.186c1.26,0,2.281,1.021,2.281,2.281S-210.787,271.781-212.047,271.781z"/>
</svg>
