<?xml version="1.0" encoding="utf-8"?>
<!-- Generator: Adobe Illustrator 16.0.0, SVG Export Plug-In . SVG Version: 6.00 Build 0)  -->
<!DOCTYPE svg PUBLIC "-//W3C//DTD SVG 1.1//EN" "http://www.w3.org/Graphics/SVG/1.1/DTD/svg11.dtd">
<svg version="1.1" id="Layer_1" xmlns="http://www.w3.org/2000/svg" xmlns:xlink="http://www.w3.org/1999/xlink" x="0px" y="0px"
	 width="50px" height="50px" viewBox="-175.5 244.5 50 50" enable-background="new -175.5 244.5 50 50" xml:space="preserve">
<path d="M-149.105,249.5c-11.027,0-20,8.972-20,20s8.973,20,20,20c11.028,0,20-8.972,20-20S-138.077,249.5-149.105,249.5z
	 M-141.349,272.965l-6.279,5.332c-0.426,0.361-0.951,0.543-1.477,0.543c-0.526,0-1.052-0.182-1.478-0.543l-6.279-5.332
	c-0.959-0.816-1.077-2.256-0.262-3.217c0.815-0.959,2.255-1.078,3.216-0.262l2.521,2.141v-9.186c0-1.26,1.021-2.281,2.282-2.281
	c1.26,0,2.281,1.021,2.281,2.281v9.186l2.521-2.141c0.961-0.814,2.401-0.697,3.217,0.262
	C-140.271,270.709-140.389,272.148-141.349,272.965z"/>
</svg>
