<?xml version="1.0" encoding="utf-8"?>
<!-- Generator: Adobe Illustrator 16.0.0, SVG Export Plug-In . SVG Version: 6.00 Build 0)  -->
<!DOCTYPE svg PUBLIC "-//W3C//DTD SVG 1.1//EN" "http://www.w3.org/Graphics/SVG/1.1/DTD/svg11.dtd">
<svg version="1.1" id="Layer_1" xmlns="http://www.w3.org/2000/svg" xmlns:xlink="http://www.w3.org/1999/xlink" x="0px" y="0px"
	 width="50px" height="50px" viewBox="-105.5 244.5 50 50" enable-background="new -105.5 244.5 50 50" xml:space="preserve">
<path d="M-79.105,249.5c-11.027,0-20,8.972-20,20s8.973,20,20,20c11.028,0,20-8.972,20-20S-68.077,249.5-79.105,249.5z
	 M-71.087,269.252c-0.451,0.531-1.094,0.805-1.739,0.805c-0.522,0-1.047-0.179-1.477-0.543l-2.521-2.141v9.185
	c0,1.26-1.021,2.281-2.281,2.281s-2.281-1.021-2.281-2.281v-9.185l-2.521,2.141c-0.96,0.816-2.4,0.698-3.216-0.262
	c-0.816-0.961-0.698-2.4,0.262-3.216l6.279-5.333c0.852-0.723,2.102-0.723,2.954,0l6.279,5.333
	C-70.389,266.852-70.271,268.291-71.087,269.252z"/>
</svg>
