<?xml version="1.0" encoding="utf-8"?>
<!-- Generator: Adobe Illustrator 16.0.0, SVG Export Plug-In . SVG Version: 6.00 Build 0)  -->
<!DOCTYPE svg PUBLIC "-//W3C//DTD SVG 1.1//EN" "http://www.w3.org/Graphics/SVG/1.1/DTD/svg11.dtd">
<svg version="1.1" id="Layer_1" xmlns="http://www.w3.org/2000/svg" xmlns:xlink="http://www.w3.org/1999/xlink" x="0px" y="0px"
	 width="50px" height="50px" viewBox="-35.5 244.5 50 50" enable-background="new -35.5 244.5 50 50" xml:space="preserve">
<path d="M-9.105,249.5c-11.027,0-20,8.972-20,20s8.973,20,20,20c11.028,0,20-8.972,20-20S1.923,249.5-9.105,249.5z M-3.005,271.523
	l-7.356,8.692c-0.621,0.735-1.51,1.115-2.402,1.117c-0.722,0-1.447-0.244-2.041-0.747c-1.33-1.125-1.496-3.115-0.37-4.444
	l5.626-6.648l-5.648-6.629c-1.131-1.325-0.971-3.315,0.354-4.445c1.327-1.129,3.316-0.97,4.445,0.355l7.387,8.667
	C-2.01,268.617-2.008,270.345-3.005,271.523z"/>
</svg>
