<?xml version="1.0" encoding="utf-8"?>
<!-- Generator: Adobe Illustrator 16.0.0, SVG Export Plug-In . SVG Version: 6.00 Build 0)  -->
<!DOCTYPE svg PUBLIC "-//W3C//DTD SVG 1.1//EN" "http://www.w3.org/Graphics/SVG/1.1/DTD/svg11.dtd">
<svg version="1.1" id="Layer_1" xmlns="http://www.w3.org/2000/svg" xmlns:xlink="http://www.w3.org/1999/xlink" x="0px" y="0px"
	 width="50px" height="50px" viewBox="34.5 244.5 50 50" enable-background="new 34.5 244.5 50 50" xml:space="preserve">
<path d="M60.895,249.5c-11.027,0-20,8.972-20,20s8.973,20,20,20c11.029,0,20-8.972,20-20S71.924,249.5,60.895,249.5z
	 M66.633,280.579c-0.592,0.506-1.316,0.753-2.037,0.754c-0.895,0.002-1.783-0.375-2.408-1.108l-7.385-8.667
	c-1.004-1.175-1.006-2.902-0.008-4.081l7.355-8.693c1.125-1.329,3.115-1.495,4.443-0.37c1.33,1.125,1.496,3.115,0.371,4.444
	l-5.625,6.648l5.648,6.629C68.117,277.46,67.959,279.45,66.633,280.579z"/>
</svg>
