<?xml version="1.0" encoding="utf-8"?>
<!-- Generator: Adobe Illustrator 16.0.0, SVG Export Plug-In . SVG Version: 6.00 Build 0)  -->
<!DOCTYPE svg PUBLIC "-//W3C//DTD SVG 1.1//EN" "http://www.w3.org/Graphics/SVG/1.1/DTD/svg11.dtd">
<svg version="1.1" id="Layer_1" xmlns="http://www.w3.org/2000/svg" xmlns:xlink="http://www.w3.org/1999/xlink" x="0px" y="0px"
	 width="50px" height="50px" viewBox="104.5 244.5 50 50" enable-background="new 104.5 244.5 50 50" xml:space="preserve">
<path d="M129.375,249.5c-11.027,0-20,8.972-20,20s8.973,20,20,20c11.029,0,20-8.972,20-20S140.404,249.5,129.375,249.5z
	 M140.1,268.206l-8.666,7.386c-0.588,0.501-1.314,0.752-2.041,0.754c-0.725,0.001-1.451-0.248-2.041-0.746l-8.693-7.356
	c-1.328-1.125-1.494-3.115-0.369-4.443c1.125-1.331,3.115-1.496,4.443-0.371l6.648,5.626l6.629-5.648
	c1.326-1.13,3.316-0.97,4.445,0.354C141.584,265.087,141.426,267.077,140.1,268.206z"/>
</svg>
