<?xml version="1.0" encoding="utf-8"?>
<!-- Generator: Adobe Illustrator 16.0.0, SVG Export Plug-In . SVG Version: 6.00 Build 0)  -->
<!DOCTYPE svg PUBLIC "-//W3C//DTD SVG 1.1//EN" "http://www.w3.org/Graphics/SVG/1.1/DTD/svg11.dtd">
<svg version="1.1" id="Layer_1" xmlns="http://www.w3.org/2000/svg" xmlns:xlink="http://www.w3.org/1999/xlink" x="0px" y="0px"
	 width="50px" height="50px" viewBox="244.5 -245.5 50 50" enable-background="new 244.5 -245.5 50 50" xml:space="preserve">
<path d="M269.818-210.779c-0.307-0.308-0.677-0.507-1.066-0.621c1.603-2.94,1.166-6.706-1.319-9.19
	c-0.418-0.418-0.875-0.772-1.355-1.074v-0.733c0-2.209-1.791-4-4-4s-4,1.791-4,4v0.585c-0.572,0.331-1.115,0.732-1.605,1.222
	c-3.021,3.022-3.021,7.938,0,10.96c2.485,2.485,6.251,2.922,9.191,1.319c0.113,0.39,0.313,0.76,0.62,1.068l6.364,6.364
	c0.977,0.977,2.559,0.977,3.535,0s0.977-2.559,0-3.536L269.818-210.779z M265.311-211.751c-1.852,1.852-4.865,1.852-6.717,0
	c-1.853-1.852-1.853-4.865,0-6.718c1.852-1.852,4.865-1.852,6.717,0C267.163-216.617,267.163-213.603,265.311-211.751z
	 M288.577-237.897v25.5c0,2.209-1.791,4-4,4s-4-1.791-4-4v-25.5c0-2.209,1.791-4,4-4S288.577-240.106,288.577-237.897z
	 M278.827-227.897v15.5c0,2.209-1.791,4-4,4s-4-1.791-4-4v-15.5c0-2.209,1.791-4,4-4S278.827-230.106,278.827-227.897z"/>
</svg>
