<?xml version="1.0" encoding="utf-8"?>
<!-- Generator: Adobe Illustrator 16.0.0, SVG Export Plug-In . SVG Version: 6.00 Build 0)  -->
<!DOCTYPE svg PUBLIC "-//W3C//DTD SVG 1.1//EN" "http://www.w3.org/Graphics/SVG/1.1/DTD/svg11.dtd">
<svg version="1.1" id="Layer_1" xmlns="http://www.w3.org/2000/svg" xmlns:xlink="http://www.w3.org/1999/xlink" x="0px" y="0px"
	 width="50px" height="50px" viewBox="314.5 244.5 50 50" enable-background="new 314.5 244.5 50 50" xml:space="preserve">
<path d="M340.895,249.5c-11.027,0-20,8.972-20,20s8.973,20,20,20c11.029,0,20-8.972,20-20S351.924,249.5,340.895,249.5z
	 M344.334,281.249c0,1.048-0.85,1.896-1.896,1.896h-3.086c-1.049,0-1.896-0.849-1.896-1.896v-10.295
	c0-1.047,0.848-1.896,1.896-1.896h3.086c1.047,0,1.896,0.85,1.896,1.896V281.249z M344.334,265.264c0,1.048-0.85,1.896-1.896,1.896
	h-3.086c-1.049,0-1.896-0.849-1.896-1.896v-3.251c0-1.048,0.848-1.896,1.896-1.896h3.086c1.047,0,1.896,0.849,1.896,1.896V265.264z"
	/>
</svg>
