<?xml version="1.0" encoding="utf-8"?>
<!-- Generator: Adobe Illustrator 16.0.0, SVG Export Plug-In . SVG Version: 6.00 Build 0)  -->
<!DOCTYPE svg PUBLIC "-//W3C//DTD SVG 1.1//EN" "http://www.w3.org/Graphics/SVG/1.1/DTD/svg11.dtd">
<svg version="1.1" id="Layer_1" xmlns="http://www.w3.org/2000/svg" xmlns:xlink="http://www.w3.org/1999/xlink" x="0px" y="0px"
	 width="50px" height="50px" viewBox="-175.5 314.5 50 50" enable-background="new -175.5 314.5 50 50" xml:space="preserve">
<path d="M-128.061,338.532l-5.15,6.38c-0.494,0.612-1.217,0.93-1.945,0.93c-0.553,0-1.107-0.182-1.57-0.555l-6.379-5.15
	c-1.074-0.867-1.242-2.441-0.375-3.516c0.867-1.075,2.441-1.241,3.516-0.375l1.885,1.522c-0.559-3.645-2.891-6.867-6.402-8.484
	c-4.732-2.175-10.289-0.837-13.518,3.26c-0.854,1.085-2.428,1.27-3.51,0.416c-1.086-0.854-1.271-2.427-0.416-3.512
	c4.662-5.916,12.695-7.851,19.533-4.706c5.039,2.32,8.395,6.928,9.234,12.146l1.207-1.497c0.867-1.074,2.441-1.241,3.516-0.375
	C-127.361,335.884-127.193,337.458-128.061,338.532z M-136.854,346.041c-1.086-0.854-2.656-0.668-3.512,0.417
	c-3.227,4.095-8.783,5.434-13.516,3.256c-3.494-1.605-5.818-4.802-6.393-8.421l2.029,1.639c1.074,0.865,2.646,0.7,3.516-0.375
	c0.867-1.074,0.699-2.648-0.375-3.516l-6.381-5.151c-0.514-0.416-1.172-0.605-1.834-0.541c-0.66,0.07-1.264,0.4-1.682,0.916
	l-5.15,6.379c-0.867,1.074-0.699,2.648,0.375,3.516c0.463,0.373,1.018,0.555,1.57,0.555c0.729,0,1.451-0.317,1.945-0.93l1.109-1.373
	c0.916,5.095,4.236,9.571,9.18,11.846c2.193,1.009,4.51,1.495,6.799,1.495c4.846,0,9.566-2.182,12.734-6.2
	C-135.584,348.468-135.77,346.896-136.854,346.041z"/>
</svg>
