<?xml version="1.0" encoding="utf-8"?>
<!-- Generator: Adobe Illustrator 16.0.0, SVG Export Plug-In . SVG Version: 6.00 Build 0)  -->
<!DOCTYPE svg PUBLIC "-//W3C//DTD SVG 1.1//EN" "http://www.w3.org/Graphics/SVG/1.1/DTD/svg11.dtd">
<svg version="1.1" id="Layer_1" xmlns="http://www.w3.org/2000/svg" xmlns:xlink="http://www.w3.org/1999/xlink" x="0px" y="0px"
	 width="50px" height="50px" viewBox="-105.5 314.5 50 50" enable-background="new -105.5 314.5 50 50" xml:space="preserve">
<path d="M-73.348,336.598l1.199-1.198h-10.615c-3.676,0-6.666,2.99-6.666,6.666s2.99,6.667,6.666,6.667h14.668
	c1.381,0,2.5,1.119,2.5,2.5s-1.119,2.5-2.5,2.5h-14.668c-6.433,0-11.666-5.233-11.666-11.667c0-6.433,5.233-11.666,11.666-11.666
	h10.281l-0.863-0.864c-0.977-0.977-0.977-2.559,0-3.535c0.975-0.977,2.559-0.977,3.535,0l5.299,5.299
	c0.469,0.469,0.732,1.104,0.732,1.768s-0.264,1.299-0.732,1.768l-5.301,5.299c-0.488,0.488-1.127,0.732-1.768,0.732
	c-0.64,0-1.279-0.244-1.768-0.732C-74.324,339.156-74.324,337.573-73.348,336.598z"/>
</svg>
