<?xml version="1.0" encoding="utf-8"?>
<!-- Generator: Adobe Illustrator 16.0.0, SVG Export Plug-In . SVG Version: 6.00 Build 0)  -->
<!DOCTYPE svg PUBLIC "-//W3C//DTD SVG 1.1//EN" "http://www.w3.org/Graphics/SVG/1.1/DTD/svg11.dtd">
<svg version="1.1" id="Layer_1" xmlns="http://www.w3.org/2000/svg" xmlns:xlink="http://www.w3.org/1999/xlink" x="0px" y="0px"
	 width="50px" height="50px" viewBox="-35.5 314.5 50 50" enable-background="new -35.5 314.5 50 50" xml:space="preserve">
<path d="M6.221,342.065c0,6.434-5.234,11.667-11.668,11.667h-14.666c-1.381,0-2.5-1.119-2.5-2.5s1.119-2.5,2.5-2.5h14.666
	c3.677,0,6.668-2.991,6.668-6.667s-2.991-6.666-6.668-6.666h-10.613l1.197,1.198c0.977,0.976,0.977,2.559,0.001,3.535
	c-0.488,0.488-1.128,0.732-1.769,0.732c-0.639,0-1.279-0.244-1.768-0.732l-5.299-5.299c-0.469-0.469-0.732-1.104-0.732-1.768
	s0.263-1.299,0.732-1.768l5.299-5.299c0.975-0.977,2.559-0.977,3.535,0s0.977,2.559,0,3.535l-0.865,0.864h10.281
	C0.986,330.399,6.221,335.633,6.221,342.065z"/>
</svg>
