<?xml version="1.0" encoding="utf-8"?>
<!-- Generator: Adobe Illustrator 16.0.0, SVG Export Plug-In . SVG Version: 6.00 Build 0)  -->
<!DOCTYPE svg PUBLIC "-//W3C//DTD SVG 1.1//EN" "http://www.w3.org/Graphics/SVG/1.1/DTD/svg11.dtd">
<svg version="1.1" id="Layer_1" xmlns="http://www.w3.org/2000/svg" xmlns:xlink="http://www.w3.org/1999/xlink" x="0px" y="0px"
	 width="50px" height="50px" viewBox="104.5 314.5 50 50" enable-background="new 104.5 314.5 50 50" xml:space="preserve">
<path d="M146.645,346.938v8.25c0,1.381-1.119,2.5-2.5,2.5h-26.5c-1.381,0-2.5-1.119-2.5-2.5v-8.25c0-1.381,1.119-2.5,2.5-2.5
	s2.5,1.119,2.5,2.5v5.75h21.5v-5.75c0-1.381,1.119-2.5,2.5-2.5S146.645,345.557,146.645,346.938z M129.127,349.08
	c0.488,0.488,1.129,0.732,1.768,0.732c0.641,0,1.279-0.244,1.768-0.732l7.5-7.498c0.977-0.976,0.977-2.559,0-3.535
	c-0.975-0.977-2.559-0.977-3.535,0l-3.232,3.231v-17.466c0-1.381-1.119-2.5-2.5-2.5s-2.5,1.119-2.5,2.5v17.466l-3.232-3.231
	c-0.977-0.977-2.561-0.977-3.535,0c-0.977,0.977-0.977,2.56,0,3.535L129.127,349.08z"/>
</svg>
