<?xml version="1.0" encoding="utf-8"?>
<!-- Generator: Adobe Illustrator 16.0.0, SVG Export Plug-In . SVG Version: 6.00 Build 0)  -->
<!DOCTYPE svg PUBLIC "-//W3C//DTD SVG 1.1//EN" "http://www.w3.org/Graphics/SVG/1.1/DTD/svg11.dtd">
<svg version="1.1" id="Layer_1" xmlns="http://www.w3.org/2000/svg" xmlns:xlink="http://www.w3.org/1999/xlink" x="0px" y="0px"
	 width="50px" height="50px" viewBox="244.5 314.5 50 50" enable-background="new 244.5 314.5 50 50" xml:space="preserve">
<path d="M283.232,327.5v24c0,2.209-1.791,4-4,4s-4-1.791-4-4v-9.805c-0.088,0.134-0.172,0.27-0.277,0.394l-9.35,11.01
	c-0.791,0.932-1.916,1.411-3.051,1.411c-0.914,0-1.834-0.313-2.586-0.951c-1.686-1.43-1.891-3.954-0.461-5.638l7.15-8.421
	l-7.15-8.421c-1.43-1.684-1.225-4.208,0.461-5.638c1.684-1.431,4.207-1.224,5.637,0.46l9.35,11.01
	c0.105,0.124,0.189,0.26,0.277,0.394V327.5c0-2.209,1.791-4,4-4S283.232,325.291,283.232,327.5z"/>
</svg>
