<?xml version="1.0" encoding="utf-8"?>
<!-- Generator: Adobe Illustrator 16.0.0, SVG Export Plug-In . SVG Version: 6.00 Build 0)  -->
<!DOCTYPE svg PUBLIC "-//W3C//DTD SVG 1.1//EN" "http://www.w3.org/Graphics/SVG/1.1/DTD/svg11.dtd">
<svg version="1.1" id="Layer_1" xmlns="http://www.w3.org/2000/svg" xmlns:xlink="http://www.w3.org/1999/xlink" x="0px" y="0px"
	 width="50px" height="50px" viewBox="314.5 -245.5 50 50" enable-background="new 314.5 -245.5 50 50" xml:space="preserve">
<path d="M353.561-240.354h-24.338c-1.104,0-2,0.896-2,2v34.664c0,1.104,0.896,2,2,2h24.338c1.104,0,2-0.896,2-2v-34.664
	C355.561-239.458,354.665-240.354,353.561-240.354z M351.561-205.69h-20.338v-30.664h20.338V-205.69z M348.892-228.147h-15v-4h15
	V-228.147z M333.985-223.834h2.625v2.625h-2.625V-223.834z M338.048-223.834h2.625v2.625h-2.625V-223.834z M342.11-223.834h2.625
	v2.625h-2.625V-223.834z M346.173-223.834h2.625v2.625h-2.625V-223.834z M333.985-220.022h2.625v2.625h-2.625V-220.022z
	 M338.048-220.022h2.625v2.625h-2.625V-220.022z M342.11-220.022h2.625v2.625h-2.625V-220.022z M346.173-220.022h2.625v2.625h-2.625
	V-220.022z M333.985-216.209h2.625v2.625h-2.625V-216.209z M338.048-216.209h2.625v2.625h-2.625V-216.209z M342.11-216.209h2.625
	v2.625h-2.625V-216.209z M346.173-216.209h2.625v2.625h-2.625V-216.209z M333.985-212.397h2.625v2.625h-2.625V-212.397z
	 M338.048-212.397h2.625v2.625h-2.625V-212.397z M342.11-212.397h2.625v2.625h-2.625V-212.397z M346.173-212.397h2.625v2.625h-2.625
	V-212.397z"/>
</svg>
