<?xml version="1.0" encoding="utf-8"?>
<!-- Generator: Adobe Illustrator 16.0.0, SVG Export Plug-In . SVG Version: 6.00 Build 0)  -->
<!DOCTYPE svg PUBLIC "-//W3C//DTD SVG 1.1//EN" "http://www.w3.org/Graphics/SVG/1.1/DTD/svg11.dtd">
<svg version="1.1" id="Layer_1" xmlns="http://www.w3.org/2000/svg" xmlns:xlink="http://www.w3.org/1999/xlink" x="0px" y="0px"
	 width="50px" height="50px" viewBox="314.5 -245.5 50 50" enable-background="new 314.5 -245.5 50 50" xml:space="preserve">
<path d="M349.753-227.627v14.923c0,1.104-0.896,2-2,2h-14.924c-1.104,0-2-0.896-2-2v-14.923c0-1.104,0.896-2,2-2h14.924
	C348.857-229.627,349.753-228.731,349.753-227.627z M353.497-229.916c-0.828,0-1.5,0.671-1.5,1.5v16.164c0,0.829,0.672,1.5,1.5,1.5
	s1.5-0.671,1.5-1.5v-16.164C354.997-229.244,354.325-229.916,353.497-229.916z M358.541-229.579c-0.828,0-1.5,0.671-1.5,1.5v16.164
	c0,0.829,0.672,1.5,1.5,1.5s1.5-0.671,1.5-1.5v-16.164C360.041-228.908,359.369-229.579,358.541-229.579z M322.041-229.916
	c-0.828,0-1.5,0.671-1.5,1.5v16.164c0,0.829,0.672,1.5,1.5,1.5s1.5-0.671,1.5-1.5v-16.164
	C323.541-229.244,322.869-229.916,322.041-229.916z M327.085-229.579c-0.828,0-1.5,0.671-1.5,1.5v16.164c0,0.829,0.672,1.5,1.5,1.5
	s1.5-0.671,1.5-1.5v-16.164C328.585-228.908,327.913-229.579,327.085-229.579z"/>
</svg>
