<?xml version="1.0" encoding="utf-8"?>
<!-- Generator: Adobe Illustrator 16.0.0, SVG Export Plug-In . SVG Version: 6.00 Build 0)  -->
<!DOCTYPE svg PUBLIC "-//W3C//DTD SVG 1.1//EN" "http://www.w3.org/Graphics/SVG/1.1/DTD/svg11.dtd">
<svg version="1.1" id="Layer_1" xmlns="http://www.w3.org/2000/svg" xmlns:xlink="http://www.w3.org/1999/xlink" x="0px" y="0px"
	 width="50px" height="50px" viewBox="314.5 314.5 50 50" enable-background="new 314.5 314.5 50 50" xml:space="preserve">
<path d="M352.281,347.921c1.43,1.684,1.225,4.208-0.459,5.638c-0.752,0.639-1.672,0.951-2.588,0.951
	c-1.133,0-2.26-0.479-3.051-1.411l-9.35-11.01c-0.105-0.124-0.189-0.26-0.277-0.394v9.805c0,2.209-1.791,4-4,4s-4-1.791-4-4v-24
	c0-2.209,1.791-4,4-4s4,1.791,4,4v9.805c0.088-0.134,0.172-0.27,0.277-0.394l9.35-11.01c1.43-1.684,3.953-1.891,5.639-0.46
	c1.684,1.43,1.889,3.954,0.459,5.638l-7.15,8.421L352.281,347.921z"/>
</svg>
