<?xml version="1.0" encoding="utf-8"?>
<!-- Generator: Adobe Illustrator 16.0.0, SVG Export Plug-In . SVG Version: 6.00 Build 0)  -->
<!DOCTYPE svg PUBLIC "-//W3C//DTD SVG 1.1//EN" "http://www.w3.org/Graphics/SVG/1.1/DTD/svg11.dtd">
<svg version="1.1" id="Layer_1" xmlns="http://www.w3.org/2000/svg" xmlns:xlink="http://www.w3.org/1999/xlink" x="0px" y="0px"
	 width="50px" height="50px" viewBox="-315.5 -315.5 50 50" enable-background="new -315.5 -315.5 50 50" xml:space="preserve">
<path d="M-305.526-297.095c0.135-0.114,0.264-0.233,0.42-0.323l14.963-8.639c0.928-0.536,2.072-0.536,3,0l14.961,8.639
	c0.156,0.09,0.285,0.209,0.42,0.323l-16.881,9.822L-305.526-297.095z M-279.964-288.852l7.234,10.854
	c0.459,0.689,0.273,1.621-0.416,2.08c-0.256,0.17-0.545,0.252-0.83,0.252c-0.484,0-0.961-0.234-1.25-0.668l-7.332-11
	c-0.002-0.002-0.002-0.004-0.004-0.006l-5.328,3.1c-0.234,0.136-0.494,0.204-0.754,0.204c-0.262,0-0.521-0.068-0.756-0.204
	l-5.328-3.1c0,0.002-0.002,0.004-0.002,0.006l-7.334,11c-0.289,0.434-0.764,0.668-1.25,0.668c-0.285,0-0.574-0.082-0.83-0.252
	c-0.689-0.459-0.875-1.391-0.416-2.08l7.236-10.854l-9.283-5.401v16.711c0,1.657,1.344,3,3,3h29.924c1.658,0,3-1.343,3-3v-16.711
	L-279.964-288.852z"/>
</svg>
