<?xml version="1.0" encoding="utf-8"?>
<!-- Generator: Adobe Illustrator 16.0.0, SVG Export Plug-In . SVG Version: 6.00 Build 0)  -->
<!DOCTYPE svg PUBLIC "-//W3C//DTD SVG 1.1//EN" "http://www.w3.org/Graphics/SVG/1.1/DTD/svg11.dtd">
<svg version="1.1" id="Layer_1" xmlns="http://www.w3.org/2000/svg" xmlns:xlink="http://www.w3.org/1999/xlink" x="0px" y="0px"
	 width="50px" height="50px" viewBox="-245.5 -315.5 50 50" enable-background="new -245.5 -315.5 50 50" xml:space="preserve">
<path d="M-201.763-297.095c-0.135-0.114-0.264-0.233-0.42-0.323l-14.961-8.639c-0.928-0.536-2.072-0.536-3,0l-14.963,8.639
	c-0.156,0.09-0.285,0.209-0.42,0.323l16.883,9.822L-201.763-297.095z M-220.163-291.39v-6.119l-1.68,1.427
	c-0.287,0.242-0.635,0.361-0.984,0.361c-0.43,0-0.857-0.182-1.158-0.536c-0.543-0.641-0.465-1.599,0.174-2.142l4.182-3.553
	c0.57-0.48,1.402-0.481,1.969-0.001l4.182,3.554c0.641,0.544,0.719,1.502,0.176,2.142c-0.543,0.64-1.502,0.717-2.143,0.174
	l-1.68-1.425l0.002,6.118c0,0.838-0.68,1.52-1.521,1.52C-219.483-289.87-220.163-290.551-220.163-291.39z M-200.683-294.253v16.711
	c0,1.657-1.342,3-3,3h-29.924c-1.656,0-3-1.343-3-3v-16.711l9.283,5.401l-7.236,10.854c-0.459,0.689-0.273,1.621,0.416,2.08
	c0.256,0.17,0.545,0.252,0.83,0.252c0.486,0,0.961-0.234,1.25-0.668l7.334-11c0-0.002,0.002-0.004,0.002-0.006l5.328,3.1
	c0.234,0.136,0.494,0.204,0.756,0.204c0.26,0,0.52-0.068,0.754-0.204l5.328-3.1c0.002,0.002,0.002,0.004,0.004,0.006l7.332,11
	c0.289,0.434,0.766,0.668,1.25,0.668c0.285,0,0.574-0.082,0.83-0.252c0.689-0.459,0.875-1.391,0.416-2.08l-7.234-10.854
	L-200.683-294.253z"/>
</svg>
