<?xml version="1.0" encoding="utf-8"?>
<!-- Generator: Adobe Illustrator 16.0.0, SVG Export Plug-In . SVG Version: 6.00 Build 0)  -->
<!DOCTYPE svg PUBLIC "-//W3C//DTD SVG 1.1//EN" "http://www.w3.org/Graphics/SVG/1.1/DTD/svg11.dtd">
<svg version="1.1" id="Layer_1" xmlns="http://www.w3.org/2000/svg" xmlns:xlink="http://www.w3.org/1999/xlink" x="0px" y="0px"
	 width="50px" height="50px" viewBox="-35.5 -315.5 50 50" enable-background="new -35.5 -315.5 50 50" xml:space="preserve">
<path d="M-16.759-286.01c0.148,0.184,0.225,0.489,0.225,0.914v0.243v1.786c0,0.213-0.021,0.413-0.063,0.599
	c-0.043,0.186-0.096,0.328-0.162,0.424c-0.111,0.133-0.268,0.226-0.469,0.277c-0.203,0.052-0.502,0.082-0.896,0.091
	c-0.406-0.012-0.709-0.037-0.904-0.076s-0.346-0.136-0.451-0.292c-0.125-0.208-0.188-0.587-0.188-1.139v-1.597
	c0-0.084-0.006-0.153-0.018-0.206c0.025-0.404,0.082-0.704,0.17-0.898c0.076-0.172,0.227-0.289,0.453-0.349
	c0.225-0.061,0.547-0.091,0.965-0.091c0.229,0,0.439,0.006,0.637,0.018C-17.14-286.265-16.905-286.166-16.759-286.01z
	 M-10.769-286.196c-0.15-0.05-0.371-0.074-0.66-0.074h-1.67v2.351h1.635c0.479,0,0.779-0.06,0.904-0.18
	c0.121-0.098,0.193-0.205,0.217-0.32c0.023-0.115,0.041-0.322,0.053-0.622c0-0.425-0.047-0.724-0.141-0.898
	C-10.505-286.061-10.616-286.146-10.769-286.196z M7.519-289.583v10c0,1.933-1.566,3.5-3.5,3.5h-25.326c-1.934,0-3.5-1.567-3.5-3.5
	v-10c0-1.933,1.566-3.5,3.5-3.5h4.023l4.695-6.383c-0.133-0.406-0.223-0.832-0.223-1.283c0-2.301,1.867-4.167,4.168-4.167
	s4.166,1.866,4.166,4.167c0,0.451-0.09,0.876-0.223,1.283l4.695,6.383h4.023C5.952-293.083,7.519-291.517,7.519-289.583z
	 M-15.233-285.042c0-0.516-0.053-0.906-0.158-1.173c-0.107-0.267-0.195-0.438-0.266-0.514c-0.133-0.203-0.336-0.356-0.611-0.46
	c-0.273-0.104-0.563-0.17-0.867-0.198c-0.303-0.029-0.629-0.043-0.98-0.043c-0.369,0-0.697,0.013-0.986,0.037
	c-0.289,0.025-0.568,0.088-0.838,0.188c-0.271,0.101-0.479,0.253-0.625,0.458c-0.156,0.228-0.26,0.494-0.311,0.797
	s-0.076,0.651-0.076,1.041v1.84c0,0.921,0.172,1.552,0.512,1.893c0.221,0.241,0.508,0.399,0.857,0.473
	c0.352,0.075,0.783,0.112,1.297,0.112c0.42,0,0.781-0.012,1.08-0.035c0.301-0.023,0.592-0.087,0.875-0.19s0.502-0.262,0.656-0.475
	c0.141-0.203,0.25-0.416,0.326-0.638c0.076-0.222,0.115-0.536,0.115-0.942V-285.042z M-14.802-293.083h12.314l-3.373-4.586
	c-0.738,0.668-1.709,1.086-2.783,1.086c-1.076,0-2.045-0.418-2.785-1.086L-14.802-293.083z M-9.015-285.096
	c0-0.606-0.08-1.096-0.242-1.47c-0.178-0.342-0.457-0.562-0.832-0.661c-0.377-0.099-0.83-0.148-1.357-0.148h-2.943v6.73h1.291
	v-2.171h1.967c0.348,0,0.684-0.046,1.006-0.137c0.322-0.091,0.551-0.222,0.689-0.393C-9.155-283.683-9.015-284.267-9.015-285.096z
	 M-3.595-281.749h-3.348v-1.786h3.16v-1.049h-3.16v-1.687h3.33v-1.104h-4.621v6.73h4.639V-281.749z M3.663-287.375H2.362
	l0.107,5.626H2.435l-2.889-5.626h-2.146v6.73h1.303l-0.035-2.835l-0.072-2.791h0.053l2.854,5.625h2.162V-287.375z"/>
</svg>
