<?xml version="1.0" encoding="utf-8"?>
<!-- Generator: Adobe Illustrator 16.0.0, SVG Export Plug-In . SVG Version: 6.00 Build 0)  -->
<!DOCTYPE svg PUBLIC "-//W3C//DTD SVG 1.1//EN" "http://www.w3.org/Graphics/SVG/1.1/DTD/svg11.dtd">
<svg version="1.1" id="Layer_1" xmlns="http://www.w3.org/2000/svg" xmlns:xlink="http://www.w3.org/1999/xlink" x="0px" y="0px"
	 width="50px" height="50px" viewBox="34.5 -315.5 50 50" enable-background="new 34.5 -315.5 50 50" xml:space="preserve">
<path d="M62.507-285.954c0.141,0.172,0.209,0.458,0.209,0.857v0.228v1.676c0,0.2-0.02,0.387-0.059,0.562s-0.09,0.308-0.15,0.398
	c-0.105,0.125-0.252,0.212-0.441,0.26c-0.189,0.049-0.471,0.077-0.84,0.085c-0.383-0.011-0.666-0.035-0.85-0.071
	c-0.184-0.036-0.324-0.128-0.424-0.274c-0.117-0.195-0.176-0.551-0.176-1.069v-1.5c0-0.079-0.006-0.144-0.018-0.193
	c0.025-0.379,0.078-0.661,0.16-0.843c0.072-0.162,0.213-0.271,0.426-0.328c0.211-0.058,0.514-0.086,0.906-0.086
	c0.213,0,0.412,0.005,0.598,0.017C62.147-286.193,62.368-286.101,62.507-285.954z M77.519-289.583v10c0,1.933-1.566,3.5-3.5,3.5
	H48.692c-1.934,0-3.5-1.567-3.5-3.5v-10c0-1.933,1.566-3.5,3.5-3.5h4.023l4.695-6.383c-0.133-0.406-0.223-0.832-0.223-1.283
	c0-2.301,1.867-4.167,4.168-4.167s4.166,1.866,4.166,4.167c0,0.451-0.09,0.876-0.223,1.283l4.695,6.383h4.023
	C75.952-293.083,77.519-291.517,77.519-289.583z M55.198-293.083h12.314l-3.373-4.586c-0.738,0.668-1.709,1.086-2.783,1.086
	c-1.076,0-2.045-0.418-2.785-1.086L55.198-293.083z M53.216-283.175h-1.195c-0.004,0.101-0.008,0.211-0.012,0.33
	c-0.006,0.119-0.014,0.216-0.023,0.292c-0.008,0.077-0.027,0.152-0.053,0.227c-0.027,0.074-0.064,0.136-0.115,0.187
	c-0.109,0.104-0.271,0.177-0.488,0.22c-0.123,0.011-0.365,0.016-0.725,0.016c-0.297,0-0.529-0.012-0.697-0.038
	c-0.168-0.024-0.314-0.085-0.439-0.183c-0.207-0.141-0.313-0.528-0.313-1.162v-1.651c0-0.533,0.088-0.884,0.26-1.053
	c0.098-0.097,0.229-0.165,0.395-0.203c0.164-0.039,0.406-0.058,0.727-0.058h0.178c0.572,0,0.924,0.062,1.053,0.186
	c0.123,0.116,0.186,0.302,0.186,0.557v0.395h1.195c0-0.25-0.008-0.472-0.023-0.667c-0.018-0.195-0.061-0.395-0.133-0.598
	c-0.07-0.204-0.182-0.374-0.334-0.511c-0.139-0.124-0.313-0.214-0.521-0.271s-0.426-0.093-0.646-0.106
	c-0.223-0.013-0.51-0.02-0.861-0.02c-0.311,0-0.6,0.015-0.869,0.045c-0.27,0.03-0.525,0.093-0.768,0.188
	c-0.24,0.094-0.432,0.231-0.578,0.409c-0.148,0.193-0.256,0.404-0.322,0.631c-0.064,0.228-0.105,0.48-0.119,0.758
	c-0.014,0.278-0.021,0.688-0.021,1.231c0,0.53,0.008,0.942,0.025,1.236c0.016,0.293,0.061,0.563,0.135,0.811
	s0.191,0.452,0.352,0.613c0.344,0.343,0.951,0.515,1.82,0.515c0.047-0.003,0.213-0.008,0.5-0.017
	c0.285-0.008,0.525-0.02,0.723-0.035c0.559-0.037,0.975-0.163,1.248-0.378c0.309-0.281,0.463-0.729,0.463-1.347v-0.152V-283.175z
	 M58.22-281.954h-2.965v-5.28h-1.223v6.316h4.188V-281.954z M63.937-285.045c0-0.484-0.049-0.85-0.148-1.101
	c-0.098-0.25-0.182-0.411-0.248-0.482c-0.125-0.191-0.314-0.334-0.572-0.432c-0.258-0.098-0.529-0.16-0.816-0.187
	c-0.283-0.027-0.59-0.04-0.918-0.04c-0.348,0-0.656,0.012-0.928,0.035c-0.271,0.024-0.533,0.083-0.787,0.177
	c-0.252,0.094-0.449,0.238-0.586,0.43c-0.146,0.213-0.244,0.463-0.291,0.749s-0.07,0.611-0.07,0.977v1.728
	c0,0.865,0.16,1.457,0.479,1.776c0.209,0.226,0.477,0.374,0.807,0.444c0.328,0.07,0.734,0.105,1.217,0.105
	c0.395,0,0.732-0.011,1.014-0.033c0.281-0.021,0.555-0.081,0.82-0.178c0.266-0.098,0.473-0.246,0.617-0.446
	c0.131-0.191,0.232-0.39,0.305-0.599s0.107-0.503,0.107-0.884V-285.045z M69.665-282.746c-0.008-0.221-0.014-0.379-0.02-0.473
	c-0.006-0.095-0.021-0.206-0.047-0.335c-0.027-0.129-0.072-0.252-0.131-0.37c-0.061-0.118-0.145-0.22-0.25-0.304
	c-0.172-0.131-0.422-0.22-0.746-0.268c-0.328-0.048-0.74-0.088-1.24-0.12c-0.146-0.009-0.305-0.02-0.471-0.031
	c-0.164-0.012-0.307-0.029-0.428-0.053c-0.123-0.023-0.225-0.057-0.307-0.101c-0.102-0.054-0.164-0.126-0.189-0.22
	c-0.025-0.093-0.043-0.245-0.055-0.455c0-0.184,0.016-0.323,0.049-0.416c0.033-0.094,0.088-0.168,0.162-0.225
	c0.143-0.112,0.453-0.168,0.934-0.168h0.498c0.406,0,0.66,0.056,0.76,0.169c0.082,0.089,0.125,0.252,0.125,0.488v0.254h1.221
	c0-0.373-0.031-0.681-0.09-0.925c-0.061-0.244-0.197-0.452-0.408-0.624c-0.199-0.168-0.494-0.278-0.883-0.329
	c-0.242-0.023-0.645-0.035-1.205-0.035c-0.926,0-1.557,0.132-1.887,0.396c-0.32,0.281-0.48,0.775-0.48,1.483
	c0.021,0.677,0.199,1.138,0.531,1.382c0.117,0.09,0.266,0.164,0.443,0.219c0.176,0.056,0.355,0.094,0.533,0.116
	c0.18,0.022,0.369,0.038,0.568,0.047c0.199,0.01,0.412,0.019,0.637,0.029c0.129,0.007,0.246,0.013,0.352,0.019
	c0.104,0.006,0.189,0.014,0.256,0.024c0.07,0.01,0.137,0.027,0.203,0.053c0.066,0.025,0.123,0.058,0.168,0.098
	c0.117,0.126,0.176,0.334,0.176,0.625c0,0.414-0.094,0.677-0.279,0.792c-0.104,0.061-0.234,0.101-0.389,0.12
	c-0.158,0.02-0.389,0.035-0.697,0.049c-0.055-0.012-0.143-0.018-0.262-0.018c-0.244-0.01-0.434-0.027-0.568-0.052
	s-0.242-0.075-0.322-0.149c-0.072-0.064-0.119-0.147-0.145-0.248c-0.023-0.101-0.041-0.249-0.049-0.444
	c0.01-0.045,0.016-0.104,0.016-0.177h-1.207c0,0.287,0.008,0.519,0.023,0.696s0.059,0.35,0.127,0.517
	c0.07,0.167,0.18,0.316,0.33,0.446c0.207,0.175,0.455,0.285,0.748,0.33s0.643,0.067,1.047,0.067h0.455
	c0.912,0,1.516-0.109,1.811-0.329c0.189-0.14,0.336-0.345,0.434-0.617C69.616-282.084,69.665-282.396,69.665-282.746z
	 M74.761-281.954h-3.143v-1.676h2.967v-0.985h-2.967v-1.583h3.127v-1.036h-4.338v6.316h4.354V-281.954z"/>
</svg>
