<?xml version="1.0" encoding="utf-8"?>
<!-- Generator: Adobe Illustrator 16.0.0, SVG Export Plug-In . SVG Version: 6.00 Build 0)  -->
<!DOCTYPE svg PUBLIC "-//W3C//DTD SVG 1.1//EN" "http://www.w3.org/Graphics/SVG/1.1/DTD/svg11.dtd">
<svg version="1.1" id="Layer_1" xmlns="http://www.w3.org/2000/svg" xmlns:xlink="http://www.w3.org/1999/xlink" x="0px" y="0px"
	 width="50px" height="50px" viewBox="104.5 -315.5 50 50" enable-background="new 104.5 -315.5 50 50" xml:space="preserve">
<path d="M144.019-295.667h-4.023l-4.695-6.383c0.133-0.406,0.223-0.832,0.223-1.283c0-2.301-1.865-4.167-4.166-4.167
	s-4.168,1.866-4.168,4.167c0,0.451,0.09,0.876,0.223,1.283l-4.695,6.383h-4.023c-1.934,0-3.5,1.567-3.5,3.5v10
	c0,1.933,1.566,3.5,3.5,3.5h25.326c1.934,0,3.5-1.567,3.5-3.5v-10C147.519-294.1,145.952-295.667,144.019-295.667z M124.462-285.477
	c0.162,0.258,0.242,0.639,0.242,1.141v1.247h-1.299v-1.014c0-0.234-0.012-0.428-0.033-0.582c-0.023-0.154-0.08-0.282-0.172-0.385
	c-0.094-0.103-0.201-0.169-0.326-0.2c-0.125-0.03-0.293-0.044-0.502-0.044h-0.133h-1.672v2.226h-1.291v-6.73h3.309
	c0.871,0,1.461,0.17,1.77,0.511c0.27,0.304,0.404,0.8,0.404,1.489c0,0.748-0.1,1.239-0.297,1.473
	c-0.178,0.217-0.475,0.364-0.895,0.44v0.026C123.96-285.842,124.259-285.708,124.462-285.477z M128.571-300.252
	c0.74,0.668,1.709,1.086,2.785,1.086c1.074,0,2.045-0.418,2.783-1.086l3.373,4.586h-12.314L128.571-300.252z M130.347-283.089
	h-4.639v-6.73h4.621v1.104h-3.328v1.687h3.158v1.049h-3.158v1.786h3.346V-283.089z M137.604-283.089h-2.162l-2.854-5.625h-0.053
	l0.072,2.791l0.035,2.835h-1.301v-6.73h2.145l2.889,5.626h0.035l-0.107-5.626h1.301V-283.089z M143.437-288.715h-1.982v5.625h-1.293
	v-5.625h-1.965v-1.104h5.24V-288.715z M123.306-288.474c0.104,0.152,0.154,0.439,0.154,0.863c0,0.46-0.063,0.771-0.188,0.933
	c-0.096,0.099-0.205,0.167-0.326,0.204s-0.295,0.055-0.52,0.055h-1.859v-2.295h1.822c0.236,0,0.428,0.014,0.574,0.043
	C123.108-288.642,123.222-288.576,123.306-288.474z"/>
</svg>
