<?xml version="1.0" encoding="utf-8"?>
<!-- Generator: Adobe Illustrator 16.0.0, SVG Export Plug-In . SVG Version: 6.00 Build 0)  -->
<!DOCTYPE svg PUBLIC "-//W3C//DTD SVG 1.1//EN" "http://www.w3.org/Graphics/SVG/1.1/DTD/svg11.dtd">
<svg version="1.1" id="Layer_1" xmlns="http://www.w3.org/2000/svg" xmlns:xlink="http://www.w3.org/1999/xlink" x="0px" y="0px"
	 width="50px" height="50px" viewBox="244.5 -315.5 50 50" enable-background="new 244.5 -315.5 50 50" xml:space="preserve">
<path d="M292.464-285.334v6.221c0,1.228-0.994,2.222-2.223,2.222h-6.221c-1.227,0-2.223-0.995-2.223-2.222v-1.777h-5.109v1.777
	c0,1.228-0.994,2.222-2.223,2.222h-6.221c-1.227,0-2.221-0.995-2.221-2.222v-1.777h-5.111v1.777c0,1.228-0.994,2.222-2.221,2.222
	h-6.223c-1.227,0-2.221-0.995-2.221-2.222v-6.221c0-1.228,0.994-2.222,2.221-2.222h6.223c1.227,0,2.221,0.995,2.221,2.222v1.778
	h5.111v-1.778c0-1.227,0.994-2.222,2.221-2.222h1.666v-5.888h-1.666c-1.227,0-2.221-0.995-2.221-2.222v-6.221
	c0-1.228,0.994-2.222,2.221-2.222h6.221c1.229,0,2.223,0.995,2.223,2.222v6.221c0,1.228-0.994,2.222-2.223,2.222h-1.889v5.888h1.889
	c1.229,0,2.223,0.995,2.223,2.222v1.778h5.109v-1.778c0-1.227,0.996-2.222,2.223-2.222h6.221
	C291.47-287.556,292.464-286.562,292.464-285.334z"/>
</svg>
