<?xml version="1.0" encoding="utf-8"?>
<!-- Generator: Adobe Illustrator 16.0.0, SVG Export Plug-In . SVG Version: 6.00 Build 0)  -->
<!DOCTYPE svg PUBLIC "-//W3C//DTD SVG 1.1//EN" "http://www.w3.org/Graphics/SVG/1.1/DTD/svg11.dtd">
<svg version="1.1" id="Layer_1" xmlns="http://www.w3.org/2000/svg" xmlns:xlink="http://www.w3.org/1999/xlink" x="0px" y="0px"
	 width="50px" height="50px" viewBox="-315.5 -175.5 50 50" enable-background="new -315.5 -175.5 50 50" xml:space="preserve">
<path d="M-277.209-167.666h-25c-2.761,0-5,2.239-5,5v25c0,2.761,2.239,5,5,5h25c2.761,0,5-2.239,5-5v-25
	C-272.209-165.427-274.448-167.666-277.209-167.666z M-299.959-161.416h10.039c0.829,0,1.5,0.671,1.5,1.5s-0.671,1.5-1.5,1.5
	h-10.039c-0.829,0-1.5-0.671-1.5-1.5S-300.788-161.416-299.959-161.416z M-299.959-154.916h10c0.829,0,1.5,0.671,1.5,1.5
	s-0.671,1.5-1.5,1.5h-10c-0.829,0-1.5-0.671-1.5-1.5S-300.788-154.916-299.959-154.916z M-279.459-138.916h-20.5
	c-0.829,0-1.5-0.671-1.5-1.5s0.671-1.5,1.5-1.5h20.5c0.829,0,1.5,0.671,1.5,1.5S-278.63-138.916-279.459-138.916z M-279.459-145.416
	h-20.5c-0.829,0-1.5-0.671-1.5-1.5s0.671-1.5,1.5-1.5h20.5c0.829,0,1.5,0.671,1.5,1.5S-278.63-145.416-279.459-145.416z"/>
</svg>
