<?xml version="1.0" encoding="utf-8"?>
<!-- Generator: Adobe Illustrator 16.0.0, SVG Export Plug-In . SVG Version: 6.00 Build 0)  -->
<!DOCTYPE svg PUBLIC "-//W3C//DTD SVG 1.1//EN" "http://www.w3.org/Graphics/SVG/1.1/DTD/svg11.dtd">
<svg version="1.1" id="Layer_1" xmlns="http://www.w3.org/2000/svg" xmlns:xlink="http://www.w3.org/1999/xlink" x="0px" y="0px"
	 width="50px" height="50px" viewBox="-315.5 -175.5 50 50" enable-background="new -315.5 -175.5 50 50" xml:space="preserve">
<path d="M-270-149.75c0,1.104-0.896,2-2,2h-6.813l-2.561,10.595c-0.217,0.901-1.023,1.53-1.943,1.53c-0.028,0-0.055,0-0.083-0.001
	c-0.954-0.04-1.747-0.747-1.894-1.689l-1.287-8.229l-1.264,3.215c-0.33,0.84-1.181,1.353-2.079,1.257
	c-0.897-0.099-1.617-0.785-1.758-1.677l-1.438-9.12l-2.542,13.815c-0.163,0.886-0.897,1.553-1.794,1.631
	c-0.897,0.076-1.736-0.454-2.048-1.299l-3.711-10.027H-309c-1.104,0-2-0.896-2-2s0.896-2,2-2h7.178c0.837,0,1.585,0.521,1.875,1.306
	l1.668,4.507l3.344-18.175c0.175-0.95,1.003-1.638,1.966-1.638c0.009,0,0.018,0,0.026,0c0.975,0.013,1.798,0.726,1.95,1.688
	l2.116,13.421l1.271-3.233c0.331-0.84,1.185-1.354,2.08-1.256c0.898,0.099,1.618,0.787,1.757,1.679l0.871,5.57l0.566-2.34
	c0.217-0.898,1.021-1.53,1.944-1.53H-272C-270.896-151.75-270-150.855-270-149.75z"/>
</svg>
