<?xml version="1.0" encoding="utf-8"?>
<!-- Generator: Adobe Illustrator 16.0.0, SVG Export Plug-In . SVG Version: 6.00 Build 0)  -->
<!DOCTYPE svg PUBLIC "-//W3C//DTD SVG 1.1//EN" "http://www.w3.org/Graphics/SVG/1.1/DTD/svg11.dtd">
<svg version="1.1" id="Layer_1" xmlns="http://www.w3.org/2000/svg" xmlns:xlink="http://www.w3.org/1999/xlink" x="0px" y="0px"
	 width="50px" height="50px" viewBox="314.5 -315.5 50 50" enable-background="new 314.5 -315.5 50 50" xml:space="preserve">
<path d="M343.569-279.178l-1.396-3.675h-11.9l-1.398,3.755c-0.547,1.464-1.012,2.452-1.398,2.965
	c-0.385,0.513-1.018,0.769-1.896,0.769c-0.746,0-1.404-0.272-1.977-0.818s-0.859-1.165-0.859-1.857c0-0.398,0.066-0.812,0.199-1.237
	s0.354-1.019,0.66-1.777l7.488-19.01c0.213-0.546,0.469-1.202,0.768-1.967c0.301-0.766,0.621-1.401,0.959-1.907
	c0.34-0.506,0.785-0.915,1.34-1.229c0.551-0.313,1.232-0.469,2.045-0.469c0.826,0,1.516,0.156,2.066,0.469
	c0.555,0.313,0.998,0.716,1.34,1.209c0.338,0.492,0.625,1.021,0.857,1.587s0.529,1.321,0.889,2.267l7.648,18.89
	c0.598,1.438,0.898,2.482,0.898,3.135c0,0.68-0.283,1.302-0.85,1.867c-0.566,0.566-1.248,0.849-2.047,0.849
	c-0.465,0-0.865-0.083-1.197-0.249c-0.334-0.167-0.613-0.394-0.84-0.679c-0.227-0.286-0.469-0.726-0.727-1.318
	C343.979-278.203,343.757-278.726,343.569-279.178z M331.829-287.305h8.746l-4.414-12.081L331.829-287.305z M359.278-279.845
	l-5.857-14.325c-0.275-0.717-0.502-1.289-0.682-1.719c-0.178-0.429-0.396-0.829-0.654-1.203c-0.26-0.373-0.6-0.678-1.021-0.913
	c-0.418-0.236-0.941-0.354-1.568-0.352c-0.619,0.003-1.135,0.123-1.553,0.362c-0.422,0.239-0.758,0.551-1.014,0.936
	c-0.256,0.386-0.498,0.869-0.723,1.451c-0.145,0.374-0.271,0.7-0.389,1.005l2.139,5.288l1.525-4.295l3.383,9.161l-2.934,0.011
	l1.307,3.223c0.021,0.055,0.037,0.1,0.059,0.154l2.793-0.01l1.07,2.787c0.145,0.342,0.314,0.739,0.514,1.188
	c0.197,0.449,0.383,0.782,0.557,0.999c0.172,0.217,0.385,0.388,0.639,0.514c0.252,0.125,0.557,0.188,0.91,0.186
	c0.605-0.002,1.123-0.219,1.551-0.649c0.432-0.432,0.643-0.904,0.641-1.42C359.968-277.962,359.737-278.755,359.278-279.845z"/>
</svg>
