<?xml version="1.0" encoding="utf-8"?>
<!-- Generator: Adobe Illustrator 16.0.0, SVG Export Plug-In . SVG Version: 6.00 Build 0)  -->
<!DOCTYPE svg PUBLIC "-//W3C//DTD SVG 1.1//EN" "http://www.w3.org/Graphics/SVG/1.1/DTD/svg11.dtd">
<svg version="1.1" id="Layer_1" xmlns="http://www.w3.org/2000/svg" xmlns:xlink="http://www.w3.org/1999/xlink" x="0px" y="0px"
	 width="50px" height="50px" viewBox="-245.5 -245.5 50 50" enable-background="new -245.5 -245.5 50 50" xml:space="preserve">
<path d="M-207.792-209.893c0,0.997-0.563,1.763-1.686,2.297c-1.121,0.534-2.32,0.802-3.592,0.802c-0.781,0-2.996-0.422-6.646-1.261
	c-0.096-0.024-0.258-0.073-0.486-0.145c-0.229-0.072-0.51-0.133-0.846-0.181c-0.336-0.047-0.738-0.071-1.207-0.071
	c-0.504,0-0.949,0.071-1.332,0.216c-0.385,0.145-1.049,0.408-1.99,0.792c-0.943,0.385-1.582,0.576-1.918,0.576
	c-0.457,0-0.904-0.206-1.342-0.621c-0.439-0.414-0.658-0.957-0.658-1.63c0-0.252,0.078-0.516,0.234-0.792s0.402-0.592,0.738-0.946
	c0.336-0.354,0.84-0.819,1.514-1.396c0.611-0.517,1.125-1.239,1.539-2.17s0.621-1.846,0.621-2.746c0-0.313-0.061-0.841-0.18-1.586
	h-1.514c-0.889,0-1.557-0.107-2.008-0.324c-0.449-0.216-0.674-0.647-0.674-1.296c0-1.177,0.762-1.766,2.287-1.766h1.063
	c-0.59-1.872-0.883-3.35-0.883-4.43c0-1.477,0.348-2.792,1.045-3.944c0.695-1.153,1.691-2.056,2.988-2.71
	c1.297-0.655,2.779-0.982,4.449-0.982c1.477,0,2.744,0.184,3.799,0.55c1.057,0.366,1.994,0.97,2.811,1.81
	c1.393,1.453,2.09,3.002,2.09,4.646c0,0.589-0.229,1.111-0.686,1.567c-0.455,0.456-1.014,0.685-1.674,0.685
	c-1.164,0-1.939-0.649-2.324-1.946c-0.348-1.248-0.824-2.17-1.432-2.764c-0.605-0.594-1.42-0.892-2.439-0.892
	c-1.105,0-1.998,0.357-2.676,1.071c-0.678,0.715-1.018,1.637-1.018,2.765c0,0.685,0.072,1.324,0.217,1.918
	c0.145,0.595,0.396,1.479,0.756,2.656h2.684c0.984,0,1.748,0.1,2.287,0.298c0.541,0.198,0.811,0.663,0.811,1.396
	c0,0.505-0.18,0.913-0.539,1.225c-0.361,0.313-0.83,0.468-1.404,0.468h-3.189v0.307c0,1.213-0.273,2.327-0.818,3.341
	c-0.547,1.015-1.498,2.284-2.855,3.809c0.396-0.095,0.789-0.186,1.18-0.27c0.391-0.083,0.828-0.158,1.314-0.226
	c0.486-0.065,1.018-0.099,1.594-0.099c0.805,0,1.928,0.093,3.369,0.279c1.439,0.187,2.395,0.279,2.863,0.279
	c0.684,0,1.42-0.123,2.205-0.369c0.787-0.246,1.283-0.369,1.486-0.369c0.541,0,1.021,0.216,1.441,0.648
	C-208.003-210.991-207.792-210.48-207.792-209.893z"/>
</svg>
