<?xml version="1.0" encoding="utf-8"?>
<!-- Generator: Adobe Illustrator 16.0.0, SVG Export Plug-In . SVG Version: 6.00 Build 0)  -->
<!DOCTYPE svg PUBLIC "-//W3C//DTD SVG 1.1//EN" "http://www.w3.org/Graphics/SVG/1.1/DTD/svg11.dtd">
<svg version="1.1" id="Layer_1" xmlns="http://www.w3.org/2000/svg" xmlns:xlink="http://www.w3.org/1999/xlink" x="0px" y="0px"
	 width="50px" height="50px" viewBox="-175.5 -245.5 50 50" enable-background="new -175.5 -245.5 50 50" xml:space="preserve">
<path d="M-147.437-237.573v1.945c1.283,0.132,2.385,0.396,3.305,0.792c0.918,0.396,1.719,0.997,2.404,1.801
	c0.539,0.613,0.957,1.243,1.25,1.891c0.295,0.648,0.441,1.243,0.441,1.783c0,0.601-0.219,1.12-0.656,1.558
	c-0.439,0.438-0.971,0.657-1.594,0.657c-1.178,0-1.939-0.636-2.287-1.909c-0.396-1.501-1.352-2.498-2.863-2.99v7.492
	c1.488,0.409,2.674,0.781,3.557,1.117c0.883,0.336,1.672,0.822,2.367,1.458c0.744,0.661,1.318,1.45,1.721,2.368
	s0.604,1.924,0.604,3.017c0,1.369-0.322,2.651-0.965,3.846c-0.641,1.195-1.588,2.17-2.836,2.927c-1.248,0.756-2.73,1.206-4.447,1.35
	v4.485c0,0.708-0.07,1.225-0.207,1.549c-0.139,0.324-0.441,0.486-0.91,0.486c-0.434,0-0.736-0.132-0.91-0.396
	c-0.174-0.265-0.262-0.672-0.262-1.225v-4.863c-1.404-0.156-2.631-0.486-3.682-0.99s-1.928-1.132-2.631-1.882
	c-0.701-0.75-1.221-1.531-1.557-2.341c-0.336-0.811-0.504-1.606-0.504-2.387c0-0.576,0.225-1.095,0.674-1.558
	c0.451-0.461,1.012-0.693,1.684-0.693c0.541,0,0.998,0.126,1.369,0.378c0.373,0.252,0.631,0.606,0.775,1.063
	c0.324,0.984,0.605,1.738,0.846,2.26c0.24,0.522,0.604,0.999,1.09,1.432c0.486,0.432,1.133,0.762,1.936,0.99v-8.375
	c-1.607-0.444-2.953-0.939-4.033-1.486c-1.08-0.546-1.957-1.323-2.629-2.332c-0.674-1.008-1.01-2.305-1.01-3.89
	c0-2.065,0.658-3.758,1.973-5.079s3.215-2.089,5.699-2.305v-1.909c0-1.009,0.379-1.513,1.135-1.513
	C-147.821-239.05-147.437-238.558-147.437-237.573z M-149.726-225.219v-6.898c-1.008,0.3-1.795,0.697-2.359,1.189
	c-0.564,0.492-0.846,1.237-0.846,2.233c0,0.948,0.264,1.666,0.793,2.152C-151.61-226.056-150.806-225.615-149.726-225.219z
	 M-147.437-219.869v7.888c1.211-0.24,2.148-0.727,2.809-1.459s0.99-1.584,0.99-2.557c0-1.044-0.32-1.852-0.963-2.422
	C-145.243-218.99-146.188-219.474-147.437-219.869z"/>
</svg>
