<?xml version="1.0" encoding="utf-8"?>
<!-- Generator: Adobe Illustrator 16.0.0, SVG Export Plug-In . SVG Version: 6.00 Build 0)  -->
<!DOCTYPE svg PUBLIC "-//W3C//DTD SVG 1.1//EN" "http://www.w3.org/Graphics/SVG/1.1/DTD/svg11.dtd">
<svg version="1.1" id="Layer_1" xmlns="http://www.w3.org/2000/svg" xmlns:xlink="http://www.w3.org/1999/xlink" x="0px" y="0px"
	 width="50px" height="50px" viewBox="-105.5 -245.5 50 50" enable-background="new -105.5 -245.5 50 50" xml:space="preserve">
<path d="M-68.343-214.124c0,1.765-0.863,3.395-2.594,4.889c-1.729,1.496-3.824,2.242-6.285,2.242c-2.305,0-4.316-0.837-6.033-2.512
	c-1.717-1.675-2.744-4.211-3.08-7.609h-2.287c-0.215,0-0.324-0.155-0.324-0.468c0-0.3,0.115-0.678,0.344-1.135
	c0.227-0.457,0.42-0.685,0.576-0.685h1.547v-0.648c0-0.528,0.025-1.291,0.074-2.288h-2.217c-0.215,0-0.324-0.149-0.324-0.45
	c0-0.313,0.115-0.696,0.344-1.152c0.227-0.457,0.42-0.685,0.576-0.685h1.801c0.779-6.256,3.734-9.383,8.859-9.383
	c2.258,0,4.203,0.582,5.836,1.747c1.633,1.165,2.449,2.611,2.449,4.34c0,0.588-0.191,1.086-0.576,1.495s-0.854,0.612-1.404,0.612
	c-0.613,0-1.061-0.156-1.342-0.468c-0.283-0.312-0.563-0.792-0.838-1.441c-0.348-0.852-0.762-1.503-1.242-1.954
	s-1.297-0.676-2.449-0.676c-1.32,0-2.338,0.462-3.053,1.387c-0.715,0.925-1.174,2.372-1.379,4.341h5.801
	c0.238,0,0.359,0.156,0.359,0.468c0,0.336-0.111,0.724-0.334,1.162c-0.221,0.439-0.416,0.658-0.584,0.658h-5.385l-0.037,1.765
	c0,0.541,0.012,0.931,0.037,1.17h5.943c0.238,0,0.359,0.15,0.359,0.45c0,0.349-0.111,0.742-0.334,1.18
	c-0.221,0.438-0.416,0.657-0.584,0.657h-5.277c0.42,4.311,1.801,6.466,4.143,6.466c0.877,0,1.678-0.21,2.404-0.63
	c0.727-0.42,1.426-1.405,2.098-2.954c0.432-1.008,0.805-1.635,1.117-1.882c0.313-0.246,0.648-0.369,1.008-0.369
	c0.721,0,1.281,0.207,1.684,0.622C-68.544-215.448-68.343-214.868-68.343-214.124z"/>
</svg>
