<?xml version="1.0" encoding="utf-8"?>
<!-- Generator: Adobe Illustrator 16.0.0, SVG Export Plug-In . SVG Version: 6.00 Build 0)  -->
<!DOCTYPE svg PUBLIC "-//W3C//DTD SVG 1.1//EN" "http://www.w3.org/Graphics/SVG/1.1/DTD/svg11.dtd">
<svg version="1.1" id="Layer_1" xmlns="http://www.w3.org/2000/svg" xmlns:xlink="http://www.w3.org/1999/xlink" x="0px" y="0px"
	 width="50px" height="50px" viewBox="-35.5 -245.5 50 50" enable-background="new -35.5 -245.5 50 50" xml:space="preserve">
<path d="M-12.245-227.286c0,2.311-0.508,4.028-1.525,5.153c-1.016,1.125-2.406,1.688-4.172,1.688c-1.09,0-2.066-0.239-2.932-0.717
	c-0.863-0.478-1.537-1.225-2.021-2.241s-0.727-2.255-0.727-3.72c0-1.572,0.188-2.885,0.563-3.937
	c0.375-1.052,0.982-1.851,1.824-2.395c0.84-0.544,1.914-0.816,3.221-0.816c0.943,0,1.771,0.146,2.484,0.436
	c0.715,0.291,1.318,0.735,1.814,1.333c0.496,0.599,0.865,1.328,1.107,2.187S-12.245-228.447-12.245-227.286z M-15.64-227.467
	c0-1.584-0.168-2.736-0.506-3.456c-0.34-0.72-0.939-1.08-1.797-1.08c-0.582,0-1.045,0.172-1.389,0.517
	c-0.346,0.345-0.58,0.853-0.707,1.524c-0.127,0.671-0.191,1.527-0.191,2.567c0,1.077,0.064,1.954,0.191,2.631
	s0.359,1.188,0.697,1.533c0.34,0.345,0.805,0.517,1.398,0.517c0.895,0,1.502-0.381,1.822-1.143
	C-15.8-224.618-15.64-225.822-15.64-227.467z M-0.144-231.876l-15.115,24.367c-0.385,0.665-0.822,0.998-1.305,0.998
	c-0.279,0-0.557-0.106-0.836-0.317c-0.277-0.212-0.416-0.487-0.416-0.825c0-0.254,0.121-0.563,0.361-0.925l15.205-24.567
	c0.266-0.447,0.498-0.783,0.699-1.007c0.199-0.224,0.486-0.336,0.861-0.336c0.363,0,0.656,0.106,0.881,0.317
	c0.223,0.212,0.334,0.493,0.334,0.844C0.526-233.074,0.304-232.589-0.144-231.876z M6.333-214.168c0,2.311-0.508,4.028-1.523,5.153
	c-1.018,1.125-2.408,1.688-4.174,1.688c-1.1,0-2.082-0.242-2.947-0.726c-0.865-0.484-1.543-1.228-2.033-2.231
	c-0.49-1.004-0.734-2.244-0.734-3.72c0-2.359,0.451-4.134,1.352-5.325s2.332-1.787,4.291-1.787c0.943,0,1.77,0.145,2.477,0.436
	c0.707,0.29,1.313,0.726,1.814,1.306s0.873,1.304,1.115,2.168C6.212-216.342,6.333-215.329,6.333-214.168z M2.94-214.349
	c0-1.561-0.17-2.701-0.508-3.42c-0.34-0.72-0.938-1.08-1.797-1.08c-0.604,0-1.076,0.17-1.414,0.508
	c-0.34,0.338-0.578,0.837-0.717,1.497c-0.141,0.659-0.209,1.515-0.209,2.567c0,1.621,0.172,2.806,0.518,3.557
	c0.344,0.75,0.951,1.125,1.822,1.125c0.883,0,1.488-0.384,1.814-1.152S2.94-212.716,2.94-214.349z"/>
</svg>
