<?xml version="1.0" encoding="utf-8"?>
<!-- Generator: Adobe Illustrator 16.0.0, SVG Export Plug-In . SVG Version: 6.00 Build 0)  -->
<!DOCTYPE svg PUBLIC "-//W3C//DTD SVG 1.1//EN" "http://www.w3.org/Graphics/SVG/1.1/DTD/svg11.dtd">
<svg version="1.1" id="Layer_1" xmlns="http://www.w3.org/2000/svg" xmlns:xlink="http://www.w3.org/1999/xlink" x="0px" y="0px"
	 width="50px" height="50px" viewBox="34.5 -245.5 50 50" enable-background="new 34.5 -245.5 50 50" xml:space="preserve">
<path d="M61.356-239.75c-10.615,0-19.25,8.636-19.25,19.25s8.635,19.25,19.25,19.25c10.613,0,19.25-8.636,19.25-19.25
	S71.97-239.75,61.356-239.75z M45.183-219h4.234c0.162,2.047,0.656,4.024,1.43,5.875h-3.953
	C45.976-214.919,45.376-216.899,45.183-219z M62.856-230.875v-3.293c1.42,0.911,2.682,2.021,3.738,3.293H62.856z M68.569-227.875
	c0.926,1.811,1.516,3.8,1.709,5.875h-7.422v-5.875H68.569z M59.856-230.875h-3.74c1.059-1.272,2.32-2.382,3.74-3.293V-230.875z
	 M59.856-227.875V-222h-7.422c0.193-2.075,0.781-4.064,1.709-5.875H59.856z M49.417-222h-4.234c0.193-2.101,0.793-4.081,1.711-5.875
	h3.953C50.073-226.024,49.579-224.047,49.417-222z M52.435-219h7.422v5.875h-5.713C53.216-214.936,52.628-216.925,52.435-219z
	 M59.856-210.125v3.293c-1.42-0.911-2.682-2.021-3.74-3.293H59.856z M62.856-210.125h3.738c-1.057,1.272-2.318,2.382-3.738,3.293
	V-210.125z M62.856-213.125V-219h7.422c-0.193,2.075-0.783,4.064-1.709,5.875H62.856z M73.294-219h4.236
	c-0.193,2.101-0.795,4.081-1.713,5.875h-3.951C72.638-214.976,73.134-216.953,73.294-219z M73.294-222
	c-0.16-2.047-0.656-4.024-1.428-5.875h3.951c0.918,1.794,1.52,3.774,1.713,5.875H73.294z M73.851-230.875h-3.547
	c-1.363-2.125-3.148-3.975-5.262-5.437C68.546-235.495,71.622-233.554,73.851-230.875z M57.669-236.312
	c-2.111,1.462-3.896,3.313-5.26,5.437h-3.547C51.091-233.554,54.165-235.495,57.669-236.312z M48.862-210.125h3.547
	c1.363,2.125,3.148,3.975,5.26,5.437C54.165-205.505,51.091-207.446,48.862-210.125z M65.042-204.688
	c2.113-1.462,3.898-3.313,5.262-5.437h3.547C71.622-207.446,68.546-205.505,65.042-204.688z"/>
</svg>
