<?xml version="1.0" encoding="utf-8"?>
<!-- Generator: Adobe Illustrator 16.0.0, SVG Export Plug-In . SVG Version: 6.00 Build 0)  -->
<!DOCTYPE svg PUBLIC "-//W3C//DTD SVG 1.1//EN" "http://www.w3.org/Graphics/SVG/1.1/DTD/svg11.dtd">
<svg version="1.1" id="Layer_1" xmlns="http://www.w3.org/2000/svg" xmlns:xlink="http://www.w3.org/1999/xlink" x="0px" y="0px"
	 width="50px" height="50px" viewBox="104.5 -245.5 50 50" enable-background="new 104.5 -245.5 50 50" xml:space="preserve">
<path d="M148.448-218.122c0-0.003,0-0.006,0-0.008c0-9.425-7.668-17.092-17.092-17.092c-9.426,0-17.094,7.667-17.094,17.092
	c0,0.003,0,0.006,0,0.008c-1.936,0.215-3.455,1.978-3.455,4.139v4.023c0,2.306,1.725,4.182,3.844,4.182h5.568
	c0.828,0,1.5-0.671,1.5-1.5v-9.386c0-0.829-0.672-1.5-1.5-1.5h-1.955c0.02-7.204,5.883-13.058,13.092-13.058
	c7.207,0,13.072,5.854,13.09,13.058h-1.955c-0.828,0-1.5,0.671-1.5,1.5v9.386c0,0.829,0.672,1.5,1.5,1.5h5.568
	c2.121,0,3.846-1.876,3.846-4.182v-4.023C151.905-216.144,150.384-217.907,148.448-218.122z"/>
</svg>
