<?xml version="1.0" encoding="utf-8"?>
<!-- Generator: Adobe Illustrator 16.0.0, SVG Export Plug-In . SVG Version: 6.00 Build 0)  -->
<!DOCTYPE svg PUBLIC "-//W3C//DTD SVG 1.1//EN" "http://www.w3.org/Graphics/SVG/1.1/DTD/svg11.dtd">
<svg version="1.1" id="Layer_1" xmlns="http://www.w3.org/2000/svg" xmlns:xlink="http://www.w3.org/1999/xlink" x="0px" y="0px"
	 width="50px" height="50px" viewBox="174.5 -245.5 50 50" enable-background="new 174.5 -245.5 50 50" xml:space="preserve">
<path d="M217.968-220.713c0,1.104-0.896,2-2,2c-1.105,0-2-0.896-2-2c0-6.954-5.658-12.611-12.611-12.611
	c-6.955,0-12.611,5.657-12.611,12.611c0,1.104-0.896,2-2,2c-1.105,0-2-0.896-2-2c0-9.16,7.451-16.611,16.611-16.611
	C210.515-237.324,217.968-229.873,217.968-220.713z M201.356-230.799c-5.563,0-10.086,4.524-10.086,10.086c0,1.104,0.895,2,2,2
	c1.104,0,2-0.896,2-2c0-3.356,2.73-6.086,6.086-6.086s6.086,2.73,6.086,6.086c0,1.104,0.895,2,2,2c1.104,0,2-0.896,2-2
	C211.442-226.274,206.917-230.799,201.356-230.799z M201.356-224.325c-1.996,0-3.613,1.617-3.613,3.612
	c0,1.255,0.641,2.359,1.613,3.006v12.031c0,1.104,0.895,2,2,2c1.104,0,2-0.896,2-2v-12.031c0.971-0.647,1.611-1.751,1.611-3.006
	C204.968-222.708,203.351-224.325,201.356-224.325z"/>
</svg>
