<?xml version="1.0" encoding="utf-8"?>
<!-- Generator: Adobe Illustrator 16.0.0, SVG Export Plug-In . SVG Version: 6.00 Build 0)  -->
<!DOCTYPE svg PUBLIC "-//W3C//DTD SVG 1.1//EN" "http://www.w3.org/Graphics/SVG/1.1/DTD/svg11.dtd">
<svg version="1.1" id="Layer_1" xmlns="http://www.w3.org/2000/svg" xmlns:xlink="http://www.w3.org/1999/xlink" x="0px" y="0px"
	 width="50px" height="50px" viewBox="244.5 -245.5 50 50" enable-background="new 244.5 -245.5 50 50" xml:space="preserve">
<path d="M281.374-220.5c0,5.533-4.486,10.018-10.018,10.018c-5.533,0-10.018-4.485-10.018-10.018s4.484-10.018,10.018-10.018
	C276.888-230.518,281.374-226.033,281.374-220.5z M271.356-233.667c0.553,0,1-0.448,1-1V-240c0-0.552-0.447-1-1-1s-1,0.448-1,1
	v5.333C270.356-234.115,270.804-233.667,271.356-233.667z M271.356-207.333c-0.553,0-1,0.448-1,1V-201c0,0.552,0.447,1,1,1
	s1-0.448,1-1v-5.333C272.356-206.885,271.909-207.333,271.356-207.333z M290.856-221.5h-5.334c-0.553,0-1,0.448-1,1s0.447,1,1,1
	h5.334c0.553,0,1-0.448,1-1S291.409-221.5,290.856-221.5z M258.188-220.5c0-0.552-0.447-1-1-1h-5.332c-0.553,0-1,0.448-1,1
	s0.447,1,1,1h5.332C257.741-219.5,258.188-219.948,258.188-220.5z M281.374-229.518c0.256,0,0.512-0.098,0.707-0.293l3.77-3.771
	c0.391-0.391,0.391-1.024,0-1.414c-0.391-0.391-1.023-0.391-1.414,0l-3.77,3.771c-0.391,0.391-0.391,1.024,0,1.414
	C280.862-229.615,281.118-229.518,281.374-229.518z M260.632-211.189l-3.771,3.771c-0.391,0.39-0.391,1.023,0,1.414
	c0.195,0.195,0.451,0.293,0.707,0.293s0.512-0.098,0.707-0.293l3.771-3.771c0.391-0.39,0.391-1.023,0-1.414
	S261.022-211.58,260.632-211.189z M282.081-211.189c-0.391-0.391-1.023-0.391-1.414,0c-0.391,0.39-0.391,1.023,0,1.414l3.77,3.771
	c0.195,0.195,0.451,0.293,0.707,0.293s0.512-0.098,0.707-0.293c0.391-0.39,0.391-1.023,0-1.414L282.081-211.189z M260.632-229.811
	c0.195,0.195,0.451,0.293,0.707,0.293s0.512-0.098,0.707-0.293c0.391-0.391,0.391-1.024,0-1.414l-3.771-3.771
	c-0.391-0.391-1.023-0.391-1.414,0s-0.391,1.024,0,1.414L260.632-229.811z M275.835-232.881c0.113,0.041,0.229,0.06,0.342,0.06
	c0.408,0,0.793-0.253,0.939-0.66l1.816-5.015c0.188-0.519-0.082-1.093-0.6-1.281c-0.521-0.188-1.094,0.081-1.281,0.6l-1.816,5.015
	C275.048-233.643,275.317-233.069,275.835-232.881z M266.876-208.119c-0.521-0.187-1.092,0.081-1.281,0.6l-1.814,5.015
	c-0.188,0.519,0.08,1.093,0.6,1.281c0.113,0.041,0.227,0.06,0.34,0.06c0.41,0,0.793-0.253,0.941-0.66l1.814-5.015
	C267.663-207.357,267.396-207.931,266.876-208.119z M290.032-214.805l-5.016-1.815c-0.518-0.188-1.092,0.081-1.279,0.6
	s0.08,1.093,0.6,1.281l5.016,1.815c0.111,0.041,0.227,0.06,0.34,0.06c0.408,0,0.793-0.253,0.939-0.66
	C290.819-214.043,290.552-214.617,290.032-214.805z M252.681-226.195l5.014,1.815c0.113,0.041,0.227,0.06,0.34,0.06
	c0.41,0,0.793-0.253,0.941-0.66c0.188-0.52-0.082-1.093-0.602-1.281l-5.014-1.815c-0.518-0.187-1.092,0.081-1.281,0.6
	C251.892-226.957,252.161-226.383,252.681-226.195z M283.278-226.086c0.17,0.363,0.531,0.576,0.906,0.576
	c0.143,0,0.287-0.03,0.424-0.095l4.83-2.263c0.5-0.234,0.715-0.83,0.48-1.33c-0.234-0.5-0.828-0.716-1.33-0.481l-4.83,2.263
	C283.259-227.182,283.044-226.586,283.278-226.086z M259.433-214.914c-0.232-0.5-0.828-0.715-1.328-0.481l-4.83,2.263
	c-0.502,0.234-0.717,0.83-0.482,1.33c0.17,0.363,0.531,0.576,0.906,0.576c0.143,0,0.287-0.03,0.424-0.094l4.83-2.263
	C259.452-213.818,259.667-214.414,259.433-214.914z M278.272-208.096c-0.234-0.5-0.83-0.715-1.33-0.481
	c-0.5,0.234-0.715,0.83-0.48,1.33l2.262,4.829c0.17,0.363,0.531,0.576,0.906,0.576c0.143,0,0.287-0.03,0.424-0.094
	c0.5-0.234,0.715-0.83,0.48-1.33L278.272-208.096z M264.44-232.904c0.17,0.363,0.529,0.576,0.906,0.576
	c0.141,0,0.285-0.03,0.424-0.095c0.5-0.234,0.715-0.83,0.48-1.33l-2.264-4.829c-0.234-0.499-0.828-0.716-1.33-0.481
	c-0.5,0.234-0.715,0.83-0.48,1.33L264.44-232.904z"/>
</svg>
