<?xml version="1.0" encoding="utf-8"?>
<!-- Generator: Adobe Illustrator 16.0.0, SVG Export Plug-In . SVG Version: 6.00 Build 0)  -->
<!DOCTYPE svg PUBLIC "-//W3C//DTD SVG 1.1//EN" "http://www.w3.org/Graphics/SVG/1.1/DTD/svg11.dtd">
<svg version="1.1" id="Layer_1" xmlns="http://www.w3.org/2000/svg" xmlns:xlink="http://www.w3.org/1999/xlink" x="0px" y="0px"
	 width="50px" height="50px" viewBox="-245.5 -175.5 50 50" enable-background="new -245.5 -175.5 50 50" xml:space="preserve">
<path d="M-207.634-167.666h-25c-2.761,0-5,2.239-5,5v25c0,2.761,2.239,5,5,5h25c2.761,0,5-2.239,5-5v-25
	C-202.634-165.427-204.873-167.666-207.634-167.666z M-230.384-161.416h10.039c0.829,0,1.5,0.671,1.5,1.5s-0.671,1.5-1.5,1.5
	h-10.039c-0.829,0-1.5-0.671-1.5-1.5S-231.212-161.416-230.384-161.416z M-230.384-154.916h10c0.829,0,1.5,0.671,1.5,1.5
	s-0.671,1.5-1.5,1.5h-10c-0.829,0-1.5-0.671-1.5-1.5S-231.212-154.916-230.384-154.916z M-209.884-138.916h-20.5
	c-0.829,0-1.5-0.671-1.5-1.5s0.671-1.5,1.5-1.5h20.5c0.829,0,1.5,0.671,1.5,1.5S-209.055-138.916-209.884-138.916z
	 M-209.884-145.416h-20.5c-0.829,0-1.5-0.671-1.5-1.5s0.671-1.5,1.5-1.5h20.5c0.829,0,1.5,0.671,1.5,1.5
	S-209.055-145.416-209.884-145.416z M-207.128-157.677l-4.9,4.901c-0.23,0.23-0.532,0.345-0.833,0.345
	c-0.301,0-0.602-0.115-0.832-0.344l-3.034-3.029c-0.46-0.459-0.461-1.205-0.001-1.666s1.205-0.46,1.666-0.001l2.201,2.197
	l4.068-4.069c0.459-0.46,1.205-0.46,1.666,0C-206.669-158.883-206.669-158.138-207.128-157.677z"/>
</svg>
