<?xml version="1.0" encoding="utf-8"?>
<!-- Generator: Adobe Illustrator 16.0.0, SVG Export Plug-In . SVG Version: 6.00 Build 0)  -->
<!DOCTYPE svg PUBLIC "-//W3C//DTD SVG 1.1//EN" "http://www.w3.org/Graphics/SVG/1.1/DTD/svg11.dtd">
<svg version="1.1" id="Layer_1" xmlns="http://www.w3.org/2000/svg" xmlns:xlink="http://www.w3.org/1999/xlink" x="0px" y="0px"
	 width="50px" height="50px" viewBox="-245.5 -175.5 50 50" enable-background="new -245.5 -175.5 50 50" xml:space="preserve">
<path d="M-205.524-136.333c0,1.104-0.871,2-1.976,2h-0.05c-1.104,0-2-0.896-2-2s0.896-2,2-2S-205.524-137.438-205.524-136.333z
	 M-221.717-138.333c-1.104,0-2,0.896-2,2s0.896,2,2,2h0.1c1.104,0,1.95-0.896,1.95-2S-220.612-138.333-221.717-138.333z
	 M-214.633-138.333c-1.104,0-2,0.896-2,2s0.896,2,2,2h0.1c1.104,0,1.95-0.896,1.95-2S-213.528-138.333-214.633-138.333z
	 M-228.7-138.333h-0.1c-1.104,0-2,0.896-2,2s0.896,2,2,2h0.1c1.104,0,2-0.896,2-2S-227.596-138.333-228.7-138.333z
	 M-235.833-155.533c1.104,0,2-0.896,2-2v-0.101c0-1.104-0.896-2-2-2s-2,0.896-2,2v0.101
	C-237.833-156.429-236.938-155.533-235.833-155.533z M-235.833-148.5c1.104,0,2-0.945,2-2.05s-0.896-2-2-2s-2,0.896-2,2v0.1
	C-237.833-149.346-236.938-148.5-235.833-148.5z M-235.833-141.417c1.104,0,2-0.945,2-2.05s-0.896-2-2-2s-2,0.896-2,2v0.1
	C-237.833-142.263-236.938-141.417-235.833-141.417z M-235.833-162.642c1.104,0,2-0.921,2-2.025s-0.896-2-2-2s-2,0.896-2,2v0.05
	C-237.833-163.513-236.938-162.642-235.833-162.642z M-205.667-165.333c-1.312,0-2.376,1.015-2.479,2.3l-5.986,3.044
	c-0.446-0.417-1.041-0.677-1.7-0.677c-1.381,0-2.5,1.119-2.5,2.5c0,0.771,0.357,1.453,0.906,1.911l-0.708,4.513
	c-0.798,0.21-1.435,0.8-1.71,1.568l-4.635,0.319c-0.424-0.777-1.239-1.312-2.188-1.312c-1.381,0-2.5,1.119-2.5,2.5
	c0,0.316,0.065,0.617,0.173,0.896l-6.488,9.463c-0.116-0.021-0.229-0.052-0.351-0.052c-1.104,0-2,0.921-2,2.025s0.896,2,2,2h0.05
	c1.104,0,1.975-0.896,1.975-2c0-0.242-0.054-0.469-0.134-0.684l6.39-9.319c0.276,0.105,0.573,0.17,0.886,0.17
	c1.098,0,2.02-0.712,2.355-1.695l4.606-0.317c0.418,0.796,1.243,1.346,2.205,1.346c1.381,0,2.5-1.119,2.5-2.5
	c0-0.886-0.464-1.659-1.158-2.104l0.669-4.265c1.212-0.168,2.147-1.194,2.154-2.45l5.851-2.975c0.456,0.485,1.099,0.793,1.817,0.793
	c1.381,0,2.5-1.119,2.5-2.5S-204.286-165.333-205.667-165.333z"/>
</svg>
