<?xml version="1.0" encoding="utf-8"?>
<!-- Generator: Adobe Illustrator 16.0.0, SVG Export Plug-In . SVG Version: 6.00 Build 0)  -->
<!DOCTYPE svg PUBLIC "-//W3C//DTD SVG 1.1//EN" "http://www.w3.org/Graphics/SVG/1.1/DTD/svg11.dtd">
<svg version="1.1" id="Layer_1" xmlns="http://www.w3.org/2000/svg" xmlns:xlink="http://www.w3.org/1999/xlink" x="0px" y="0px"
	 width="50px" height="50px" viewBox="314.5 -245.5 50 50" enable-background="new 314.5 -245.5 50 50" xml:space="preserve">
<path d="M359.396-222.804l-7.568,7.377l1.787,10.417c0.127,0.75-0.182,1.509-0.797,1.957c-0.348,0.253-0.762,0.382-1.176,0.382
	c-0.318,0-0.637-0.076-0.93-0.23l-9.355-4.918l-9.355,4.918c-0.674,0.355-1.49,0.295-2.107-0.152
	c-0.615-0.448-0.924-1.206-0.795-1.957l1.787-10.417l-7.568-7.377c-0.547-0.531-0.742-1.326-0.508-2.05
	c0.236-0.724,0.861-1.251,1.615-1.361l10.459-1.521l4.68-9.478c0.336-0.683,1.031-1.115,1.793-1.115s1.455,0.432,1.793,1.115
	l4.678,9.478l10.461,1.521c0.752,0.109,1.379,0.637,1.613,1.361C360.138-224.13,359.94-223.335,359.396-222.804z"/>
</svg>
