<?xml version="1.0" encoding="utf-8"?>
<!-- Generator: Adobe Illustrator 16.0.0, SVG Export Plug-In . SVG Version: 6.00 Build 0)  -->
<!DOCTYPE svg PUBLIC "-//W3C//DTD SVG 1.1//EN" "http://www.w3.org/Graphics/SVG/1.1/DTD/svg11.dtd">
<svg version="1.1" id="Layer_1" xmlns="http://www.w3.org/2000/svg" xmlns:xlink="http://www.w3.org/1999/xlink" x="0px" y="0px"
	 width="50px" height="50px" viewBox="-315.5 -175.5 50 50" enable-background="new -315.5 -175.5 50 50" xml:space="preserve">
<path d="M-273.222-147.063c0,8.504-6.918,15.423-15.422,15.423c-8.506,0-15.424-6.919-15.424-15.423
	c0-4.87,2.352-9.511,6.291-12.413c1.334-0.984,3.213-0.698,4.193,0.636c0.984,1.334,0.699,3.212-0.635,4.194
	c-2.447,1.803-3.85,4.566-3.85,7.583c0,5.196,4.227,9.423,9.424,9.423c5.195,0,9.422-4.227,9.422-9.423
	c0-3.017-1.402-5.78-3.85-7.583c-1.334-0.982-1.617-2.86-0.635-4.194c0.982-1.333,2.861-1.618,4.193-0.636
	C-275.573-156.574-273.222-151.934-273.222-147.063z M-288.644-145.359c1.656,0,3-1.344,3-3v-18c0-1.657-1.344-3-3-3
	c-1.658,0-3,1.343-3,3v18C-291.644-146.703-290.302-145.359-288.644-145.359z"/>
</svg>
