<?xml version="1.0" encoding="utf-8"?>
<!-- Generator: Adobe Illustrator 16.0.0, SVG Export Plug-In . SVG Version: 6.00 Build 0)  -->
<!DOCTYPE svg PUBLIC "-//W3C//DTD SVG 1.1//EN" "http://www.w3.org/Graphics/SVG/1.1/DTD/svg11.dtd">
<svg version="1.1" id="Layer_1" xmlns="http://www.w3.org/2000/svg" xmlns:xlink="http://www.w3.org/1999/xlink" x="0px" y="0px"
	 width="50px" height="50px" viewBox="-245.5 -175.5 50 50" enable-background="new -245.5 -175.5 50 50" xml:space="preserve">
<path d="M-213.394-142.666c0,2.895-2.355,5.25-5.25,5.25c-2.896,0-5.25-2.355-5.25-5.25c0-2.896,2.354-5.251,5.25-5.251
	C-215.749-147.917-213.394-145.562-213.394-142.666z M-205.312-167.5v34c0,1.657-1.342,3-3,3h-20.666c-1.656,0-3-1.343-3-3v-34
	c0-1.657,1.344-3,3-3h20.666C-206.653-170.5-205.312-169.157-205.312-167.5z M-223.896-161.333c0,2.895,2.355,5.25,5.252,5.25
	c2.895,0,5.25-2.355,5.25-5.25c0-2.896-2.355-5.251-5.25-5.251C-221.54-166.584-223.896-164.229-223.896-161.333z M-210.394-142.666
	c0-4.55-3.701-8.251-8.25-8.251s-8.25,3.701-8.25,8.251c0,4.549,3.701,8.25,8.25,8.25S-210.394-138.117-210.394-142.666z
	 M-218.644-159.083c1.24,0,2.25-1.009,2.25-2.25c0-1.241-1.01-2.251-2.25-2.251c-1.242,0-2.252,1.01-2.252,2.251
	C-220.896-160.092-219.886-159.083-218.644-159.083z"/>
</svg>
