<?xml version="1.0" encoding="utf-8"?>
<!-- Generator: Adobe Illustrator 16.0.0, SVG Export Plug-In . SVG Version: 6.00 Build 0)  -->
<!DOCTYPE svg PUBLIC "-//W3C//DTD SVG 1.1//EN" "http://www.w3.org/Graphics/SVG/1.1/DTD/svg11.dtd">
<svg version="1.1" id="Layer_1" xmlns="http://www.w3.org/2000/svg" xmlns:xlink="http://www.w3.org/1999/xlink" x="0px" y="0px"
	 width="50px" height="50px" viewBox="-175.5 -175.5 50 50" enable-background="new -175.5 -175.5 50 50" xml:space="preserve">
<path d="M-139.144-169.8h-19c-1.658,0-3,1.343-3,3v9.333c0,1.657,1.342,3,3,3h4.83v18.333c0,0.667,0.221,1.314,0.631,1.84
	l1.502,1.933c0.568,0.731,1.441,1.16,2.369,1.16c0.926,0,1.801-0.428,2.369-1.16l1.5-1.933c0.41-0.526,0.631-1.174,0.631-1.84
	v-18.333h5.168c1.656,0,3-1.343,3-3v-9.333C-136.144-168.457-137.487-169.8-139.144-169.8z M-141.978-161.833h-13.334
	c-1.104,0-2-0.896-2-2s0.896-2,2-2h13.334c1.105,0,2,0.896,2,2S-140.872-161.833-141.978-161.833z"/>
</svg>
