<?xml version="1.0" encoding="utf-8"?>
<!-- Generator: Adobe Illustrator 16.0.0, SVG Export Plug-In . SVG Version: 6.00 Build 0)  -->
<!DOCTYPE svg PUBLIC "-//W3C//DTD SVG 1.1//EN" "http://www.w3.org/Graphics/SVG/1.1/DTD/svg11.dtd">
<svg version="1.1" id="Layer_1" xmlns="http://www.w3.org/2000/svg" xmlns:xlink="http://www.w3.org/1999/xlink" x="0px" y="0px"
	 width="50px" height="50px" viewBox="-105.5 -175.5 50 50" enable-background="new -105.5 -175.5 50 50" xml:space="preserve">
<path d="M-89.894-153.735v13.569c0,1.657-1.344,3-3,3c-1.658,0-3-1.343-3-3v-13.569c-1.078-0.455-1.834-1.521-1.834-2.765
	s0.756-2.31,1.834-2.765v-1.569c0-1.657,1.342-3,3-3c1.656,0,3,1.343,3,3v1.569c1.076,0.455,1.832,1.521,1.832,2.765
	S-88.817-154.19-89.894-153.735z M-80.394-145.765v-15.069c0-1.657-1.344-3-3-3c-1.658,0-3,1.343-3,3v15.069
	c-1.078,0.455-1.834,1.521-1.834,2.765s0.756,2.31,1.834,2.765v0.069c0,1.657,1.342,3,3,3c1.656,0,3-1.343,3-3v-0.069
	c1.076-0.455,1.832-1.521,1.832-2.765S-79.317-145.31-80.394-145.765z M-70.894-152.931v-7.902c0-1.657-1.344-3-3-3
	c-1.658,0-3,1.343-3,3v7.902c-1.078,0.455-1.834,1.521-1.834,2.765s0.756,2.31,1.834,2.765v7.235c0,1.657,1.342,3,3,3
	c1.656,0,3-1.343,3-3v-7.235c1.076-0.455,1.832-1.521,1.832-2.765S-69.817-152.476-70.894-152.931z M-59.562-156.5
	c0-1.243-0.756-2.31-1.832-2.765v-1.569c0-1.657-1.344-3-3-3c-1.658,0-3,1.343-3,3v1.569c-1.078,0.455-1.834,1.521-1.834,2.765
	s0.756,2.31,1.834,2.765v13.569c0,1.657,1.342,3,3,3c1.656,0,3-1.343,3-3v-13.569C-60.317-154.19-59.562-155.257-59.562-156.5z"/>
</svg>
