<?xml version="1.0" encoding="utf-8"?>
<!-- Generator: Adobe Illustrator 16.0.0, SVG Export Plug-In . SVG Version: 6.00 Build 0)  -->
<!DOCTYPE svg PUBLIC "-//W3C//DTD SVG 1.1//EN" "http://www.w3.org/Graphics/SVG/1.1/DTD/svg11.dtd">
<svg version="1.1" id="Layer_1" xmlns="http://www.w3.org/2000/svg" xmlns:xlink="http://www.w3.org/1999/xlink" x="0px" y="0px"
	 width="50px" height="50px" viewBox="-35.5 -175.5 50 50" enable-background="new -35.5 -175.5 50 50" xml:space="preserve">
<path d="M-8.644-167.625c-9.457,0-17.125,7.667-17.125,17.125s7.668,17.125,17.125,17.125c9.459,0,17.125-7.667,17.125-17.125
	S0.815-167.625-8.644-167.625z M-14.964-157.21c1.797,0,3.252,1.456,3.252,3.252s-1.455,3.252-3.252,3.252
	c-1.795,0-3.252-1.456-3.252-3.252S-16.759-157.21-14.964-157.21z M0.595-144.546c-2.098,3.046-5.551,4.865-9.238,4.865
	c-3.691,0-7.145-1.819-9.242-4.866c-0.469-0.682-0.297-1.616,0.387-2.086c0.682-0.47,1.615-0.297,2.086,0.386
	c1.535,2.233,4.066,3.566,6.77,3.566c2.699,0,5.23-1.333,6.768-3.566c0.471-0.681,1.404-0.855,2.086-0.385
	C0.892-146.162,1.065-145.229,0.595-144.546z M1.188-152.458h-5c-0.828,0-1.5-0.671-1.5-1.5s0.672-1.5,1.5-1.5h5
	c0.83,0,1.5,0.671,1.5,1.5S2.019-152.458,1.188-152.458z"/>
</svg>
