<?xml version="1.0" encoding="utf-8"?>
<!-- Generator: Adobe Illustrator 16.0.0, SVG Export Plug-In . SVG Version: 6.00 Build 0)  -->
<!DOCTYPE svg PUBLIC "-//W3C//DTD SVG 1.1//EN" "http://www.w3.org/Graphics/SVG/1.1/DTD/svg11.dtd">
<svg version="1.1" id="Layer_1" xmlns="http://www.w3.org/2000/svg" xmlns:xlink="http://www.w3.org/1999/xlink" x="0px" y="0px"
	 width="50px" height="50px" viewBox="244.5 -175.5 50 50" enable-background="new 244.5 -175.5 50 50" xml:space="preserve">
<path d="M271.356-167.625c-9.457,0-17.125,7.667-17.125,17.125s7.668,17.125,17.125,17.125c9.459,0,17.125-7.667,17.125-17.125
	S280.815-167.625,271.356-167.625z M277.677-156.203c1.355,0,2.453,1.099,2.453,2.453s-1.098,2.453-2.453,2.453
	c-1.354,0-2.453-1.099-2.453-2.453S276.323-156.203,277.677-156.203z M265.036-156.203c1.355,0,2.453,1.099,2.453,2.453
	s-1.098,2.453-2.453,2.453c-1.354,0-2.453-1.099-2.453-2.453S263.683-156.203,265.036-156.203z M280.688-141.985
	c-0.26,0.493-0.77,0.802-1.328,0.802h-16.008c-0.559,0-1.068-0.309-1.328-0.802s-0.225-1.089,0.092-1.548
	c2.098-3.046,5.551-4.865,9.24-4.865s7.145,1.819,9.24,4.866C280.913-143.075,280.948-142.479,280.688-141.985z"/>
</svg>
