<?xml version="1.0" encoding="utf-8"?>
<!-- Generator: Adobe Illustrator 16.0.0, SVG Export Plug-In . SVG Version: 6.00 Build 0)  -->
<!DOCTYPE svg PUBLIC "-//W3C//DTD SVG 1.1//EN" "http://www.w3.org/Graphics/SVG/1.1/DTD/svg11.dtd">
<svg version="1.1" id="Layer_1" xmlns="http://www.w3.org/2000/svg" xmlns:xlink="http://www.w3.org/1999/xlink" x="0px" y="0px"
	 width="50px" height="50px" viewBox="34.5 -175.5 50 50" enable-background="new 34.5 -175.5 50 50" xml:space="preserve">
<path d="M61.356-167.625c-9.457,0-17.125,7.667-17.125,17.125s7.668,17.125,17.125,17.125c9.459,0,17.125-7.667,17.125-17.125
	S70.815-167.625,61.356-167.625z M52.151-154.013l1.316-0.864l-1.313-0.861c-0.691-0.455-0.885-1.385-0.43-2.077
	c0.457-0.693,1.389-0.884,2.078-0.43l3.221,2.116c0.422,0.277,0.676,0.749,0.676,1.254s-0.256,0.977-0.678,1.253l-3.225,2.117
	c-0.254,0.167-0.539,0.246-0.822,0.246c-0.488,0-0.967-0.238-1.256-0.677C51.265-152.628,51.458-153.559,52.151-154.013z
	 M70.21-141.448c-0.684,0.47-1.617,0.297-2.086-0.386c-1.535-2.233-4.066-3.566-6.768-3.566s-5.232,1.333-6.77,3.566
	c-0.291,0.422-0.76,0.649-1.236,0.649c-0.293,0-0.59-0.085-0.85-0.265c-0.682-0.47-0.854-1.403-0.385-2.086
	c2.098-3.046,5.551-4.865,9.24-4.865s7.145,1.819,9.24,4.866C71.065-142.851,70.892-141.917,70.21-141.448z M70.556-154.012
	c0.693,0.455,0.885,1.385,0.43,2.077c-0.287,0.438-0.768,0.676-1.254,0.676c-0.283,0-0.57-0.08-0.824-0.247l-3.219-2.116
	c-0.422-0.277-0.676-0.749-0.676-1.254c0-0.505,0.254-0.977,0.676-1.254l3.227-2.116c0.693-0.453,1.623-0.26,2.076,0.432
	c0.455,0.692,0.262,1.623-0.43,2.077l-1.316,0.863L70.556-154.012z"/>
</svg>
