<?xml version="1.0" encoding="utf-8"?>
<!-- Generator: Adobe Illustrator 16.0.0, SVG Export Plug-In . SVG Version: 6.00 Build 0)  -->
<!DOCTYPE svg PUBLIC "-//W3C//DTD SVG 1.1//EN" "http://www.w3.org/Graphics/SVG/1.1/DTD/svg11.dtd">
<svg version="1.1" id="Layer_1" xmlns="http://www.w3.org/2000/svg" xmlns:xlink="http://www.w3.org/1999/xlink" x="0px" y="0px"
	 width="50px" height="50px" viewBox="174.5 -175.5 50 50" enable-background="new 174.5 -175.5 50 50" xml:space="preserve">
<path d="M201.356-167.625c-9.457,0-17.125,7.667-17.125,17.125s7.668,17.125,17.125,17.125c9.459,0,17.125-7.667,17.125-17.125
	S210.815-167.625,201.356-167.625z M190.938-155.148l2.117-3.219c0.277-0.422,0.748-0.676,1.254-0.676l0,0
	c0.506,0,0.977,0.255,1.254,0.677l2.115,3.226c0.455,0.693,0.262,1.623-0.432,2.077c-0.254,0.166-0.539,0.246-0.822,0.246
	c-0.488,0-0.967-0.238-1.254-0.677l-0.863-1.316l-0.863,1.311c-0.455,0.693-1.385,0.884-2.076,0.429
	C190.675-153.526,190.483-154.456,190.938-155.148z M210.597-141.383c-2.096,3.047-5.551,4.866-9.24,4.866s-7.143-1.819-9.24-4.865
	c-0.316-0.459-0.352-1.055-0.092-1.548s0.77-0.802,1.328-0.802h16.008c0.559,0,1.068,0.309,1.328,0.802
	S210.913-141.842,210.597-141.383z M211.343-153.063c-0.254,0.166-0.539,0.246-0.822,0.246c-0.488,0-0.967-0.238-1.254-0.677
	l-0.863-1.316l-0.863,1.311c-0.455,0.693-1.387,0.884-2.076,0.429c-0.693-0.456-0.885-1.385-0.43-2.078l2.117-3.219
	c0.277-0.422,0.748-0.676,1.254-0.676l0,0c0.506,0,0.977,0.255,1.254,0.677l2.115,3.226
	C212.229-154.447,212.036-153.517,211.343-153.063z"/>
</svg>
