<?xml version="1.0" encoding="utf-8"?>
<!-- Generator: Adobe Illustrator 16.0.0, SVG Export Plug-In . SVG Version: 6.00 Build 0)  -->
<!DOCTYPE svg PUBLIC "-//W3C//DTD SVG 1.1//EN" "http://www.w3.org/Graphics/SVG/1.1/DTD/svg11.dtd">
<svg version="1.1" id="Layer_1" xmlns="http://www.w3.org/2000/svg" xmlns:xlink="http://www.w3.org/1999/xlink" x="0px" y="0px"
	 width="50px" height="50px" viewBox="104.5 -175.5 50 50" enable-background="new 104.5 -175.5 50 50" xml:space="preserve">
<path d="M131.356-167.625c-9.457,0-17.125,7.667-17.125,17.125s7.668,17.125,17.125,17.125c9.459,0,17.125-7.667,17.125-17.125
	S140.815-167.625,131.356-167.625z M126.606-152.458h-5c-0.828,0-1.5-0.671-1.5-1.5s0.672-1.5,1.5-1.5h5c0.828,0,1.5,0.671,1.5,1.5
	S127.435-152.458,126.606-152.458z M131.356-140.604c-1.877,0-3.396-1.521-3.396-3.396s1.52-3.396,3.396-3.396
	c1.875,0,3.396,1.521,3.396,3.396S133.231-140.604,131.356-140.604z M141.106-152.458h-5c-0.828,0-1.5-0.671-1.5-1.5
	s0.672-1.5,1.5-1.5h5c0.828,0,1.5,0.671,1.5,1.5S141.935-152.458,141.106-152.458z"/>
</svg>
