<?xml version="1.0" encoding="utf-8"?>
<!-- Generator: Adobe Illustrator 16.0.0, SVG Export Plug-In . SVG Version: 6.00 Build 0)  -->
<!DOCTYPE svg PUBLIC "-//W3C//DTD SVG 1.1//EN" "http://www.w3.org/Graphics/SVG/1.1/DTD/svg11.dtd">
<svg version="1.1" id="Layer_1" xmlns="http://www.w3.org/2000/svg" xmlns:xlink="http://www.w3.org/1999/xlink" x="0px" y="0px"
	 width="50px" height="50px" viewBox="-175.5 -175.5 50 50" enable-background="new -175.5 -175.5 50 50" xml:space="preserve">
<path d="M-137.282-167.666h-25c-2.761,0-5,2.239-5,5v25c0,2.761,2.239,5,5,5h25c2.761,0,5-2.239,5-5v-25
	C-132.282-165.427-134.521-167.666-137.282-167.666z M-160.032-161.416h10.039c0.829,0,1.5,0.671,1.5,1.5s-0.671,1.5-1.5,1.5
	h-10.039c-0.829,0-1.5-0.671-1.5-1.5S-160.861-161.416-160.032-161.416z M-160.032-154.916h10c0.829,0,1.5,0.671,1.5,1.5
	s-0.671,1.5-1.5,1.5h-10c-0.829,0-1.5-0.671-1.5-1.5S-160.861-154.916-160.032-154.916z M-139.532-138.916h-20.5
	c-0.829,0-1.5-0.671-1.5-1.5s0.671-1.5,1.5-1.5h20.5c0.829,0,1.5,0.671,1.5,1.5S-138.704-138.916-139.532-138.916z
	 M-139.532-145.416h-20.5c-0.829,0-1.5-0.671-1.5-1.5s0.671-1.5,1.5-1.5h20.5c0.829,0,1.5,0.671,1.5,1.5
	S-138.704-145.416-139.532-145.416z M-138.504-155.288h-1.88v1.879c0,0.755-0.612,1.368-1.367,1.368s-1.367-0.612-1.367-1.368
	v-1.879h-1.88c-0.755,0-1.368-0.612-1.368-1.368s0.612-1.368,1.368-1.368h1.88v-1.88c0-0.755,0.612-1.367,1.367-1.367
	s1.367,0.611,1.367,1.367v1.88h1.88c0.756,0,1.368,0.612,1.368,1.368S-137.748-155.288-138.504-155.288z"/>
</svg>
