<?xml version="1.0" encoding="utf-8"?>
<!-- Generator: Adobe Illustrator 16.0.0, SVG Export Plug-In . SVG Version: 6.00 Build 0)  -->
<!DOCTYPE svg PUBLIC "-//W3C//DTD SVG 1.1//EN" "http://www.w3.org/Graphics/SVG/1.1/DTD/svg11.dtd">
<svg version="1.1" id="Layer_1" xmlns="http://www.w3.org/2000/svg" xmlns:xlink="http://www.w3.org/1999/xlink" x="0px" y="0px"
	 width="50px" height="50px" viewBox="-175.5 -175.5 50 50" enable-background="new -175.5 -175.5 50 50" xml:space="preserve">
<path d="M-135.375-166.063h-30.25c-0.829,0-1.5,0.671-1.5,1.5v21.25c0,0.829,0.671,1.5,1.5,1.5h8.818
	c-0.262,0.27-0.425,0.637-0.425,1.043v2.019h-3.394c-0.829,0-1.5,0.671-1.5,1.5s0.671,1.5,1.5,1.5h20.25c0.829,0,1.5-0.671,1.5-1.5
	s-0.671-1.5-1.5-1.5h-3.394v-2.019c0-0.406-0.163-0.773-0.425-1.043h8.818c0.829,0,1.5-0.671,1.5-1.5v-21.25
	C-133.875-165.391-134.546-166.063-135.375-166.063z M-136.875-144.813h-27.25v-18.25h27.25V-144.813z M-138.438-159.625
	c0,0.863-0.7,1.563-1.563,1.563c-0.231,0-0.449-0.054-0.647-0.144l-5.375,5.115c0.092,0.199,0.147,0.419,0.147,0.653
	c0,0.863-0.7,1.563-1.563,1.563c-0.825,0-1.493-0.642-1.551-1.452l-3.311-1.059c-0.287,0.347-0.715,0.573-1.2,0.573
	c-0.363,0-0.692-0.129-0.958-0.336l-5.143,4.216c0.101,0.207,0.163,0.437,0.163,0.683c0,0.863-0.7,1.563-1.563,1.563
	s-1.563-0.7-1.563-1.563s0.7-1.563,1.563-1.563c0.249,0,0.481,0.064,0.69,0.167l5.301-4.345c-0.032-0.124-0.054-0.251-0.054-0.385
	c0-0.863,0.7-1.563,1.563-1.563s1.563,0.7,1.563,1.563c0,0.019-0.005,0.035-0.005,0.054l3.202,1.024
	c0.28-0.423,0.758-0.703,1.303-0.703c0.263,0,0.507,0.071,0.725,0.186l5.339-5.081c-0.117-0.219-0.189-0.465-0.189-0.73
	c0-0.863,0.7-1.563,1.563-1.563S-138.438-160.488-138.438-159.625z"/>
</svg>
