<?xml version="1.0" encoding="utf-8"?>
<!-- Generator: Adobe Illustrator 16.0.0, SVG Export Plug-In . SVG Version: 6.00 Build 0)  -->
<!DOCTYPE svg PUBLIC "-//W3C//DTD SVG 1.1//EN" "http://www.w3.org/Graphics/SVG/1.1/DTD/svg11.dtd">
<svg version="1.1" id="Layer_1" xmlns="http://www.w3.org/2000/svg" xmlns:xlink="http://www.w3.org/1999/xlink" x="0px" y="0px"
	 width="50px" height="50px" viewBox="-245.5 -105.5 50 50" enable-background="new -245.5 -105.5 50 50" xml:space="preserve">
<path d="M-218.644-97.625c-9.457,0-17.125,7.667-17.125,17.125s7.668,17.125,17.125,17.125c9.459,0,17.125-7.667,17.125-17.125
	S-209.185-97.625-218.644-97.625z M-224.964-81.297c-1.354,0-2.453-1.099-2.453-2.453s1.1-2.453,2.453-2.453
	c1.355,0,2.453,1.099,2.453,2.453S-223.608-81.297-224.964-81.297z M-214.542-72.477c0.398,0.399,0.398,1.047,0,1.446l-1.178,1.177
	c-0.199,0.2-0.461,0.3-0.723,0.3s-0.523-0.1-0.725-0.3l-1.477-1.478l-1.479,1.478c-0.201,0.2-0.463,0.3-0.725,0.3
	s-0.523-0.1-0.723-0.3l-1.178-1.177c-0.398-0.399-0.398-1.047,0-1.446l1.479-1.479l-1.479-1.478c-0.398-0.399-0.398-1.047,0-1.447
	l1.178-1.177c0.4-0.399,1.047-0.399,1.447,0l1.479,1.479l1.477-1.479c0.4-0.399,1.049-0.399,1.447,0l1.178,1.177
	c0.398,0.399,0.398,1.047,0,1.447l-1.479,1.478L-214.542-72.477z M-212.323-81.297c-1.354,0-2.453-1.099-2.453-2.453
	s1.1-2.453,2.453-2.453c1.355,0,2.453,1.099,2.453,2.453S-210.968-81.297-212.323-81.297z"/>
</svg>
