<?xml version="1.0" encoding="utf-8"?>
<!-- Generator: Adobe Illustrator 16.0.0, SVG Export Plug-In . SVG Version: 6.00 Build 0)  -->
<!DOCTYPE svg PUBLIC "-//W3C//DTD SVG 1.1//EN" "http://www.w3.org/Graphics/SVG/1.1/DTD/svg11.dtd">
<svg version="1.1" id="Layer_1" xmlns="http://www.w3.org/2000/svg" xmlns:xlink="http://www.w3.org/1999/xlink" x="0px" y="0px"
	 width="50px" height="50px" viewBox="314.5 -175.5 50 50" enable-background="new 314.5 -175.5 50 50" xml:space="preserve">
<path d="M346.866-156.859c-0.285-0.104-0.498-0.221-0.637-0.349s-0.209-0.316-0.209-0.566c0-0.262,0.074-0.458,0.225-0.588
	c0.148-0.13,0.355-0.234,0.621-0.313V-156.859z M335.28-158.675c-0.266,0.079-0.473,0.183-0.621,0.313
	c-0.15,0.13-0.225,0.326-0.225,0.588c0,0.25,0.07,0.438,0.209,0.566s0.352,0.244,0.637,0.349V-158.675z M348.468-154.432
	c0-0.275-0.084-0.488-0.254-0.638c-0.168-0.15-0.418-0.278-0.746-0.382v2.077c0.318-0.063,0.566-0.191,0.74-0.384
	S348.468-154.176,348.468-154.432z M336.882-154.432c0-0.275-0.084-0.488-0.254-0.638c-0.168-0.15-0.418-0.278-0.746-0.382v2.077
	c0.318-0.063,0.566-0.191,0.74-0.384S336.882-154.176,336.882-154.432z M358.481-150.5c0,9.458-7.666,17.125-17.125,17.125
	c-9.457,0-17.125-7.667-17.125-17.125s7.668-17.125,17.125-17.125C350.815-167.625,358.481-159.958,358.481-150.5z M344.661-154.441
	c0,0.206,0.043,0.415,0.133,0.628c0.088,0.213,0.225,0.419,0.408,0.616c0.186,0.198,0.416,0.363,0.693,0.496
	c0.277,0.132,0.6,0.219,0.971,0.261v1.28c0,0.145,0.021,0.252,0.068,0.322c0.045,0.069,0.125,0.104,0.238,0.104
	c0.123,0,0.203-0.042,0.24-0.128s0.055-0.221,0.055-0.408v-1.181c0.451-0.038,0.842-0.156,1.17-0.355
	c0.33-0.199,0.578-0.456,0.748-0.771c0.168-0.314,0.252-0.652,0.252-1.012c0-0.288-0.051-0.553-0.158-0.794
	c-0.105-0.242-0.256-0.45-0.453-0.624c-0.184-0.167-0.391-0.296-0.621-0.384c-0.234-0.089-0.547-0.187-0.938-0.294v-1.972
	c0.398,0.129,0.648,0.392,0.754,0.787c0.092,0.335,0.291,0.502,0.602,0.502c0.164,0,0.305-0.058,0.42-0.173
	c0.115-0.116,0.174-0.252,0.174-0.411c0-0.142-0.039-0.298-0.117-0.469c-0.078-0.17-0.188-0.336-0.33-0.498
	c-0.18-0.212-0.391-0.37-0.633-0.474c-0.24-0.104-0.531-0.174-0.869-0.208v-0.512c0-0.259-0.102-0.389-0.305-0.389
	c-0.197,0-0.297,0.132-0.297,0.398v0.502c-0.654,0.057-1.154,0.259-1.502,0.607c-0.346,0.348-0.52,0.793-0.52,1.337
	c0,0.417,0.09,0.758,0.266,1.024c0.178,0.266,0.408,0.47,0.693,0.614c0.283,0.144,0.639,0.274,1.063,0.391v2.205
	c-0.213-0.061-0.383-0.147-0.51-0.261c-0.129-0.114-0.225-0.239-0.287-0.377c-0.064-0.138-0.139-0.336-0.223-0.595
	c-0.039-0.12-0.105-0.213-0.205-0.28c-0.098-0.066-0.219-0.1-0.359-0.1c-0.178,0-0.326,0.061-0.443,0.183
	C344.72-154.73,344.661-154.593,344.661-154.441z M333.075-154.441c0,0.206,0.043,0.415,0.133,0.628
	c0.088,0.213,0.225,0.419,0.408,0.616c0.186,0.198,0.416,0.363,0.693,0.496c0.277,0.132,0.6,0.219,0.971,0.261v1.28
	c0,0.145,0.021,0.252,0.068,0.322c0.045,0.069,0.125,0.104,0.238,0.104c0.123,0,0.203-0.042,0.24-0.128s0.055-0.221,0.055-0.408
	v-1.181c0.451-0.038,0.842-0.156,1.17-0.355c0.33-0.199,0.578-0.456,0.748-0.771c0.168-0.314,0.252-0.652,0.252-1.012
	c0-0.288-0.051-0.553-0.158-0.794c-0.105-0.242-0.256-0.45-0.453-0.624c-0.184-0.167-0.391-0.296-0.621-0.384
	c-0.234-0.089-0.547-0.187-0.938-0.294v-1.972c0.398,0.129,0.648,0.392,0.754,0.787c0.092,0.335,0.291,0.502,0.602,0.502
	c0.164,0,0.305-0.058,0.42-0.173c0.115-0.116,0.174-0.252,0.174-0.411c0-0.142-0.039-0.298-0.117-0.469
	c-0.078-0.17-0.188-0.336-0.33-0.498c-0.18-0.212-0.391-0.37-0.633-0.474c-0.24-0.104-0.531-0.174-0.869-0.208v-0.512
	c0-0.259-0.102-0.389-0.305-0.389c-0.197,0-0.297,0.132-0.297,0.398v0.502c-0.654,0.057-1.154,0.259-1.502,0.607
	c-0.346,0.348-0.52,0.793-0.52,1.337c0,0.417,0.09,0.758,0.266,1.024c0.178,0.266,0.408,0.47,0.693,0.614
	c0.283,0.144,0.639,0.274,1.063,0.391v2.205c-0.213-0.061-0.383-0.147-0.51-0.261c-0.129-0.114-0.225-0.239-0.287-0.377
	c-0.064-0.138-0.139-0.336-0.223-0.595c-0.039-0.12-0.105-0.213-0.205-0.28c-0.098-0.066-0.219-0.1-0.359-0.1
	c-0.178,0-0.326,0.061-0.443,0.183C333.134-154.73,333.075-154.593,333.075-154.441z M350.212-146.632
	c-0.682-0.47-1.617-0.298-2.086,0.385c-1.537,2.233-4.068,3.566-6.77,3.566s-5.232-1.333-6.77-3.566
	c-0.469-0.683-1.404-0.855-2.086-0.386s-0.854,1.404-0.385,2.086c2.096,3.047,5.551,4.866,9.24,4.866s7.143-1.819,9.24-4.865
	C351.065-145.229,350.894-146.162,350.212-146.632z"/>
</svg>
