<?xml version="1.0" encoding="utf-8"?>
<!-- Generator: Adobe Illustrator 16.0.0, SVG Export Plug-In . SVG Version: 6.00 Build 0)  -->
<!DOCTYPE svg PUBLIC "-//W3C//DTD SVG 1.1//EN" "http://www.w3.org/Graphics/SVG/1.1/DTD/svg11.dtd">
<svg version="1.1" id="Layer_1" xmlns="http://www.w3.org/2000/svg" xmlns:xlink="http://www.w3.org/1999/xlink" x="0px" y="0px"
	 width="50px" height="50px" viewBox="-315.5 -105.5 50 50" enable-background="new -315.5 -105.5 50 50" xml:space="preserve">
<path d="M-288.644-97.625c-9.457,0-17.125,7.667-17.125,17.125s7.668,17.125,17.125,17.125c9.459,0,17.125-7.667,17.125-17.125
	S-279.185-97.625-288.644-97.625z M-285.212-87.443c0.328-0.181,0.701-0.277,1.074-0.277c0.502,0,0.98,0.167,1.369,0.469
	c0.387-0.302,0.865-0.469,1.367-0.469c0.375,0,0.746,0.096,1.074,0.277c0.711,0.393,1.152,1.141,1.152,1.951
	c0,0.227-0.035,0.452-0.104,0.668c-0.357,1.504-2.953,3.173-3.25,3.359c-0.074,0.046-0.156,0.069-0.24,0.069
	s-0.166-0.023-0.24-0.069c-0.297-0.186-2.895-1.855-3.252-3.36c-0.068-0.217-0.104-0.442-0.104-0.667
	C-286.364-86.303-285.923-87.05-285.212-87.443z M-296.962-87.443c0.328-0.181,0.701-0.277,1.074-0.277
	c0.502,0,0.98,0.167,1.369,0.469c0.387-0.302,0.865-0.469,1.367-0.469c0.375,0,0.746,0.096,1.074,0.277
	c0.711,0.393,1.152,1.141,1.152,1.951c0,0.227-0.035,0.452-0.104,0.668c-0.357,1.504-2.953,3.173-3.25,3.359
	c-0.074,0.046-0.156,0.069-0.24,0.069s-0.166-0.023-0.24-0.069c-0.297-0.186-2.895-1.855-3.252-3.36
	c-0.068-0.217-0.104-0.442-0.104-0.667C-298.114-86.303-297.673-87.05-296.962-87.443z M-279.405-74.546
	c-2.096,3.046-5.551,4.865-9.238,4.865c-3.689,0-7.145-1.819-9.24-4.866c-0.471-0.682-0.297-1.616,0.385-2.086
	c0.682-0.47,1.617-0.297,2.086,0.386c1.537,2.233,4.066,3.566,6.77,3.566c2.701,0,5.23-1.333,6.768-3.566
	c0.471-0.681,1.404-0.854,2.086-0.385C-279.106-76.162-278.935-75.229-279.405-74.546z"/>
</svg>
