<?xml version="1.0" encoding="utf-8"?>
<!-- Generator: Adobe Illustrator 16.0.0, SVG Export Plug-In . SVG Version: 6.00 Build 0)  -->
<!DOCTYPE svg PUBLIC "-//W3C//DTD SVG 1.1//EN" "http://www.w3.org/Graphics/SVG/1.1/DTD/svg11.dtd">
<svg version="1.1" id="Layer_1" xmlns="http://www.w3.org/2000/svg" xmlns:xlink="http://www.w3.org/1999/xlink" x="0px" y="0px"
	 width="50px" height="50px" viewBox="-105.5 -105.5 50 50" enable-background="new -105.5 -105.5 50 50" xml:space="preserve">
<path d="M-78.644-97.625c-9.457,0-17.125,7.667-17.125,17.125s7.668,17.125,17.125,17.125c9.459,0,17.125-7.667,17.125-17.125
	S-69.185-97.625-78.644-97.625z M-69.405-74.546c-2.096,3.046-5.551,4.865-9.238,4.865c-3.689,0-7.145-1.819-9.24-4.866
	c-0.471-0.682-0.297-1.616,0.385-2.086c0.684-0.47,1.615-0.297,2.086,0.386c1.537,2.233,4.066,3.566,6.77,3.566
	c2.701,0,5.23-1.333,6.768-3.566c0.471-0.681,1.404-0.854,2.086-0.385C-69.106-76.162-68.935-75.229-69.405-74.546z M-71.798-79.833
	c-2.438,0-4.494-1.977-5.17-4.693h-3.354c-0.674,2.716-2.732,4.693-5.168,4.693c-2.986,0-5.404-2.966-5.404-6.625h7.445h3.363h2.881
	h3.123h7.688C-66.394-82.799-68.813-79.833-71.798-79.833z"/>
</svg>
