<?xml version="1.0" encoding="utf-8"?>
<!-- Generator: Adobe Illustrator 16.0.0, SVG Export Plug-In . SVG Version: 6.00 Build 0)  -->
<!DOCTYPE svg PUBLIC "-//W3C//DTD SVG 1.1//EN" "http://www.w3.org/Graphics/SVG/1.1/DTD/svg11.dtd">
<svg version="1.1" id="Layer_1" xmlns="http://www.w3.org/2000/svg" xmlns:xlink="http://www.w3.org/1999/xlink" x="0px" y="0px"
	 width="50px" height="50px" viewBox="34.5 -105.5 50 50" enable-background="new 34.5 -105.5 50 50" xml:space="preserve">
<path d="M61.356-97.625c-9.457,0-17.125,7.667-17.125,17.125s7.668,17.125,17.125,17.125c9.459,0,17.125-7.667,17.125-17.125
	S70.815-97.625,61.356-97.625z M49.2-86.871c0.367-0.742,1.27-1.045,2.01-0.678l6.125,3.035c0.742,0.368,1.045,1.268,0.678,2.01
	c-0.262,0.528-0.793,0.834-1.346,0.834c-0.223,0-0.451-0.05-0.664-0.156l-6.125-3.035C49.136-85.229,48.831-86.129,49.2-86.871z
	 M68.731-71h-14.75c-0.828,0-1.5-0.671-1.5-1.5s0.672-1.5,1.5-1.5h14.75c0.828,0,1.5,0.671,1.5,1.5S69.56-71,68.731-71z
	 M72.835-84.861l-6.125,3.035c-0.215,0.106-0.441,0.156-0.666,0.156c-0.551,0-1.082-0.306-1.344-0.834
	c-0.369-0.742-0.064-1.642,0.678-2.01l6.125-3.035c0.74-0.368,1.641-0.064,2.01,0.678C73.88-86.129,73.577-85.229,72.835-84.861z"/>
</svg>
