<?xml version="1.0" encoding="utf-8"?>
<!-- Generator: Adobe Illustrator 16.0.0, SVG Export Plug-In . SVG Version: 6.00 Build 0)  -->
<!DOCTYPE svg PUBLIC "-//W3C//DTD SVG 1.1//EN" "http://www.w3.org/Graphics/SVG/1.1/DTD/svg11.dtd">
<svg version="1.1" id="Layer_1" xmlns="http://www.w3.org/2000/svg" xmlns:xlink="http://www.w3.org/1999/xlink" x="0px" y="0px"
	 width="50px" height="50px" viewBox="174.5 -105.5 50 50" enable-background="new 174.5 -105.5 50 50" xml:space="preserve">
<path d="M193.351-71.31c-0.293,0-0.59-0.085-0.85-0.265c-0.682-0.47-0.854-1.403-0.385-2.086c2.098-3.046,5.551-4.865,9.24-4.865
	s7.145,1.819,9.24,4.866c0.469,0.683,0.295,1.617-0.387,2.086s-1.617,0.297-2.086-0.386c-1.535-2.233-4.066-3.566-6.768-3.566
	s-5.232,1.333-6.77,3.566C194.296-71.537,193.827-71.31,193.351-71.31z M193.798-81.631l3.225-2.117
	c0.422-0.277,0.678-0.748,0.678-1.253s-0.254-0.977-0.676-1.254l-3.221-2.116c-0.689-0.454-1.623-0.263-2.078,0.43
	c-0.455,0.692-0.262,1.623,0.43,2.077l1.313,0.861l-1.316,0.864c-0.693,0.454-0.887,1.384-0.432,2.077
	c0.289,0.439,0.768,0.677,1.256,0.677C193.259-81.385,193.544-81.464,193.798-81.631z M210.985-82.061
	c0.455-0.692,0.264-1.622-0.43-2.077L209.245-85l1.316-0.863c0.691-0.455,0.885-1.385,0.43-2.077
	c-0.453-0.692-1.383-0.884-2.076-0.432l-3.227,2.116c-0.422,0.277-0.676,0.749-0.676,1.254c0,0.505,0.254,0.977,0.676,1.254
	l3.219,2.116c0.254,0.167,0.541,0.247,0.824,0.247C210.218-81.385,210.698-81.623,210.985-82.061z M218.356-70.672v-19.655
	c0-3.955-3.219-7.172-7.174-7.172h-19.654c-3.955,0-7.172,3.217-7.172,7.172v19.655c0,3.955,3.217,7.172,7.172,7.172h19.654
	C215.138-63.5,218.356-66.717,218.356-70.672z M211.183-93.5c1.75,0,3.174,1.423,3.174,3.172v19.655
	c0,1.749-1.424,3.172-3.174,3.172h-19.654c-1.75,0-3.172-1.423-3.172-3.172v-19.655c0-1.749,1.422-3.172,3.172-3.172H211.183z"/>
</svg>
