<?xml version="1.0" encoding="utf-8"?>
<!-- Generator: Adobe Illustrator 16.0.0, SVG Export Plug-In . SVG Version: 6.00 Build 0)  -->
<!DOCTYPE svg PUBLIC "-//W3C//DTD SVG 1.1//EN" "http://www.w3.org/Graphics/SVG/1.1/DTD/svg11.dtd">
<svg version="1.1" id="Layer_1" xmlns="http://www.w3.org/2000/svg" xmlns:xlink="http://www.w3.org/1999/xlink" x="0px" y="0px"
	 width="50px" height="50px" viewBox="244.5 -105.5 50 50" enable-background="new 244.5 -105.5 50 50" xml:space="preserve">
<path d="M274.753-75c0,1.876-1.521,3.396-3.396,3.396c-1.877,0-3.396-1.521-3.396-3.396s1.52-3.396,3.396-3.396
	C273.231-78.396,274.753-76.876,274.753-75z M268.106-84.958c0-0.829-0.672-1.5-1.5-1.5h-5c-0.828,0-1.5,0.671-1.5,1.5
	s0.672,1.5,1.5,1.5h5C267.435-83.458,268.106-84.129,268.106-84.958z M282.606-84.958c0-0.829-0.672-1.5-1.5-1.5h-5
	c-0.828,0-1.5,0.671-1.5,1.5s0.672,1.5,1.5,1.5h5C281.935-83.458,282.606-84.129,282.606-84.958z M288.356-70.672v-19.655
	c0-3.955-3.219-7.172-7.174-7.172h-19.654c-3.955,0-7.172,3.217-7.172,7.172v19.655c0,3.955,3.217,7.172,7.172,7.172h19.654
	C285.138-63.5,288.356-66.717,288.356-70.672z M281.183-93.5c1.75,0,3.174,1.423,3.174,3.172v19.655
	c0,1.749-1.424,3.172-3.174,3.172h-19.654c-1.75,0-3.172-1.423-3.172-3.172v-19.655c0-1.749,1.422-3.172,3.172-3.172H281.183z"/>
</svg>
