<?xml version="1.0" encoding="utf-8"?>
<!-- Generator: Adobe Illustrator 16.0.0, SVG Export Plug-In . SVG Version: 6.00 Build 0)  -->
<!DOCTYPE svg PUBLIC "-//W3C//DTD SVG 1.1//EN" "http://www.w3.org/Graphics/SVG/1.1/DTD/svg11.dtd">
<svg version="1.1" id="Layer_1" xmlns="http://www.w3.org/2000/svg" xmlns:xlink="http://www.w3.org/1999/xlink" x="0px" y="0px"
	 width="50px" height="50px" viewBox="-105.5 -175.5 50 50" enable-background="new -105.5 -175.5 50 50" xml:space="preserve">
<path d="M-67.209-167.666h-25c-2.761,0-5,2.239-5,5v25c0,2.761,2.239,5,5,5h25c2.761,0,5-2.239,5-5v-25
	C-62.209-165.427-64.448-167.666-67.209-167.666z M-89.959-161.416h10.039c0.829,0,1.5,0.671,1.5,1.5s-0.671,1.5-1.5,1.5h-10.039
	c-0.829,0-1.5-0.671-1.5-1.5S-90.788-161.416-89.959-161.416z M-89.959-154.916h10c0.829,0,1.5,0.671,1.5,1.5s-0.671,1.5-1.5,1.5
	h-10c-0.829,0-1.5-0.671-1.5-1.5S-90.788-154.916-89.959-154.916z M-69.459-138.916h-20.5c-0.829,0-1.5-0.671-1.5-1.5
	s0.671-1.5,1.5-1.5h20.5c0.829,0,1.5,0.671,1.5,1.5S-68.63-138.916-69.459-138.916z M-69.459-145.416h-20.5
	c-0.829,0-1.5-0.671-1.5-1.5s0.671-1.5,1.5-1.5h20.5c0.829,0,1.5,0.671,1.5,1.5S-68.63-145.416-69.459-145.416z M-68.606-154.939
	h-6.279c-0.73,0-1.322-0.592-1.322-1.322c0-0.73,0.592-1.322,1.322-1.322h6.279c0.73,0,1.322,0.592,1.322,1.322
	C-67.284-155.531-67.876-154.939-68.606-154.939z"/>
</svg>
