<?xml version="1.0" encoding="utf-8"?>
<!-- Generator: Adobe Illustrator 16.0.0, SVG Export Plug-In . SVG Version: 6.00 Build 0)  -->
<!DOCTYPE svg PUBLIC "-//W3C//DTD SVG 1.1//EN" "http://www.w3.org/Graphics/SVG/1.1/DTD/svg11.dtd">
<svg version="1.1" id="Layer_1" xmlns="http://www.w3.org/2000/svg" xmlns:xlink="http://www.w3.org/1999/xlink" x="0px" y="0px"
	 width="50px" height="50px" viewBox="314.5 -105.5 50 50" enable-background="new 314.5 -105.5 50 50" xml:space="preserve">
<path d="M350.688-75.651c0.26,0.493,0.225,1.09-0.092,1.549c-2.096,3.047-5.551,4.865-9.24,4.865s-7.143-1.818-9.24-4.865
	c-0.316-0.459-0.352-1.055-0.092-1.548s0.77-0.803,1.328-0.803h16.008C349.919-76.453,350.429-76.145,350.688-75.651z
	 M333.444-85.22l0.863-1.311l0.863,1.315c0.287,0.439,0.766,0.678,1.254,0.678c0.283,0,0.568-0.08,0.822-0.246
	c0.693-0.454,0.887-1.384,0.432-2.077l-2.115-3.226c-0.277-0.422-0.748-0.677-1.254-0.677l0,0c-0.506,0-0.977,0.254-1.254,0.676
	l-2.117,3.219c-0.455,0.692-0.264,1.622,0.43,2.078C332.06-84.335,332.989-84.526,333.444-85.22z M351.774-86.86l-2.115-3.226
	c-0.277-0.422-0.748-0.677-1.254-0.677l0,0c-0.506,0-0.977,0.254-1.254,0.676l-2.117,3.219c-0.455,0.692-0.264,1.622,0.43,2.078
	c0.691,0.455,1.621,0.264,2.076-0.43l0.863-1.311l0.863,1.315c0.287,0.439,0.766,0.678,1.254,0.678c0.283,0,0.568-0.08,0.822-0.246
	C352.036-85.237,352.229-86.167,351.774-86.86z M358.356-70.672v-19.655c0-3.955-3.219-7.172-7.174-7.172h-19.654
	c-3.955,0-7.172,3.217-7.172,7.172v19.655c0,3.955,3.217,7.172,7.172,7.172h19.654C355.138-63.5,358.356-66.717,358.356-70.672z
	 M351.183-93.5c1.75,0,3.174,1.423,3.174,3.172v19.655c0,1.749-1.424,3.172-3.174,3.172h-19.654c-1.75,0-3.172-1.423-3.172-3.172
	v-19.655c0-1.749,1.422-3.172,3.172-3.172H351.183z"/>
</svg>
