<?xml version="1.0" encoding="utf-8"?>
<!-- Generator: Adobe Illustrator 16.0.0, SVG Export Plug-In . SVG Version: 6.00 Build 0)  -->
<!DOCTYPE svg PUBLIC "-//W3C//DTD SVG 1.1//EN" "http://www.w3.org/Graphics/SVG/1.1/DTD/svg11.dtd">
<svg version="1.1" id="Layer_1" xmlns="http://www.w3.org/2000/svg" xmlns:xlink="http://www.w3.org/1999/xlink" x="0px" y="0px"
	 width="50px" height="50px" viewBox="-315.5 -35.5 50 50" enable-background="new -315.5 -35.5 50 50" xml:space="preserve">
<path d="M-279.405-3.762c-2.096,3.047-5.551,4.865-9.238,4.865c-3.689,0-7.145-1.819-9.24-4.865
	c-0.471-0.683-0.297-1.617,0.385-2.086c0.682-0.471,1.617-0.298,2.086,0.385c1.537,2.233,4.066,3.566,6.77,3.566
	c2.701,0,5.23-1.333,6.768-3.566c0.471-0.683,1.404-0.854,2.086-0.385C-279.106-5.378-278.935-4.444-279.405-3.762z
	 M-294.759-10.682c0.074,0.047,0.156,0.07,0.24,0.07s0.166-0.023,0.24-0.07c0.297-0.186,2.893-1.854,3.25-3.358
	c0.068-0.216,0.104-0.44,0.104-0.668c0-0.811-0.441-1.559-1.152-1.951c-0.328-0.181-0.699-0.276-1.074-0.276
	c-0.502,0-0.98,0.167-1.367,0.469c-0.389-0.302-0.867-0.469-1.369-0.469c-0.373,0-0.746,0.096-1.074,0.276
	c-0.711,0.394-1.152,1.141-1.152,1.951c0,0.226,0.035,0.45,0.104,0.667C-297.653-12.537-295.056-10.867-294.759-10.682z
	 M-283.009-10.682c0.074,0.047,0.156,0.07,0.24,0.07s0.166-0.023,0.24-0.07c0.297-0.186,2.893-1.854,3.25-3.358
	c0.068-0.216,0.104-0.44,0.104-0.668c0-0.811-0.441-1.559-1.152-1.951c-0.328-0.181-0.699-0.276-1.074-0.276
	c-0.502,0-0.98,0.167-1.367,0.469c-0.389-0.302-0.867-0.469-1.369-0.469c-0.373,0-0.746,0.096-1.074,0.276
	c-0.711,0.394-1.152,1.141-1.152,1.951c0,0.226,0.035,0.45,0.104,0.667C-285.903-12.537-283.306-10.867-283.009-10.682z
	 M-271.644-20.328v19.655c0,3.955-3.219,7.172-7.174,7.172h-19.654c-3.955,0-7.172-3.217-7.172-7.172v-19.655
	c0-3.955,3.217-7.172,7.172-7.172h19.654C-274.862-27.5-271.644-24.283-271.644-20.328z M-275.644-20.328
	c0-1.749-1.424-3.172-3.174-3.172h-19.654c-1.75,0-3.172,1.423-3.172,3.172v19.655c0,1.749,1.422,3.172,3.172,3.172h19.654
	c1.75,0,3.174-1.423,3.174-3.172V-20.328z"/>
</svg>
