<?xml version="1.0" encoding="utf-8"?>
<!-- Generator: Adobe Illustrator 16.0.0, SVG Export Plug-In . SVG Version: 6.00 Build 0)  -->
<!DOCTYPE svg PUBLIC "-//W3C//DTD SVG 1.1//EN" "http://www.w3.org/Graphics/SVG/1.1/DTD/svg11.dtd">
<svg version="1.1" id="Layer_1" xmlns="http://www.w3.org/2000/svg" xmlns:xlink="http://www.w3.org/1999/xlink" x="0px" y="0px"
	 width="50px" height="50px" viewBox="-245.5 -35.5 50 50" enable-background="new -245.5 -35.5 50 50" xml:space="preserve">
<path d="M-209.87-14.176c0,1.355-1.098,2.453-2.453,2.453c-1.354,0-2.453-1.098-2.453-2.453c0-1.354,1.1-2.453,2.453-2.453
	C-210.968-16.629-209.87-15.529-209.87-14.176z M-224.964-16.629c-1.354,0-2.453,1.1-2.453,2.453c0,1.355,1.1,2.453,2.453,2.453
	c1.355,0,2.453-1.098,2.453-2.453C-222.511-15.529-223.608-16.629-224.964-16.629z M-214.542-7.306l-1.178-1.177
	c-0.398-0.4-1.047-0.4-1.447,0l-1.477,1.479l-1.479-1.479c-0.4-0.4-1.047-0.4-1.447,0l-1.178,1.177
	c-0.398,0.399-0.398,1.048,0,1.446l1.479,1.479l-1.479,1.479c-0.398,0.399-0.398,1.047,0,1.446l1.178,1.177
	c0.199,0.2,0.461,0.301,0.723,0.301s0.523-0.101,0.725-0.301l1.479-1.478l1.477,1.478c0.201,0.2,0.463,0.301,0.725,0.301
	s0.523-0.101,0.723-0.301l1.178-1.177c0.398-0.399,0.398-1.047,0-1.446l-1.479-1.479l1.479-1.479
	C-214.144-6.258-214.144-6.906-214.542-7.306z M-201.644-20.328v19.655c0,3.955-3.219,7.172-7.174,7.172h-19.654
	c-3.955,0-7.172-3.217-7.172-7.172v-19.655c0-3.955,3.217-7.172,7.172-7.172h19.654C-204.862-27.5-201.644-24.283-201.644-20.328z
	 M-205.644-20.328c0-1.749-1.424-3.172-3.174-3.172h-19.654c-1.75,0-3.172,1.423-3.172,3.172v19.655
	c0,1.749,1.422,3.172,3.172,3.172h19.654c1.75,0,3.174-1.423,3.174-3.172V-20.328z"/>
</svg>
