<?xml version="1.0" encoding="utf-8"?>
<!-- Generator: Adobe Illustrator 16.0.0, SVG Export Plug-In . SVG Version: 6.00 Build 0)  -->
<!DOCTYPE svg PUBLIC "-//W3C//DTD SVG 1.1//EN" "http://www.w3.org/Graphics/SVG/1.1/DTD/svg11.dtd">
<svg version="1.1" id="Layer_1" xmlns="http://www.w3.org/2000/svg" xmlns:xlink="http://www.w3.org/1999/xlink" x="0px" y="0px"
	 width="50px" height="50px" viewBox="-105.5 -35.5 50 50" enable-background="new -105.5 -35.5 50 50" xml:space="preserve">
<path d="M-69.405-3.762c-2.096,3.047-5.551,4.865-9.238,4.865c-3.689,0-7.145-1.819-9.24-4.865
	c-0.471-0.683-0.297-1.617,0.385-2.086c0.684-0.471,1.615-0.298,2.086,0.385c1.537,2.233,4.066,3.566,6.77,3.566
	c2.701,0,5.23-1.333,6.768-3.566c0.471-0.683,1.404-0.854,2.086-0.385C-69.106-5.378-68.935-4.444-69.405-3.762z M-77.204-15.674
	h-2.881h-3.363h-7.445c0,3.658,2.418,6.625,5.404,6.625c2.436,0,4.494-1.977,5.168-4.693h3.354c0.676,2.717,2.732,4.693,5.17,4.693
	c2.984,0,5.404-2.967,5.404-6.625h-7.688H-77.204z M-61.644-20.328v19.655c0,3.955-3.219,7.172-7.174,7.172h-19.654
	c-3.955,0-7.172-3.217-7.172-7.172v-19.655c0-3.955,3.217-7.172,7.172-7.172h19.654C-64.862-27.5-61.644-24.283-61.644-20.328z
	 M-65.644-20.328c0-1.749-1.424-3.172-3.174-3.172h-19.654c-1.75,0-3.172,1.423-3.172,3.172v19.655c0,1.749,1.422,3.172,3.172,3.172
	h19.654c1.75,0,3.174-1.423,3.174-3.172V-20.328z"/>
</svg>
