<?xml version="1.0" encoding="utf-8"?>
<!-- Generator: Adobe Illustrator 16.0.0, SVG Export Plug-In . SVG Version: 6.00 Build 0)  -->
<!DOCTYPE svg PUBLIC "-//W3C//DTD SVG 1.1//EN" "http://www.w3.org/Graphics/SVG/1.1/DTD/svg11.dtd">
<svg version="1.1" id="Layer_1" xmlns="http://www.w3.org/2000/svg" xmlns:xlink="http://www.w3.org/1999/xlink" x="0px" y="0px"
	 width="50px" height="50px" viewBox="-35.5 -35.5 50 50" enable-background="new -35.5 -35.5 50 50" xml:space="preserve">
<path d="M0.13-14.174c0,1.354-1.098,2.453-2.453,2.453c-1.354,0-2.453-1.099-2.453-2.453s1.1-2.453,2.453-2.453
	C-0.968-16.627,0.13-15.528,0.13-14.174z M-14.964-16.627c-1.354,0-2.453,1.099-2.453,2.453s1.1,2.453,2.453,2.453
	c1.355,0,2.453-1.099,2.453-2.453S-13.608-16.627-14.964-16.627z M-8.644-7.508c-4.971,0-9,2.016-9,4.5c0,2.486,4.029,4.5,9,4.5
	s9-2.014,9-4.5C0.356-5.492-3.673-7.508-8.644-7.508z M8.356-0.672v-19.655c0-3.955-3.219-7.172-7.174-7.172h-19.654
	c-3.955,0-7.172,3.217-7.172,7.172v19.655c0,3.955,3.217,7.172,7.172,7.172H1.183C5.138,6.5,8.356,3.283,8.356-0.672z M1.183-23.5
	c1.75,0,3.174,1.423,3.174,3.172v19.655c0,1.749-1.424,3.172-3.174,3.172h-19.654c-1.75,0-3.172-1.423-3.172-3.172v-19.655
	c0-1.749,1.422-3.172,3.172-3.172H1.183z"/>
</svg>
