<?xml version="1.0" encoding="utf-8"?>
<!-- Generator: Adobe Illustrator 16.0.0, SVG Export Plug-In . SVG Version: 6.00 Build 0)  -->
<!DOCTYPE svg PUBLIC "-//W3C//DTD SVG 1.1//EN" "http://www.w3.org/Graphics/SVG/1.1/DTD/svg11.dtd">
<svg version="1.1" id="Layer_1" xmlns="http://www.w3.org/2000/svg" xmlns:xlink="http://www.w3.org/1999/xlink" x="0px" y="0px"
	 width="50px" height="50px" viewBox="34.5 -35.5 50 50" enable-background="new 34.5 -35.5 50 50" xml:space="preserve">
<path d="M66.044-11.344c-0.551,0-1.082-0.306-1.344-0.834c-0.369-0.742-0.064-1.643,0.678-2.01l6.125-3.035
	c0.74-0.369,1.641-0.065,2.01,0.678c0.367,0.742,0.064,1.643-0.678,2.01L66.71-11.5C66.495-11.394,66.269-11.344,66.044-11.344z
	 M58.013-12.178c0.367-0.742,0.064-1.643-0.678-2.01l-6.125-3.035c-0.74-0.369-1.643-0.064-2.01,0.678
	c-0.369,0.742-0.064,1.643,0.678,2.01l6.125,3.035c0.213,0.106,0.441,0.156,0.664,0.156C57.22-11.344,57.751-11.649,58.013-12.178z
	 M70.231-2.174c0-0.828-0.672-1.5-1.5-1.5h-14.75c-0.828,0-1.5,0.672-1.5,1.5s0.672,1.5,1.5,1.5h14.75
	C69.56-0.674,70.231-1.346,70.231-2.174z M78.356-0.672v-19.655c0-3.955-3.219-7.172-7.174-7.172H51.528
	c-3.955,0-7.172,3.217-7.172,7.172v19.655c0,3.955,3.217,7.172,7.172,7.172h19.654C75.138,6.5,78.356,3.283,78.356-0.672z
	 M71.183-23.5c1.75,0,3.174,1.423,3.174,3.172v19.655c0,1.749-1.424,3.172-3.174,3.172H51.528c-1.75,0-3.172-1.423-3.172-3.172
	v-19.655c0-1.749,1.422-3.172,3.172-3.172H71.183z"/>
</svg>
