<?xml version="1.0" encoding="utf-8"?>
<!-- Generator: Adobe Illustrator 16.0.0, SVG Export Plug-In . SVG Version: 6.00 Build 0)  -->
<!DOCTYPE svg PUBLIC "-//W3C//DTD SVG 1.1//EN" "http://www.w3.org/Graphics/SVG/1.1/DTD/svg11.dtd">
<svg version="1.1" id="Layer_1" xmlns="http://www.w3.org/2000/svg" xmlns:xlink="http://www.w3.org/1999/xlink" x="0px" y="0px"
	 width="50px" height="50px" viewBox="104.5 -35.5 50 50" enable-background="new 104.5 -35.5 50 50" xml:space="preserve">
<path d="M140.13-16.309c0,1.354-1.098,2.454-2.453,2.454c-1.354,0-2.453-1.1-2.453-2.454s1.1-2.453,2.453-2.453
	C139.032-18.762,140.13-17.663,140.13-16.309z M125.036-18.762c-1.354,0-2.453,1.099-2.453,2.453s1.1,2.454,2.453,2.454
	c1.355,0,2.453-1.1,2.453-2.454S126.392-18.762,125.036-18.762z M140.597-7.104c0.469-0.684,0.297-1.617-0.385-2.086
	c-0.684-0.471-1.617-0.297-2.086,0.385c-1.539,2.232-4.068,3.566-6.77,3.566s-5.232-1.334-6.77-3.566
	c-0.469-0.683-1.402-0.855-2.086-0.386c-0.682,0.47-0.855,1.403-0.385,2.086c2.096,3.047,5.551,4.866,9.24,4.866
	C135.044-2.238,138.499-4.058,140.597-7.104z M148.356-0.672v-19.655c0-3.955-3.219-7.172-7.174-7.172h-19.654
	c-3.955,0-7.172,3.217-7.172,7.172v19.655c0,3.955,3.217,7.172,7.172,7.172h19.654C145.138,6.5,148.356,3.283,148.356-0.672z
	 M141.183-23.5c1.75,0,3.174,1.423,3.174,3.172v19.655c0,1.749-1.424,3.172-3.174,3.172h-19.654c-1.75,0-3.172-1.423-3.172-3.172
	v-19.655c0-1.749,1.422-3.172,3.172-3.172H141.183z"/>
</svg>
