<?xml version="1.0" encoding="utf-8"?>
<!-- Generator: Adobe Illustrator 16.0.0, SVG Export Plug-In . SVG Version: 6.00 Build 0)  -->
<!DOCTYPE svg PUBLIC "-//W3C//DTD SVG 1.1//EN" "http://www.w3.org/Graphics/SVG/1.1/DTD/svg11.dtd">
<svg version="1.1" id="Layer_1" xmlns="http://www.w3.org/2000/svg" xmlns:xlink="http://www.w3.org/1999/xlink" x="0px" y="0px"
	 width="50px" height="50px" viewBox="174.5 -35.5 50 50" enable-background="new 174.5 -35.5 50 50" xml:space="preserve">
<path d="M210.13-14.834c0,1.354-1.098,2.454-2.453,2.454c-1.354,0-2.453-1.099-2.453-2.454s1.1-2.453,2.453-2.453
	C209.032-17.287,210.13-16.188,210.13-14.834z M195.036-17.287c-1.354,0-2.453,1.099-2.453,2.453s1.1,2.454,2.453,2.454
	c1.355,0,2.453-1.099,2.453-2.454S196.392-17.287,195.036-17.287z M194.587-2.917c1.537-2.234,4.068-3.566,6.77-3.566
	s5.232,1.332,6.768,3.565c0.471,0.683,1.404,0.855,2.086,0.386c0.684-0.47,0.855-1.404,0.387-2.086
	c-2.096-3.047-5.551-4.865-9.24-4.865s-7.143,1.818-9.24,4.865c-0.469,0.682-0.297,1.615,0.385,2.086
	c0.26,0.179,0.557,0.264,0.85,0.264C193.827-2.268,194.296-2.495,194.587-2.917z M218.356-0.672v-19.655
	c0-3.955-3.219-7.172-7.174-7.172h-19.654c-3.955,0-7.172,3.217-7.172,7.172v19.655c0,3.955,3.217,7.172,7.172,7.172h19.654
	C215.138,6.5,218.356,3.283,218.356-0.672z M211.183-23.5c1.75,0,3.174,1.423,3.174,3.172v19.655c0,1.749-1.424,3.172-3.174,3.172
	h-19.654c-1.75,0-3.172-1.423-3.172-3.172v-19.655c0-1.749,1.422-3.172,3.172-3.172H211.183z"/>
</svg>
