<?xml version="1.0" encoding="utf-8"?>
<!-- Generator: Adobe Illustrator 16.0.0, SVG Export Plug-In . SVG Version: 6.00 Build 0)  -->
<!DOCTYPE svg PUBLIC "-//W3C//DTD SVG 1.1//EN" "http://www.w3.org/Graphics/SVG/1.1/DTD/svg11.dtd">
<svg version="1.1" id="Layer_1" xmlns="http://www.w3.org/2000/svg" xmlns:xlink="http://www.w3.org/1999/xlink" x="0px" y="0px"
	 width="50px" height="50px" viewBox="244.5 -35.5 50 50" enable-background="new 244.5 -35.5 50 50" xml:space="preserve">
<path d="M262.991-13.318c0-1.354,1.1-2.453,2.453-2.453c1.355,0,2.453,1.099,2.453,2.453s-1.098,2.453-2.453,2.453
	C264.091-10.865,262.991-11.964,262.991-13.318z M278.085-10.865c1.355,0,2.453-1.099,2.453-2.453s-1.098-2.453-2.453-2.453
	c-1.354,0-2.453,1.099-2.453,2.453S276.731-10.865,278.085-10.865z M288.356-20.328v19.655c0,3.955-3.219,7.172-7.174,7.172h-19.654
	c-3.955,0-7.172-3.217-7.172-7.172v-19.655c0-3.955,3.217-7.172,7.172-7.172h19.654C285.138-27.5,288.356-24.283,288.356-20.328z
	 M284.356-20.328c0-1.749-1.424-3.172-3.174-3.172h-19.654c-1.75,0-3.172,1.423-3.172,3.172v19.655c0,1.749,1.422,3.172,3.172,3.172
	h19.654c1.75,0,3.174-1.423,3.174-3.172V-20.328z M271.765-7.968c-3.689,0-7.143,1.818-9.24,4.865
	c-0.316,0.459-0.352,1.056-0.092,1.549s0.77,0.802,1.328,0.802h16.008c0.559,0,1.068-0.309,1.328-0.802s0.225-1.09-0.092-1.549
	C278.909-6.148,275.454-7.968,271.765-7.968z"/>
</svg>
