<?xml version="1.0" encoding="utf-8"?>
<!-- Generator: Adobe Illustrator 16.0.0, SVG Export Plug-In . SVG Version: 6.00 Build 0)  -->
<!DOCTYPE svg PUBLIC "-//W3C//DTD SVG 1.1//EN" "http://www.w3.org/Graphics/SVG/1.1/DTD/svg11.dtd">
<svg version="1.1" id="Layer_1" xmlns="http://www.w3.org/2000/svg" xmlns:xlink="http://www.w3.org/1999/xlink" x="0px" y="0px"
	 width="50px" height="50px" viewBox="-35.5 -175.5 50 50" enable-background="new -35.5 -175.5 50 50" xml:space="preserve">
<path d="M6.5-145.333v7.666c0,1.381-1.119,2.5-2.5,2.5s-2.5-1.119-2.5-2.5v-0.24c-3.109,2.884-7.238,4.574-11.667,4.574
	c-6.937,0-13.152-4.135-15.836-10.533c-0.132-0.316-0.194-0.644-0.194-0.966c0-0.978,0.576-1.905,1.533-2.307
	c1.273-0.534,2.738,0.065,3.272,1.339c1.902,4.536,6.309,7.467,11.225,7.467c3.737,0,7.176-1.696,9.447-4.5h-2.946
	c-1.381,0-2.5-1.119-2.5-2.5s1.119-2.5,2.5-2.5H4C5.381-147.833,6.5-146.714,6.5-145.333z M-17.334-152.833
	c1.381,0,2.5-1.12,2.5-2.5c0-1.381-1.119-2.5-2.5-2.5h-2.536c2.264-3.002,5.821-4.834,9.703-4.834c4.917,0,9.323,2.932,11.225,7.468
	c0.534,1.273,1.999,1.872,3.272,1.339c1.273-0.534,1.872-1.998,1.339-3.272c-2.684-6.399-8.899-10.534-15.836-10.534
	c-4.75,0-9.162,1.941-12.333,5.219V-163c0-1.381-1.12-2.5-2.5-2.5c-1.381,0-2.5,1.119-2.5,2.5v7.667
	c0,0.663,0.264,1.299,0.732,1.769c0.469,0.469,1.104,0.731,1.768,0.731H-17.334z"/>
</svg>
