<?xml version="1.0" encoding="utf-8"?>
<!-- Generator: Adobe Illustrator 16.0.0, SVG Export Plug-In . SVG Version: 6.00 Build 0)  -->
<!DOCTYPE svg PUBLIC "-//W3C//DTD SVG 1.1//EN" "http://www.w3.org/Graphics/SVG/1.1/DTD/svg11.dtd">
<svg version="1.1" id="Layer_1" xmlns="http://www.w3.org/2000/svg" xmlns:xlink="http://www.w3.org/1999/xlink" x="0px" y="0px"
	 width="50px" height="50px" viewBox="-35.5 -175.5 50 50" enable-background="new -35.5 -175.5 50 50" xml:space="preserve">
<path d="M-1.221-157.978l-2.487,0v-1.785c0-0.428,0.569-0.789,1.243-0.789c0.674,0,1.244,0.361,1.244,0.789V-157.978z
	 M7.791-162.666v25c0,2.761-2.239,5-5,5h-25c-2.761,0-5-2.239-5-5v-25c0-2.761,2.239-5,5-5h25
	C5.552-167.666,7.791-165.427,7.791-162.666z M-5.929-152.829c0,0.734,0.636,1.329,1.421,1.329l4.086-0.001
	c0.785,0,1.421-0.595,1.421-1.329v-3.819c0-0.525-0.327-0.974-0.799-1.189v-1.924c0-1.168-1.195-2.118-2.665-2.117
	c-1.469,0-2.665,0.95-2.665,2.118v1.924c-0.471,0.216-0.799,0.666-0.799,1.19V-152.829z M-21.459-159.916c0,0.829,0.671,1.5,1.5,1.5
	H-9.92c0.829,0,1.5-0.671,1.5-1.5s-0.671-1.5-1.5-1.5h-10.039C-20.788-161.416-21.459-160.744-21.459-159.916z M-21.459-153.416
	c0,0.829,0.671,1.5,1.5,1.5h10c0.829,0,1.5-0.671,1.5-1.5s-0.671-1.5-1.5-1.5h-10C-20.788-154.916-21.459-154.244-21.459-153.416z
	 M2.041-140.416c0-0.829-0.671-1.5-1.5-1.5h-20.5c-0.829,0-1.5,0.671-1.5,1.5s0.671,1.5,1.5,1.5h20.5
	C1.37-138.916,2.041-139.587,2.041-140.416z M2.041-146.916c0-0.829-0.671-1.5-1.5-1.5h-20.5c-0.829,0-1.5,0.671-1.5,1.5
	s0.671,1.5,1.5,1.5h20.5C1.37-145.416,2.041-146.087,2.041-146.916z"/>
</svg>
