<?xml version="1.0" encoding="utf-8"?>
<!-- Generator: Adobe Illustrator 16.0.0, SVG Export Plug-In . SVG Version: 6.00 Build 0)  -->
<!DOCTYPE svg PUBLIC "-//W3C//DTD SVG 1.1//EN" "http://www.w3.org/Graphics/SVG/1.1/DTD/svg11.dtd">
<svg version="1.1" id="Layer_1" xmlns="http://www.w3.org/2000/svg" xmlns:xlink="http://www.w3.org/1999/xlink" x="0px" y="0px"
	 width="50px" height="50px" viewBox="314.5 -35.5 50 50" enable-background="new 314.5 -35.5 50 50" xml:space="preserve">
<path d="M350.485-4.114c-2.098,3.047-5.551,4.865-9.24,4.865s-7.145-1.819-9.24-4.865c-0.469-0.683-0.297-1.617,0.385-2.086
	c0.682-0.47,1.617-0.298,2.086,0.385c1.537,2.233,4.068,3.566,6.77,3.566s5.232-1.333,6.77-3.566
	c0.469-0.685,1.404-0.854,2.086-0.385C350.782-5.73,350.954-4.797,350.485-4.114z M333.097-13.381
	c-0.09-0.214-0.133-0.423-0.133-0.629c0-0.151,0.059-0.289,0.178-0.41c0.117-0.122,0.266-0.183,0.443-0.183
	c0.141,0,0.262,0.033,0.359,0.1c0.1,0.066,0.166,0.16,0.205,0.28c0.084,0.259,0.158,0.458,0.223,0.595
	c0.063,0.138,0.158,0.263,0.287,0.377c0.127,0.113,0.297,0.2,0.51,0.261v-2.205c-0.424-0.117-0.779-0.247-1.063-0.391
	c-0.285-0.144-0.516-0.349-0.693-0.614c-0.176-0.266-0.266-0.607-0.266-1.024c0-0.544,0.174-0.989,0.52-1.337
	c0.348-0.348,0.848-0.55,1.502-0.607v-0.502c0-0.266,0.1-0.398,0.297-0.398c0.203,0,0.305,0.129,0.305,0.389v0.512
	c0.338,0.035,0.629,0.104,0.869,0.208c0.242,0.104,0.453,0.262,0.633,0.474c0.143,0.161,0.252,0.327,0.33,0.498
	c0.078,0.171,0.117,0.327,0.117,0.469c0,0.159-0.059,0.295-0.174,0.411c-0.115,0.115-0.256,0.173-0.42,0.173
	c-0.311,0-0.51-0.167-0.602-0.502c-0.105-0.395-0.355-0.658-0.754-0.787v1.972c0.391,0.108,0.703,0.206,0.938,0.294
	c0.23,0.088,0.438,0.216,0.621,0.384c0.197,0.174,0.348,0.381,0.453,0.624c0.107,0.241,0.158,0.506,0.158,0.794
	c0,0.36-0.084,0.698-0.252,1.012c-0.17,0.314-0.418,0.571-0.748,0.771c-0.328,0.199-0.719,0.317-1.17,0.355v1.181
	c0,0.187-0.018,0.322-0.055,0.408c-0.037,0.085-0.117,0.127-0.24,0.127c-0.113,0-0.193-0.034-0.238-0.104
	c-0.047-0.07-0.068-0.178-0.068-0.322v-1.28c-0.371-0.042-0.693-0.128-0.971-0.261s-0.508-0.298-0.693-0.496
	C333.321-12.963,333.185-13.168,333.097-13.381z M335.771-12.943c0.318-0.063,0.566-0.191,0.74-0.384s0.26-0.417,0.26-0.673
	c0-0.275-0.084-0.488-0.254-0.638c-0.168-0.15-0.418-0.278-0.746-0.382V-12.943z M335.169-16.428v-1.816
	c-0.266,0.079-0.473,0.183-0.621,0.313c-0.15,0.13-0.225,0.326-0.225,0.588c0,0.25,0.07,0.438,0.209,0.566
	S334.884-16.532,335.169-16.428z M344.683-13.381c-0.09-0.214-0.133-0.423-0.133-0.629c0-0.151,0.059-0.289,0.178-0.41
	c0.117-0.122,0.266-0.183,0.443-0.183c0.141,0,0.262,0.033,0.359,0.1c0.1,0.066,0.166,0.16,0.205,0.28
	c0.084,0.259,0.158,0.458,0.223,0.595c0.063,0.138,0.158,0.263,0.287,0.377c0.127,0.113,0.297,0.2,0.51,0.261v-2.205
	c-0.424-0.117-0.779-0.247-1.063-0.391c-0.285-0.144-0.516-0.349-0.693-0.614c-0.176-0.266-0.266-0.607-0.266-1.024
	c0-0.544,0.174-0.989,0.52-1.337c0.348-0.348,0.848-0.55,1.502-0.607v-0.502c0-0.266,0.1-0.398,0.297-0.398
	c0.203,0,0.305,0.129,0.305,0.389v0.512c0.338,0.035,0.629,0.104,0.869,0.208c0.242,0.104,0.453,0.262,0.633,0.474
	c0.143,0.161,0.252,0.327,0.33,0.498c0.078,0.171,0.117,0.327,0.117,0.469c0,0.159-0.059,0.295-0.174,0.411
	c-0.115,0.115-0.256,0.173-0.42,0.173c-0.311,0-0.51-0.167-0.602-0.502c-0.105-0.395-0.355-0.658-0.754-0.787v1.972
	c0.391,0.108,0.703,0.206,0.938,0.294c0.23,0.088,0.438,0.216,0.621,0.384c0.197,0.174,0.348,0.381,0.453,0.624
	c0.107,0.241,0.158,0.506,0.158,0.794c0,0.36-0.084,0.698-0.252,1.012c-0.17,0.314-0.418,0.571-0.748,0.771
	c-0.328,0.199-0.719,0.317-1.17,0.355v1.181c0,0.187-0.018,0.322-0.055,0.408c-0.037,0.085-0.117,0.127-0.24,0.127
	c-0.113,0-0.193-0.034-0.238-0.104c-0.047-0.07-0.068-0.178-0.068-0.322v-1.28c-0.371-0.042-0.693-0.128-0.971-0.261
	s-0.508-0.298-0.693-0.496C344.907-12.963,344.771-13.168,344.683-13.381z M347.356-12.943c0.318-0.063,0.566-0.191,0.74-0.384
	s0.26-0.417,0.26-0.673c0-0.275-0.084-0.488-0.254-0.638c-0.168-0.15-0.418-0.278-0.746-0.382V-12.943z M346.755-16.428v-1.816
	c-0.266,0.079-0.473,0.183-0.621,0.313c-0.15,0.13-0.225,0.326-0.225,0.588c0,0.25,0.07,0.438,0.209,0.566
	S346.47-16.532,346.755-16.428z M358.356-20.328v19.655c0,3.955-3.219,7.172-7.174,7.172h-19.654c-3.955,0-7.172-3.217-7.172-7.172
	v-19.655c0-3.955,3.217-7.172,7.172-7.172h19.654C355.138-27.5,358.356-24.283,358.356-20.328z M354.356-20.328
	c0-1.749-1.424-3.172-3.174-3.172h-19.654c-1.75,0-3.172,1.423-3.172,3.172v19.655c0,1.749,1.422,3.172,3.172,3.172h19.654
	c1.75,0,3.174-1.423,3.174-3.172V-20.328z"/>
</svg>
