<?xml version="1.0" encoding="utf-8"?>
<!-- Generator: Adobe Illustrator 16.0.0, SVG Export Plug-In . SVG Version: 6.00 Build 0)  -->
<!DOCTYPE svg PUBLIC "-//W3C//DTD SVG 1.1//EN" "http://www.w3.org/Graphics/SVG/1.1/DTD/svg11.dtd">
<svg version="1.1" id="Layer_1" xmlns="http://www.w3.org/2000/svg" xmlns:xlink="http://www.w3.org/1999/xlink" x="0px" y="0px"
	 width="50px" height="50px" viewBox="34.5 -175.5 50 50" enable-background="new 34.5 -175.5 50 50" xml:space="preserve">
<path d="M73.727-146.854c0,0.926-0.524,1.722-1.287,2.133v4.223c0,4.537-3.608,8.228-8.043,8.228c-3.572,0-6.605-2.397-7.65-5.701
	c-1.198-0.22-2.107-1.265-2.107-2.527v-5.498c0-0.268,0.052-0.521,0.128-0.763c-5.687-0.951-9.493-5.54-9.493-11.82
	c0-0.935,0.602-1.722,1.436-2.016c0.21-1.488,0.652-2.914,1.304-4.214c-0.322-0.412-0.523-0.926-0.523-1.49
	c0-1.343,1.088-2.431,2.431-2.431s2.431,1.088,2.431,2.431c0,1.342-1.088,2.43-2.431,2.43c-0.148,0-0.293-0.018-0.436-0.043
	c-0.519,1.068-0.882,2.231-1.065,3.447c0.678,0.36,1.144,1.065,1.144,1.886c0,4.691,2.919,7.721,7.436,7.721
	c4.516,0,7.435-3.03,7.435-7.721c0-0.821,0.466-1.525,1.144-1.886c-0.184-1.216-0.547-2.379-1.065-3.447
	c-0.142,0.026-0.286,0.043-0.435,0.043c-1.344,0-2.432-1.088-2.432-2.43c0-1.343,1.088-2.431,2.432-2.431
	c1.342,0,2.43,1.088,2.43,2.431c0,0.564-0.201,1.078-0.523,1.49c0.652,1.3,1.094,2.726,1.304,4.214
	c0.834,0.294,1.436,1.081,1.436,2.016c0,6.129-3.625,10.65-9.086,11.748c0.091,0.263,0.15,0.541,0.15,0.834v5.498
	c0,0.965-0.537,1.795-1.323,2.236c0.889,2.491,3.209,4.276,5.934,4.276c3.488,0,6.327-2.921,6.327-6.512v-4
	c-1.065-0.259-1.858-1.211-1.858-2.356c0-1.343,1.088-2.431,2.432-2.431C72.639-149.285,73.727-148.197,73.727-146.854z"/>
</svg>
