<?xml version="1.0" encoding="utf-8"?>
<!-- Generator: Adobe Illustrator 16.0.0, SVG Export Plug-In . SVG Version: 6.00 Build 0)  -->
<!DOCTYPE svg PUBLIC "-//W3C//DTD SVG 1.1//EN" "http://www.w3.org/Graphics/SVG/1.1/DTD/svg11.dtd">
<svg version="1.1" id="Layer_1" xmlns="http://www.w3.org/2000/svg" xmlns:xlink="http://www.w3.org/1999/xlink" x="0px" y="0px"
	 width="50px" height="50px" viewBox="104.5 -175.5 50 50" enable-background="new 104.5 -175.5 50 50" xml:space="preserve">
<path d="M147.166-134.833c0,1.104-0.896,2-2,2h-31.332c-1.104,0-2-0.896-2-2v-31.334c0-1.104,0.896-2,2-2s2,0.896,2,2v29.334h3.514
	c-0.612-0.456-1.014-1.178-1.014-2v-10.427c0-1.381,1.119-2.5,2.5-2.5s2.5,1.119,2.5,2.5v10.427c0,0.822-0.401,1.544-1.014,2h4.026
	c-0.612-0.456-1.014-1.178-1.014-2V-154c0-1.381,1.119-2.5,2.5-2.5s2.5,1.119,2.5,2.5v15.167c0,0.822-0.401,1.544-1.014,2h4.029
	c-0.612-0.456-1.014-1.178-1.014-2v-10.427c0-1.381,1.119-2.5,2.5-2.5s2.5,1.119,2.5,2.5v10.427c0,0.822-0.401,1.544-1.014,2h4.026
	c-0.612-0.456-1.014-1.178-1.014-2V-154c0-1.381,1.119-2.5,2.5-2.5s2.5,1.119,2.5,2.5v15.167c0,0.822-0.401,1.544-1.014,2h1.846
	C146.271-136.833,147.166-135.938,147.166-134.833z"/>
</svg>
