<?xml version="1.0" encoding="utf-8"?>
<!-- Generator: Adobe Illustrator 16.0.0, SVG Export Plug-In . SVG Version: 6.00 Build 0)  -->
<!DOCTYPE svg PUBLIC "-//W3C//DTD SVG 1.1//EN" "http://www.w3.org/Graphics/SVG/1.1/DTD/svg11.dtd">
<svg version="1.1" id="Layer_1" xmlns="http://www.w3.org/2000/svg" xmlns:xlink="http://www.w3.org/1999/xlink" x="0px" y="0px"
	 width="50px" height="50px" viewBox="104.5 -175.5 50 50" enable-background="new 104.5 -175.5 50 50" xml:space="preserve">
<path d="M146.041-137.666v-25c0-2.761-2.238-5-5-5h-25c-2.762,0-5,2.239-5,5v25c0,2.761,2.238,5,5,5h25
	C143.803-132.666,146.041-134.904,146.041-137.666z M118.291-161.416h10.038c0.828,0,1.5,0.671,1.5,1.5s-0.672,1.5-1.5,1.5h-10.038
	c-0.828,0-1.5-0.671-1.5-1.5S117.463-161.416,118.291-161.416z M118.291-154.916h10c0.828,0,1.5,0.671,1.5,1.5s-0.672,1.5-1.5,1.5
	h-10c-0.828,0-1.5-0.671-1.5-1.5S117.463-154.916,118.291-154.916z M138.791-138.916h-20.5c-0.828,0-1.5-0.671-1.5-1.5
	s0.672-1.5,1.5-1.5h20.5c0.828,0,1.5,0.671,1.5,1.5S139.619-138.916,138.791-138.916z M138.791-145.416h-20.5
	c-0.828,0-1.5-0.671-1.5-1.5s0.672-1.5,1.5-1.5h20.5c0.828,0,1.5,0.671,1.5,1.5S139.619-145.416,138.791-145.416z M142.378-157.677
	l-4.899,4.901c-0.229,0.23-0.532,0.345-0.833,0.345s-0.602-0.115-0.832-0.344l-3.034-3.029c-0.46-0.459-0.461-1.205-0.001-1.666
	c0.459-0.46,1.205-0.46,1.665-0.001l2.201,2.197l4.067-4.069c0.46-0.46,1.205-0.46,1.666,0
	C142.838-158.883,142.838-158.138,142.378-157.677z M149.541-159.201v22.113c0,2.442-1.979,4.423-4.423,4.423h-2.493
	c2.762,0,5-2.239,5-5v-25c0-0.065-0.017-0.126-0.02-0.191C148.773-162.061,149.541-160.721,149.541-159.201z"/>
</svg>
