<?xml version="1.0" encoding="utf-8"?>
<!-- Generator: Adobe Illustrator 16.0.0, SVG Export Plug-In . SVG Version: 6.00 Build 0)  -->
<!DOCTYPE svg PUBLIC "-//W3C//DTD SVG 1.1//EN" "http://www.w3.org/Graphics/SVG/1.1/DTD/svg11.dtd">
<svg version="1.1" id="Layer_1" xmlns="http://www.w3.org/2000/svg" xmlns:xlink="http://www.w3.org/1999/xlink" x="0px" y="0px"
	 width="50px" height="50px" viewBox="174.5 -175.5 50 50" enable-background="new 174.5 -175.5 50 50" xml:space="preserve">
<path d="M217.473-161.463h-4.148v-4.542c0-1.309-1.061-2.37-2.369-2.37h-18.96c-1.309,0-2.37,1.061-2.37,2.37v4.542h-4.146
	c-1.964,0-3.555,1.592-3.555,3.555v20.736c0,1.963,1.591,3.555,3.555,3.555h31.994c1.963,0,3.555-1.591,3.555-3.555v-20.736
	C221.027-159.872,219.436-161.463,217.473-161.463z M194.365-163.636h14.22v2.172h-14.22V-163.636z M206.628-144.177H204v2.629
	c0,1.394-1.131,2.525-2.525,2.525c-1.394,0-2.523-1.131-2.523-2.525v-2.629h-2.629c-1.395,0-2.524-1.13-2.524-2.524
	c0-1.395,1.13-2.524,2.524-2.524h2.629v-2.63c0-1.394,1.13-2.524,2.523-2.524c1.395,0,2.525,1.129,2.525,2.524v2.629h2.628
	c1.396,0,2.524,1.13,2.524,2.524C209.152-145.307,208.023-144.177,206.628-144.177z"/>
</svg>
