<?xml version="1.0" encoding="utf-8"?>
<!-- Generator: Adobe Illustrator 16.0.0, SVG Export Plug-In . SVG Version: 6.00 Build 0)  -->
<!DOCTYPE svg PUBLIC "-//W3C//DTD SVG 1.1//EN" "http://www.w3.org/Graphics/SVG/1.1/DTD/svg11.dtd">
<svg version="1.1" id="Layer_1" xmlns="http://www.w3.org/2000/svg" xmlns:xlink="http://www.w3.org/1999/xlink" x="0px" y="0px"
	 width="50px" height="50px" viewBox="174.5 -175.5 50 50" enable-background="new 174.5 -175.5 50 50" xml:space="preserve">
<path d="M216.041-137.666v-25c0-2.761-2.238-5-5-5h-25c-2.762,0-5,2.239-5,5v25c0,2.761,2.238,5,5,5h25
	C213.803-132.666,216.041-134.904,216.041-137.666z M188.291-161.416h10.038c0.828,0,1.5,0.671,1.5,1.5s-0.672,1.5-1.5,1.5h-10.038
	c-0.828,0-1.5-0.671-1.5-1.5S187.463-161.416,188.291-161.416z M188.291-154.916h10c0.828,0,1.5,0.671,1.5,1.5s-0.672,1.5-1.5,1.5
	h-10c-0.828,0-1.5-0.671-1.5-1.5S187.463-154.916,188.291-154.916z M208.791-138.916h-20.5c-0.828,0-1.5-0.671-1.5-1.5
	s0.672-1.5,1.5-1.5h20.5c0.828,0,1.5,0.671,1.5,1.5S209.619-138.916,208.791-138.916z M208.791-145.416h-20.5
	c-0.828,0-1.5-0.671-1.5-1.5s0.672-1.5,1.5-1.5h20.5c0.828,0,1.5,0.671,1.5,1.5S209.619-145.416,208.791-145.416z M210.901-155.288
	h-1.88v1.879c0,0.755-0.612,1.368-1.367,1.368s-1.367-0.612-1.367-1.368v-1.879h-1.88c-0.756,0-1.368-0.612-1.368-1.368
	s0.612-1.368,1.368-1.368h1.88v-1.88c0-0.755,0.612-1.367,1.367-1.367s1.367,0.611,1.367,1.367v1.88h1.88
	c0.756,0,1.368,0.612,1.368,1.368S211.657-155.288,210.901-155.288z M219.541-159.201v22.113c0,2.442-1.979,4.423-4.423,4.423
	h-2.493c2.762,0,5-2.239,5-5v-25c0-0.065-0.017-0.126-0.02-0.191C218.773-162.061,219.541-160.721,219.541-159.201z"/>
</svg>
