<?xml version="1.0" encoding="utf-8"?>
<!-- Generator: Adobe Illustrator 16.0.0, SVG Export Plug-In . SVG Version: 6.00 Build 0)  -->
<!DOCTYPE svg PUBLIC "-//W3C//DTD SVG 1.1//EN" "http://www.w3.org/Graphics/SVG/1.1/DTD/svg11.dtd">
<svg version="1.1" id="Layer_1" xmlns="http://www.w3.org/2000/svg" xmlns:xlink="http://www.w3.org/1999/xlink" x="0px" y="0px"
	 width="50px" height="50px" viewBox="244.5 -175.5 50 50" enable-background="new 244.5 -175.5 50 50" xml:space="preserve">
<path d="M279.338-140.526c0.391,0.455,0.639,1.035,0.639,1.683c0,1.385-1.082,2.508-2.443,2.598
	c0.025,0.148,0.045,0.298,0.045,0.454c0,1.444-1.171,2.615-2.615,2.615h-0.859c-0.529,0.909-1.502,1.526-2.629,1.526
	s-2.1-0.617-2.628-1.526h-0.859c-1.444,0-2.616-1.171-2.616-2.615c0-0.156,0.02-0.306,0.047-0.454
	c-1.363-0.09-2.443-1.213-2.443-2.598c0-0.647,0.247-1.228,0.638-1.683H279.338z M271.475-161.84c0.723,0,1.309-0.585,1.309-1.308
	v-5.885c0-0.723-0.586-1.308-1.309-1.308s-1.307,0.585-1.307,1.308v5.885C270.168-162.426,270.752-161.84,271.475-161.84z
	 M261.838-156.982c0.511-0.51,0.511-1.338,0-1.849l-4.162-4.162c-0.511-0.511-1.338-0.511-1.85,0c-0.51,0.51-0.51,1.338,0,1.849
	l4.162,4.162c0.256,0.255,0.59,0.383,0.925,0.383S261.582-156.727,261.838-156.982z M271.475-161.078
	c-6.26,0-11.334,5.075-11.334,11.335c0,3.018,1.186,5.755,3.108,7.786h16.452c1.924-2.031,3.109-4.768,3.109-7.786
	C282.811-156.003,277.735-161.078,271.475-161.078z M287.123-162.993c-0.51-0.511-1.339-0.511-1.85,0l-4.161,4.162
	c-0.511,0.511-0.511,1.339,0,1.85c0.255,0.255,0.591,0.383,0.925,0.383s0.67-0.128,0.925-0.383l4.161-4.162
	C287.635-161.655,287.635-162.483,287.123-162.993z"/>
</svg>
