<?xml version="1.0" encoding="utf-8"?>
<!-- Generator: Adobe Illustrator 16.0.0, SVG Export Plug-In . SVG Version: 6.00 Build 0)  -->
<!DOCTYPE svg PUBLIC "-//W3C//DTD SVG 1.1//EN" "http://www.w3.org/Graphics/SVG/1.1/DTD/svg11.dtd">
<svg version="1.1" id="Layer_1" xmlns="http://www.w3.org/2000/svg" xmlns:xlink="http://www.w3.org/1999/xlink" x="0px" y="0px"
	 width="50px" height="50px" viewBox="244.5 -175.5 50 50" enable-background="new 244.5 -175.5 50 50" xml:space="preserve">
<path d="M289.541-159.201v22.113c0,2.442-1.979,4.423-4.423,4.423h-2.493c2.762,0,5-2.239,5-5v-25c0-0.065-0.017-0.126-0.02-0.191
	C288.773-162.061,289.541-160.721,289.541-159.201z M281.041-132.666h-25c-2.762,0-5-2.239-5-5v-25c0-2.761,2.238-5,5-5h25
	c2.762,0,5,2.239,5,5v25C286.041-134.904,283.803-132.666,281.041-132.666z M256.791-159.916c0,0.829,0.672,1.5,1.5,1.5h10.038
	c0.828,0,1.5-0.671,1.5-1.5s-0.672-1.5-1.5-1.5h-10.038C257.463-161.416,256.791-160.744,256.791-159.916z M256.791-153.416
	c0,0.829,0.672,1.5,1.5,1.5h10c0.828,0,1.5-0.671,1.5-1.5s-0.672-1.5-1.5-1.5h-10C257.463-154.916,256.791-154.244,256.791-153.416z
	 M280.291-140.416c0-0.829-0.672-1.5-1.5-1.5h-20.5c-0.828,0-1.5,0.671-1.5,1.5s0.672,1.5,1.5,1.5h20.5
	C279.619-138.916,280.291-139.587,280.291-140.416z M280.291-146.916c0-0.829-0.672-1.5-1.5-1.5h-20.5c-0.828,0-1.5,0.671-1.5,1.5
	s0.672,1.5,1.5,1.5h20.5C279.619-145.416,280.291-146.087,280.291-146.916z M282.964-156.261c0-0.73-0.592-1.322-1.322-1.322h-6.279
	c-0.73,0-1.322,0.592-1.322,1.322c0,0.73,0.592,1.322,1.322,1.322h6.279C282.372-154.939,282.964-155.531,282.964-156.261z"/>
</svg>
