<?xml version="1.0" encoding="utf-8"?>
<!-- Generator: Adobe Illustrator 16.0.0, SVG Export Plug-In . SVG Version: 6.00 Build 0)  -->
<!DOCTYPE svg PUBLIC "-//W3C//DTD SVG 1.1//EN" "http://www.w3.org/Graphics/SVG/1.1/DTD/svg11.dtd">
<svg version="1.1" id="Layer_1" xmlns="http://www.w3.org/2000/svg" xmlns:xlink="http://www.w3.org/1999/xlink" x="0px" y="0px"
	 width="50px" height="50px" viewBox="314.5 -175.5 50 50" enable-background="new 314.5 -175.5 50 50" xml:space="preserve">
<path d="M347.021-150.46c0,0.829-0.672,1.5-1.5,1.5H341.5c-0.829,0-1.5-0.671-1.5-1.5v-6.801c0-0.829,0.671-1.5,1.5-1.5
	c0.828,0,1.5,0.671,1.5,1.5v5.301h2.521C346.35-151.96,347.021-151.289,347.021-150.46z M357.475-150.996c0,8.822-7.178,16-16,16
	s-16-7.178-16-16s7.178-16,16-16S357.475-159.818,357.475-150.996z M354.369-149.413h-2.478c-0.829,0-1.5-0.671-1.5-1.5
	s0.671-1.5,1.5-1.5h2.503c-0.654-6.01-5.421-10.796-11.42-11.49v2.573c0,0.829-0.671,1.5-1.5,1.5c-0.828,0-1.5-0.671-1.5-1.5v-2.573
	c-5.998,0.693-10.764,5.479-11.418,11.49h2.502c0.828,0,1.5,0.671,1.5,1.5s-0.672,1.5-1.5,1.5h-2.477
	c0.725,5.931,5.451,10.636,11.393,11.323v-2.406c0-0.829,0.672-1.5,1.5-1.5c0.829,0,1.5,0.671,1.5,1.5v2.406
	C348.918-138.776,353.645-143.482,354.369-149.413z"/>
</svg>
