<?xml version="1.0" encoding="utf-8"?>
<!-- Generator: Adobe Illustrator 16.0.0, SVG Export Plug-In . SVG Version: 6.00 Build 0)  -->
<!DOCTYPE svg PUBLIC "-//W3C//DTD SVG 1.1//EN" "http://www.w3.org/Graphics/SVG/1.1/DTD/svg11.dtd">
<svg version="1.1" id="Layer_1" xmlns="http://www.w3.org/2000/svg" xmlns:xlink="http://www.w3.org/1999/xlink" x="0px" y="0px"
	 width="50px" height="50px" viewBox="314.5 -175.5 50 50" enable-background="new 314.5 -175.5 50 50" xml:space="preserve">
<path d="M356.041-137.666v-25c0-2.761-2.238-5-5-5h-25c-2.762,0-5,2.239-5,5v25c0,2.761,2.238,5,5,5h25
	C353.803-132.666,356.041-134.904,356.041-137.666z M328.291-161.416h10.038c0.828,0,1.5,0.671,1.5,1.5s-0.672,1.5-1.5,1.5h-10.038
	c-0.828,0-1.5-0.671-1.5-1.5S327.463-161.416,328.291-161.416z M328.291-154.916h10c0.828,0,1.5,0.671,1.5,1.5s-0.672,1.5-1.5,1.5
	h-10c-0.828,0-1.5-0.671-1.5-1.5S327.463-154.916,328.291-154.916z M348.791-138.916h-20.5c-0.828,0-1.5-0.671-1.5-1.5
	s0.672-1.5,1.5-1.5h20.5c0.828,0,1.5,0.671,1.5,1.5S349.619-138.916,348.791-138.916z M348.791-145.416h-20.5
	c-0.828,0-1.5-0.671-1.5-1.5s0.672-1.5,1.5-1.5h20.5c0.828,0,1.5,0.671,1.5,1.5S349.619-145.416,348.791-145.416z M350.748-152.83
	c0,0.734-0.636,1.329-1.421,1.329l-4.086,0.001c-0.785,0-1.421-0.595-1.421-1.329v-3.819c0-0.524,0.327-0.974,0.799-1.19v-1.924
	c0-1.167,1.196-2.118,2.665-2.118c1.469,0,2.664,0.949,2.664,2.117v1.924c0.473,0.216,0.8,0.665,0.8,1.189V-152.83z
	 M348.528-159.763v1.785l-2.487,0v-1.785c0-0.428,0.569-0.789,1.243-0.789C347.958-160.552,348.528-160.191,348.528-159.763z
	 M359.541-159.201v22.113c0,2.442-1.979,4.423-4.423,4.423h-2.493c2.762,0,5-2.239,5-5v-25c0-0.065-0.017-0.126-0.02-0.191
	C358.773-162.061,359.541-160.721,359.541-159.201z"/>
</svg>
