<?xml version="1.0" encoding="utf-8"?>
<!-- Generator: Adobe Illustrator 16.0.0, SVG Export Plug-In . SVG Version: 6.00 Build 0)  -->
<!DOCTYPE svg PUBLIC "-//W3C//DTD SVG 1.1//EN" "http://www.w3.org/Graphics/SVG/1.1/DTD/svg11.dtd">
<svg version="1.1" id="Layer_1" xmlns="http://www.w3.org/2000/svg" xmlns:xlink="http://www.w3.org/1999/xlink" x="0px" y="0px"
	 width="50px" height="50px" viewBox="-315.5 -105.5 50 50" enable-background="new -315.5 -105.5 50 50" xml:space="preserve">
<path d="M-273.042-91.012h-25.677c-0.817,0-1.583,0.399-2.05,1.069l-5.823,8.346c-0.6,0.859-0.6,2.002,0,2.861l5.823,8.346
	c0.468,0.67,1.233,1.069,2.05,1.069h25.677c1.381,0,2.5-1.119,2.5-2.5v-16.692C-270.542-89.893-271.661-91.012-273.042-91.012z
	 M-299.811-77.624c-1.404-0.01-2.534-1.157-2.523-2.56c0.01-1.404,1.157-2.533,2.561-2.523s2.533,1.157,2.523,2.56
	C-297.261-78.743-298.408-77.614-299.811-77.624z"/>
</svg>
