<?xml version="1.0" encoding="utf-8"?>
<!-- Generator: Adobe Illustrator 16.0.0, SVG Export Plug-In . SVG Version: 6.00 Build 0)  -->
<!DOCTYPE svg PUBLIC "-//W3C//DTD SVG 1.1//EN" "http://www.w3.org/Graphics/SVG/1.1/DTD/svg11.dtd">
<svg version="1.1" id="Layer_1" xmlns="http://www.w3.org/2000/svg" xmlns:xlink="http://www.w3.org/1999/xlink" x="0px" y="0px"
	 width="50px" height="50px" viewBox="-245.5 -105.5 50 50" enable-background="new -245.5 -105.5 50 50" xml:space="preserve">
<path d="M-200.218-76.698l-18.156-18.156c-0.577-0.578-1.4-0.836-2.206-0.694l-10.019,1.784c-1.031,0.184-1.839,0.992-2.023,2.023
	l-1.784,10.019c-0.143,0.805,0.116,1.628,0.694,2.206l18.156,18.156c0.488,0.488,1.128,0.732,1.768,0.732s1.28-0.244,1.768-0.732
	l11.803-11.803C-199.241-74.139-199.241-75.722-200.218-76.698z M-225.018-86.133c-1,0.985-2.609,0.973-3.594-0.026
	c-0.985-1-0.974-2.609,0.026-3.595c1-0.985,2.609-0.973,3.595,0.027C-224.007-88.728-224.019-87.119-225.018-86.133z"/>
</svg>
