<?xml version="1.0" encoding="utf-8"?>
<!-- Generator: Adobe Illustrator 16.0.0, SVG Export Plug-In . SVG Version: 6.00 Build 0)  -->
<!DOCTYPE svg PUBLIC "-//W3C//DTD SVG 1.1//EN" "http://www.w3.org/Graphics/SVG/1.1/DTD/svg11.dtd">
<svg version="1.1" id="Layer_1" xmlns="http://www.w3.org/2000/svg" xmlns:xlink="http://www.w3.org/1999/xlink" x="0px" y="0px"
	 width="50px" height="50px" viewBox="-245.5 -105.5 50 50" enable-background="new -245.5 -105.5 50 50" xml:space="preserve">
<path d="M-201.993-69.007c0.043,0.283-0.037,0.571-0.22,0.792c-4.872,5.844-11.366,9.063-18.287,9.063s-13.415-3.219-18.287-9.063
	c-0.184-0.22-0.264-0.508-0.22-0.792c0.84-5.48,3.569-10.111,7.685-13.041c0.382-0.272,0.901-0.242,1.25,0.072l6.716,6.055
	l1.261-1.261l-3.316-3.316c-3.853-1.876-6.333-5.822-6.333-10.104c0-6.2,5.044-11.244,11.244-11.244s11.244,5.044,11.244,11.244
	c0,4.282-2.479,8.229-6.333,10.104l-3.316,3.316l1.261,1.261l6.716-6.055c0.348-0.314,0.869-0.344,1.25-0.072
	C-205.563-79.119-202.833-74.487-201.993-69.007z"/>
</svg>
