<?xml version="1.0" encoding="utf-8"?>
<!-- Generator: Adobe Illustrator 16.0.0, SVG Export Plug-In . SVG Version: 6.00 Build 0)  -->
<!DOCTYPE svg PUBLIC "-//W3C//DTD SVG 1.1//EN" "http://www.w3.org/Graphics/SVG/1.1/DTD/svg11.dtd">
<svg version="1.1" id="Layer_1" xmlns="http://www.w3.org/2000/svg" xmlns:xlink="http://www.w3.org/1999/xlink" x="0px" y="0px"
	 width="50px" height="50px" viewBox="-175.5 -105.5 50 50" enable-background="new -175.5 -105.5 50 50" xml:space="preserve">
<path d="M-132.419-75.556l-11.803,11.803c-0.488,0.488-1.128,0.732-1.768,0.732c-0.211,0-0.419-0.037-0.625-0.089
	c0.418-0.108,0.815-0.316,1.143-0.643l11.803-11.803c0.977-0.976,0.977-2.559,0-3.535l-18.156-18.156
	c-0.333-0.333-0.752-0.546-1.199-0.651l0.243-0.043c0.807-0.142,1.629,0.116,2.206,0.694l18.156,18.156
	C-131.443-78.115-131.443-76.532-132.419-75.556z M-135.086-75.556l-11.803,11.803c-0.488,0.488-1.128,0.732-1.768,0.732
	s-1.28-0.244-1.768-0.732l-18.156-18.156c-0.578-0.578-0.837-1.401-0.694-2.206l1.784-10.019c0.184-1.031,0.992-1.839,2.023-2.023
	l10.019-1.784c0.807-0.142,1.629,0.116,2.206,0.694l18.156,18.156C-134.109-78.115-134.109-76.532-135.086-75.556z M-159.86-92.121
	c-0.985-1-2.595-1.012-3.595-0.027c-1,0.985-1.011,2.595-0.026,3.595c0.985,0.999,2.594,1.012,3.594,0.026
	C-158.887-89.512-158.875-91.122-159.86-92.121z"/>
</svg>
