<?xml version="1.0" encoding="utf-8"?>
<!-- Generator: Adobe Illustrator 16.0.0, SVG Export Plug-In . SVG Version: 6.00 Build 0)  -->
<!DOCTYPE svg PUBLIC "-//W3C//DTD SVG 1.1//EN" "http://www.w3.org/Graphics/SVG/1.1/DTD/svg11.dtd">
<svg version="1.1" id="Layer_1" xmlns="http://www.w3.org/2000/svg" xmlns:xlink="http://www.w3.org/1999/xlink" x="0px" y="0px"
	 width="50px" height="50px" viewBox="-175.5 -105.5 50 50" enable-background="new -175.5 -105.5 50 50" xml:space="preserve">
<path d="M-131.993-69.007c0.043,0.283-0.037,0.571-0.22,0.792c-4.872,5.844-11.366,9.063-18.287,9.063s-13.415-3.219-18.287-9.063
	c-0.184-0.22-0.264-0.508-0.22-0.792c0.88-5.742,3.813-10.507,8.257-13.417c0.397-0.26,0.92-0.205,1.255,0.129l6.526,6.526
	l-0.974-1.633c-0.184-0.309-0.188-0.693-0.011-1.006c0.178-0.313,0.51-0.506,0.87-0.506h5.168c0.36,0,0.692,0.193,0.87,0.506
	c0.178,0.313,0.173,0.697-0.011,1.006l-0.974,1.633l6.526-6.526c0.334-0.335,0.86-0.389,1.255-0.129
	C-135.806-79.515-132.874-74.75-131.993-69.007z M-140.756-90.603c0-5.373-4.371-9.744-9.744-9.744s-9.744,4.371-9.744,9.744
	c0,5.373,4.371,9.744,9.744,9.744S-140.756-85.23-140.756-90.603z"/>
</svg>
