<?xml version="1.0" encoding="utf-8"?>
<!-- Generator: Adobe Illustrator 16.0.0, SVG Export Plug-In . SVG Version: 6.00 Build 0)  -->
<!DOCTYPE svg PUBLIC "-//W3C//DTD SVG 1.1//EN" "http://www.w3.org/Graphics/SVG/1.1/DTD/svg11.dtd">
<svg version="1.1" id="Layer_1" xmlns="http://www.w3.org/2000/svg" xmlns:xlink="http://www.w3.org/1999/xlink" x="0px" y="0px"
	 width="50px" height="50px" viewBox="-105.5 -105.5 50 50" enable-background="new -105.5 -105.5 50 50" xml:space="preserve">
<path d="M-87.99-85.527c-0.002-0.068-0.01-0.136-0.01-0.205v-9.698c0-4.133,3.357-5.819,7.5-5.819s7.5,1.687,7.5,5.819v9.698
	c0,0.069-0.008,0.136-0.01,0.204h-2.404l-1.903-1.903c-0.85-0.851-1.98-1.319-3.183-1.319s-2.333,0.469-3.182,1.318l-1.904,1.905
	H-87.99z M-67.732-75.018l-2.49-2.49v-3.521c0-0.663-0.263-1.299-0.732-1.769c-0.469-0.469-1.104-0.731-1.768-0.731h-3.521
	l-2.49-2.49c-0.976-0.977-2.56-0.977-3.535,0l-2.49,2.491h-3.521c-1.381,0-2.5,1.119-2.5,2.5v3.521l-2.489,2.489
	c-0.977,0.976-0.977,2.559,0,3.535l2.489,2.489v3.522c0,0.663,0.263,1.299,0.732,1.769c0.469,0.469,1.104,0.731,1.768,0.731h3.522
	l2.489,2.488c0.488,0.488,1.128,0.732,1.768,0.732s1.28-0.244,1.768-0.732l2.489-2.489h3.521c1.381,0,2.5-1.119,2.5-2.5v-3.521
	l2.49-2.489C-66.755-72.459-66.755-74.042-67.732-75.018z"/>
</svg>
