<?xml version="1.0" encoding="utf-8"?>
<!-- Generator: Adobe Illustrator 16.0.0, SVG Export Plug-In . SVG Version: 6.00 Build 0)  -->
<!DOCTYPE svg PUBLIC "-//W3C//DTD SVG 1.1//EN" "http://www.w3.org/Graphics/SVG/1.1/DTD/svg11.dtd">
<svg version="1.1" id="Layer_1" xmlns="http://www.w3.org/2000/svg" xmlns:xlink="http://www.w3.org/1999/xlink" x="0px" y="0px"
	 width="50px" height="50px" viewBox="-105.5 -105.5 50 50" enable-background="new -105.5 -105.5 50 50" xml:space="preserve">
<path d="M-61.993-68.341c0.043,0.283-0.037,0.571-0.22,0.792c-4.204,5.043-9.781,8.207-15.704,8.909
	c-0.039,0.004-0.079,0.007-0.118,0.007c-0.261,0-0.514-0.103-0.703-0.288c-0.216-0.214-0.324-0.514-0.292-0.816l0.147-1.402
	l-1.246,1.098c-0.094,0.083-0.212,0.125-0.331,0.125c-0.115,0-0.231-0.04-0.324-0.12l-1.34-1.142l0.151,1.44
	c0.032,0.302-0.076,0.603-0.292,0.816c-0.188,0.186-0.441,0.288-0.703,0.288c-0.039,0-0.078-0.002-0.118-0.007
	c-5.923-0.702-11.5-3.866-15.704-8.909c-0.184-0.22-0.264-0.508-0.22-0.792c0.945-6.167,4.174-11.125,9.091-13.963
	c0.4-0.23,0.906-0.158,1.224,0.176c1.133,1.188,2.555,2.136,4.112,2.742c0.349,0.136,0.593,0.455,0.632,0.828l1.163,11.065
	l1.018-6.943l-1.23-2.777c-0.069-0.155-0.054-0.333,0.038-0.476c0.092-0.142,0.25-0.227,0.419-0.227h4
	c0.167,0,0.323,0.083,0.416,0.222c0.092,0.139,0.11,0.315,0.046,0.469l-1.153,2.782l1.019,6.949l1.163-11.065
	c0.039-0.373,0.283-0.692,0.632-0.828c1.557-0.605,2.979-1.554,4.112-2.742c0.318-0.333,0.824-0.406,1.224-0.176
	C-66.167-79.466-62.938-74.507-61.993-68.341z M-70.756-90.603c0-5.373-4.371-9.744-9.744-9.744s-9.744,4.371-9.744,9.744
	c0,5.373,4.371,9.744,9.744,9.744S-70.756-85.23-70.756-90.603z"/>
</svg>
