<?xml version="1.0" encoding="utf-8"?>
<!-- Generator: Adobe Illustrator 16.0.0, SVG Export Plug-In . SVG Version: 6.00 Build 0)  -->
<!DOCTYPE svg PUBLIC "-//W3C//DTD SVG 1.1//EN" "http://www.w3.org/Graphics/SVG/1.1/DTD/svg11.dtd">
<svg version="1.1" id="Layer_1" xmlns="http://www.w3.org/2000/svg" xmlns:xlink="http://www.w3.org/1999/xlink" x="0px" y="0px"
	 width="50px" height="50px" viewBox="-35.5 -105.5 50 50" enable-background="new -35.5 -105.5 50 50" xml:space="preserve">
<path d="M7.513-67.599c0.022,0.142-0.018,0.286-0.11,0.396C3.281-62.258-2.18-59.157-7.976-58.47
	c-0.02,0.002-0.04,0.003-0.059,0.003c-0.131,0-0.257-0.051-0.351-0.144c-0.108-0.107-0.162-0.257-0.146-0.408l1.479-14.083
	c-0.021,0.152-0.098,0.291-0.233,0.369c-0.077,0.044-0.163,0.066-0.249,0.066c-0.087,0-0.174-0.022-0.252-0.068l-1.289-0.751
	c-0.748,0.754-2.102,0.754-2.85,0l-1.289,0.751c-0.156,0.09-0.346,0.091-0.501,0.001c-0.135-0.078-0.212-0.217-0.233-0.369
	l1.479,14.083c0.016,0.151-0.038,0.301-0.146,0.408c-0.094,0.093-0.22,0.144-0.351,0.144c-0.02,0-0.039-0.001-0.059-0.003
	c-5.795-0.687-11.257-3.788-15.378-8.732c-0.092-0.11-0.132-0.254-0.11-0.396c0.922-6.014,4.064-10.845,8.847-13.606
	c0.2-0.115,0.453-0.079,0.612,0.088c1.183,1.241,2.667,2.23,4.292,2.863c0.175,0.068,0.296,0.228,0.316,0.414l0.48,4.573v-3.316
	c0-0.179,0.096-0.344,0.251-0.434c0.155-0.089,0.346-0.088,0.501,0.001l1.238,0.722c0.755-0.815,2.195-0.815,2.95,0l1.238-0.722
	c0.155-0.09,0.346-0.091,0.501-0.001s0.251,0.254,0.251,0.434v3.316l0.48-4.573c0.02-0.186,0.141-0.346,0.316-0.414
	c1.625-0.632,3.109-1.622,4.292-2.863c0.161-0.166,0.413-0.201,0.612-0.088C3.449-78.444,6.591-73.612,7.513-67.599z M-10.5-80.359
	c5.659,0,10.244-4.586,10.244-10.244c0-5.658-4.585-10.244-10.244-10.244s-10.244,4.586-10.244,10.244
	C-20.744-84.945-16.159-80.359-10.5-80.359z"/>
</svg>
