<?xml version="1.0" encoding="utf-8"?>
<!-- Generator: Adobe Illustrator 16.0.0, SVG Export Plug-In . SVG Version: 6.00 Build 0)  -->
<!DOCTYPE svg PUBLIC "-//W3C//DTD SVG 1.1//EN" "http://www.w3.org/Graphics/SVG/1.1/DTD/svg11.dtd">
<svg version="1.1" id="Layer_1" xmlns="http://www.w3.org/2000/svg" xmlns:xlink="http://www.w3.org/1999/xlink" x="0px" y="0px"
	 width="50px" height="50px" viewBox="34.5 -105.5 50 50" enable-background="new 34.5 -105.5 50 50" xml:space="preserve">
<path d="M75-80.5c0,1.202-0.469,2.333-1.318,3.182l-1.904,1.904v2.692c0,2.481-2.019,4.5-4.499,4.5h-2.693l-1.904,1.904
	C61.833-65.469,60.703-65,59.5-65s-2.333-0.469-3.183-1.32l-1.902-1.901l-2.693,0c-1.202,0-2.332-0.468-3.182-1.318
	c-0.85-0.851-1.317-1.98-1.317-3.182v-2.694l-1.904-1.903C44.469-78.167,44-79.298,44-80.5s0.469-2.333,1.318-3.182l1.904-1.903
	v-2.691c0-2.481,2.019-4.5,4.499-4.5h2.692l1.905-1.905C57.167-95.531,58.297-96,59.5-96s2.333,0.469,3.183,1.32l1.902,1.901h2.693
	c1.201,0,2.331,0.468,3.181,1.317c0.851,0.852,1.318,1.981,1.318,3.183v2.692l1.904,1.904C74.531-82.833,75-81.702,75-80.5z"/>
</svg>
