<?xml version="1.0" encoding="utf-8"?>
<!-- Generator: Adobe Illustrator 16.0.0, SVG Export Plug-In . SVG Version: 6.00 Build 0)  -->
<!DOCTYPE svg PUBLIC "-//W3C//DTD SVG 1.1//EN" "http://www.w3.org/Graphics/SVG/1.1/DTD/svg11.dtd">
<svg version="1.1" id="Layer_1" xmlns="http://www.w3.org/2000/svg" xmlns:xlink="http://www.w3.org/1999/xlink" x="0px" y="0px"
	 width="50px" height="50px" viewBox="34.5 -105.5 50 50" enable-background="new 34.5 -105.5 50 50" xml:space="preserve">
<path d="M59.507-80.359c-5.648,0-10.244-4.595-10.244-10.244s4.596-10.244,10.244-10.244s10.244,4.596,10.244,10.244
	S65.155-80.359,59.507-80.359z M77.554-67.709l-0.145,0.173c-4.774,5.728-11.132,8.883-17.902,8.883s-13.128-3.155-17.902-8.883
	l-0.145-0.173l0.034-0.223c0.922-6.014,4.063-10.845,8.847-13.606l0.341-0.196l0.271,0.284c2.259,2.369,5.297,3.674,8.554,3.674
	s6.295-1.305,8.554-3.674l0.271-0.284l0.341,0.196c4.783,2.761,7.925,7.592,8.847,13.606L77.554-67.709z M64.463-75.854
	c0-0.261-0.169-0.5-0.439-0.623s-0.6-0.108-0.854,0.038l-2.179,1.249c-0.415-0.266-0.925-0.427-1.484-0.427
	c-0.559,0-1.07,0.162-1.486,0.427l-2.179-1.249c-0.254-0.146-0.582-0.16-0.853-0.038c-0.271,0.123-0.439,0.362-0.439,0.623v4.706
	c0,0.261,0.169,0.5,0.439,0.623c0.122,0.056,0.256,0.083,0.391,0.083c0.161,0,0.323-0.041,0.462-0.12l2.179-1.249
	c0.416,0.265,0.928,0.428,1.486,0.428c0.56,0,1.069-0.163,1.484-0.428l2.179,1.249c0.14,0.079,0.302,0.12,0.463,0.12
	c0.135,0,0.268-0.027,0.391-0.083c0.271-0.123,0.439-0.362,0.439-0.623V-75.854z"/>
</svg>
