<?xml version="1.0" encoding="utf-8"?>
<!-- Generator: Adobe Illustrator 16.0.0, SVG Export Plug-In . SVG Version: 6.00 Build 0)  -->
<!DOCTYPE svg PUBLIC "-//W3C//DTD SVG 1.1//EN" "http://www.w3.org/Graphics/SVG/1.1/DTD/svg11.dtd">
<svg version="1.1" id="Layer_1" xmlns="http://www.w3.org/2000/svg" xmlns:xlink="http://www.w3.org/1999/xlink" x="0px" y="0px"
	 width="50px" height="50px" viewBox="104.5 -105.5 50 50" enable-background="new 104.5 -105.5 50 50" xml:space="preserve">
<path d="M144.14-83.348l-1.904-1.904v-2.692c0-1.202-0.468-2.332-1.318-3.183c-0.85-0.849-1.979-1.317-3.181-1.317h-2.693
	l-1.902-1.901c-0.85-0.851-1.979-1.32-3.183-1.32s-2.333,0.469-3.181,1.318l-1.905,1.905h-2.692c-2.48,0-4.499,2.019-4.499,4.5
	v2.691l-1.904,1.903c-0.85,0.85-1.318,1.98-1.318,3.182s0.469,2.333,1.318,3.182l1.904,1.903v2.694c0,1.202,0.468,2.331,1.317,3.182
	c0.85,0.85,1.979,1.318,3.182,1.318l2.693,0l1.902,1.901c0.85,0.851,1.979,1.32,3.183,1.32s2.333-0.469,3.181-1.318l1.904-1.904
	h2.693c2.48,0,4.499-2.019,4.499-4.5v-2.692l1.904-1.904c0.85-0.85,1.318-1.98,1.318-3.182S144.989-82.498,144.14-83.348z
	 M125.443-76.121h-1.66l-1.494-2.698c-0.415-0.747-0.872-1.65-1.214-2.47l-0.031,0.011c0.041,0.923,0.063,1.909,0.063,3.05v2.106
	h-1.453v-6.994h1.848l1.452,2.563c0.415,0.737,0.83,1.608,1.142,2.397h0.031c-0.104-0.923-0.135-1.868-0.135-2.916v-2.044h1.452
	V-76.121z M131.272-76.121h-4.462v-6.994h4.316v1.297h-2.729v1.453h2.573v1.287h-2.573v1.66h2.874V-76.121z M139.011-76.121h-1.712
	l-0.592-3.009c-0.135-0.705-0.249-1.359-0.332-2.158h-0.021c-0.124,0.789-0.238,1.453-0.404,2.158l-0.664,3.009h-1.733l-1.66-6.994
	h1.691l0.529,2.885c0.155,0.83,0.301,1.733,0.415,2.438h0.021c0.114-0.758,0.28-1.598,0.457-2.459l0.591-2.864h1.682l0.561,2.947
	c0.155,0.819,0.27,1.566,0.373,2.345h0.021c0.104-0.778,0.26-1.598,0.405-2.428l0.57-2.864h1.608L139.011-76.121z"/>
</svg>
