<?xml version="1.0" encoding="utf-8"?>
<!-- Generator: Adobe Illustrator 16.0.0, SVG Export Plug-In . SVG Version: 6.00 Build 0)  -->
<!DOCTYPE svg PUBLIC "-//W3C//DTD SVG 1.1//EN" "http://www.w3.org/Graphics/SVG/1.1/DTD/svg11.dtd">
<svg version="1.1" id="Layer_1" xmlns="http://www.w3.org/2000/svg" xmlns:xlink="http://www.w3.org/1999/xlink" x="0px" y="0px"
	 width="50px" height="50px" viewBox="104.5 -105.5 50 50" enable-background="new 104.5 -105.5 50 50" xml:space="preserve">
<path d="M129.5-80.359c-5.648,0-10.244-4.595-10.244-10.244s4.596-10.244,10.244-10.244s10.244,4.596,10.244,10.244
	S135.148-80.359,129.5-80.359z M147.547-67.709l-0.145,0.173c-4.774,5.728-11.132,8.883-17.902,8.883s-13.128-3.155-17.902-8.883
	l-0.145-0.173l0.034-0.223c0.922-6.014,4.063-10.845,8.847-13.606l0.341-0.196l0.271,0.284c2.259,2.369,5.297,3.674,8.554,3.674
	s6.295-1.305,8.554-3.674l0.271-0.284l0.341,0.196c4.783,2.761,7.925,7.592,8.847,13.606L147.547-67.709z M130.258-72.526
	l1.691-1.692l-2.449-2.449l-2.449,2.45l1.691,1.691l-1.691,9.244l2.449,2.45l2.449-2.45L130.258-72.526z"/>
</svg>
