<?xml version="1.0" encoding="utf-8"?>
<!-- Generator: Adobe Illustrator 16.0.0, SVG Export Plug-In . SVG Version: 6.00 Build 0)  -->
<!DOCTYPE svg PUBLIC "-//W3C//DTD SVG 1.1//EN" "http://www.w3.org/Graphics/SVG/1.1/DTD/svg11.dtd">
<svg version="1.1" id="Layer_1" xmlns="http://www.w3.org/2000/svg" xmlns:xlink="http://www.w3.org/1999/xlink" x="0px" y="0px"
	 width="50px" height="50px" viewBox="174.5 -105.5 50 50" enable-background="new 174.5 -105.5 50 50" xml:space="preserve">
<path d="M198.375-80.842c0,0.554-0.423,0.91-1.136,0.91h-0.563v-1.746c0.104-0.019,0.301-0.047,0.647-0.047
	C197.98-81.715,198.375-81.424,198.375-80.842z M215.458-80.166c0,1.202-0.469,2.333-1.318,3.182l-1.904,1.904v2.692
	c0,2.481-2.019,4.5-4.499,4.5h-2.693l-1.904,1.904c-0.848,0.849-1.978,1.318-3.181,1.318s-2.333-0.469-3.183-1.32l-1.902-1.901
	l-2.693,0c-1.202,0-2.332-0.468-3.182-1.318c-0.85-0.851-1.317-1.98-1.317-3.182v-2.694l-1.904-1.903
	c-0.85-0.85-1.318-1.98-1.318-3.182s0.469-2.333,1.318-3.182l1.904-1.903v-2.691c0-2.481,2.019-4.5,4.499-4.5h2.692l1.905-1.905
	c0.848-0.849,1.978-1.318,3.181-1.318s2.333,0.469,3.183,1.32l1.902,1.901h2.693c1.201,0,2.331,0.468,3.181,1.317
	c0.851,0.852,1.318,1.981,1.318,3.183v2.692l1.904,1.904C214.989-82.498,215.458-81.368,215.458-80.166z M194.182-82.738h-3.866
	v6.325h1.436v-2.543h2.271v-1.164h-2.271v-1.445h2.431V-82.738z M200.035-76.413c-0.122-0.244-0.318-1.07-0.516-1.783
	c-0.159-0.582-0.403-1.004-0.845-1.182v-0.028c0.544-0.197,1.117-0.75,1.117-1.558c0-0.582-0.207-1.023-0.582-1.323
	c-0.45-0.356-1.107-0.498-2.046-0.498c-0.76,0-1.445,0.057-1.905,0.132v6.24h1.417V-78.9h0.432c0.582,0.009,0.854,0.225,1.023,1.014
	c0.188,0.779,0.338,1.295,0.44,1.473H200.035z M204.855-77.586h-2.6v-1.501h2.328v-1.164h-2.328v-1.314h2.469v-1.173h-3.904v6.325
	h4.035V-77.586z M209.864-77.586h-2.6v-1.501h2.328v-1.164h-2.328v-1.314h2.469v-1.173h-3.904v6.325h4.035V-77.586z"/>
</svg>
