<?xml version="1.0" encoding="utf-8"?>
<!-- Generator: Adobe Illustrator 16.0.0, SVG Export Plug-In . SVG Version: 6.00 Build 0)  -->
<!DOCTYPE svg PUBLIC "-//W3C//DTD SVG 1.1//EN" "http://www.w3.org/Graphics/SVG/1.1/DTD/svg11.dtd">
<svg version="1.1" id="Layer_1" xmlns="http://www.w3.org/2000/svg" xmlns:xlink="http://www.w3.org/1999/xlink" x="0px" y="0px"
	 width="50px" height="50px" viewBox="244.5 -105.5 50 50" enable-background="new 244.5 -105.5 50 50" xml:space="preserve">
<path d="M267.397-80.448l0.395,1.342h-1.398l0.376-1.342c0.103-0.366,0.196-0.845,0.291-1.22h0.019
	C267.173-81.293,267.285-80.824,267.397-80.448z M284.791-80.166c0,1.202-0.469,2.333-1.318,3.182l-1.904,1.904v2.692
	c0,2.481-2.019,4.5-4.499,4.5h-2.693l-1.904,1.904c-0.848,0.849-1.978,1.318-3.181,1.318s-2.333-0.469-3.183-1.32l-1.902-1.901
	l-2.693,0c-1.202,0-2.332-0.468-3.182-1.318c-0.85-0.851-1.317-1.98-1.317-3.182v-2.694l-1.904-1.903
	c-0.85-0.85-1.318-1.98-1.318-3.182s0.469-2.333,1.318-3.182l1.904-1.903v-2.691c0-2.481,2.019-4.5,4.499-4.5h2.692l1.905-1.905
	c0.848-0.849,1.978-1.318,3.181-1.318s2.333,0.469,3.183,1.32l1.902,1.901h2.693c1.201,0,2.331,0.468,3.181,1.317
	c0.851,0.852,1.318,1.981,1.318,3.183v2.692l1.904,1.904C284.322-82.498,284.791-81.368,284.791-80.166z M263.75-78.281
	c0-0.891-0.526-1.473-1.643-1.886c-0.816-0.31-1.173-0.488-1.173-0.891c0-0.329,0.3-0.61,0.919-0.61c0.62,0,1.07,0.178,1.323,0.3
	l0.319-1.154c-0.375-0.169-0.9-0.319-1.614-0.319c-1.492,0-2.393,0.826-2.393,1.905c0,0.919,0.685,1.501,1.736,1.867
	c0.76,0.272,1.06,0.498,1.06,0.892c0,0.413-0.347,0.685-1.004,0.685c-0.609,0-1.201-0.197-1.586-0.394l-0.291,1.182
	c0.357,0.197,1.07,0.385,1.793,0.385C262.933-76.319,263.75-77.22,263.75-78.281z M270.025-76.413l-1.961-6.325h-1.877l-1.934,6.325
	h1.483l0.45-1.624h1.812l0.487,1.624H270.025z M274.817-77.614h-2.516v-5.124h-1.436v6.325h3.951V-77.614z M279.694-77.586h-2.6
	v-1.501h2.328v-1.164h-2.328v-1.314h2.469v-1.173h-3.904v6.325h4.035V-77.586z"/>
</svg>
