<?xml version="1.0" encoding="utf-8"?>
<!-- Generator: Adobe Illustrator 16.0.0, SVG Export Plug-In . SVG Version: 6.00 Build 0)  -->
<!DOCTYPE svg PUBLIC "-//W3C//DTD SVG 1.1//EN" "http://www.w3.org/Graphics/SVG/1.1/DTD/svg11.dtd">
<svg version="1.1" id="Layer_1" xmlns="http://www.w3.org/2000/svg" xmlns:xlink="http://www.w3.org/1999/xlink" x="0px" y="0px"
	 width="50px" height="50px" viewBox="244.5 -105.5 50 50" enable-background="new 244.5 -105.5 50 50" xml:space="preserve">
<path d="M286.125-71.322c1.51-2.723,2.375-5.851,2.375-9.178s-0.865-6.455-2.375-9.178v-0.343h-0.209
	c-3.294-5.658-9.41-9.479-16.416-9.479c-10.477,0-19,8.523-19,19s8.523,19,19,19c7.006,0,13.122-3.821,16.416-9.479h0.209V-71.322z
	 M253.576-79h5.654c0.115,1.721,0.424,3.403,0.92,5.021h-5.247C254.204-75.539,253.742-77.226,253.576-79z M279.77-82
	c-0.115-1.721-0.424-3.403-0.92-5.021h5.247c0.699,1.56,1.161,3.247,1.327,5.021H279.77z M276.758-82H271v-5.021h4.682
	C276.262-85.416,276.624-83.731,276.758-82z M271-90.021V-94.3c1.306,1.292,2.408,2.731,3.293,4.279H271z M268-94.3v4.279h-3.293
	C265.592-91.569,266.694-93.007,268-94.3z M268-87.021V-82h-5.758c0.134-1.731,0.496-3.416,1.076-5.021H268z M259.23-82h-5.654
	c0.166-1.774,0.628-3.461,1.327-5.021h5.247C259.654-85.403,259.346-83.721,259.23-82z M262.242-79H268v5.021h-4.682
	C262.738-75.584,262.376-77.269,262.242-79z M268-70.979v4.279c-1.306-1.292-2.408-2.731-3.293-4.279H268z M271-66.7v-4.279h3.293
	C273.408-69.431,272.306-67.993,271-66.7z M271-73.979V-79h5.758c-0.134,1.731-0.496,3.416-1.076,5.021H271z M279.77-79h5.654
	c-0.166,1.774-0.628,3.461-1.327,5.021h-5.247C279.346-75.597,279.654-77.279,279.77-79z M282.328-90.021h-4.653
	c-1.024-2.156-2.396-4.157-4.09-5.931C277.134-95.012,280.195-92.888,282.328-90.021z M265.415-95.952
	c-1.694,1.774-3.065,3.775-4.09,5.931h-4.653C258.805-92.888,261.866-95.012,265.415-95.952z M256.672-70.979h4.653
	c1.024,2.156,2.396,4.157,4.09,5.931C261.866-65.988,258.805-68.112,256.672-70.979z M273.585-65.048
	c1.694-1.774,3.065-3.775,4.09-5.931h4.653C280.195-68.112,277.134-65.988,273.585-65.048z"/>
</svg>
