<?xml version="1.0" encoding="utf-8"?>
<!-- Generator: Adobe Illustrator 16.0.0, SVG Export Plug-In . SVG Version: 6.00 Build 0)  -->
<!DOCTYPE svg PUBLIC "-//W3C//DTD SVG 1.1//EN" "http://www.w3.org/Graphics/SVG/1.1/DTD/svg11.dtd">
<svg version="1.1" id="Layer_1" xmlns="http://www.w3.org/2000/svg" xmlns:xlink="http://www.w3.org/1999/xlink" x="0px" y="0px"
	 width="50px" height="50px" viewBox="314.5 -105.5 50 50" enable-background="new 314.5 -105.5 50 50" xml:space="preserve">
<path d="M323.616-90.364c-0.088-0.162-0.079-0.358,0.021-0.512c2.952-4.505,7.687-7.552,12.989-8.36
	c0.226-0.036,0.433,0.081,0.526,0.28c0.095,0.199,0.048,0.437-0.115,0.585c-2.499,2.263-4.535,5.021-5.888,7.977
	c-0.082,0.178-0.26,0.292-0.455,0.292h-6.64C323.872-90.102,323.703-90.203,323.616-90.364z M338.38-88.862h-6.188
	c-0.207,0-0.394,0.128-0.467,0.322c-0.843,2.208-1.33,4.528-1.447,6.896c-0.007,0.137,0.042,0.271,0.137,0.37
	s0.226,0.155,0.362,0.155h7.604c0.276,0,0.5-0.224,0.5-0.5v-6.743C338.88-88.639,338.656-88.862,338.38-88.862z M338.585-97.697
	c-0.179-0.081-0.39-0.048-0.536,0.082c-2.205,1.953-3.987,4.235-5.3,6.784c-0.08,0.155-0.073,0.34,0.018,0.489
	s0.252,0.24,0.427,0.24h5.187c0.276,0,0.5-0.224,0.5-0.5v-6.639C338.88-97.438,338.765-97.616,338.585-97.697z M338.38-70.897
	h-5.187c-0.175,0-0.336,0.091-0.427,0.24s-0.098,0.334-0.018,0.489c1.313,2.549,3.096,4.832,5.3,6.784
	c0.093,0.083,0.211,0.125,0.331,0.125c0.069,0,0.14-0.015,0.205-0.044c0.18-0.081,0.295-0.259,0.295-0.456v-6.638
	C338.88-70.673,338.656-70.897,338.38-70.897z M331.15-70.605c-0.082-0.178-0.26-0.292-0.455-0.292h-6.64
	c-0.184,0-0.353,0.101-0.439,0.262c-0.088,0.162-0.079,0.358,0.021,0.512c2.952,4.505,7.687,7.552,12.989,8.36
	c0.025,0.004,0.051,0.006,0.075,0.006c0.19,0,0.368-0.109,0.451-0.286c0.095-0.199,0.048-0.437-0.115-0.585
	C334.539-64.891,332.503-67.649,331.15-70.605z M321.075-81.12h7.459c0.268,0,0.487-0.21,0.499-0.478
	c0.103-2.266,0.521-4.487,1.242-6.604c0.052-0.152,0.027-0.321-0.067-0.452c-0.094-0.131-0.245-0.209-0.406-0.209h-6.998
	c-0.193,0-0.369,0.111-0.452,0.286c-1.032,2.18-1.63,4.511-1.775,6.926c-0.009,0.138,0.04,0.272,0.135,0.373
	C320.806-81.177,320.938-81.12,321.075-81.12z M347.85-90.394c0.082,0.178,0.26,0.292,0.455,0.292h6.64
	c0.184,0,0.353-0.101,0.439-0.262c0.088-0.162,0.079-0.358-0.021-0.512c-2.952-4.505-7.687-7.552-12.989-8.36
	c-0.224-0.036-0.433,0.081-0.526,0.28c-0.095,0.199-0.048,0.437,0.115,0.585C344.461-96.108,346.497-93.35,347.85-90.394z
	 M330.208-72.346c0.095-0.131,0.119-0.3,0.067-0.452c-0.722-2.117-1.14-4.338-1.242-6.604c-0.012-0.267-0.231-0.478-0.499-0.478
	h-7.459c-0.138,0-0.27,0.057-0.364,0.157c-0.095,0.101-0.144,0.235-0.135,0.373c0.146,2.417,0.743,4.747,1.775,6.926
	c0.083,0.175,0.259,0.286,0.452,0.286h6.998C329.963-72.137,330.114-72.214,330.208-72.346z M338.38-79.879h-7.604
	c-0.137,0-0.268,0.056-0.362,0.155s-0.144,0.233-0.137,0.37c0.117,2.368,0.604,4.688,1.447,6.896
	c0.073,0.194,0.26,0.322,0.467,0.322h6.188c0.276,0,0.5-0.224,0.5-0.5v-6.743C338.88-79.656,338.656-79.879,338.38-79.879z
	 M357.925-79.879h-7.459c-0.268,0-0.487,0.21-0.499,0.478c-0.103,2.266-0.521,4.487-1.242,6.604
	c-0.052,0.152-0.027,0.321,0.067,0.452c0.094,0.131,0.245,0.209,0.406,0.209h6.998c0.193,0,0.369-0.111,0.452-0.286
	c1.032-2.18,1.63-4.511,1.775-6.926c0.009-0.138-0.04-0.272-0.135-0.373C358.194-79.822,358.063-79.879,357.925-79.879z
	 M348.792-88.653c-0.095,0.131-0.119,0.3-0.067,0.452c0.722,2.117,1.14,4.338,1.242,6.604c0.012,0.267,0.231,0.478,0.499,0.478
	h7.459c0.138,0,0.27-0.057,0.364-0.157c0.095-0.101,0.144-0.235,0.135-0.373c-0.146-2.417-0.743-4.747-1.775-6.926
	c-0.083-0.175-0.259-0.286-0.452-0.286h-6.998C349.037-88.862,348.886-88.785,348.792-88.653z M354.944-70.897h-6.64
	c-0.195,0-0.373,0.114-0.455,0.292c-1.353,2.956-3.389,5.714-5.888,7.977c-0.163,0.148-0.21,0.386-0.115,0.585
	c0.083,0.176,0.261,0.286,0.451,0.286c0.024,0,0.05-0.002,0.075-0.006c5.303-0.808,10.037-3.855,12.989-8.36
	c0.101-0.153,0.109-0.35,0.021-0.512C355.297-70.796,355.128-70.897,354.944-70.897z M340.62-81.12h7.604
	c0.137,0,0.268-0.056,0.362-0.155s0.144-0.233,0.137-0.37c-0.117-2.368-0.604-4.688-1.447-6.896
	c-0.073-0.194-0.26-0.322-0.467-0.322h-6.188c-0.276,0-0.5,0.224-0.5,0.5v6.743C340.12-81.343,340.344-81.12,340.62-81.12z
	 M340.62-90.102h5.187c0.175,0,0.336-0.091,0.427-0.24s0.098-0.334,0.018-0.489c-1.313-2.549-3.095-4.832-5.3-6.784
	c-0.146-0.13-0.357-0.162-0.536-0.082c-0.18,0.081-0.295,0.259-0.295,0.456v6.639C340.12-90.326,340.344-90.102,340.62-90.102z
	 M346.251-70.168c0.08-0.155,0.073-0.34-0.018-0.489s-0.252-0.24-0.427-0.24h-5.187c-0.276,0-0.5,0.224-0.5,0.5v6.638
	c0,0.197,0.115,0.375,0.295,0.456c0.065,0.029,0.136,0.044,0.205,0.044c0.12,0,0.238-0.043,0.331-0.125
	C343.155-65.336,344.938-67.619,346.251-70.168z M340.62-72.137h6.188c0.207,0,0.394-0.128,0.467-0.322
	c0.843-2.208,1.33-4.528,1.447-6.896c0.007-0.137-0.042-0.271-0.137-0.37s-0.226-0.155-0.362-0.155h-7.604
	c-0.276,0-0.5,0.224-0.5,0.5v6.743C340.12-72.36,340.344-72.137,340.62-72.137z"/>
</svg>
