<?xml version="1.0" encoding="utf-8"?>
<!-- Generator: Adobe Illustrator 16.0.0, SVG Export Plug-In . SVG Version: 6.00 Build 0)  -->
<!DOCTYPE svg PUBLIC "-//W3C//DTD SVG 1.1//EN" "http://www.w3.org/Graphics/SVG/1.1/DTD/svg11.dtd">
<svg version="1.1" id="Layer_1" xmlns="http://www.w3.org/2000/svg" xmlns:xlink="http://www.w3.org/1999/xlink" x="0px" y="0px"
	 width="50px" height="50px" viewBox="314.5 -105.5 50 50" enable-background="new 314.5 -105.5 50 50" xml:space="preserve">
<path d="M340.291-97.166c-9.374,0-17,7.626-17,17s7.626,17,17,17s17-7.626,17-17S349.665-97.166,340.291-97.166z M341.291-80.166
	v-3.333c0-0.552-0.447-1-1-1s-1,0.448-1,1v3.333h-12c0-3.32,1.262-6.344,3.317-8.644l1.802,1.801
	c0.195,0.195,0.451,0.293,0.707,0.293s0.512-0.098,0.707-0.293c0.391-0.391,0.391-1.024,0-1.414l-1.783-1.783
	c2.004-1.649,4.511-2.701,7.25-2.911v2.7c0,0.552,0.447,1,1,1s1-0.448,1-1v-2.7c2.739,0.21,5.246,1.261,7.25,2.911l-1.783,1.783
	c-0.391,0.39-0.391,1.023,0,1.414c0.195,0.195,0.451,0.293,0.707,0.293s0.512-0.098,0.707-0.293l1.802-1.801
	c2.056,2.3,3.317,5.323,3.317,8.644H341.291z"/>
</svg>
