<?xml version="1.0" encoding="utf-8"?>
<!-- Generator: Adobe Illustrator 16.0.0, SVG Export Plug-In . SVG Version: 6.00 Build 0)  -->
<!DOCTYPE svg PUBLIC "-//W3C//DTD SVG 1.1//EN" "http://www.w3.org/Graphics/SVG/1.1/DTD/svg11.dtd">
<svg version="1.1" id="Layer_1" xmlns="http://www.w3.org/2000/svg" xmlns:xlink="http://www.w3.org/1999/xlink" x="0px" y="0px"
	 width="50px" height="50px" viewBox="-315.5 -35.5 50 50" enable-background="new -315.5 -35.5 50 50" xml:space="preserve">
<path d="M-279.574-30.329h-21.852c-0.829,0-1.5,0.671-1.5,1.5V7.829c0,0.829,0.671,1.5,1.5,1.5h21.852c0.829,0,1.5-0.671,1.5-1.5
	v-36.658C-278.074-29.658-278.746-30.329-279.574-30.329z M-294.333-28.5h7.667c0.276,0,0.5,0.224,0.5,0.5s-0.224,0.5-0.5,0.5
	h-7.667c-0.276,0-0.5-0.224-0.5-0.5S-294.61-28.5-294.333-28.5z M-290.5,7.667c-0.736,0-1.333-0.597-1.333-1.333S-291.236,5-290.5,5
	c0.736,0,1.333,0.597,1.333,1.333S-289.764,7.667-290.5,7.667z M-281.074,3.5h-18.852v-29.667h18.852V3.5z"/>
</svg>
