<?xml version="1.0" encoding="utf-8"?>
<!-- Generator: Adobe Illustrator 16.0.0, SVG Export Plug-In . SVG Version: 6.00 Build 0)  -->
<!DOCTYPE svg PUBLIC "-//W3C//DTD SVG 1.1//EN" "http://www.w3.org/Graphics/SVG/1.1/DTD/svg11.dtd">
<svg version="1.1" id="Layer_1" xmlns="http://www.w3.org/2000/svg" xmlns:xlink="http://www.w3.org/1999/xlink" x="0px" y="0px"
	 width="50px" height="50px" viewBox="-245.5 -35.5 50 50" enable-background="new -245.5 -35.5 50 50" xml:space="preserve">
<path d="M-205.375-29.995h-26.334c-0.829,0-1.5,0.671-1.5,1.5V8.164c0,0.829,0.671,1.5,1.5,1.5h26.334c0.829,0,1.5-0.671,1.5-1.5
	v-36.658C-203.875-29.323-204.547-29.995-205.375-29.995z M-222.376-28.166h7.667c0.276,0,0.5,0.224,0.5,0.5s-0.224,0.5-0.5,0.5
	h-7.667c-0.276,0-0.5-0.224-0.5-0.5S-222.652-28.166-222.376-28.166z M-218.542,8.001c-0.736,0-1.333-0.597-1.333-1.333
	s0.598-1.333,1.333-1.333c0.736,0,1.333,0.597,1.333,1.333S-217.807,8.001-218.542,8.001z M-206.875,3.834h-23.334v-29.667h23.334
	V3.834z"/>
</svg>
