<?xml version="1.0" encoding="utf-8"?>
<!-- Generator: Adobe Illustrator 16.0.0, SVG Export Plug-In . SVG Version: 6.00 Build 0)  -->
<!DOCTYPE svg PUBLIC "-//W3C//DTD SVG 1.1//EN" "http://www.w3.org/Graphics/SVG/1.1/DTD/svg11.dtd">
<svg version="1.1" id="Layer_1" xmlns="http://www.w3.org/2000/svg" xmlns:xlink="http://www.w3.org/1999/xlink" x="0px" y="0px"
	 width="50px" height="50px" viewBox="-245.5 -35.5 50 50" enable-background="new -245.5 -35.5 50 50" xml:space="preserve">
<path d="M-202.453,1.958l-0.144,0.173c-4.775,5.728-11.133,8.883-17.903,8.883s-13.128-3.155-17.903-8.883l-0.144-0.173l0.034-0.223
	c0.922-6.014,4.064-10.845,8.847-13.606l0.34-0.196l0.271,0.284c2.259,2.369,5.297,3.674,8.554,3.674s6.295-1.305,8.554-3.674
	l0.271-0.284l0.34,0.196c4.783,2.761,7.925,7.592,8.847,13.606L-202.453,1.958z M-220.5-10.526c5.924,0,10.744-4.82,10.744-10.744
	c0-5.924-4.82-10.744-10.744-10.744s-10.744,4.82-10.744,10.744C-231.244-15.346-226.424-10.526-220.5-10.526z M-207.166-0.167
	c0-1.104-0.896-2-2-2h-8.667c-1.104,0-2,0.896-2,2s0.896,2,2,2h8.667C-208.062,1.833-207.166,0.938-207.166-0.167z"/>
</svg>
