<?xml version="1.0" encoding="utf-8"?>
<!-- Generator: Adobe Illustrator 16.0.0, SVG Export Plug-In . SVG Version: 6.00 Build 0)  -->
<!DOCTYPE svg PUBLIC "-//W3C//DTD SVG 1.1//EN" "http://www.w3.org/Graphics/SVG/1.1/DTD/svg11.dtd">
<svg version="1.1" id="Layer_1" xmlns="http://www.w3.org/2000/svg" xmlns:xlink="http://www.w3.org/1999/xlink" x="0px" y="0px"
	 width="50px" height="50px" viewBox="-175.5 -35.5 50 50" enable-background="new -175.5 -35.5 50 50" xml:space="preserve">
<path d="M-131.667,1.332c0,1.104-0.896,2-2,2h-33.667c-1.104,0-2-0.896-2-2s0.896-2,2-2h33.667
	C-132.562-0.668-131.667,0.227-131.667,1.332z M-167.667-2.835v-19.996c0-0.829,0.671-1.5,1.5-1.5h31.333c0.829,0,1.5,0.671,1.5,1.5
	v19.996c0,0.829-0.671,1.5-1.5,1.5h-31.333C-166.995-1.335-167.667-2.007-167.667-2.835z M-151.28-22.711
	c0,0.431,0.35,0.78,0.78,0.78s0.78-0.35,0.78-0.78s-0.35-0.779-0.78-0.779S-151.28-23.142-151.28-22.711z M-164.667-4.335h28.333
	v-16.834h-28.333V-4.335z"/>
</svg>
