<?xml version="1.0" encoding="utf-8"?>
<!-- Generator: Adobe Illustrator 16.0.0, SVG Export Plug-In . SVG Version: 6.00 Build 0)  -->
<!DOCTYPE svg PUBLIC "-//W3C//DTD SVG 1.1//EN" "http://www.w3.org/Graphics/SVG/1.1/DTD/svg11.dtd">
<svg version="1.1" id="Layer_1" xmlns="http://www.w3.org/2000/svg" xmlns:xlink="http://www.w3.org/1999/xlink" x="0px" y="0px"
	 width="50px" height="50px" viewBox="-35.5 -35.5 50 50" enable-background="new -35.5 -35.5 50 50" xml:space="preserve">
<path d="M1.217-29.995h-21.852c-0.829,0-1.5,0.671-1.5,1.5V8.164c0,0.829,0.671,1.5,1.5,1.5H1.217c0.829,0,1.5-0.671,1.5-1.5
	v-36.658C2.717-29.323,2.045-29.995,1.217-29.995z M-9.808-17.131c0.531-0.949,1.339-1.535,2.39-1.792
	c0.13-0.032,0.264-0.042,0.413-0.065c0.004,0.109,0.011,0.202,0.013,0.296c0.022,1.164-0.73,2.686-2.168,3.257
	c-0.316,0.125-0.643,0.19-0.984,0.182c-0.063-0.001-0.088-0.018-0.094-0.087C-10.293-15.985-10.119-16.576-9.808-17.131z
	 M-3.8-6.747c-0.401,1.086-1.011,2.049-1.749,2.934c-0.143,0.171-0.309,0.327-0.479,0.472c-0.34,0.287-0.729,0.459-1.181,0.476
	c-0.339,0.012-0.665-0.051-0.977-0.178c-0.229-0.092-0.451-0.196-0.681-0.28c-0.749-0.271-1.492-0.236-2.227,0.055
	c-0.266,0.104-0.527,0.22-0.797,0.312c-0.313,0.106-0.638,0.148-0.968,0.085c-0.289-0.054-0.542-0.188-0.775-0.361
	c-0.292-0.215-0.536-0.477-0.764-0.756c-1.083-1.32-1.809-2.811-2.161-4.482c-0.15-0.718-0.222-1.444-0.179-2.179
	c0.053-0.88,0.257-1.719,0.728-2.475c0.591-0.95,1.424-1.572,2.521-1.829c0.659-0.154,1.3-0.092,1.929,0.15
	c0.331,0.127,0.663,0.252,0.995,0.376c0.306,0.115,0.611,0.115,0.917-0.002c0.339-0.129,0.678-0.259,1.02-0.384
	c0.347-0.127,0.703-0.23,1.074-0.261c0.553-0.044,1.094,0.027,1.619,0.203c0.746,0.25,1.352,0.691,1.81,1.333
	c0.013,0.018,0.025,0.037,0.035,0.052c-1.155,0.805-1.812,1.869-1.716,3.308c0.095,1.438,0.871,2.414,2.143,3.046
	C-3.709-7.007-3.752-6.876-3.8-6.747z"/>
</svg>
