<?xml version="1.0" encoding="utf-8"?>
<!-- Generator: Adobe Illustrator 16.0.0, SVG Export Plug-In . SVG Version: 6.00 Build 0)  -->
<!DOCTYPE svg PUBLIC "-//W3C//DTD SVG 1.1//EN" "http://www.w3.org/Graphics/SVG/1.1/DTD/svg11.dtd">
<svg version="1.1" id="Layer_1" xmlns="http://www.w3.org/2000/svg" xmlns:xlink="http://www.w3.org/1999/xlink" x="0px" y="0px"
	 width="50px" height="50px" viewBox="-35.5 -35.5 50 50" enable-background="new -35.5 -35.5 50 50" xml:space="preserve">
<path d="M-28.126-20.477c0-2.144,1.746-3.889,3.891-3.889c2.145,0,3.89,1.745,3.89,3.889c0,2.145-1.745,3.89-3.89,3.89
	C-26.38-16.587-28.126-18.332-28.126-20.477z M-10.5-9.386c3.507,0,6.361-2.854,6.361-6.362s-2.854-6.361-6.361-6.36
	c-3.507,0-6.361,2.853-6.361,6.36S-14.007-9.386-10.5-9.386z M3.235-16.587c2.145,0,3.89-1.745,3.89-3.89
	c0-2.144-1.745-3.89-3.89-3.89c-2.145,0-3.89,1.746-3.89,3.89C-0.654-18.332,1.091-16.587,3.235-16.587z M-17.754-12.004
	l0.052-0.063l-0.012-0.081c-0.333-2.178-1.471-3.926-3.203-4.926l-0.124-0.071l-0.098,0.103c-0.817,0.857-1.918,1.33-3.097,1.33
	s-2.279-0.473-3.097-1.33l-0.098-0.103l-0.124,0.071c-1.731,1-2.869,2.748-3.203,4.926l-0.012,0.081l0.052,0.063
	c1.729,2.073,4.031,3.215,6.481,3.215S-19.483-9.931-17.754-12.004z M9.757-12.147c-0.333-2.178-1.471-3.926-3.203-4.926
	l-0.124-0.071l-0.098,0.103c-0.818,0.857-1.918,1.33-3.097,1.33s-2.279-0.472-3.097-1.33l-0.098-0.103l-0.124,0.071
	c-1.732,1-2.869,2.748-3.203,4.926l-0.012,0.081l0.052,0.063c1.729,2.073,4.03,3.215,6.481,3.215s4.752-1.142,6.481-3.215
	l0.052-0.063L9.757-12.147z M-5.073-10.183l-0.202-0.116l-0.161,0.168C-6.772-8.728-8.572-7.955-10.5-7.955
	s-3.728-0.772-5.064-2.176l-0.161-0.168l-0.202,0.116c-2.832,1.635-4.692,4.495-5.237,8.056l-0.02,0.132l0.085,0.103
	c2.827,3.391,6.591,5.258,10.599,5.258c4.008,0,7.772-1.867,10.599-5.258l0.085-0.103l-0.02-0.132
	C-0.381-5.688-2.241-8.548-5.073-10.183z"/>
</svg>
