<?xml version="1.0" encoding="utf-8"?>
<!-- Generator: Adobe Illustrator 16.0.0, SVG Export Plug-In . SVG Version: 6.00 Build 0)  -->
<!DOCTYPE svg PUBLIC "-//W3C//DTD SVG 1.1//EN" "http://www.w3.org/Graphics/SVG/1.1/DTD/svg11.dtd">
<svg version="1.1" id="Layer_1" xmlns="http://www.w3.org/2000/svg" xmlns:xlink="http://www.w3.org/1999/xlink" x="0px" y="0px"
	 width="50px" height="50px" viewBox="34.5 -35.5 50 50" enable-background="new 34.5 -35.5 50 50" xml:space="preserve">
<path d="M73.402-9.247V3.137c0,1.104-0.896,2-2,2H47.598c-1.104,0-2-0.896-2-2V-9.247c0-0.69,0.355-1.331,0.94-1.696l11.902-7.433
	c0.648-0.405,1.471-0.405,2.119,0l11.902,7.433C73.047-10.578,73.402-9.937,73.402-9.247z M78.267-14.775L60.56-25.833
	c-0.648-0.405-1.471-0.405-2.119,0L40.733-14.775c-0.937,0.585-1.222,1.819-0.637,2.756c0.584,0.937,1.816,1.223,2.756,0.637
	L59.5-21.779l16.647,10.396c0.33,0.206,0.696,0.304,1.058,0.304c0.667,0,1.319-0.333,1.698-0.941
	C79.488-12.957,79.203-14.19,78.267-14.775z"/>
</svg>
