<?xml version="1.0" encoding="utf-8"?>
<!-- Generator: Adobe Illustrator 16.0.0, SVG Export Plug-In . SVG Version: 6.00 Build 0)  -->
<!DOCTYPE svg PUBLIC "-//W3C//DTD SVG 1.1//EN" "http://www.w3.org/Graphics/SVG/1.1/DTD/svg11.dtd">
<svg version="1.1" id="Layer_1" xmlns="http://www.w3.org/2000/svg" xmlns:xlink="http://www.w3.org/1999/xlink" x="0px" y="0px"
	 width="50px" height="50px" viewBox="34.5 -35.5 50 50" enable-background="new 34.5 -35.5 50 50" xml:space="preserve">
<path d="M71.277-14.274v-6.886c0-4.179-4.989-7.578-11.119-7.578s-11.117,3.398-11.117,7.578v6.886
	c-1.97,0.774-3.337,2.381-3.337,4.257V3.652c0,2.626,2.656,4.755,5.931,4.755h17.047c3.274,0,5.931-2.129,5.931-4.755v-13.669
	C74.612-11.893,73.245-13.5,71.277-14.274z M60.158-23.983c2.812,0,5.188,1.293,5.188,2.823v6.388H54.971v-6.388
	C54.971-22.69,57.347-23.983,60.158-23.983z"/>
</svg>
