<?xml version="1.0" encoding="utf-8"?>
<!-- Generator: Adobe Illustrator 16.0.0, SVG Export Plug-In . SVG Version: 6.00 Build 0)  -->
<!DOCTYPE svg PUBLIC "-//W3C//DTD SVG 1.1//EN" "http://www.w3.org/Graphics/SVG/1.1/DTD/svg11.dtd">
<svg version="1.1" id="Layer_1" xmlns="http://www.w3.org/2000/svg" xmlns:xlink="http://www.w3.org/1999/xlink" x="0px" y="0px"
	 width="50px" height="50px" viewBox="104.5 -35.5 50 50" enable-background="new 104.5 -35.5 50 50" xml:space="preserve">
<path d="M148.903-12.02c-0.379,0.607-1.031,0.941-1.698,0.941c-0.361,0-0.728-0.098-1.058-0.304L129.5-21.779l-16.647,10.396
	c-0.938,0.586-2.172,0.3-2.756-0.637c-0.585-0.937-0.3-2.171,0.637-2.756l17.707-11.058c0.648-0.405,1.471-0.405,2.119,0
	l17.707,11.058C149.203-14.19,149.488-12.957,148.903-12.02z M142.462-10.943l-11.902-7.433c-0.648-0.405-1.471-0.405-2.119,0
	l-11.902,7.433c-0.585,0.365-0.94,1.006-0.94,1.696V3.137c0,1.104,0.896,2,2,2h6.568c1.104,0,2-0.896,2-2V-2.5
	c0-1.838,1.496-3.333,3.334-3.333s3.334,1.496,3.334,3.333v5.636c0,1.104,0.896,2,2,2h6.568c1.104,0,2-0.896,2-2V-9.247
	C143.402-9.937,143.047-10.578,142.462-10.943z"/>
</svg>
