<?xml version="1.0" encoding="utf-8"?>
<!-- Generator: Adobe Illustrator 16.0.0, SVG Export Plug-In . SVG Version: 6.00 Build 0)  -->
<!DOCTYPE svg PUBLIC "-//W3C//DTD SVG 1.1//EN" "http://www.w3.org/Graphics/SVG/1.1/DTD/svg11.dtd">
<svg version="1.1" id="Layer_1" xmlns="http://www.w3.org/2000/svg" xmlns:xlink="http://www.w3.org/1999/xlink" x="0px" y="0px"
	 width="50px" height="50px" viewBox="104.5 -35.5 50 50" enable-background="new 104.5 -35.5 50 50" xml:space="preserve">
<path d="M144.745-10.017V3.652c0,2.626-2.656,4.755-5.931,4.755h-17.047c-3.274,0-5.931-2.129-5.931-4.755v-13.669
	c0-1.875,1.367-3.482,3.337-4.257v-6.886c0-4.179,4.987-7.578,11.117-7.578s11.119,3.398,11.119,7.578v4.007h-5.932v-4.007
	c0-1.53-2.376-2.823-5.188-2.823s-5.188,1.293-5.188,2.823v6.388h10.375l5.932,0.032C143.378-13.965,144.745-11.893,144.745-10.017z
	"/>
</svg>
