<?xml version="1.0" encoding="utf-8"?>
<!-- Generator: Adobe Illustrator 16.0.0, SVG Export Plug-In . SVG Version: 6.00 Build 0)  -->
<!DOCTYPE svg PUBLIC "-//W3C//DTD SVG 1.1//EN" "http://www.w3.org/Graphics/SVG/1.1/DTD/svg11.dtd">
<svg version="1.1" id="Layer_1" xmlns="http://www.w3.org/2000/svg" xmlns:xlink="http://www.w3.org/1999/xlink" x="0px" y="0px"
	 width="50px" height="50px" viewBox="174.5 -35.5 50 50" enable-background="new 174.5 -35.5 50 50" xml:space="preserve">
<path d="M219.227-9.499c0,1.104-0.895,2-2,2c-0.004,0-0.012,0-0.02,0h-3.805V3.137c0,1.104-0.896,2-2,2h-6.568c-1.104,0-2-0.896-2-2
	V-2.5c0-1.838-1.496-3.333-3.334-3.333s-3.334,1.495-3.334,3.333v5.637c0,1.104-0.896,2-2,2h-6.568c-1.104,0-2-0.896-2-2V-7.499
	h-3.805c-0.844,0-1.597-0.529-1.882-1.323c-0.285-0.794-0.043-1.681,0.607-2.219l17.707-14.638c0.74-0.611,1.809-0.611,2.549,0
	l17.544,14.502C218.865-10.819,219.227-10.201,219.227-9.499z"/>
</svg>
