<?xml version="1.0" encoding="utf-8"?>
<!-- Generator: Adobe Illustrator 16.0.0, SVG Export Plug-In . SVG Version: 6.00 Build 0)  -->
<!DOCTYPE svg PUBLIC "-//W3C//DTD SVG 1.1//EN" "http://www.w3.org/Graphics/SVG/1.1/DTD/svg11.dtd">
<svg version="1.1" id="Layer_1" xmlns="http://www.w3.org/2000/svg" xmlns:xlink="http://www.w3.org/1999/xlink" x="0px" y="0px"
	 width="50px" height="50px" viewBox="244.5 -35.5 50 50" enable-background="new 244.5 -35.5 50 50" xml:space="preserve">
<path d="M289.217-9.499c0,1.104-0.895,2-2,2c-0.005,0-0.012,0-0.02,0h-3.707v0.249c0,0.206-0.04,0.4-0.098,0.587v9.8
	c0,1.104-0.896,2-2,2h-6.568c-1.104,0-2-0.896-2-2V-2.5c0-1.838-1.496-3.333-3.334-3.333s-3.334,1.495-3.334,3.333v5.637
	c0,1.104-0.896,2-2,2h-6.568c-1.104,0-2-0.896-2-2V-7.499h-3.805c-0.844,0-1.597-0.529-1.882-1.323
	c-0.285-0.794-0.043-1.681,0.607-2.219l17.707-14.638c0.74-0.611,1.809-0.611,2.549,0l5.476,4.526v-0.098c0-1.104,0.896-2,2-2h3.25
	c1.104,0,2,0.896,2,2v6.091l4.818,3.983C288.855-10.819,289.217-10.201,289.217-9.499z"/>
</svg>
