<?xml version="1.0" encoding="utf-8"?>
<!-- Generator: Adobe Illustrator 16.0.0, SVG Export Plug-In . SVG Version: 6.00 Build 0)  -->
<!DOCTYPE svg PUBLIC "-//W3C//DTD SVG 1.1//EN" "http://www.w3.org/Graphics/SVG/1.1/DTD/svg11.dtd">
<svg version="1.1" id="Layer_1" xmlns="http://www.w3.org/2000/svg" xmlns:xlink="http://www.w3.org/1999/xlink" x="0px" y="0px"
	 width="50px" height="50px" viewBox="314.5 -35.5 50 50" enable-background="new 314.5 -35.5 50 50" xml:space="preserve">
<path d="M338.813-26.167h-10.666c-1.658,0-3,1.343-3,3V2.167c0,1.657,1.342,3,3,3h10.666c1.656,0,3-1.343,3-3v-25.333
	C341.813-24.823,340.469-26.167,338.813-26.167z M332.854,0.375h-4.5v-4.5h4.5V0.375z M332.854-5.375h-4.5v-4.5h4.5V-5.375z
	 M332.854-11.125h-4.5v-4.5h4.5V-11.125z M332.854-16.875h-4.5v-4.5h4.5V-16.875z M338.604,0.375h-4.5v-4.5h4.5V0.375z
	 M338.604-5.375h-4.5v-4.5h4.5V-5.375z M338.604-11.125h-4.5v-4.5h4.5V-11.125z M338.604-16.875h-4.5v-4.5h4.5V-16.875z
	 M353.756-6.893V3.89c0,0.705-0.57,1.277-1.277,1.277h-8.057c-0.705,0-1.275-0.572-1.275-1.277V-6.893
	c0-0.705,0.57-1.277,1.275-1.277h8.057C353.186-8.17,353.756-7.598,353.756-6.893z M352.854-9.125h-8.875c-0.553,0-1-0.448-1-1
	s0.447-1,1-1h8.875c0.553,0,1,0.448,1,1S353.406-9.125,352.854-9.125z"/>
</svg>
