<?xml version="1.0" encoding="utf-8"?>
<!-- Generator: Adobe Illustrator 16.0.0, SVG Export Plug-In . SVG Version: 6.00 Build 0)  -->
<!DOCTYPE svg PUBLIC "-//W3C//DTD SVG 1.1//EN" "http://www.w3.org/Graphics/SVG/1.1/DTD/svg11.dtd">
<svg version="1.1" id="Layer_1" xmlns="http://www.w3.org/2000/svg" xmlns:xlink="http://www.w3.org/1999/xlink" x="0px" y="0px"
	 width="50px" height="50px" viewBox="314.5 -35.5 50 50" enable-background="new 314.5 -35.5 50 50" xml:space="preserve">
<path d="M360.964-14.861c0,1.142-0.176,2.271-0.521,3.357c-1.793,7.562-14.846,15.948-16.334,16.883
	c-0.368,0.231-0.788,0.348-1.206,0.348c-0.42,0-0.838-0.116-1.206-0.347c-0.102-0.063-0.258-0.163-0.457-0.292
	c2.746-1.774,14.205-9.54,15.877-16.592c0.346-1.086,0.521-2.215,0.521-3.357c0-4.073-2.216-7.83-5.787-9.804
	c-1.169-0.646-2.451-1.063-3.769-1.259c0.555-0.084,1.119-0.133,1.689-0.133c1.887,0,3.756,0.481,5.405,1.392
	C358.748-22.691,360.964-18.935,360.964-14.861z M355.229-11.504c0.346-1.086,0.521-2.215,0.521-3.357
	c0-4.073-2.216-7.83-5.787-9.804c-1.649-0.911-3.519-1.392-5.404-1.392c-2.521,0-4.927,0.84-6.872,2.357
	c-1.948-1.517-4.356-2.357-6.877-2.357c-1.88,0-3.748,0.481-5.404,1.393c-3.57,1.974-5.786,5.73-5.786,9.803
	c0,1.133,0.176,2.261,0.522,3.355c1.787,7.561,14.853,15.95,16.342,16.886c0.369,0.231,0.787,0.347,1.207,0.347
	c0.418,0,0.838-0.116,1.206-0.348C340.384,4.443,353.436-3.943,355.229-11.504z"/>
</svg>
