<?xml version="1.0" encoding="utf-8"?>
<!-- Generator: Adobe Illustrator 16.0.0, SVG Export Plug-In . SVG Version: 6.00 Build 0)  -->
<!DOCTYPE svg PUBLIC "-//W3C//DTD SVG 1.1//EN" "http://www.w3.org/Graphics/SVG/1.1/DTD/svg11.dtd">
<svg version="1.1" id="Layer_1" xmlns="http://www.w3.org/2000/svg" xmlns:xlink="http://www.w3.org/1999/xlink" x="0px" y="0px"
	 width="50px" height="50px" viewBox="-315.5 34.5 50 50" enable-background="new -315.5 34.5 50 50" xml:space="preserve">
<path d="M-277.538,55.057l-11.902-7.433c-0.648-0.404-1.471-0.404-2.119,0l-11.902,7.433c-0.585,0.365-0.94,1.007-0.94,1.696v12.384
	c0,1.104,0.896,2,2,2h23.805c1.104,0,2-0.896,2-2V56.753C-276.598,56.063-276.953,55.422-277.538,55.057z M-291.227,65.282
	c0,0.688-0.558,1.245-1.247,1.245h-2.077c-0.688,0-1.247-0.558-1.247-1.245v-2.079c0-0.688,0.558-1.246,1.247-1.246h2.077
	c0.688,0,1.247,0.559,1.247,1.246V65.282z M-291.227,59.465c0,0.688-0.558,1.246-1.247,1.246h-2.077
	c-0.688,0-1.247-0.558-1.247-1.246v-2.079c0-0.688,0.558-1.245,1.247-1.245h2.077c0.688,0,1.247,0.558,1.247,1.245V59.465z
	 M-285.203,65.282c0,0.688-0.558,1.245-1.247,1.245h-2.077c-0.688,0-1.247-0.558-1.247-1.245v-2.079
	c0-0.688,0.558-1.246,1.247-1.246h2.077c0.688,0,1.247,0.559,1.247,1.246V65.282z M-285.203,59.465c0,0.688-0.558,1.246-1.247,1.246
	h-2.077c-0.688,0-1.247-0.558-1.247-1.246v-2.079c0-0.688,0.558-1.245,1.247-1.245h2.077c0.688,0,1.247,0.558,1.247,1.245V59.465z
	 M-271.097,53.98c-0.379,0.607-1.031,0.94-1.698,0.94c-0.362,0-0.728-0.098-1.058-0.304L-290.5,44.222l-16.647,10.396
	c-0.938,0.586-2.171,0.3-2.756-0.637c-0.585-0.938-0.3-2.171,0.637-2.756l17.707-11.058c0.648-0.404,1.471-0.404,2.119,0
	l17.707,11.058C-270.797,51.81-270.512,53.043-271.097,53.98z"/>
</svg>
