<?xml version="1.0" encoding="utf-8"?>
<!-- Generator: Adobe Illustrator 16.0.0, SVG Export Plug-In . SVG Version: 6.00 Build 0)  -->
<!DOCTYPE svg PUBLIC "-//W3C//DTD SVG 1.1//EN" "http://www.w3.org/Graphics/SVG/1.1/DTD/svg11.dtd">
<svg version="1.1" id="Layer_1" xmlns="http://www.w3.org/2000/svg" xmlns:xlink="http://www.w3.org/1999/xlink" x="0px" y="0px"
	 width="50px" height="50px" viewBox="-245.5 34.5 50 50" enable-background="new -245.5 34.5 50 50" xml:space="preserve">
<path d="M-201.097,57.48c-0.379,0.607-1.031,0.94-1.698,0.94c-0.362,0-0.728-0.098-1.058-0.304l-2.806-1.752
	c0.057,0.279,0.075,0.568,0.005,0.858l-3,12.384c-0.217,0.897-1.021,1.529-1.944,1.529h-4.569v-7.096
	c0-2.183-1.94-3.953-4.333-3.953s-4.333,1.771-4.333,3.953v7.096h-4.569c-0.923,0-1.727-0.632-1.944-1.529l-3-12.384
	c-0.07-0.29-0.052-0.579,0.005-0.858l-2.806,1.752c-0.937,0.587-2.171,0.3-2.756-0.637c-0.585-0.938-0.3-2.171,0.637-2.756
	l17.707-11.058c0.648-0.404,1.471-0.404,2.119,0l17.707,11.058C-200.797,55.31-200.512,56.543-201.097,57.48z"/>
</svg>
