<?xml version="1.0" encoding="utf-8"?>
<!-- Generator: Adobe Illustrator 16.0.0, SVG Export Plug-In . SVG Version: 6.00 Build 0)  -->
<!DOCTYPE svg PUBLIC "-//W3C//DTD SVG 1.1//EN" "http://www.w3.org/Graphics/SVG/1.1/DTD/svg11.dtd">
<svg version="1.1" id="Layer_1" xmlns="http://www.w3.org/2000/svg" xmlns:xlink="http://www.w3.org/1999/xlink" x="0px" y="0px"
	 width="50px" height="50px" viewBox="-175.5 34.5 50 50" enable-background="new -175.5 34.5 50 50" xml:space="preserve">
<path d="M-131.733,56.975l-17.707-11.058c-0.648-0.404-1.471-0.404-2.119,0l-17.707,11.058c-0.937,0.585-1.222,1.818-0.637,2.756
	c0.585,0.937,1.819,1.223,2.756,0.637l2.806-1.752c-0.056,0.279-0.075,0.568-0.005,0.858l3,12.384
	c0.217,0.897,1.021,1.529,1.944,1.529h17.805c0.923,0,1.727-0.632,1.944-1.529l3-12.384c0.07-0.29,0.051-0.579-0.005-0.858
	l2.806,1.752c0.33,0.206,0.696,0.304,1.058,0.304c0.667,0,1.319-0.333,1.698-0.94C-130.512,58.793-130.797,57.56-131.733,56.975z
	 M-150.5,59.25c-1.726,0-3.125-1.399-3.125-3.125S-152.226,53-150.5,53s3.125,1.399,3.125,3.125S-148.774,59.25-150.5,59.25z"/>
</svg>
