<?xml version="1.0" encoding="utf-8"?>
<!-- Generator: Adobe Illustrator 16.0.0, SVG Export Plug-In . SVG Version: 6.00 Build 0)  -->
<!DOCTYPE svg PUBLIC "-//W3C//DTD SVG 1.1//EN" "http://www.w3.org/Graphics/SVG/1.1/DTD/svg11.dtd">
<svg version="1.1" id="Layer_1" xmlns="http://www.w3.org/2000/svg" xmlns:xlink="http://www.w3.org/1999/xlink" x="0px" y="0px"
	 width="50px" height="50px" viewBox="-105.5 34.5 50 50" enable-background="new -105.5 34.5 50 50" xml:space="preserve">
<path d="M-62.95,50.325h-2.71v-3.058c0-0.921-0.747-1.668-1.668-1.668H-98.05c-0.921,0-1.668,0.747-1.668,1.668v24.465
	c0,0.921,0.747,1.668,1.668,1.668h30.721c0.115,0,0.228-0.012,0.336-0.033c0.108,0.021,0.221,0.033,0.336,0.033h3.707
	c0.921,0,1.668-0.747,1.668-1.668V51.993C-61.282,51.072-62.029,50.325-62.95,50.325z M-68.997,70.064h-27.385V48.936h27.385V70.064
	z M-94.853,53.244c0-0.921,0.747-1.668,1.668-1.668h20.99c0.921,0,1.668,0.747,1.668,1.668c0,0.922-0.747,1.669-1.668,1.669h-20.99
	C-94.106,54.913-94.853,54.166-94.853,53.244z M-83.801,58.249c0,0.614-0.498,1.112-1.112,1.112h-8.202
	c-0.614,0-1.112-0.498-1.112-1.112c0-0.615,0.498-1.112,1.112-1.112h8.202C-84.299,57.137-83.801,57.634-83.801,58.249z
	 M-83.801,62.002c0,0.615-0.498,1.112-1.112,1.112h-8.202c-0.614,0-1.112-0.497-1.112-1.112c0-0.614,0.498-1.112,1.112-1.112h8.202
	C-84.299,60.89-83.801,61.388-83.801,62.002z M-83.801,65.756c0,0.614-0.498,1.111-1.112,1.111h-8.202
	c-0.614,0-1.112-0.497-1.112-1.111c0-0.615,0.498-1.112,1.112-1.112h8.202C-84.299,64.644-83.801,65.141-83.801,65.756z
	 M-71.152,58.249c0,0.614-0.498,1.112-1.112,1.112h-8.202c-0.614,0-1.112-0.498-1.112-1.112c0-0.615,0.498-1.112,1.112-1.112h8.202
	C-71.649,57.137-71.152,57.634-71.152,58.249z M-71.152,62.002c0,0.615-0.498,1.112-1.112,1.112h-8.202
	c-0.614,0-1.112-0.497-1.112-1.112c0-0.614,0.498-1.112,1.112-1.112h8.202C-71.649,60.89-71.152,61.388-71.152,62.002z
	 M-71.152,65.756c0,0.614-0.498,1.111-1.112,1.111h-8.202c-0.614,0-1.112-0.497-1.112-1.111c0-0.615,0.498-1.112,1.112-1.112h8.202
	C-71.649,64.644-71.152,65.141-71.152,65.756z"/>
</svg>
