<?xml version="1.0" encoding="utf-8"?>
<!-- Generator: Adobe Illustrator 16.0.0, SVG Export Plug-In . SVG Version: 6.00 Build 0)  -->
<!DOCTYPE svg PUBLIC "-//W3C//DTD SVG 1.1//EN" "http://www.w3.org/Graphics/SVG/1.1/DTD/svg11.dtd">
<svg version="1.1" id="Layer_1" xmlns="http://www.w3.org/2000/svg" xmlns:xlink="http://www.w3.org/1999/xlink" x="0px" y="0px"
	 width="50px" height="50px" viewBox="-35.5 34.5 50 50" enable-background="new -35.5 34.5 50 50" xml:space="preserve">
<path d="M-4.33,62.104l-16.801,14.529c-0.556,0.48-1.255,0.73-1.963,0.73c-0.423,0-0.848-0.089-1.247-0.271
	c-1.068-0.488-1.752-1.555-1.752-2.729V45.307c0-1.174,0.685-2.24,1.752-2.729c1.068-0.488,2.322-0.309,3.21,0.459L-4.33,57.564
	c0.659,0.57,1.038,1.398,1.038,2.27S-3.671,61.533-4.33,62.104z M4.983,58.321l-16.801-14.527c-0.836-0.724-2.099-0.631-2.821,0.204
	c-0.723,0.836-0.631,2.099,0.205,2.821L0.618,59.834l-15.051,13.017c-0.835,0.723-0.927,1.985-0.205,2.821
	c0.396,0.457,0.953,0.691,1.514,0.691c0.463,0,0.929-0.16,1.307-0.487L4.983,61.347c0.439-0.38,0.692-0.932,0.692-1.513
	S5.423,58.701,4.983,58.321z"/>
</svg>
