<?xml version="1.0" encoding="utf-8"?>
<!-- Generator: Adobe Illustrator 16.0.0, SVG Export Plug-In . SVG Version: 6.00 Build 0)  -->
<!DOCTYPE svg PUBLIC "-//W3C//DTD SVG 1.1//EN" "http://www.w3.org/Graphics/SVG/1.1/DTD/svg11.dtd">
<svg version="1.1" id="Layer_1" xmlns="http://www.w3.org/2000/svg" xmlns:xlink="http://www.w3.org/1999/xlink" x="0px" y="0px"
	 width="50px" height="50px" viewBox="-35.5 34.5 50 50" enable-background="new -35.5 34.5 50 50" xml:space="preserve">
<path d="M4.59,50.855l-24.603,24.604c-0.241,0.241-0.545,0.41-0.878,0.487l-5.034,1.168c-0.613,0.142-1.258-0.042-1.703-0.487
	c-0.446-0.445-0.629-1.09-0.487-1.703l1.166-5.032c0.078-0.333,0.246-0.638,0.488-0.88l24.604-24.603l2.578,2.579L-23.452,71.16
	c-0.356,0.356-0.356,0.935,0,1.291c0.356,0.357,0.934,0.355,1.291-0.001L2.013,48.278L4.59,50.855z M0.18,42.372l-0.988,0.988
	l6.448,6.446l0.988-0.987c0.713-0.713,0.712-1.869,0-2.582l-3.866-3.865C2.049,41.66,0.892,41.66,0.18,42.372z"/>
</svg>
