<?xml version="1.0" encoding="utf-8"?>
<!-- Generator: Adobe Illustrator 16.0.0, SVG Export Plug-In . SVG Version: 6.00 Build 0)  -->
<!DOCTYPE svg PUBLIC "-//W3C//DTD SVG 1.1//EN" "http://www.w3.org/Graphics/SVG/1.1/DTD/svg11.dtd">
<svg version="1.1" id="Layer_1" xmlns="http://www.w3.org/2000/svg" xmlns:xlink="http://www.w3.org/1999/xlink" x="0px" y="0px"
	 width="50px" height="50px" viewBox="34.5 34.5 50 50" enable-background="new 34.5 34.5 50 50" xml:space="preserve">
<path d="M58.092,48.422v22.824c0,1.657-1.343,3-3,3h-5.325c-1.657,0-3-1.343-3-3V48.422c0-1.657,1.343-3,3-3h5.325
	C56.749,45.422,58.092,46.765,58.092,48.422z M70.815,45.422H65.49c-1.657,0-3,1.343-3,3v22.824c0,1.657,1.343,3,3,3h5.325
	c1.657,0,3-1.343,3-3V48.422C73.815,46.765,72.473,45.422,70.815,45.422z"/>
</svg>
