<?xml version="1.0" encoding="utf-8"?>
<!-- Generator: Adobe Illustrator 16.0.0, SVG Export Plug-In . SVG Version: 6.00 Build 0)  -->
<!DOCTYPE svg PUBLIC "-//W3C//DTD SVG 1.1//EN" "http://www.w3.org/Graphics/SVG/1.1/DTD/svg11.dtd">
<svg version="1.1" id="Layer_1" xmlns="http://www.w3.org/2000/svg" xmlns:xlink="http://www.w3.org/1999/xlink" x="0px" y="0px"
	 width="50px" height="50px" viewBox="104.5 34.5 50 50" enable-background="new 104.5 34.5 50 50" xml:space="preserve">
<path d="M144.59,50.855l-24.603,24.604c-0.241,0.241-0.545,0.41-0.878,0.487l-5.033,1.168c-0.613,0.142-1.258-0.042-1.703-0.487
	c-0.446-0.445-0.63-1.09-0.487-1.703l1.166-5.032c0.077-0.333,0.246-0.638,0.487-0.88l24.604-24.603l2.577,2.579L116.549,71.16
	c-0.357,0.356-0.357,0.935,0,1.291c0.355,0.357,0.934,0.355,1.29-0.001l24.174-24.172L144.59,50.855z M146.627,48.819
	c0.713-0.713,0.713-1.869,0-2.582l-3.865-3.865c-0.713-0.712-1.869-0.712-2.582,0l-0.988,0.988l6.448,6.446L146.627,48.819z
	 M123,76.516h23.75v-1.781H123V76.516z"/>
</svg>
