<?xml version="1.0" encoding="utf-8"?>
<!-- Generator: Adobe Illustrator 16.0.0, SVG Export Plug-In . SVG Version: 6.00 Build 0)  -->
<!DOCTYPE svg PUBLIC "-//W3C//DTD SVG 1.1//EN" "http://www.w3.org/Graphics/SVG/1.1/DTD/svg11.dtd">
<svg version="1.1" id="Layer_1" xmlns="http://www.w3.org/2000/svg" xmlns:xlink="http://www.w3.org/1999/xlink" x="0px" y="0px"
	 width="50px" height="50px" viewBox="174.5 34.5 50 50" enable-background="new 174.5 34.5 50 50" xml:space="preserve">
<path d="M219.688,63.098c-0.534,0.533-1.4,0.533-1.935,0l-1.329-1.33l-1.329,1.33c-0.534,0.533-1.399,0.533-1.934,0
	c-0.534-0.535-0.534-1.4,0-1.934l1.329-1.33l-1.329-1.328c-0.534-0.535-0.534-1.4,0-1.936c0.533-0.533,1.399-0.533,1.935,0
	l1.329,1.33l1.329-1.33c0.533-0.533,1.398-0.533,1.933,0.002c0.534,0.533,0.534,1.398,0.001,1.932l-1.329,1.33l1.329,1.328
	C220.222,61.697,220.222,62.563,219.688,63.098z M206.215,40.393h-5.689c-1.757,0-3.334,1.076-3.975,2.713l-3.268,8.355
	c-0.011,0-0.019-0.004-0.028-0.004h-8.22c-2.357,0-4.268,1.91-4.268,4.268v8.221c0,2.355,1.91,4.268,4.268,4.268h8.22
	c0.095,0,0.184-0.023,0.277-0.027l2.978,8.268c0.61,1.693,2.216,2.824,4.016,2.824h5.689c2.357,0,4.268-1.912,4.268-4.27V44.66
	C210.482,42.305,208.572,40.393,206.215,40.393z"/>
</svg>
