<?xml version="1.0" encoding="utf-8"?>
<!-- Generator: Adobe Illustrator 16.0.0, SVG Export Plug-In . SVG Version: 6.00 Build 0)  -->
<!DOCTYPE svg PUBLIC "-//W3C//DTD SVG 1.1//EN" "http://www.w3.org/Graphics/SVG/1.1/DTD/svg11.dtd">
<svg version="1.1" id="Layer_1" xmlns="http://www.w3.org/2000/svg" xmlns:xlink="http://www.w3.org/1999/xlink" x="0px" y="0px"
	 width="50px" height="50px" viewBox="174.5 34.5 50 50" enable-background="new 174.5 34.5 50 50" xml:space="preserve">
<path d="M183.297,79.631c0,0,11.596-37.07,35.738-35.55c0,0-2.994,4.848-10.551,6.416c0,0,3.518,0.429,6.369-0.522
	c0,0-1.711,5.514-11.025,6.273c0,0,5.133,1.331,7.414,0.57c0,0-0.619,4.112-10.101,6.154c-0.562,0.121-4.347,1.068-1.306,1.449
	c0,0,4.371,0.762,5.512,0.381c0,0-3.743,5.607-12.926,5.132c-0.904-0.047-1.332,0-1.332,0L183.297,79.631z"/>
</svg>
