<?xml version="1.0" encoding="utf-8"?>
<!-- Generator: Adobe Illustrator 16.0.0, SVG Export Plug-In . SVG Version: 6.00 Build 0)  -->
<!DOCTYPE svg PUBLIC "-//W3C//DTD SVG 1.1//EN" "http://www.w3.org/Graphics/SVG/1.1/DTD/svg11.dtd">
<svg version="1.1" id="Layer_1" xmlns="http://www.w3.org/2000/svg" xmlns:xlink="http://www.w3.org/1999/xlink" x="0px" y="0px"
	 width="50px" height="50px" viewBox="244.5 34.5 50 50" enable-background="new 244.5 34.5 50 50" xml:space="preserve">
<path d="M279.566,45.811v28.047c0,2.178-1.766,3.945-3.943,3.945h-5.258c-1.664,0-3.148-1.045-3.711-2.609l-2.752-7.643
	c-0.088,0.006-0.17,0.025-0.258,0.025h-7.596c-2.178,0-3.943-1.766-3.943-3.943v-7.598c0-2.178,1.766-3.943,3.943-3.943h7.596
	c0.01,0,0.018,0.004,0.027,0.004l3.02-7.721c0.592-1.514,2.049-2.508,3.674-2.508h5.258
	C277.801,41.867,279.566,43.633,279.566,45.811z M281.779,51.406c-0.553,0-1,0.447-1,1s0.447,1,1,1c3.142,0,5.697,2.884,5.697,6.428
	c0,3.545-2.556,6.43-5.697,6.43c-0.553,0-1,0.447-1,1s0.447,1,1,1c4.244,0,7.697-3.781,7.697-8.43
	C289.477,55.187,286.023,51.406,281.779,51.406z M281.779,62.623c-0.553,0-1,0.447-1,1s0.447,1,1,1c2.199,0,4.057-2.193,4.057-4.789
	c0-2.595-1.857-4.787-4.057-4.787c-0.553,0-1,0.447-1,1s0.447,1,1,1c1.096,0,2.057,1.303,2.057,2.787
	C283.836,61.319,282.875,62.623,281.779,62.623z"/>
</svg>
