<?xml version="1.0" encoding="utf-8"?>
<!-- Generator: Adobe Illustrator 16.0.0, SVG Export Plug-In . SVG Version: 6.00 Build 0)  -->
<!DOCTYPE svg PUBLIC "-//W3C//DTD SVG 1.1//EN" "http://www.w3.org/Graphics/SVG/1.1/DTD/svg11.dtd">
<svg version="1.1" id="Layer_1" xmlns="http://www.w3.org/2000/svg" xmlns:xlink="http://www.w3.org/1999/xlink" x="0px" y="0px"
	 width="50px" height="50px" viewBox="244.5 34.5 50 50" enable-background="new 244.5 34.5 50 50" xml:space="preserve">
<path d="M260.633,46.264v-2.375c0-0.918,0.745-1.664,1.662-1.664h14.409c0.918,0,1.663,0.746,1.663,1.664v2.375
	c0,0.918-0.745,1.662-1.663,1.662h-14.409C261.378,47.926,260.633,47.182,260.633,46.264z M279.726,60.807l-3.302-10.164
	c-0.223-0.684-0.861-1.148-1.581-1.148h-10.686c-0.72,0-1.358,0.465-1.581,1.148l-3.302,10.164
	c-0.149,0.461-0.091,0.965,0.162,1.379l8.645,14.168c0.103,0.166,0.239,0.303,0.388,0.422V62.514
	c-1.356-0.438-2.344-1.695-2.344-3.197c0-1.863,1.511-3.375,3.375-3.375s3.375,1.512,3.375,3.375c0,1.502-0.987,2.76-2.344,3.197
	v14.262c0.148-0.119,0.285-0.256,0.388-0.422l8.645-14.168C279.816,61.771,279.875,61.268,279.726,60.807z"/>
</svg>
