<?xml version="1.0" encoding="utf-8"?>
<!-- Generator: Adobe Illustrator 16.0.0, SVG Export Plug-In . SVG Version: 6.00 Build 0)  -->
<!DOCTYPE svg PUBLIC "-//W3C//DTD SVG 1.1//EN" "http://www.w3.org/Graphics/SVG/1.1/DTD/svg11.dtd">
<svg version="1.1" id="Layer_1" xmlns="http://www.w3.org/2000/svg" xmlns:xlink="http://www.w3.org/1999/xlink" x="0px" y="0px"
	 width="50px" height="50px" viewBox="314.5 34.5 50 50" enable-background="new 314.5 34.5 50 50" xml:space="preserve">
<g>
	<path d="M342.427,41.867h-5.258c-1.624,0-3.081,0.994-3.674,2.508l-3.02,7.721c-0.01,0-0.017-0.004-0.026-0.004h-7.596
		c-2.179,0-3.944,1.766-3.944,3.943v7.598c0,2.178,1.766,3.943,3.944,3.943h7.596c0.088,0,0.17-0.02,0.257-0.025l2.752,7.643
		c0.563,1.564,2.048,2.609,3.711,2.609h5.258c2.179,0,3.944-1.768,3.944-3.945V45.811C346.371,43.633,344.605,41.867,342.427,41.867
		z"/>
	<path d="M348.584,68.264c4.244,0,7.697-3.781,7.697-8.43c0-4.647-3.453-8.428-7.697-8.428c-0.553,0-1,0.447-1,1s0.447,1,1,1
		c3.142,0,5.697,2.884,5.697,6.428c0,3.545-2.556,6.43-5.697,6.43c-0.553,0-1,0.447-1,1S348.031,68.264,348.584,68.264z"/>
	<path d="M348.584,62.623c-0.553,0-1,0.447-1,1s0.447,1,1,1c2.199,0,4.057-2.193,4.057-4.789c0-2.595-1.857-4.787-4.057-4.787
		c-0.553,0-1,0.447-1,1s0.447,1,1,1c1.096,0,2.057,1.303,2.057,2.787C350.641,61.319,349.68,62.623,348.584,62.623z"/>
	<path d="M348.584,47.764c-0.553,0-1,0.447-1,1s0.447,1,1,1c5.149,0,9.338,4.518,9.338,10.07s-4.188,10.07-9.338,10.07
		c-0.553,0-1,0.447-1,1s0.447,1,1,1c6.252,0,11.338-5.415,11.338-12.07S354.836,47.764,348.584,47.764z"/>
</g>
</svg>
