<?xml version="1.0" encoding="utf-8"?>
<!-- Generator: Adobe Illustrator 16.0.0, SVG Export Plug-In . SVG Version: 6.00 Build 0)  -->
<!DOCTYPE svg PUBLIC "-//W3C//DTD SVG 1.1//EN" "http://www.w3.org/Graphics/SVG/1.1/DTD/svg11.dtd">
<svg version="1.1" id="Layer_1" xmlns="http://www.w3.org/2000/svg" xmlns:xlink="http://www.w3.org/1999/xlink" x="0px" y="0px"
	 width="50px" height="50px" viewBox="314.5 34.5 50 50" enable-background="new 314.5 34.5 50 50" xml:space="preserve">
<path d="M348.993,56.822c-1.329,1.667-2.942,3.469-4.85,5.375c-7.385,7.385-16.527,13.751-19.534,13.163
	c-0.796,0.727-1.586,1.111-1.833,0.863c-0.247-0.247,0.137-1.037,0.863-1.832c-0.588-3.008,5.778-12.151,13.163-19.535
	c1.907-1.907,3.707-3.519,5.374-4.851L348.993,56.822z M352.819,50.905c0.304-0.671,0.527-1.29,0.67-1.855l2.321-2.321
	c0.65-0.651,0.65-1.708,0-2.359l-1.18-1.18c-0.651-0.651-1.709-0.651-2.36,0l-2.32,2.322c-1.639,0.412-3.752,1.514-6.212,3.303
	l6.444,6.444c0.829-1.138,1.515-2.205,2.046-3.182c0.78,1.889-1.013,5.898-5.345,9.567c-0.234,0.198-0.263,0.549-0.065,0.784
	c0.199,0.234,0.551,0.263,0.786,0.064C352.5,58.346,354.785,53.263,352.819,50.905z"/>
</svg>
