<?xml version="1.0" encoding="utf-8"?>
<!-- Generator: Adobe Illustrator 16.0.0, SVG Export Plug-In . SVG Version: 6.00 Build 0)  -->
<!DOCTYPE svg PUBLIC "-//W3C//DTD SVG 1.1//EN" "http://www.w3.org/Graphics/SVG/1.1/DTD/svg11.dtd">
<svg version="1.1" id="Layer_1" xmlns="http://www.w3.org/2000/svg" xmlns:xlink="http://www.w3.org/1999/xlink" x="0px" y="0px"
	 width="50px" height="50px" viewBox="-315.5 104.5 50 50" enable-background="new -315.5 104.5 50 50" xml:space="preserve">
<path d="M-298.314,132.121l22.822-20.083c0.804-0.709,2.031-0.631,2.739,0.174c0.653,0.743,0.636,1.842,0,2.564l-20.083,22.822
	c-1.417,1.61-3.869,1.766-5.478,0.35c-1.608-1.416-1.766-3.868-0.349-5.478C-298.558,132.352-298.43,132.224-298.314,132.121z
	 M-308.728,147.17c-0.143,0.587,6.805,0.543,9.738-3.229c1.896-2.438,1.407-4.821-0.494-6.014c-2.493-1.563-5.129-0.057-5.433,1.78
	C-305.598,143.81-305.689,145.077-308.728,147.17z"/>
</svg>
