<?xml version="1.0" encoding="utf-8"?>
<!-- Generator: Adobe Illustrator 16.0.0, SVG Export Plug-In . SVG Version: 6.00 Build 0)  -->
<!DOCTYPE svg PUBLIC "-//W3C//DTD SVG 1.1//EN" "http://www.w3.org/Graphics/SVG/1.1/DTD/svg11.dtd">
<svg version="1.1" id="Layer_1" xmlns="http://www.w3.org/2000/svg" xmlns:xlink="http://www.w3.org/1999/xlink" x="0px" y="0px"
	 width="50px" height="50px" viewBox="-245.5 104.5 50 50" enable-background="new -245.5 104.5 50 50" xml:space="preserve">
<path d="M-203.174,134.893c1.367,1.365,1.367,3.582,0,4.949l-4.027,4.027c-0.684,0.684-1.58,1.025-2.475,1.025
	s-1.792-0.342-2.475-1.025l-5.057-5.059l-5.057,5.059c-0.684,0.684-1.58,1.025-2.475,1.025s-1.792-0.342-2.475-1.025l-4.027-4.027
	c-1.367-1.367-1.367-3.584,0-4.949l5.058-5.059l-5.058-5.057c-1.367-1.367-1.367-3.584,0-4.949l4.027-4.027
	c1.367-1.367,3.583-1.367,4.95,0l5.057,5.057l5.057-5.057c1.367-1.367,3.583-1.367,4.95,0l4.027,4.027
	c1.367,1.365,1.367,3.582,0,4.949l-5.058,5.057L-203.174,134.893z"/>
</svg>
