<?xml version="1.0" encoding="utf-8"?>
<!-- Generator: Adobe Illustrator 16.0.0, SVG Export Plug-In . SVG Version: 6.00 Build 0)  -->
<!DOCTYPE svg PUBLIC "-//W3C//DTD SVG 1.1//EN" "http://www.w3.org/Graphics/SVG/1.1/DTD/svg11.dtd">
<svg version="1.1" id="Layer_1" xmlns="http://www.w3.org/2000/svg" xmlns:xlink="http://www.w3.org/1999/xlink" x="0px" y="0px"
	 width="50px" height="50px" viewBox="-245.5 104.5 50 50" enable-background="new -245.5 104.5 50 50" xml:space="preserve">
<path d="M-203.818,122.14c-6.373-8.065-19.795-8.416-28.031-3.03c-8.235,5.387-9.943,19.63-5.844,25.133
	c2.7,3.623,10.737,6.201,15.526,3.191c0.143-0.089,1.615-1.448,1.516-1.582c-2.969-3.984-3.761-8.271,0.492-11.052
	c4.253-2.782,10.107-1.807,13.075,2.179c0.101,0.134,0.548,0.294,0.72,0.295C-200.618,137.277-201.013,125.69-203.818,122.14z
	 M-235.065,132.72c0-1.648,1.426-2.985,3.186-2.985s3.187,1.337,3.187,2.985c0,1.647-1.427,2.984-3.187,2.984
	S-235.065,134.367-235.065,132.72z M-229.438,141.938c-1.235-0.01-2.228-0.956-2.217-2.113c0.01-1.156,1.02-2.087,2.255-2.077
	c1.235,0.011,2.228,0.956,2.217,2.112S-228.203,141.947-229.438,141.938z M-226.066,129.577c-2.717,0-4.919-2.064-4.919-4.609
	c0-2.546,2.202-4.609,4.919-4.609s4.919,2.063,4.919,4.609C-221.146,127.513-223.349,129.577-226.066,129.577z M-215.781,126.486
	c-1.76,0-3.186-1.337-3.186-2.985c0-1.647,1.426-2.985,3.186-2.985c1.76,0,3.187,1.338,3.187,2.985
	C-212.594,125.149-214.021,126.486-215.781,126.486z M-208.625,128.32c-1.235,0-2.236-0.938-2.236-2.097
	c0-1.155,1.001-2.095,2.236-2.095c1.234,0,2.235,0.939,2.235,2.095C-206.39,127.382-207.391,128.32-208.625,128.32z"/>
</svg>
