<?xml version="1.0" encoding="utf-8"?>
<!-- Generator: Adobe Illustrator 16.0.0, SVG Export Plug-In . SVG Version: 6.00 Build 0)  -->
<!DOCTYPE svg PUBLIC "-//W3C//DTD SVG 1.1//EN" "http://www.w3.org/Graphics/SVG/1.1/DTD/svg11.dtd">
<svg version="1.1" id="Layer_1" xmlns="http://www.w3.org/2000/svg" xmlns:xlink="http://www.w3.org/1999/xlink" x="0px" y="0px"
	 width="50px" height="50px" viewBox="-175.5 104.5 50 50" enable-background="new -175.5 104.5 50 50" xml:space="preserve">
<path d="M-143.339,126.451l-17.558,17.558c-0.179,0.179-0.399,0.312-0.641,0.385l-2.782,0.845c-0.543,0.166-1.134,0.019-1.536-0.383
	c-0.402-0.402-0.549-0.993-0.385-1.536l0.847-2.782c0.073-0.241,0.206-0.462,0.384-0.641l17.557-17.558
	c-1.274-1.733-1.839-3.236-1.294-3.781c0.573-0.573,2.213,0.082,4.064,1.507c0.854-2.184,2.419-4.604,3.432-5.617
	c1.77-1.77,4.503-1.905,6.106-0.302c1.602,1.601,1.467,4.335-0.302,6.104c-1.014,1.015-3.433,2.579-5.618,3.433
	c1.426,1.852,2.081,3.491,1.507,4.064C-140.102,128.291-141.607,127.726-143.339,126.451z"/>
</svg>
