<?xml version="1.0" encoding="utf-8"?>
<!-- Generator: Adobe Illustrator 16.0.0, SVG Export Plug-In . SVG Version: 6.00 Build 0)  -->
<!DOCTYPE svg PUBLIC "-//W3C//DTD SVG 1.1//EN" "http://www.w3.org/Graphics/SVG/1.1/DTD/svg11.dtd">
<svg version="1.1" id="Layer_1" xmlns="http://www.w3.org/2000/svg" xmlns:xlink="http://www.w3.org/1999/xlink" x="0px" y="0px"
	 width="50px" height="50px" viewBox="-175.5 104.5 50 50" enable-background="new -175.5 104.5 50 50" xml:space="preserve">
<path d="M-132.709,126.986v5.695c0,1.933-1.567,3.5-3.5,3.5h-7.152v7.152c0,1.933-1.567,3.5-3.5,3.5h-5.695
	c-1.933,0-3.5-1.567-3.5-3.5v-7.152h-7.152c-1.933,0-3.5-1.567-3.5-3.5v-5.695c0-1.933,1.567-3.5,3.5-3.5h7.152v-7.152
	c0-1.933,1.567-3.5,3.5-3.5h5.695c1.933,0,3.5,1.567,3.5,3.5v7.152h7.152C-134.276,123.486-132.709,125.054-132.709,126.986z"/>
</svg>
