<?xml version="1.0" encoding="utf-8"?>
<!-- Generator: Adobe Illustrator 16.0.0, SVG Export Plug-In . SVG Version: 6.00 Build 0)  -->
<!DOCTYPE svg PUBLIC "-//W3C//DTD SVG 1.1//EN" "http://www.w3.org/Graphics/SVG/1.1/DTD/svg11.dtd">
<svg version="1.1" id="Layer_1" xmlns="http://www.w3.org/2000/svg" xmlns:xlink="http://www.w3.org/1999/xlink" x="0px" y="0px"
	 width="50px" height="50px" viewBox="-105.5 104.5 50 50" enable-background="new -105.5 104.5 50 50" xml:space="preserve">
<path d="M-80.5,149.139c-7.482,0-13.569-6.087-13.569-13.568c0-6.521,9.555-21.609,11.471-24.567
	c0.461-0.712,1.251-1.142,2.099-1.142s1.638,0.43,2.099,1.142c1.916,2.958,11.471,18.046,11.471,24.567
	C-66.931,143.052-73.018,149.139-80.5,149.139z M-80.5,117.074c-3.929,6.478-8.57,15.202-8.57,18.496
	c0,4.725,3.844,8.568,8.569,8.568s8.569-3.844,8.569-8.568C-71.931,132.272-76.571,123.551-80.5,117.074z"/>
</svg>
