<?xml version="1.0" encoding="utf-8"?>
<!-- Generator: Adobe Illustrator 16.0.0, SVG Export Plug-In . SVG Version: 6.00 Build 0)  -->
<!DOCTYPE svg PUBLIC "-//W3C//DTD SVG 1.1//EN" "http://www.w3.org/Graphics/SVG/1.1/DTD/svg11.dtd">
<svg version="1.1" id="Layer_1" xmlns="http://www.w3.org/2000/svg" xmlns:xlink="http://www.w3.org/1999/xlink" x="0px" y="0px"
	 width="50px" height="50px" viewBox="-35.5 104.5 50 50" enable-background="new -35.5 104.5 50 50" xml:space="preserve">
<path d="M7.175,121.267c-0.681-1.2-2.207-1.621-3.408-0.941l-5.065,2.873c-2.788-5.431-6.065-10.593-7.103-12.195
	c-0.461-0.712-1.251-1.142-2.099-1.142s-1.638,0.43-2.099,1.142c-1.916,2.958-11.471,18.046-11.471,24.567
	c0,0.179,0.012,0.354,0.02,0.531l-5.684,3.224c-1.201,0.682-1.623,2.207-0.941,3.408c0.46,0.812,1.306,1.267,2.177,1.267
	c0.418,0,0.841-0.104,1.231-0.325l33.5-19C7.435,123.993,7.856,122.468,7.175,121.267z M-10.5,117.074
	c1.617,2.667,3.35,5.709,4.833,8.601l-12.876,7.304C-17.224,128.85-13.638,122.249-10.5,117.074z M1.941,130.46
	c0.696,1.956,1.128,3.728,1.128,5.11c0,7.481-6.087,13.568-13.569,13.568c-4.442,0-8.38-2.155-10.857-5.465l4.396-2.493
	c1.572,1.808,3.883,2.958,6.461,2.958c4.725,0,8.569-3.844,8.569-8.568c0-0.667-0.197-1.564-0.533-2.612L1.941,130.46z"/>
</svg>
