<?xml version="1.0" encoding="utf-8"?>
<!-- Generator: Adobe Illustrator 16.0.0, SVG Export Plug-In . SVG Version: 6.00 Build 0)  -->
<!DOCTYPE svg PUBLIC "-//W3C//DTD SVG 1.1//EN" "http://www.w3.org/Graphics/SVG/1.1/DTD/svg11.dtd">
<svg version="1.1" id="Layer_1" xmlns="http://www.w3.org/2000/svg" xmlns:xlink="http://www.w3.org/1999/xlink" x="0px" y="0px"
	 width="50px" height="50px" viewBox="-35.5 104.5 50 50" enable-background="new -35.5 104.5 50 50" xml:space="preserve">
<path d="M-3.361,112.084v19c0,1.933-1.567,3.5-3.5,3.5h-5.695c-1.933,0-3.5-1.567-3.5-3.5v-19c0-1.933,1.567-3.5,3.5-3.5h5.695
	C-4.928,108.584-3.361,110.151-3.361,112.084z M-6.861,138.086h-5.695c-1.933,0-3.5,1.567-3.5,3.5v5.998c0,1.933,1.567,3.5,3.5,3.5
	h5.695c1.933,0,3.5-1.567,3.5-3.5v-5.998C-3.361,139.653-4.928,138.086-6.861,138.086z"/>
</svg>
