<?xml version="1.0" encoding="utf-8"?>
<!-- Generator: Adobe Illustrator 16.0.0, SVG Export Plug-In . SVG Version: 6.00 Build 0)  -->
<!DOCTYPE svg PUBLIC "-//W3C//DTD SVG 1.1//EN" "http://www.w3.org/Graphics/SVG/1.1/DTD/svg11.dtd">
<svg version="1.1" id="Layer_1" xmlns="http://www.w3.org/2000/svg" xmlns:xlink="http://www.w3.org/1999/xlink" x="0px" y="0px"
	 width="50px" height="50px" viewBox="34.5 104.5 50 50" enable-background="new 34.5 104.5 50 50" xml:space="preserve">
<path d="M66.639,128.586v18.998c0,1.933-1.567,3.5-3.5,3.5h-5.695c-1.933,0-3.5-1.567-3.5-3.5v-18.998c0-1.933,1.567-3.5,3.5-3.5
	h5.695C65.071,125.086,66.639,126.653,66.639,128.586z M63.139,108.584h-5.695c-1.933,0-3.5,1.567-3.5,3.5v6
	c0,1.933,1.567,3.5,3.5,3.5h5.695c1.933,0,3.5-1.567,3.5-3.5v-6C66.639,110.151,65.071,108.584,63.139,108.584z"/>
</svg>
