<?xml version="1.0" encoding="utf-8"?>
<!-- Generator: Adobe Illustrator 16.0.0, SVG Export Plug-In . SVG Version: 6.00 Build 0)  -->
<!DOCTYPE svg PUBLIC "-//W3C//DTD SVG 1.1//EN" "http://www.w3.org/Graphics/SVG/1.1/DTD/svg11.dtd">
<svg version="1.1" id="Layer_1" xmlns="http://www.w3.org/2000/svg" xmlns:xlink="http://www.w3.org/1999/xlink" x="0px" y="0px"
	 width="50px" height="50px" viewBox="104.5 104.5 50 50" enable-background="new 104.5 104.5 50 50" xml:space="preserve">
<path d="M149.397,118.293v10.567c0,0.668-0.54,1.208-1.207,1.208h-17.814v2.415h0.906c0.667,0,1.207,0.54,1.207,1.208v14.191
	c0,0.667-0.54,1.207-1.207,1.207h-4.228c-0.668,0-1.208-0.54-1.208-1.207v-14.191c0-0.668,0.54-1.208,1.208-1.208h0.906v-3.623
	c0-0.667,0.54-1.208,1.207-1.208h17.814v-8.151h-2.952v3.019c0,1.668-1.352,3.02-3.02,3.02h-25.194c-1.668,0-3.02-1.352-3.02-3.02
	v-6.34c0-1.668,1.352-3.02,3.02-3.02h25.194c1.668,0,3.02,1.352,3.02,3.02v0.905h4.16
	C148.857,117.085,149.397,117.625,149.397,118.293z"/>
</svg>
