<?xml version="1.0" encoding="utf-8"?>
<!-- Generator: Adobe Illustrator 16.0.0, SVG Export Plug-In . SVG Version: 6.00 Build 0)  -->
<!DOCTYPE svg PUBLIC "-//W3C//DTD SVG 1.1//EN" "http://www.w3.org/Graphics/SVG/1.1/DTD/svg11.dtd">
<svg version="1.1" id="Layer_1" xmlns="http://www.w3.org/2000/svg" xmlns:xlink="http://www.w3.org/1999/xlink" x="0px" y="0px"
	 width="50px" height="50px" viewBox="104.5 104.5 50 50" enable-background="new 104.5 104.5 50 50" xml:space="preserve">
<path d="M145.167,114.5H137v-4.168c0-0.828-0.672-1.5-1.5-1.5h-12c-0.828,0-1.5,0.672-1.5,1.5v4.168h-8.167c-1.104,0-2,0.896-2,2
	s0.896,2,2,2h2.001v29.168c0,1.381,1.119,2.5,2.5,2.5h22.332c1.381,0,2.5-1.119,2.5-2.5V118.5h2.001c1.104,0,2-0.896,2-2
	S146.271,114.5,145.167,114.5z M125,111.832h9v2.668h-9V111.832z"/>
</svg>
