<?xml version="1.0" encoding="utf-8"?>
<!-- Generator: Adobe Illustrator 16.0.0, SVG Export Plug-In . SVG Version: 6.00 Build 0)  -->
<!DOCTYPE svg PUBLIC "-//W3C//DTD SVG 1.1//EN" "http://www.w3.org/Graphics/SVG/1.1/DTD/svg11.dtd">
<svg version="1.1" id="Layer_1" xmlns="http://www.w3.org/2000/svg" xmlns:xlink="http://www.w3.org/1999/xlink" x="0px" y="0px"
	 width="50px" height="50px" viewBox="174.5 104.5 50 50" enable-background="new 174.5 104.5 50 50" xml:space="preserve">
<path d="M215.25,115.25h-31.5c-1.104,0-2,0.896-2,2v24.5c0,1.104,0.896,2,2,2h31.5c1.104,0,2-0.896,2-2v-24.5
	C217.25,116.146,216.354,115.25,215.25,115.25z M213.25,119.25v18.036l-4.574-5.553c-0.169-0.203-0.466-0.241-0.681-0.086
	l-5.321,3.884l-9.138-8.889c-0.105-0.103-0.253-0.147-0.396-0.14c-0.146,0.014-0.279,0.092-0.363,0.212l-7.027,10.052V119.25H213.25
	z M201.25,126.75c0-1.792,1.458-3.25,3.25-3.25s3.25,1.458,3.25,3.25s-1.458,3.25-3.25,3.25S201.25,128.542,201.25,126.75z"/>
</svg>
