<?xml version="1.0" encoding="utf-8"?>
<!-- Generator: Adobe Illustrator 16.0.0, SVG Export Plug-In . SVG Version: 6.00 Build 0)  -->
<!DOCTYPE svg PUBLIC "-//W3C//DTD SVG 1.1//EN" "http://www.w3.org/Graphics/SVG/1.1/DTD/svg11.dtd">
<svg version="1.1" id="Layer_1" xmlns="http://www.w3.org/2000/svg" xmlns:xlink="http://www.w3.org/1999/xlink" x="0px" y="0px"
	 width="50px" height="50px" viewBox="244.5 104.5 50 50" enable-background="new 244.5 104.5 50 50" xml:space="preserve">
<path d="M281.756,118.602h-28.51c-0.999,0-1.811,0.81-1.811,1.811v22.175c0,0.998,0.812,1.81,1.811,1.81h28.51
	c1,0,1.81-0.812,1.81-1.81v-22.175C283.565,119.411,282.756,118.602,281.756,118.602z M279.945,122.223v16.323l-4.14-5.026
	c-0.152-0.184-0.421-0.217-0.615-0.077l-4.817,3.516l-8.27-8.045c-0.095-0.094-0.229-0.135-0.358-0.127
	c-0.133,0.012-0.253,0.083-0.329,0.192l-6.36,9.097v-15.853H279.945z M269.085,129.011c0-1.623,1.32-2.942,2.941-2.942
	c1.622,0,2.941,1.319,2.941,2.942c0,1.62-1.319,2.941-2.941,2.941C270.405,131.952,269.085,130.631,269.085,129.011z
	 M286.207,137.835c-0.75,0-1.357-0.608-1.357-1.357v-19.159h-28.21c-0.749,0-1.357-0.607-1.357-1.357
	c0-0.749,0.608-1.357,1.357-1.357h29.567c0.749,0,1.357,0.608,1.357,1.357v20.517C287.564,137.227,286.956,137.835,286.207,137.835z
	"/>
</svg>
