<?xml version="1.0" encoding="utf-8"?>
<!-- Generator: Adobe Illustrator 16.0.0, SVG Export Plug-In . SVG Version: 6.00 Build 0)  -->
<!DOCTYPE svg PUBLIC "-//W3C//DTD SVG 1.1//EN" "http://www.w3.org/Graphics/SVG/1.1/DTD/svg11.dtd">
<svg version="1.1" id="Layer_1" xmlns="http://www.w3.org/2000/svg" xmlns:xlink="http://www.w3.org/1999/xlink" x="0px" y="0px"
	 width="50px" height="50px" viewBox="244.5 104.5 50 50" enable-background="new 244.5 104.5 50 50" xml:space="preserve">
<path d="M270.291,112.584c-9.512,0-17.25,7.738-17.25,17.25s7.738,17.25,17.25,17.25s17.25-7.738,17.25-17.25
	S279.803,112.584,270.291,112.584z M270.291,142.084c-6.755,0-12.25-5.495-12.25-12.25s5.495-12.25,12.25-12.25
	s12.25,5.495,12.25,12.25S277.046,142.084,270.291,142.084z M278.955,130.715c0,1.381-1.119,2.5-2.5,2.5h-6.164
	c-1.381,0-2.5-1.119-2.5-2.5v-7.926c0-1.381,1.119-2.5,2.5-2.5s2.5,1.119,2.5,2.5v5.426h3.664
	C277.836,128.215,278.955,129.334,278.955,130.715z"/>
</svg>
