<?xml version="1.0" encoding="utf-8"?>
<!-- Generator: Adobe Illustrator 16.0.0, SVG Export Plug-In . SVG Version: 6.00 Build 0)  -->
<!DOCTYPE svg PUBLIC "-//W3C//DTD SVG 1.1//EN" "http://www.w3.org/Graphics/SVG/1.1/DTD/svg11.dtd">
<svg version="1.1" id="Layer_1" xmlns="http://www.w3.org/2000/svg" xmlns:xlink="http://www.w3.org/1999/xlink" x="0px" y="0px"
	 width="50px" height="50px" viewBox="314.5 104.5 50 50" enable-background="new 314.5 104.5 50 50" xml:space="preserve">
<path d="M353.717,116.833h-5.413v-0.555c0-2.485-2.015-4.5-4.5-4.5h-8.607c-2.485,0-4.5,2.015-4.5,4.5v0.555h-5.413
	c-2.485,0-4.5,2.015-4.5,4.5v16.334c0,2.485,2.015,4.5,4.5,4.5h28.434c2.485,0,4.5-2.015,4.5-4.5v-16.334
	C358.217,118.848,356.202,116.833,353.717,116.833z M339.5,137.5c-4.687,0-8.5-3.813-8.5-8.5s3.813-8.5,8.5-8.5s8.5,3.813,8.5,8.5
	S344.187,137.5,339.5,137.5z M344,129c0,2.481-2.019,4.5-4.5,4.5s-4.5-2.019-4.5-4.5s2.019-4.5,4.5-4.5S344,126.519,344,129z"/>
</svg>
