<?xml version="1.0" encoding="utf-8"?>
<!-- Generator: Adobe Illustrator 16.0.0, SVG Export Plug-In . SVG Version: 6.00 Build 0)  -->
<!DOCTYPE svg PUBLIC "-//W3C//DTD SVG 1.1//EN" "http://www.w3.org/Graphics/SVG/1.1/DTD/svg11.dtd">
<svg version="1.1" id="Layer_1" xmlns="http://www.w3.org/2000/svg" xmlns:xlink="http://www.w3.org/1999/xlink" x="0px" y="0px"
	 width="50px" height="50px" viewBox="314.5 104.5 50 50" enable-background="new 314.5 104.5 50 50" xml:space="preserve">
<path d="M352.292,126.25h-1.416v-3.75c0-0.828-0.672-1.5-1.5-1.5h-1.833v-9.334c0-1.381-1.119-2.5-2.5-2.5h-14.002
	c-1.381,0-2.5,1.119-2.5,2.5V121h-1.833c-0.828,0-1.5,0.672-1.5,1.5v14c0,0.828,0.672,1.5,1.5,1.5h1.833v9.334
	c0,1.381,1.119,2.5,2.5,2.5h14.002c1.381,0,2.5-1.119,2.5-2.5V138h1.833c0.828,0,1.5-0.672,1.5-1.5v-3.75h1.416
	c0.828,0,1.5-0.672,1.5-1.5v-3.5C353.792,126.922,353.12,126.25,352.292,126.25z M347.876,135h-19.668v-11h19.668V135z
	 M332.476,127.627h-3.046v-0.879h4.091v1.004l-2.219,4.502h-1.166L332.476,127.627z M335.565,132.254h-0.924v-0.992h0.924V132.254z
	 M335.565,129.389h-0.924v-0.992h0.924V129.389z M336.81,131.963c-0.3-0.223-0.449-0.645-0.449-1.266l0.004-0.307h1.021
	c0.008,0.121,0.012,0.193,0.012,0.217c0,0.379,0.063,0.615,0.191,0.711c0.128,0.094,0.448,0.141,0.962,0.141
	c0.471,0,0.769-0.051,0.894-0.154c0.125-0.102,0.188-0.346,0.188-0.732c0-0.297-0.057-0.492-0.171-0.586s-0.352-0.141-0.712-0.141
	h-0.456h-0.182v-0.811l0.178,0.004c0.586,0,0.943-0.035,1.071-0.105c0.127-0.07,0.191-0.268,0.191-0.594
	c0-0.361-0.058-0.586-0.172-0.67c-0.114-0.086-0.416-0.127-0.905-0.127c-0.443,0-0.724,0.045-0.839,0.139
	c-0.116,0.092-0.174,0.318-0.174,0.68v0.16h-1.009v-0.205c0-0.643,0.137-1.072,0.408-1.289s0.808-0.324,1.609-0.324
	c0.807,0,1.36,0.102,1.662,0.307c0.301,0.205,0.451,0.582,0.451,1.133c0,0.762-0.305,1.189-0.915,1.283v0.029
	c0.664,0.072,0.996,0.473,0.996,1.201c0,0.648-0.146,1.084-0.439,1.307c-0.294,0.223-0.865,0.336-1.715,0.336
	C337.676,132.299,337.109,132.186,336.81,131.963z M343.75,132.299c1.011,0,1.635-0.15,1.871-0.447
	c0.237-0.297,0.355-1.082,0.355-2.354c0-1.27-0.118-2.053-0.355-2.35c-0.236-0.297-0.86-0.445-1.871-0.445
	c-1.012,0-1.636,0.148-1.872,0.445s-0.354,1.08-0.354,2.35s0.118,2.053,0.354,2.352S342.738,132.299,343.75,132.299z
	 M342.563,128.781c0-0.514,0.064-0.84,0.191-0.977c0.128-0.137,0.433-0.207,0.914-0.207c0.635,0,1.006,0.08,1.113,0.238
	c0.107,0.16,0.161,0.703,0.161,1.631c0,0.92-0.056,1.473-0.169,1.658s-0.45,0.277-1.013,0.277c-0.54,0-0.875-0.066-1.004-0.197
	c-0.13-0.133-0.194-0.477-0.194-1.033l-0.008-0.67L342.563,128.781z"/>
</svg>
