<?xml version="1.0" encoding="utf-8"?>
<!-- Generator: Adobe Illustrator 16.0.0, SVG Export Plug-In . SVG Version: 6.00 Build 0)  -->
<!DOCTYPE svg PUBLIC "-//W3C//DTD SVG 1.1//EN" "http://www.w3.org/Graphics/SVG/1.1/DTD/svg11.dtd">
<svg version="1.1" id="Layer_1" xmlns="http://www.w3.org/2000/svg" xmlns:xlink="http://www.w3.org/1999/xlink" x="0px" y="0px"
	 width="50px" height="50px" viewBox="-315.5 174.5 50 50" enable-background="new -315.5 174.5 50 50" xml:space="preserve">
<path d="M-279.25,183.25h-22.5c-2.761,0-5,2.238-5,5v22.5c0,2.762,2.239,5,5,5h22.5c2.761,0,5-2.238,5-5v-22.5
	C-274.25,185.488-276.489,183.25-279.25,183.25z M-290.5,196.334c2.297,0,4.167,1.869,4.167,4.167s-1.869,4.167-4.167,4.167
	c-2.298,0-4.167-1.869-4.167-4.167S-292.798,196.334-290.5,196.334z M-297.096,187.833h2.858v3.667h-2.858V187.833z
	 M-301.248,187.833h2.858v3.667h-2.858V187.833z M-280,209.167h-21v-13.999h4.329c-1.24,1.433-1.996,3.295-1.996,5.333
	c0,4.503,3.664,8.167,8.167,8.167c4.503,0,8.167-3.664,8.167-8.167c0-2.038-0.756-3.9-1.996-5.333H-280V209.167z"/>
</svg>
