<?xml version="1.0" encoding="utf-8"?>
<!-- Generator: Adobe Illustrator 16.0.0, SVG Export Plug-In . SVG Version: 6.00 Build 0)  -->
<!DOCTYPE svg PUBLIC "-//W3C//DTD SVG 1.1//EN" "http://www.w3.org/Graphics/SVG/1.1/DTD/svg11.dtd">
<svg version="1.1" id="Layer_1" xmlns="http://www.w3.org/2000/svg" xmlns:xlink="http://www.w3.org/1999/xlink" x="0px" y="0px"
	 width="50px" height="50px" viewBox="-245.5 174.5 50 50" enable-background="new -245.5 174.5 50 50" xml:space="preserve">
<path d="M-201.542,193.334v16.668c0,2.484-2.015,4.5-4.5,4.5h-27.334c-2.485,0-4.5-2.016-4.5-4.5v-13v-3.668v-3.666
	c0-2.486,2.015-4.5,4.5-4.5h9.667c2.2,0,4.024,1.58,4.416,3.666h13.251C-203.557,188.834-201.542,190.848-201.542,193.334z
	 M-213.324,206.889l6.37-6.369c0.886-0.887,0.886-2.324,0-3.209c-0.886-0.887-2.322-0.887-3.208,0l-4.766,4.766l-1.935-1.936
	c-0.886-0.885-2.323-0.885-3.208,0c-0.886,0.887-0.886,2.324,0,3.209l3.539,3.539c0.443,0.443,1.023,0.664,1.604,0.664
	C-214.348,207.553-213.768,207.332-213.324,206.889z"/>
</svg>
