<?xml version="1.0" encoding="utf-8"?>
<!-- Generator: Adobe Illustrator 16.0.0, SVG Export Plug-In . SVG Version: 6.00 Build 0)  -->
<!DOCTYPE svg PUBLIC "-//W3C//DTD SVG 1.1//EN" "http://www.w3.org/Graphics/SVG/1.1/DTD/svg11.dtd">
<svg version="1.1" id="Layer_1" xmlns="http://www.w3.org/2000/svg" xmlns:xlink="http://www.w3.org/1999/xlink" x="0px" y="0px"
	 width="50px" height="50px" viewBox="-175.5 174.5 50 50" enable-background="new -175.5 174.5 50 50" xml:space="preserve">
<path d="M-129.292,193.334v16.668c0,2.484-2.015,4.5-4.5,4.5h-27.334c-2.485,0-4.5-2.016-4.5-4.5v-13v-3.668v-3.666
	c0-2.486,2.015-4.5,4.5-4.5h9.667c2.2,0,4.024,1.58,4.416,3.666h13.251C-131.307,188.834-129.292,190.848-129.292,193.334z
	 M-138.219,204.574h3.087c0.833,0,1.51-0.676,1.51-1.51v-2.459c0-0.834-0.677-1.51-1.511-1.512l-3.087,0.002l0.001-3.088
	c0-0.834-0.677-1.512-1.511-1.512h-2.458c-0.834,0-1.511,0.678-1.51,1.51v3.088l-3.088,0.002c-0.834,0-1.51,0.676-1.51,1.51l0,2.459
	c0,0.416,0.169,0.795,0.442,1.066c0.273,0.273,0.651,0.443,1.068,0.443h3.087l0,3.088c0,0.416,0.169,0.795,0.443,1.068
	c0.273,0.273,0.651,0.441,1.068,0.441h2.458c0.834,0,1.51-0.676,1.51-1.51L-138.219,204.574z"/>
</svg>
