<?xml version="1.0" encoding="utf-8"?>
<!-- Generator: Adobe Illustrator 16.0.0, SVG Export Plug-In . SVG Version: 6.00 Build 0)  -->
<!DOCTYPE svg PUBLIC "-//W3C//DTD SVG 1.1//EN" "http://www.w3.org/Graphics/SVG/1.1/DTD/svg11.dtd">
<svg version="1.1" id="Layer_1" xmlns="http://www.w3.org/2000/svg" xmlns:xlink="http://www.w3.org/1999/xlink" x="0px" y="0px"
	 width="50px" height="50px" viewBox="-175.5 174.5 50 50" enable-background="new -175.5 174.5 50 50" xml:space="preserve">
<path d="M-131.083,185.255l-1.051,6.046l-2.99,18.064c-0.016,0.097-0.046,0.191-0.091,0.281c-0.684,2.724-4.04,4.693-8.017,4.693
	c-4.492,0-8.147-2.561-8.147-5.707s3.655-5.706,8.147-5.706c1.563,0,3.046,0.296,4.335,0.859l1.874-10.968h-13.908l-2.738,16.547
	c-0.017,0.098-0.047,0.191-0.091,0.28c-0.684,2.725-4.04,4.694-8.018,4.694c-4.492,0-8.147-2.561-8.147-5.707
	s3.655-5.706,8.147-5.706c1.562,0,3.046,0.296,4.335,0.859l1.954-11.442c-0.002-0.037,0-0.073,0.006-0.11l1.234-7.158
	c0.042-0.24,0.25-0.415,0.493-0.415l22.181,0.009c0.148,0,0.288,0.065,0.383,0.179C-131.098,184.96-131.057,185.109-131.083,185.255
	z"/>
</svg>
