<?xml version="1.0" encoding="utf-8"?>
<!-- Generator: Adobe Illustrator 16.0.0, SVG Export Plug-In . SVG Version: 6.00 Build 0)  -->
<!DOCTYPE svg PUBLIC "-//W3C//DTD SVG 1.1//EN" "http://www.w3.org/Graphics/SVG/1.1/DTD/svg11.dtd">
<svg version="1.1" id="Layer_1" xmlns="http://www.w3.org/2000/svg" xmlns:xlink="http://www.w3.org/1999/xlink" x="0px" y="0px"
	 width="50px" height="50px" viewBox="-105.5 174.5 50 50" enable-background="new -105.5 174.5 50 50" xml:space="preserve">
<path d="M-65.5,183h-30c-0.829,0-1.5,0.672-1.5,1.5v30c0,0.828,0.671,1.5,1.5,1.5h30c0.829,0,1.5-0.672,1.5-1.5v-30
	C-64,183.672-64.671,183-65.5,183z M-86.689,200.25c0.829,0,1.5-0.672,1.5-1.5V186h1.972v12.75c0,0.828,0.671,1.5,1.5,1.5h0.218V213
	H-87v-12.75H-86.689z M-79.5,200.25h0.218c0.829,0,1.5-0.672,1.5-1.5V186h1.972v12.75c0,0.828,0.671,1.5,1.5,1.5H-74V213h-5.5
	V200.25z M-94,186h3.375v12.75c0,0.828,0.671,1.5,1.5,1.5H-89V213h-5V186z M-67,213h-5v-12.75h0.125c0.829,0,1.5-0.672,1.5-1.5V186
	H-67V213z"/>
</svg>
