<?xml version="1.0" encoding="utf-8"?>
<!-- Generator: Adobe Illustrator 16.0.0, SVG Export Plug-In . SVG Version: 6.00 Build 0)  -->
<!DOCTYPE svg PUBLIC "-//W3C//DTD SVG 1.1//EN" "http://www.w3.org/Graphics/SVG/1.1/DTD/svg11.dtd">
<svg version="1.1" id="Layer_1" xmlns="http://www.w3.org/2000/svg" xmlns:xlink="http://www.w3.org/1999/xlink" x="0px" y="0px"
	 width="50px" height="50px" viewBox="-105.5 174.5 50 50" enable-background="new -105.5 174.5 50 50" xml:space="preserve">
<path d="M-61.542,193.334v16.668c0,2.484-2.015,4.5-4.5,4.5h-27.334c-2.485,0-4.5-2.016-4.5-4.5v-13v-3.668v-3.666
	c0-2.486,2.015-4.5,4.5-4.5h9.667c2.2,0,4.024,1.58,4.416,3.666h13.251C-63.557,188.834-61.542,190.848-61.542,193.334z
	 M-67.526,198.824h-10.879c-0.778,0-1.41,0.633-1.41,1.41v2.295c0,0.779,0.631,1.41,1.41,1.41h10.879c0.779,0,1.41-0.631,1.41-1.41
	v-2.295C-66.116,199.457-66.748,198.824-67.526,198.824z"/>
</svg>
