<?xml version="1.0" encoding="utf-8"?>
<!-- Generator: Adobe Illustrator 16.0.0, SVG Export Plug-In . SVG Version: 6.00 Build 0)  -->
<!DOCTYPE svg PUBLIC "-//W3C//DTD SVG 1.1//EN" "http://www.w3.org/Graphics/SVG/1.1/DTD/svg11.dtd">
<svg version="1.1" id="Layer_1" xmlns="http://www.w3.org/2000/svg" xmlns:xlink="http://www.w3.org/1999/xlink" x="0px" y="0px"
	 width="50px" height="50px" viewBox="-35.5 174.5 50 50" enable-background="new -35.5 174.5 50 50" xml:space="preserve">
<path d="M3.167,188.499h-13.251c-0.393-2.086-2.217-3.666-4.416-3.666h-9.667c-2.485,0-4.5,2.014-4.5,4.5v3.666v3.668v13
	c0,2.484,2.015,4.5,4.5,4.5H3.167c2.485,0,4.5-2.016,4.5-4.5v-16.668C7.667,190.513,5.652,188.499,3.167,188.499z M0.974,206.71
	c0,0.959-0.968,1.734-2.163,1.734h-6.218c-1.194,0-2.163-0.775-2.163-1.734v-4.986c0-0.684,0.499-1.27,1.217-1.553v-2.512
	c0-1.523,1.819-2.764,4.055-2.764c2.235,0,4.056,1.24,4.056,2.764v2.512c0.717,0.283,1.216,0.869,1.216,1.553V206.71z
	 M-2.406,197.659v2.33H-6.19v-2.33c0-0.559,0.866-1.029,1.892-1.029C-3.273,196.63-2.406,197.101-2.406,197.659z"/>
</svg>
