<?xml version="1.0" encoding="utf-8"?>
<!-- Generator: Adobe Illustrator 16.0.0, SVG Export Plug-In . SVG Version: 6.00 Build 0)  -->
<!DOCTYPE svg PUBLIC "-//W3C//DTD SVG 1.1//EN" "http://www.w3.org/Graphics/SVG/1.1/DTD/svg11.dtd">
<svg version="1.1" id="Layer_1" xmlns="http://www.w3.org/2000/svg" xmlns:xlink="http://www.w3.org/1999/xlink" x="0px" y="0px"
	 width="50px" height="50px" viewBox="-35.5 174.5 50 50" enable-background="new -35.5 174.5 50 50" xml:space="preserve">
<path d="M-10.5,179.75c-10.907,0-19.75,8.842-19.75,19.75s8.843,19.75,19.75,19.75s19.75-8.842,19.75-19.75
	S0.407,179.75-10.5,179.75z M-21.361,204.22c-2.63-0.011-4.755-2.152-4.745-4.784c0.011-2.632,2.155-4.757,4.785-4.746
	c2.63,0.012,4.756,2.153,4.745,4.785S-18.73,204.23-21.361,204.22z M-10.565,215.105c-2.631-0.01-4.755-2.153-4.744-4.783
	c0.011-2.631,2.153-4.757,4.784-4.746s4.755,2.155,4.745,4.786C-5.792,212.992-7.934,215.116-10.565,215.105z M-12.583,199.5
	c0-1.151,0.933-2.083,2.083-2.083s2.083,0.932,2.083,2.083s-0.933,2.083-2.083,2.083S-12.583,200.651-12.583,199.5z
	 M-10.475,193.424c-2.631-0.011-4.755-2.155-4.745-4.785c0.011-2.631,2.153-4.755,4.785-4.744c2.631,0.01,4.755,2.153,4.744,4.784
	C-5.702,191.309-7.843,193.435-10.475,193.424z M0.32,204.311c-2.63-0.012-4.755-2.153-4.744-4.785s2.154-4.756,4.784-4.745
	c2.631,0.011,4.756,2.152,4.746,4.784C5.095,202.196,2.951,204.321,0.32,204.311z"/>
</svg>
