<?xml version="1.0" encoding="utf-8"?>
<!-- Generator: Adobe Illustrator 16.0.0, SVG Export Plug-In . SVG Version: 6.00 Build 0)  -->
<!DOCTYPE svg PUBLIC "-//W3C//DTD SVG 1.1//EN" "http://www.w3.org/Graphics/SVG/1.1/DTD/svg11.dtd">
<svg version="1.1" id="Layer_1" xmlns="http://www.w3.org/2000/svg" xmlns:xlink="http://www.w3.org/1999/xlink" x="0px" y="0px"
	 width="50px" height="50px" viewBox="34.5 174.5 50 50" enable-background="new 34.5 174.5 50 50" xml:space="preserve">
<path d="M73.271,194.398H53.2l19.511-5.311c1.596-0.435,2.539-2.079,2.108-3.676l-0.312-1.154c-0.208-0.77-0.713-1.425-1.404-1.821
	c-0.69-0.396-1.511-0.501-2.28-0.292l-26.882,7.316c-1.598,0.435-2.541,2.082-2.107,3.681l0.313,1.154
	c0.209,0.769,0.714,1.422,1.405,1.817c0.046,0.026,0.099,0.036,0.146,0.06c-0.427,0.637-0.677,1.401-0.677,2.226v14.563
	c0,2.209,1.791,4,4,4h26.25c2.209,0,4-1.791,4-4v-14.563C77.271,196.189,75.48,194.398,73.271,194.398z M66.057,206.998
	l-8.616,4.891c-0.144,0.082-0.303,0.122-0.463,0.122c-0.163,0-0.326-0.042-0.472-0.128c-0.289-0.167-0.466-0.476-0.466-0.81v-9.782
	c0-0.334,0.177-0.643,0.466-0.81c0.289-0.168,0.644-0.17,0.935-0.006l8.616,4.891c0.294,0.167,0.475,0.479,0.475,0.815
	C66.531,206.52,66.351,206.831,66.057,206.998z"/>
</svg>
