<?xml version="1.0" encoding="utf-8"?>
<!-- Generator: Adobe Illustrator 16.0.0, SVG Export Plug-In . SVG Version: 6.00 Build 0)  -->
<!DOCTYPE svg PUBLIC "-//W3C//DTD SVG 1.1//EN" "http://www.w3.org/Graphics/SVG/1.1/DTD/svg11.dtd">
<svg version="1.1" id="Layer_1" xmlns="http://www.w3.org/2000/svg" xmlns:xlink="http://www.w3.org/1999/xlink" x="0px" y="0px"
	 width="50px" height="50px" viewBox="34.5 174.5 50 50" enable-background="new 34.5 174.5 50 50" xml:space="preserve">
<path d="M78.716,194.471l-3.112,13.752c-0.26,0.713-0.712,1.373-1.266,1.938c0.014-0.143,0.044-0.281,0.044-0.428v-16.229
	c0-1.045-0.382-1.992-0.995-2.748h2.973C78.409,190.756,79.464,192.418,78.716,194.471z M69.043,190.359H57.63
	c-0.337-1.797-1.909-3.158-3.803-3.158H45.5c-2.14,0-3.875,1.734-3.875,3.877v3.156v3.158v11.199c0,2.139,1.735,3.875,3.875,3.875
	h23.543c2.141,0,3.876-1.736,3.876-3.875v-14.357C72.919,192.094,71.184,190.359,69.043,190.359z"/>
</svg>
