<?xml version="1.0" encoding="utf-8"?>
<!-- Generator: Adobe Illustrator 16.0.0, SVG Export Plug-In . SVG Version: 6.00 Build 0)  -->
<!DOCTYPE svg PUBLIC "-//W3C//DTD SVG 1.1//EN" "http://www.w3.org/Graphics/SVG/1.1/DTD/svg11.dtd">
<svg version="1.1" id="Layer_1" xmlns="http://www.w3.org/2000/svg" xmlns:xlink="http://www.w3.org/1999/xlink" x="0px" y="0px"
	 width="50px" height="50px" viewBox="104.5 174.5 50 50" enable-background="new 104.5 174.5 50 50" xml:space="preserve">
<path d="M145.875,184.5h-32.75c-1.104,0-2,0.896-2,2v26c0,1.104,0.896,2,2,2h32.75c1.104,0,2-0.896,2-2v-26
	C147.875,185.396,146.979,184.5,145.875,184.5z M117.125,210.75h-3.75v-5.063h3.75V210.75z M117.125,202.031h-3.75v-5.063h3.75
	V202.031z M117.125,193.313h-3.75v-5.063h3.75V193.313z M139.563,210.5h-20.125v-22h20.125V210.5z M145.625,210.75h-3.75v-5.063
	h3.75V210.75z M145.625,202.031h-3.75v-5.063h3.75V202.031z M145.625,193.313h-3.75v-5.063h3.75V193.313z"/>
</svg>
