<?xml version="1.0" encoding="utf-8"?>
<!-- Generator: Adobe Illustrator 16.0.0, SVG Export Plug-In . SVG Version: 6.00 Build 0)  -->
<!DOCTYPE svg PUBLIC "-//W3C//DTD SVG 1.1//EN" "http://www.w3.org/Graphics/SVG/1.1/DTD/svg11.dtd">
<svg version="1.1" id="Layer_1" xmlns="http://www.w3.org/2000/svg" xmlns:xlink="http://www.w3.org/1999/xlink" x="0px" y="0px"
	 width="50px" height="50px" viewBox="174.5 174.5 50 50" enable-background="new 174.5 174.5 50 50" xml:space="preserve">
<path d="M218.574,199.545v12.363c0,1.006-0.815,1.824-1.823,1.824H212.8c-0.267,0-0.529-0.059-0.77-0.172l-3.183-1.48v2.006
	c0,1.008-0.816,1.824-1.824,1.824h-24.774c-1.008,0-1.823-0.816-1.823-1.824v-16.719c0-1.008,0.815-1.824,1.823-1.824h24.774
	c1.008,0,1.824,0.816,1.824,1.824v2.006l3.183-1.482c0.24-0.113,0.503-0.17,0.77-0.17h3.951
	C217.759,197.721,218.574,198.537,218.574,199.545z M201.29,193.951c2.993,0,5.429-2.436,5.429-5.43s-2.436-5.432-5.429-5.432
	c-2.995,0-5.433,2.438-5.433,5.432S198.295,193.951,201.29,193.951z M186.844,193.951c2.994,0,5.43-2.436,5.43-5.43
	s-2.436-5.432-5.43-5.432c-2.995,0-5.433,2.438-5.433,5.432S183.849,193.951,186.844,193.951z"/>
</svg>
