<?xml version="1.0" encoding="utf-8"?>
<!-- Generator: Adobe Illustrator 16.0.0, SVG Export Plug-In . SVG Version: 6.00 Build 0)  -->
<!DOCTYPE svg PUBLIC "-//W3C//DTD SVG 1.1//EN" "http://www.w3.org/Graphics/SVG/1.1/DTD/svg11.dtd">
<svg version="1.1" id="Layer_1" xmlns="http://www.w3.org/2000/svg" xmlns:xlink="http://www.w3.org/1999/xlink" x="0px" y="0px"
	 width="50px" height="50px" viewBox="174.5 174.5 50 50" enable-background="new 174.5 174.5 50 50" xml:space="preserve">
<g>
	<path d="M209.043,190.359H197.63c-0.337-1.797-1.909-3.158-3.803-3.158H185.5c-2.14,0-3.875,1.734-3.875,3.877v3.156v3.158v11.199
		c0,2.139,1.735,3.875,3.875,3.875h23.543c2.141,0,3.876-1.736,3.876-3.875v-14.357
		C212.919,192.094,211.184,190.359,209.043,190.359z M208.118,204.018c0,0.717-0.582,1.297-1.298,1.297h-2.653v2.654
		c0,0.717-0.58,1.297-1.298,1.297h-2.112c-0.358,0-0.683-0.145-0.918-0.381c-0.234-0.234-0.381-0.559-0.381-0.918l0.001-2.652
		h-2.652c-0.359,0-0.684-0.145-0.918-0.381c-0.235-0.234-0.381-0.559-0.381-0.916v-2.113c0-0.717,0.58-1.297,1.297-1.297
		l2.653-0.002v-2.652c0-0.717,0.582-1.297,1.298-1.297h2.112c0.718,0,1.299,0.58,1.299,1.297l-0.001,2.654l2.653-0.002
		c0.717,0.002,1.299,0.582,1.299,1.299V204.018z"/>
	<path d="M216.359,190.756h-2.973c0.613,0.756,0.995,1.703,0.995,2.748v16.229c0,0.146-0.03,0.285-0.044,0.428
		c0.554-0.564,1.006-1.225,1.266-1.938l3.112-13.752C219.464,192.418,218.409,190.756,216.359,190.756z"/>
</g>
</svg>
