<?xml version="1.0" encoding="utf-8"?>
<!-- Generator: Adobe Illustrator 16.0.0, SVG Export Plug-In . SVG Version: 6.00 Build 0)  -->
<!DOCTYPE svg PUBLIC "-//W3C//DTD SVG 1.1//EN" "http://www.w3.org/Graphics/SVG/1.1/DTD/svg11.dtd">
<svg version="1.1" id="Layer_1" xmlns="http://www.w3.org/2000/svg" xmlns:xlink="http://www.w3.org/1999/xlink" x="0px" y="0px"
	 width="50px" height="50px" viewBox="244.5 174.5 50 50" enable-background="new 244.5 174.5 50 50" xml:space="preserve">
<path d="M288.574,193.318v12.363c0,1.006-0.815,1.824-1.823,1.824H282.8c-0.267,0-0.529-0.059-0.77-0.172l-3.183-1.48v2.006
	c0,1.008-0.816,1.824-1.824,1.824h-24.774c-1.008,0-1.823-0.816-1.823-1.824v-16.719c0-1.008,0.815-1.824,1.823-1.824h24.774
	c1.008,0,1.824,0.816,1.824,1.824v2.006l3.183-1.482c0.24-0.113,0.503-0.17,0.77-0.17h3.951
	C287.759,191.494,288.574,192.311,288.574,193.318z"/>
</svg>
