<?xml version="1.0" encoding="utf-8"?>
<!-- Generator: Adobe Illustrator 16.0.0, SVG Export Plug-In . SVG Version: 6.00 Build 0)  -->
<!DOCTYPE svg PUBLIC "-//W3C//DTD SVG 1.1//EN" "http://www.w3.org/Graphics/SVG/1.1/DTD/svg11.dtd">
<svg version="1.1" id="Layer_1" xmlns="http://www.w3.org/2000/svg" xmlns:xlink="http://www.w3.org/1999/xlink" x="0px" y="0px"
	 width="50px" height="50px" viewBox="244.5 174.5 50 50" enable-background="new 244.5 174.5 50 50" xml:space="preserve">
<g>
	<path d="M279.043,190.359H267.63c-0.337-1.797-1.909-3.158-3.803-3.158H255.5c-2.14,0-3.875,1.734-3.875,3.877v3.156v3.158v11.199
		c0,2.139,1.735,3.875,3.875,3.875h23.543c2.141,0,3.876-1.736,3.876-3.875v-14.357
		C282.919,192.094,281.184,190.359,279.043,190.359z M279.71,202.969c0,0.67-0.543,1.213-1.214,1.213h-9.365
		c-0.67,0-1.214-0.543-1.214-1.213v-1.977c0-0.67,0.544-1.213,1.214-1.213h9.365c0.671,0,1.214,0.543,1.214,1.213V202.969z"/>
	<path d="M286.359,190.756h-2.973c0.613,0.756,0.995,1.703,0.995,2.748v16.229c0,0.146-0.03,0.285-0.044,0.428
		c0.554-0.564,1.006-1.225,1.266-1.938l3.112-13.752C289.464,192.418,288.409,190.756,286.359,190.756z"/>
</g>
</svg>
