<?xml version="1.0" encoding="utf-8"?>
<!-- Generator: Adobe Illustrator 16.0.0, SVG Export Plug-In . SVG Version: 6.00 Build 0)  -->
<!DOCTYPE svg PUBLIC "-//W3C//DTD SVG 1.1//EN" "http://www.w3.org/Graphics/SVG/1.1/DTD/svg11.dtd">
<svg version="1.1" id="Layer_1" xmlns="http://www.w3.org/2000/svg" xmlns:xlink="http://www.w3.org/1999/xlink" x="0px" y="0px"
	 width="50px" height="50px" viewBox="314.5 174.5 50 50" enable-background="new 314.5 174.5 50 50" xml:space="preserve">
<path d="M357.418,191.494h-3.951c-0.267,0-0.529,0.057-0.77,0.17l-3.183,1.482v-2.006c0-1.008-0.816-1.824-1.824-1.824h-24.774
	c-1.008,0-1.823,0.816-1.823,1.824v16.719c0,1.008,0.815,1.824,1.823,1.824h24.774c1.008,0,1.824-0.816,1.824-1.824v-2.006
	l3.183,1.48c0.24,0.113,0.503,0.172,0.77,0.172h3.951c1.008,0,1.823-0.818,1.823-1.824v-12.363
	C359.241,192.311,358.426,191.494,357.418,191.494z M341.557,200.315l-8.616,4.891c-0.144,0.082-0.303,0.122-0.463,0.122
	c-0.163,0-0.326-0.042-0.472-0.128c-0.289-0.167-0.466-0.476-0.466-0.81v-9.782c0-0.334,0.177-0.643,0.466-0.81
	c0.289-0.168,0.644-0.17,0.935-0.006l8.616,4.891c0.294,0.167,0.475,0.479,0.475,0.815
	C342.031,199.837,341.851,200.148,341.557,200.315z"/>
</svg>
