<?xml version="1.0" encoding="utf-8"?>
<!-- Generator: Adobe Illustrator 16.0.0, SVG Export Plug-In . SVG Version: 6.00 Build 0)  -->
<!DOCTYPE svg PUBLIC "-//W3C//DTD SVG 1.1//EN" "http://www.w3.org/Graphics/SVG/1.1/DTD/svg11.dtd">
<svg version="1.1" id="Layer_1" xmlns="http://www.w3.org/2000/svg" xmlns:xlink="http://www.w3.org/1999/xlink" x="0px" y="0px"
	 width="50px" height="50px" viewBox="314.5 174.5 50 50" enable-background="new 314.5 174.5 50 50" xml:space="preserve">
<g>
	<path d="M343.423,198.775c-0.882,0-1.626,0.406-1.626,0.885v2.004h3.251v-2.004C345.048,199.182,344.303,198.775,343.423,198.775z"
		/>
	<path d="M349.043,190.359H337.63c-0.337-1.797-1.909-3.158-3.803-3.158H325.5c-2.14,0-3.875,1.734-3.875,3.877v3.156v3.158v11.199
		c0,2.139,1.735,3.875,3.875,3.875h23.543c2.141,0,3.876-1.736,3.876-3.875v-14.357
		C352.919,192.094,351.184,190.359,349.043,190.359z M347.952,207.438c0,0.824-0.831,1.49-1.858,1.49h-5.343
		c-1.026,0-1.858-0.666-1.858-1.49v-4.283c0-0.588,0.428-1.092,1.045-1.336v-2.158c0-1.309,1.563-2.375,3.485-2.375
		c1.921,0,3.484,1.066,3.484,2.375v2.158c0.616,0.244,1.045,0.748,1.045,1.336V207.438z"/>
	<path d="M356.359,190.756h-2.973c0.613,0.756,0.995,1.703,0.995,2.748v16.229c0,0.146-0.03,0.285-0.044,0.428
		c0.554-0.564,1.006-1.225,1.266-1.938l3.112-13.752C359.464,192.418,358.409,190.756,356.359,190.756z"/>
</g>
</svg>
