<?xml version="1.0" encoding="utf-8"?>
<!-- Generator: Adobe Illustrator 16.0.0, SVG Export Plug-In . SVG Version: 6.00 Build 0)  -->
<!DOCTYPE svg PUBLIC "-//W3C//DTD SVG 1.1//EN" "http://www.w3.org/Graphics/SVG/1.1/DTD/svg11.dtd">
<svg version="1.1" id="Layer_1" xmlns="http://www.w3.org/2000/svg" xmlns:xlink="http://www.w3.org/1999/xlink" x="0px" y="0px"
	 width="50px" height="50px" viewBox="-315.5 244.5 50 50" enable-background="new -315.5 244.5 50 50" xml:space="preserve">
<path d="M-279.25,253.25h-22.5c-2.761,0-5,2.238-5,5v22.5c0,2.762,2.239,5,5,5h22.5c2.761,0,5-2.238,5-5v-22.5
	C-274.25,255.488-276.489,253.25-279.25,253.25z M-298.154,280.462c-1.775,0-3.213-1.439-3.213-3.214s1.438-3.214,3.213-3.214
	c1.774,0,3.213,1.439,3.213,3.214S-296.379,280.462-298.154,280.462z M-298.154,264.966c-1.775,0-3.213-1.439-3.213-3.214
	s1.438-3.214,3.213-3.214c1.774,0,3.213,1.439,3.213,3.214S-296.379,264.966-298.154,264.966z M-290.5,272.714
	c-1.774,0-3.213-1.439-3.213-3.214s1.438-3.214,3.213-3.214s3.213,1.439,3.213,3.214S-288.726,272.714-290.5,272.714z
	 M-282.846,280.462c-1.774,0-3.213-1.439-3.213-3.214s1.438-3.214,3.213-3.214c1.775,0,3.213,1.439,3.213,3.214
	S-281.071,280.462-282.846,280.462z M-282.846,264.966c-1.774,0-3.213-1.439-3.213-3.214s1.438-3.214,3.213-3.214
	c1.775,0,3.213,1.439,3.213,3.214S-281.071,264.966-282.846,264.966z"/>
</svg>
