<?xml version="1.0" encoding="utf-8"?>
<!-- Generator: Adobe Illustrator 16.0.0, SVG Export Plug-In . SVG Version: 6.00 Build 0)  -->
<!DOCTYPE svg PUBLIC "-//W3C//DTD SVG 1.1//EN" "http://www.w3.org/Graphics/SVG/1.1/DTD/svg11.dtd">
<svg version="1.1" id="Layer_1" xmlns="http://www.w3.org/2000/svg" xmlns:xlink="http://www.w3.org/1999/xlink" x="0px" y="0px"
	 width="50px" height="50px" viewBox="-315.5 244.5 50 50" enable-background="new -315.5 244.5 50 50" xml:space="preserve">
<path d="M-272.959,253.834h-33.5c-1.104,0-2,0.896-2,2v28c0,1.105,0.896,2,2,2h33.5c1.104,0,2-0.895,2-2v-28
	C-270.959,254.73-271.854,253.834-272.959,253.834z M-277.375,256.338c0.872,0,1.579,0.707,1.579,1.58
	c0,0.871-0.707,1.578-1.579,1.578s-1.579-0.707-1.579-1.578C-278.955,257.045-278.248,256.338-277.375,256.338z M-281.833,256.338
	c0.872,0,1.579,0.707,1.579,1.58c0,0.871-0.707,1.578-1.579,1.578s-1.579-0.707-1.579-1.578
	C-283.413,257.045-282.706,256.338-281.833,256.338z M-286.292,256.338c0.872,0,1.579,0.707,1.579,1.58
	c0,0.871-0.707,1.578-1.579,1.578s-1.579-0.707-1.579-1.578C-287.871,257.045-287.164,256.338-286.292,256.338z M-274.959,281.834
	h-29.5V261.5h29.5V281.834z"/>
</svg>
