<?xml version="1.0" encoding="utf-8"?>
<!-- Generator: Adobe Illustrator 16.0.0, SVG Export Plug-In . SVG Version: 6.00 Build 0)  -->
<!DOCTYPE svg PUBLIC "-//W3C//DTD SVG 1.1//EN" "http://www.w3.org/Graphics/SVG/1.1/DTD/svg11.dtd">
<svg version="1.1" id="Layer_1" xmlns="http://www.w3.org/2000/svg" xmlns:xlink="http://www.w3.org/1999/xlink" x="0px" y="0px"
	 width="50px" height="50px" viewBox="-245.5 244.5 50 50" enable-background="new -245.5 244.5 50 50" xml:space="preserve">
<path d="M-221.125,278.553c-0.581,0-1.161-0.221-1.604-0.664l-3.539-3.539c-0.886-0.885-0.886-2.322,0-3.209
	c0.886-0.885,2.323-0.885,3.208,0l1.935,1.936l4.766-4.766c0.886-0.887,2.322-0.887,3.208,0c0.886,0.885,0.886,2.322,0,3.209
	l-6.37,6.369C-219.963,278.332-220.543,278.553-221.125,278.553z M-200.959,255.834v28c0,1.105-0.896,2-2,2h-33.5
	c-1.104,0-2-0.895-2-2v-28c0-1.104,0.896-2,2-2h33.5C-201.854,253.834-200.959,254.73-200.959,255.834z M-208.955,257.918
	c0,0.871,0.707,1.578,1.579,1.578s1.579-0.707,1.579-1.578c0-0.873-0.707-1.58-1.579-1.58S-208.955,257.045-208.955,257.918z
	 M-213.413,257.918c0,0.871,0.707,1.578,1.579,1.578s1.579-0.707,1.579-1.578c0-0.873-0.707-1.58-1.579-1.58
	S-213.413,257.045-213.413,257.918z M-217.871,257.918c0,0.871,0.707,1.578,1.579,1.578s1.579-0.707,1.579-1.578
	c0-0.873-0.707-1.58-1.579-1.58S-217.871,257.045-217.871,257.918z M-204.959,261.5h-29.5v20.334h29.5V261.5z"/>
</svg>
