<?xml version="1.0" encoding="utf-8"?>
<!-- Generator: Adobe Illustrator 16.0.0, SVG Export Plug-In . SVG Version: 6.00 Build 0)  -->
<!DOCTYPE svg PUBLIC "-//W3C//DTD SVG 1.1//EN" "http://www.w3.org/Graphics/SVG/1.1/DTD/svg11.dtd">
<svg version="1.1" id="Layer_1" xmlns="http://www.w3.org/2000/svg" xmlns:xlink="http://www.w3.org/1999/xlink" x="0px" y="0px"
	 width="50px" height="50px" viewBox="-245.5 244.5 50 50" enable-background="new -245.5 244.5 50 50" xml:space="preserve">
<path d="M-200.568,267.954c0-5.793-4.678-10.491-10.463-10.532v-0.003h-18.937v0.003c-5.785,0.041-10.463,4.739-10.463,10.532
	c0,0.139,0.015,0.273,0.021,0.411c-0.009,0.137-0.021,0.271-0.021,0.41v7.902c0,3.583,2.904,6.486,6.486,6.486
	c3.039,0,5.583-2.093,6.286-4.914c3.136-0.679,5.745-2.752,7.159-5.538c1.414,2.786,4.023,4.859,7.159,5.538
	c0.703,2.821,3.247,4.914,6.286,4.914c3.583,0,6.486-2.903,6.486-6.486v-7.902c0-0.139-0.012-0.273-0.021-0.41
	C-200.583,268.228-200.568,268.093-200.568,267.954z M-223.855,269.67h-4.324v4.324h-3.43v-4.324h-4.324v-3.43h4.324v-4.324h3.43
	v4.324h4.324V269.67z M-211.106,260.687c1.359,0,2.46,1.102,2.46,2.46s-1.101,2.46-2.46,2.46s-2.46-1.102-2.46-2.46
	S-212.465,260.687-211.106,260.687z M-215.915,270.416c-1.358,0-2.46-1.103-2.46-2.461s1.102-2.46,2.46-2.46
	c1.358,0,2.46,1.102,2.46,2.46S-214.557,270.416-215.915,270.416z M-211.106,275.225c-1.359,0-2.46-1.103-2.46-2.461
	s1.102-2.46,2.46-2.46s2.46,1.102,2.46,2.46S-209.747,275.225-211.106,275.225z M-206.297,270.416c-1.358,0-2.46-1.103-2.46-2.461
	s1.102-2.46,2.46-2.46s2.46,1.102,2.46,2.46S-204.939,270.416-206.297,270.416z"/>
</svg>
