<?xml version="1.0" encoding="utf-8"?>
<!-- Generator: Adobe Illustrator 16.0.0, SVG Export Plug-In . SVG Version: 6.00 Build 0)  -->
<!DOCTYPE svg PUBLIC "-//W3C//DTD SVG 1.1//EN" "http://www.w3.org/Graphics/SVG/1.1/DTD/svg11.dtd">
<svg version="1.1" id="Layer_1" xmlns="http://www.w3.org/2000/svg" xmlns:xlink="http://www.w3.org/1999/xlink" x="0px" y="0px"
	 width="50px" height="50px" viewBox="-175.5 244.5 50 50" enable-background="new -175.5 244.5 50 50" xml:space="preserve">
<path d="M-133.105,268.946c0.116,0.163,0.184,0.362,0.184,0.577c0,0.431-0.272,0.797-0.653,0.938
	c-1.546,1.096-9.822,7.306-16.016,18.734c-0.122,0.303-0.378,0.548-0.7,0.621c-0.084,0.02-0.168,0.028-0.252,0.028
	c-0.339,0-0.656-0.157-0.832-0.453c-0.047-0.07-0.084-0.147-0.112-0.228c-0.803-1.56-6.131-11.422-15.983-18.756
	c-0.358-0.152-0.608-0.507-0.608-0.92c0-0.008,0-0.016,0-0.023c-0.004-0.19,0.045-0.381,0.149-0.549
	c0.118-0.19,0.295-0.333,0.499-0.41c1.279-0.893,9.649-7.022,15.965-18.612c0.099-0.447,0.499-0.782,0.976-0.782
	c0.196,0,0.379,0.057,0.533,0.154c0.213,0.121,0.376,0.317,0.455,0.554c0.613,1.208,5.938,11.318,16.04,18.801
	C-133.318,268.699-133.194,268.81-133.105,268.946z"/>
</svg>
