<?xml version="1.0" encoding="utf-8"?>
<!-- Generator: Adobe Illustrator 16.0.0, SVG Export Plug-In . SVG Version: 6.00 Build 0)  -->
<!DOCTYPE svg PUBLIC "-//W3C//DTD SVG 1.1//EN" "http://www.w3.org/Graphics/SVG/1.1/DTD/svg11.dtd">
<svg version="1.1" id="Layer_1" xmlns="http://www.w3.org/2000/svg" xmlns:xlink="http://www.w3.org/1999/xlink" x="0px" y="0px"
	 width="50px" height="50px" viewBox="-175.5 244.5 50 50" enable-background="new -175.5 244.5 50 50" xml:space="preserve">
<path d="M-146.969,278.162c0,0.834-0.676,1.51-1.51,1.51h-2.458c-0.417,0-0.795-0.168-1.068-0.441
	c-0.273-0.273-0.443-0.652-0.443-1.068l0-3.088h-3.087c-0.417,0-0.795-0.17-1.068-0.443c-0.273-0.271-0.442-0.65-0.442-1.066
	l0-2.459c0-0.834,0.676-1.51,1.51-1.51l3.088-0.002v-3.088c0-0.832,0.676-1.51,1.51-1.51h2.458c0.834,0,1.511,0.678,1.511,1.512
	l-0.001,3.088l3.087-0.002c0.834,0.002,1.511,0.678,1.511,1.512v2.459c0,0.834-0.677,1.51-1.51,1.51h-3.087L-146.969,278.162z
	 M-130.959,255.834v28c0,1.105-0.896,2-2,2h-33.5c-1.104,0-2-0.895-2-2v-28c0-1.104,0.896-2,2-2h33.5
	C-131.854,253.834-130.959,254.73-130.959,255.834z M-138.955,257.918c0,0.871,0.707,1.578,1.579,1.578s1.579-0.707,1.579-1.578
	c0-0.873-0.707-1.58-1.579-1.58S-138.955,257.045-138.955,257.918z M-143.413,257.918c0,0.871,0.707,1.578,1.579,1.578
	s1.579-0.707,1.579-1.578c0-0.873-0.707-1.58-1.579-1.58S-143.413,257.045-143.413,257.918z M-147.871,257.918
	c0,0.871,0.707,1.578,1.579,1.578s1.579-0.707,1.579-1.578c0-0.873-0.707-1.58-1.579-1.58S-147.871,257.045-147.871,257.918z
	 M-134.959,261.5h-29.5v20.334h29.5V261.5z"/>
</svg>
