<?xml version="1.0" encoding="utf-8"?>
<!-- Generator: Adobe Illustrator 16.0.0, SVG Export Plug-In . SVG Version: 6.00 Build 0)  -->
<!DOCTYPE svg PUBLIC "-//W3C//DTD SVG 1.1//EN" "http://www.w3.org/Graphics/SVG/1.1/DTD/svg11.dtd">
<svg version="1.1" id="Layer_1" xmlns="http://www.w3.org/2000/svg" xmlns:xlink="http://www.w3.org/1999/xlink" x="0px" y="0px"
	 width="50px" height="50px" viewBox="-105.5 244.5 50 50" enable-background="new -105.5 244.5 50 50" xml:space="preserve">
<path d="M-71.485,270.457v2.754c0,0.938-0.757,1.693-1.693,1.693H-86.24c-0.935,0-1.693-0.756-1.693-1.693v-2.754
	c0-0.934,0.758-1.693,1.693-1.693h13.062C-72.243,268.764-71.485,269.523-71.485,270.457z M-60.959,255.834v28c0,1.105-0.896,2-2,2
	h-33.5c-1.104,0-2-0.895-2-2v-28c0-1.104,0.896-2,2-2h33.5C-61.854,253.834-60.959,254.73-60.959,255.834z M-68.955,257.918
	c0,0.871,0.707,1.578,1.579,1.578s1.579-0.707,1.579-1.578c0-0.873-0.707-1.58-1.579-1.58S-68.955,257.045-68.955,257.918z
	 M-73.413,257.918c0,0.871,0.707,1.578,1.579,1.578s1.579-0.707,1.579-1.578c0-0.873-0.707-1.58-1.579-1.58
	S-73.413,257.045-73.413,257.918z M-77.871,257.918c0,0.871,0.707,1.578,1.579,1.578s1.579-0.707,1.579-1.578
	c0-0.873-0.707-1.58-1.579-1.58S-77.871,257.045-77.871,257.918z M-64.959,261.5h-29.5v20.334h29.5V261.5z"/>
</svg>
