<?xml version="1.0" encoding="utf-8"?>
<!-- Generator: Adobe Illustrator 16.0.0, SVG Export Plug-In . SVG Version: 6.00 Build 0)  -->
<!DOCTYPE svg PUBLIC "-//W3C//DTD SVG 1.1//EN" "http://www.w3.org/Graphics/SVG/1.1/DTD/svg11.dtd">
<svg version="1.1" id="Layer_1" xmlns="http://www.w3.org/2000/svg" xmlns:xlink="http://www.w3.org/1999/xlink" x="0px" y="0px"
	 width="50px" height="50px" viewBox="-105.5 244.5 50 50" enable-background="new -105.5 244.5 50 50" xml:space="preserve">
<path d="M-66.248,269.26c1.006,1.807,2.146,3.854,1.891,7.08c-0.298,3.947-2.771,6.508-6.785,7.023
	c-1.689,0.223-3.076,0.096-4.067-0.392c-0.666-0.326-1.243-0.768-1.76-1.26c0.55,2.049,1.516,3.729,2.46,5.371
	c0.224,0.391,0.446,0.776,0.661,1.163c0.167,0.303,0.167,0.67-0.002,0.972s-0.481,0.496-0.827,0.512
	c-1.63,0.075-3.376,0.11-5.495,0.11c-1.595,0-3.21-0.02-4.851-0.04l-1.082-0.013c-0.32-0.004-0.618-0.16-0.804-0.421
	c-0.185-0.261-0.234-0.594-0.133-0.897c0.175-0.521,0.456-0.964,0.703-1.354c0.081-0.127,0.162-0.255,0.238-0.384l0.14-0.253
	c0.23-0.411,0.46-0.823,0.671-1.272l0.216-0.473c0.428-0.928,0.87-1.887,1.12-2.898c0.01-0.042,0.02-0.083,0.03-0.125
	c-0.935,0.937-2.134,1.736-3.778,1.82c-2.358,0.099-4.16-0.604-4.813-0.895c-2.51-1.153-3.902-3.391-4.145-6.653
	c-0.098-1.347,0.145-2.906,0.666-4.28c0.705-1.884,1.973-3.858,3.092-5.601c0.569-0.869,1.188-1.697,1.785-2.499
	c0.309-0.408,2.857-3.774,3.25-4.258c1.899-2.346,3.56-5.105,5.166-7.774c0.389-0.646,0.776-1.291,1.168-1.931
	c0.182-0.297,0.504-0.479,0.852-0.479c0,0,0,0,0.001,0c0.348,0,0.67,0.181,0.852,0.477c0.838,1.364,1.721,2.698,2.655,4.11
	l1.039,1.575c1.256,1.928,2.707,3.799,4.109,5.608c1.984,2.559,4.035,5.204,5.69,8.177L-66.248,269.26z"/>
</svg>
