<?xml version="1.0" encoding="utf-8"?>
<!-- Generator: Adobe Illustrator 16.0.0, SVG Export Plug-In . SVG Version: 6.00 Build 0)  -->
<!DOCTYPE svg PUBLIC "-//W3C//DTD SVG 1.1//EN" "http://www.w3.org/Graphics/SVG/1.1/DTD/svg11.dtd">
<svg version="1.1" id="Layer_1" xmlns="http://www.w3.org/2000/svg" xmlns:xlink="http://www.w3.org/1999/xlink" x="0px" y="0px"
	 width="50px" height="50px" viewBox="-35.5 244.5 50 50" enable-background="new -35.5 244.5 50 50" xml:space="preserve">
<path d="M6.873,273.283c0,4.875-3.961,8.841-8.831,8.841c-1.618,0-3.16-0.429-4.5-1.224c0.519,1.32,1.196,2.496,1.859,3.648
	c0.207,0.359,0.412,0.715,0.609,1.069c0.168,0.304,0.168,0.672-0.001,0.975c-0.169,0.303-0.483,0.496-0.83,0.511
	c-1.633,0.07-3.31,0.106-4.984,0.106l-0.684-0.002l-0.694,0.002c-1.689,0-3.369-0.036-4.991-0.106
	c-0.346-0.015-0.66-0.208-0.829-0.511c-0.169-0.303-0.17-0.671-0.001-0.974c0.196-0.354,0.4-0.708,0.606-1.065
	c0.667-1.16,1.347-2.343,1.866-3.672c-1.349,0.801-2.905,1.242-4.504,1.242c-4.873,0-8.836-3.966-8.836-8.841
	c0-4.869,3.964-8.83,8.836-8.83c0.196,0,0.392,0.006,0.587,0.019c-0.58-1.191-0.886-2.508-0.886-3.862
	c0-4.863,3.964-8.819,8.836-8.819c4.878,0,8.847,3.956,8.847,8.819c0,1.355-0.309,2.671-0.892,3.862
	c0.195-0.012,0.391-0.019,0.587-0.019C2.912,264.453,6.873,268.414,6.873,273.283z"/>
</svg>
