<?xml version="1.0" encoding="utf-8"?>
<!-- Generator: Adobe Illustrator 16.0.0, SVG Export Plug-In . SVG Version: 6.00 Build 0)  -->
<!DOCTYPE svg PUBLIC "-//W3C//DTD SVG 1.1//EN" "http://www.w3.org/Graphics/SVG/1.1/DTD/svg11.dtd">
<svg version="1.1" id="Layer_1" xmlns="http://www.w3.org/2000/svg" xmlns:xlink="http://www.w3.org/1999/xlink" x="0px" y="0px"
	 width="50px" height="50px" viewBox="-35.5 244.5 50 50" enable-background="new -35.5 244.5 50 50" xml:space="preserve">
<path d="M-5.653,270.016v-2.512c0-1.523-1.82-2.764-4.056-2.764c-2.236,0-4.055,1.24-4.055,2.764v2.512
	c-0.719,0.283-1.217,0.869-1.217,1.553v4.986c0,0.959,0.969,1.734,2.163,1.734H-6.6c1.195,0,2.163-0.775,2.163-1.734v-4.986
	C-4.437,270.885-4.936,270.299-5.653,270.016z M-9.708,266.475c1.025,0,1.892,0.471,1.892,1.029v2.33h-3.784v-2.33
	C-11.601,266.945-10.735,266.475-9.708,266.475z M7.041,253.834h-33.5c-1.104,0-2,0.896-2,2v28c0,1.105,0.896,2,2,2h33.5
	c1.104,0,2-0.895,2-2v-28C9.041,254.73,8.146,253.834,7.041,253.834z M2.625,256.338c0.872,0,1.579,0.707,1.579,1.58
	c0,0.871-0.707,1.578-1.579,1.578s-1.579-0.707-1.579-1.578C1.045,257.045,1.752,256.338,2.625,256.338z M-1.833,256.338
	c0.872,0,1.579,0.707,1.579,1.58c0,0.871-0.707,1.578-1.579,1.578s-1.579-0.707-1.579-1.578
	C-3.413,257.045-2.706,256.338-1.833,256.338z M-6.292,256.338c0.872,0,1.579,0.707,1.579,1.58c0,0.871-0.707,1.578-1.579,1.578
	s-1.579-0.707-1.579-1.578C-7.871,257.045-7.164,256.338-6.292,256.338z M5.041,281.834h-29.5V261.5h29.5V281.834z"/>
</svg>
