<?xml version="1.0" encoding="utf-8"?>
<!-- Generator: Adobe Illustrator 16.0.0, SVG Export Plug-In . SVG Version: 6.00 Build 0)  -->
<!DOCTYPE svg PUBLIC "-//W3C//DTD SVG 1.1//EN" "http://www.w3.org/Graphics/SVG/1.1/DTD/svg11.dtd">
<svg version="1.1" id="Layer_1" xmlns="http://www.w3.org/2000/svg" xmlns:xlink="http://www.w3.org/1999/xlink" x="0px" y="0px"
	 width="50px" height="50px" viewBox="34.5 244.5 50 50" enable-background="new 34.5 244.5 50 50" xml:space="preserve">
<path d="M65.866,272.26v5.271c0,1.014-1.024,1.836-2.287,1.836h-6.576c-1.263,0-2.287-0.822-2.287-1.836v-5.271
	c0-0.723,0.527-1.344,1.287-1.643v-2.656c0-1.611,1.924-2.924,4.288-2.924s4.289,1.313,4.289,2.924v1.547h-2.288v-1.547
	c0-0.59-0.917-1.088-2.001-1.088s-2.001,0.498-2.001,1.088v2.465h4.002l2.288,0.012C65.339,270.736,65.866,271.537,65.866,272.26z
	 M79.041,255.834v28c0,1.105-0.896,2-2,2h-33.5c-1.105,0-2-0.895-2-2v-28c0-1.104,0.895-2,2-2h33.5
	C78.145,253.834,79.041,254.73,79.041,255.834z M71.045,257.918c0,0.871,0.707,1.578,1.58,1.578c0.871,0,1.578-0.707,1.578-1.578
	c0-0.873-0.707-1.58-1.578-1.58C71.752,256.338,71.045,257.045,71.045,257.918z M66.588,257.918c0,0.871,0.707,1.578,1.578,1.578
	c0.873,0,1.58-0.707,1.58-1.578c0-0.873-0.707-1.58-1.58-1.58C67.295,256.338,66.588,257.045,66.588,257.918z M62.129,257.918
	c0,0.871,0.707,1.578,1.578,1.578c0.873,0,1.58-0.707,1.58-1.578c0-0.873-0.707-1.58-1.58-1.58
	C62.836,256.338,62.129,257.045,62.129,257.918z M75.041,261.5h-29.5v20.334h29.5V261.5z"/>
</svg>
