<?xml version="1.0" encoding="utf-8"?>
<!-- Generator: Adobe Illustrator 16.0.0, SVG Export Plug-In . SVG Version: 6.00 Build 0)  -->
<!DOCTYPE svg PUBLIC "-//W3C//DTD SVG 1.1//EN" "http://www.w3.org/Graphics/SVG/1.1/DTD/svg11.dtd">
<svg version="1.1" id="Layer_1" xmlns="http://www.w3.org/2000/svg" xmlns:xlink="http://www.w3.org/1999/xlink" x="0px" y="0px"
	 width="50px" height="50px" viewBox="104.5 244.5 50 50" enable-background="new 104.5 244.5 50 50" xml:space="preserve">
<path d="M129.5,250.834c-10.292,0-18.666,8.374-18.666,18.666s8.374,18.666,18.666,18.666s18.666-8.374,18.666-18.666
	S139.792,250.834,129.5,250.834z M143.166,269.5c0,2.412-0.634,4.677-1.735,6.646L132,266.716v-10.642
	C138.344,257.253,143.166,262.819,143.166,269.5z M127,282.926c-2.335-0.434-4.466-1.455-6.223-2.917l6.223-6.223V282.926z
	 M132,273.786l6.223,6.223c-1.757,1.462-3.888,2.483-6.223,2.917V273.786z M127,256.074v10.642l-9.431,9.431
	c-1.102-1.97-1.735-4.234-1.735-6.646C115.834,262.819,120.656,257.253,127,256.074z"/>
</svg>
