<?xml version="1.0" encoding="utf-8"?>
<!-- Generator: Adobe Illustrator 16.0.0, SVG Export Plug-In . SVG Version: 6.00 Build 0)  -->
<!DOCTYPE svg PUBLIC "-//W3C//DTD SVG 1.1//EN" "http://www.w3.org/Graphics/SVG/1.1/DTD/svg11.dtd">
<svg version="1.1" id="Layer_1" xmlns="http://www.w3.org/2000/svg" xmlns:xlink="http://www.w3.org/1999/xlink" x="0px" y="0px"
	 width="50px" height="50px" viewBox="104.5 244.5 50 50" enable-background="new 104.5 244.5 50 50" xml:space="preserve">
<path d="M132.496,265.789v6.6c0,0.672-0.545,1.215-1.217,1.215h-1.979c-0.67,0-1.215-0.543-1.215-1.215v-6.6
	c0-0.672,0.545-1.217,1.215-1.217h1.979C131.951,264.572,132.496,265.117,132.496,265.789z M131.279,274.822h-1.979
	c-0.67,0-1.215,0.543-1.215,1.215v2.084c0,0.672,0.545,1.217,1.215,1.217h1.979c0.672,0,1.217-0.545,1.217-1.217v-2.084
	C132.496,275.365,131.951,274.822,131.279,274.822z M149.041,255.834v28c0,1.105-0.896,2-2,2h-33.5c-1.105,0-2-0.895-2-2v-28
	c0-1.104,0.895-2,2-2h33.5C148.145,253.834,149.041,254.73,149.041,255.834z M141.045,257.918c0,0.871,0.707,1.578,1.58,1.578
	c0.871,0,1.578-0.707,1.578-1.578c0-0.873-0.707-1.58-1.578-1.58C141.752,256.338,141.045,257.045,141.045,257.918z
	 M136.588,257.918c0,0.871,0.707,1.578,1.578,1.578c0.873,0,1.58-0.707,1.58-1.578c0-0.873-0.707-1.58-1.58-1.58
	C137.295,256.338,136.588,257.045,136.588,257.918z M132.129,257.918c0,0.871,0.707,1.578,1.578,1.578
	c0.873,0,1.58-0.707,1.58-1.578c0-0.873-0.707-1.58-1.58-1.58C132.836,256.338,132.129,257.045,132.129,257.918z M145.041,261.5
	h-29.5v20.334h29.5V261.5z"/>
</svg>
