<?xml version="1.0" encoding="utf-8"?>
<!-- Generator: Adobe Illustrator 16.0.0, SVG Export Plug-In . SVG Version: 6.00 Build 0)  -->
<!DOCTYPE svg PUBLIC "-//W3C//DTD SVG 1.1//EN" "http://www.w3.org/Graphics/SVG/1.1/DTD/svg11.dtd">
<svg version="1.1" id="Layer_1" xmlns="http://www.w3.org/2000/svg" xmlns:xlink="http://www.w3.org/1999/xlink" x="0px" y="0px"
	 width="50px" height="50px" viewBox="174.5 244.5 50 50" enable-background="new 174.5 244.5 50 50" xml:space="preserve">
<path d="M206.25,278.5H202v-4.646c5.316-1.151,9.313-5.886,9.313-11.541c0-6.514-5.299-11.813-11.813-11.813
	s-11.813,5.299-11.813,11.813c0,5.655,3.996,10.39,9.313,11.541v4.646h-4.25c-1.381,0-2.5,1.119-2.5,2.5s1.119,2.5,2.5,2.5H197v4.75
	c0,1.381,1.119,2.5,2.5,2.5s2.5-1.119,2.5-2.5v-4.75h4.25c1.381,0,2.5-1.119,2.5-2.5S207.631,278.5,206.25,278.5z M192.688,262.313
	c0-3.757,3.056-6.813,6.813-6.813s6.813,3.056,6.813,6.813s-3.056,6.813-6.813,6.813S192.688,266.069,192.688,262.313z"/>
</svg>
