<?xml version="1.0" encoding="utf-8"?>
<!-- Generator: Adobe Illustrator 16.0.0, SVG Export Plug-In . SVG Version: 6.00 Build 0)  -->
<!DOCTYPE svg PUBLIC "-//W3C//DTD SVG 1.1//EN" "http://www.w3.org/Graphics/SVG/1.1/DTD/svg11.dtd">
<svg version="1.1" id="Layer_1" xmlns="http://www.w3.org/2000/svg" xmlns:xlink="http://www.w3.org/1999/xlink" x="0px" y="0px"
	 width="50px" height="50px" viewBox="244.5 244.5 50 50" enable-background="new 244.5 244.5 50 50" xml:space="preserve">
<path d="M284.996,258.382c0-1.38-1.119-2.498-2.499-2.499l-9.902-0.004h-0.001c-1.38,0-2.499,1.119-2.5,2.499
	c-0.001,1.381,1.118,2.5,2.499,2.501l3.87,0.002l-6.98,6.98c-1.89-1.222-4.089-1.884-6.394-1.884c-3.155,0-6.122,1.229-8.353,3.46
	c-4.605,4.604-4.605,12.099,0,16.705c2.231,2.23,5.197,3.459,8.353,3.459c3.156,0,6.122-1.229,8.353-3.459
	c2.231-2.23,3.46-5.197,3.46-8.353c0-2.305-0.662-4.504-1.884-6.394l6.98-6.98l0.001,3.872c0,1.38,1.119,2.499,2.5,2.499h0.001
	c1.381,0,2.499-1.12,2.499-2.501L284.996,258.382z M267.906,282.607c-1.286,1.286-2.997,1.994-4.817,1.994
	c-1.819,0-3.53-0.708-4.817-1.994c-2.655-2.656-2.655-6.979,0-9.635c1.287-1.286,2.998-1.995,4.817-1.995
	c1.82,0,3.53,0.709,4.817,1.995c1.286,1.287,1.995,2.997,1.995,4.817C269.901,279.609,269.192,281.32,267.906,282.607z"/>
</svg>
