<?xml version="1.0" encoding="utf-8"?>
<!-- Generator: Adobe Illustrator 16.0.0, SVG Export Plug-In . SVG Version: 6.00 Build 0)  -->
<!DOCTYPE svg PUBLIC "-//W3C//DTD SVG 1.1//EN" "http://www.w3.org/Graphics/SVG/1.1/DTD/svg11.dtd">
<svg version="1.1" id="Layer_1" xmlns="http://www.w3.org/2000/svg" xmlns:xlink="http://www.w3.org/1999/xlink" x="0px" y="0px"
	 width="50px" height="50px" viewBox="244.5 244.5 50 50" enable-background="new 244.5 244.5 50 50" xml:space="preserve">
<path d="M287.041,253.834h-33.5c-1.105,0-2,0.896-2,2v28c0,1.105,0.895,2,2,2h33.5c1.104,0,2-0.895,2-2v-28
	C289.041,254.73,288.145,253.834,287.041,253.834z M282.625,256.338c0.871,0,1.578,0.707,1.578,1.58
	c0,0.871-0.707,1.578-1.578,1.578c-0.873,0-1.58-0.707-1.58-1.578C281.045,257.045,281.752,256.338,282.625,256.338z
	 M278.166,256.338c0.873,0,1.58,0.707,1.58,1.58c0,0.871-0.707,1.578-1.58,1.578c-0.871,0-1.578-0.707-1.578-1.578
	C276.588,257.045,277.295,256.338,278.166,256.338z M273.707,256.338c0.873,0,1.58,0.707,1.58,1.58c0,0.871-0.707,1.578-1.58,1.578
	c-0.871,0-1.578-0.707-1.578-1.578C272.129,257.045,272.836,256.338,273.707,256.338z M285.041,281.834h-29.5V261.5h29.5V281.834z
	 M283.457,269.418h-26.332v-6h26.332V269.418z M283.457,274.877h-26.332v-3.666h26.332V274.877z M283.457,280.168h-26.332v-3.666
	h26.332V280.168z"/>
</svg>
