<?xml version="1.0" encoding="utf-8"?>
<!-- Generator: Adobe Illustrator 16.0.0, SVG Export Plug-In . SVG Version: 6.00 Build 0)  -->
<!DOCTYPE svg PUBLIC "-//W3C//DTD SVG 1.1//EN" "http://www.w3.org/Graphics/SVG/1.1/DTD/svg11.dtd">
<svg version="1.1" id="Layer_1" xmlns="http://www.w3.org/2000/svg" xmlns:xlink="http://www.w3.org/1999/xlink" x="0px" y="0px"
	 width="50px" height="50px" viewBox="314.5 244.5 50 50" enable-background="new 314.5 244.5 50 50" xml:space="preserve">
<path d="M357.041,253.834h-33.5c-1.105,0-2,0.896-2,2v28c0,1.105,0.895,2,2,2h33.5c1.104,0,2-0.895,2-2v-28
	C359.041,254.73,358.145,253.834,357.041,253.834z M352.625,256.338c0.871,0,1.578,0.707,1.578,1.58
	c0,0.871-0.707,1.578-1.578,1.578c-0.873,0-1.58-0.707-1.58-1.578C351.045,257.045,351.752,256.338,352.625,256.338z
	 M348.166,256.338c0.873,0,1.58,0.707,1.58,1.58c0,0.871-0.707,1.578-1.58,1.578c-0.871,0-1.578-0.707-1.578-1.578
	C346.588,257.045,347.295,256.338,348.166,256.338z M343.707,256.338c0.873,0,1.58,0.707,1.58,1.58c0,0.871-0.707,1.578-1.58,1.578
	c-0.871,0-1.578-0.707-1.578-1.578C342.129,257.045,342.836,256.338,343.707,256.338z M355.041,281.834h-29.5V261.5h29.5V281.834z
	 M333.292,278.836c-0.384,0-0.768-0.146-1.061-0.439c-0.586-0.586-0.586-1.535,0-2.121l4.791-4.791l-4.791-4.791
	c-0.586-0.586-0.586-1.535,0-2.121s1.535-0.586,2.121,0l5.852,5.852c0.586,0.586,0.586,1.535,0,2.121l-5.852,5.852
	C334.06,278.689,333.676,278.836,333.292,278.836z M348.959,278.836h-7.667c-0.828,0-1.5-0.672-1.5-1.5s0.672-1.5,1.5-1.5h7.667
	c0.828,0,1.5,0.672,1.5,1.5S349.787,278.836,348.959,278.836z"/>
</svg>
