<?xml version="1.0" encoding="utf-8"?>
<!-- Generator: Adobe Illustrator 16.0.0, SVG Export Plug-In . SVG Version: 6.00 Build 0)  -->
<!DOCTYPE svg PUBLIC "-//W3C//DTD SVG 1.1//EN" "http://www.w3.org/Graphics/SVG/1.1/DTD/svg11.dtd">
<svg version="1.1" id="Layer_1" xmlns="http://www.w3.org/2000/svg" xmlns:xlink="http://www.w3.org/1999/xlink" x="0px" y="0px"
	 width="50px" height="50px" viewBox="314.5 244.5 50 50" enable-background="new 314.5 244.5 50 50" xml:space="preserve">
<path d="M354.373,278.058c-0.844,0.845-2.212,0.845-3.057,0l-1.349-1.349c-6.26,5.794-14.303,7.537-19.11,4.284l-5.315,5.317
	c-0.845,0.845-2.213,0.845-3.057,0c-0.844-0.844-0.844-2.213,0-3.057l5.533-5.533c-2.394-4.871-0.514-12.246,4.883-18.079
	l-1.349-1.348c-0.845-0.845-0.845-2.213,0-3.058c0.844-0.843,2.212-0.843,3.057,0l3.463,3.464l6.013-6.012
	c0.844-0.844,2.212-0.844,3.056,0c0.845,0.845,0.845,2.212,0,3.057l-6.012,6.012l6.316,6.316l6.012-6.012
	c0.845-0.845,2.213-0.845,3.057,0c0.844,0.844,0.844,2.213,0,3.056l-6.012,6.013l3.871,3.871
	C355.218,275.846,355.218,277.214,354.373,278.058z"/>
</svg>
