<?xml version="1.0" encoding="utf-8"?>
<!-- Generator: Adobe Illustrator 16.0.0, SVG Export Plug-In . SVG Version: 6.00 Build 0)  -->
<!DOCTYPE svg PUBLIC "-//W3C//DTD SVG 1.1//EN" "http://www.w3.org/Graphics/SVG/1.1/DTD/svg11.dtd">
<svg version="1.1" id="Layer_1" xmlns="http://www.w3.org/2000/svg" xmlns:xlink="http://www.w3.org/1999/xlink" x="0px" y="0px"
	 width="50px" height="50px" viewBox="-315.5 314.5 50 50" enable-background="new -315.5 314.5 50 50" xml:space="preserve">
<path d="M-273.167,324.5h-34.666c-1.104,0-2,0.896-2,2v26c0,1.104,0.896,2,2,2h34.666c1.104,0,2-0.896,2-2v-26
	C-271.167,325.396-272.063,324.5-273.167,324.5z M-275.167,350.5h-30.666v-22h30.666V350.5z M-302.766,346.686
	c-0.625-0.543-0.692-1.49-0.149-2.116l3.413-3.932c0.491-0.564,1.325-0.684,1.953-0.272l5.508,3.595l5.348-9.127
	c0.235-0.4,0.643-0.67,1.104-0.729c0.461-0.056,0.924,0.101,1.252,0.429l1.734,1.739l1.523-2.272
	c0.462-0.688,1.392-0.872,2.082-0.411c0.688,0.462,0.872,1.394,0.411,2.081l-2.542,3.791c-0.25,0.373-0.654,0.614-1.101,0.658
	c-0.456,0.045-0.89-0.116-1.207-0.434l-1.651-1.656l-5.161,8.807c-0.207,0.354-0.551,0.607-0.95,0.701
	c-0.114,0.027-0.229,0.04-0.344,0.04c-0.289,0-0.574-0.083-0.82-0.244l-5.731-3.74l-2.556,2.944
	C-301.192,347.162-302.139,347.229-302.766,346.686z"/>
</svg>
