<?xml version="1.0" encoding="utf-8"?>
<!-- Generator: Adobe Illustrator 16.0.0, SVG Export Plug-In . SVG Version: 6.00 Build 0)  -->
<!DOCTYPE svg PUBLIC "-//W3C//DTD SVG 1.1//EN" "http://www.w3.org/Graphics/SVG/1.1/DTD/svg11.dtd">
<svg version="1.1" id="Layer_1" xmlns="http://www.w3.org/2000/svg" xmlns:xlink="http://www.w3.org/1999/xlink" x="0px" y="0px"
	 width="50px" height="50px" viewBox="-315.5 314.5 50 50" enable-background="new -315.5 314.5 50 50" xml:space="preserve">
<path d="M-283.799,353.874c0.111,0.289,0.146,0.895,0.146,0.895h-13.691c0,0,0.002-0.609,0.13-0.915
	c0.108-0.259,0.394-0.501,0.48-0.569c0.027-0.117,0.051-0.212,0.071-0.291c-0.577-0.792-0.921-1.935-0.837-3.12
	c0.087-1.214,0.969-2.436,1.563-3.377l0.034-0.066l0.044-0.144h-0.021c-0.156-0.007-0.541-0.31-0.44-0.686
	c0.115-0.473,0.537-0.575,0.687-0.575h0.107c0.048-0.098,0.115-0.216,0.202-0.353c1.083-2.604,2.333-6.81,2.739-9.318
	c-1.083,0-2.134,0-2.174-0.001c-0.108-0.016-1.146-0.58-1.077-1.492c0.08-1.142,1.143-1.559,1.247-1.559c0.053,0,1.183,0,2.263,0
	l0.003-0.032c-1.402-0.681-2.369-2.136-2.369-3.814c0-2.333,1.871-4.225,4.179-4.225c2.308,0,4.179,1.892,4.179,4.225
	c0,1.679-0.966,3.134-2.369,3.814l0.002,0.032c1.089,0,2.182,0,2.231,0c0.103,0,1.21,0.417,1.289,1.559
	c0.069,0.912-1.012,1.477-1.121,1.492c-0.036,0.001-1.051,0.001-2.141,0.001c0.416,2.549,1.971,7.182,3.173,9.441l0.054,0.091
	c0.067,0.074,0.011,0.059,0.055,0.139h0.042c0.15,0,0.571,0.103,0.686,0.575c0.1,0.376-0.283,0.679-0.441,0.686h-0.051l0.004,0.21
	c0.686,1.035,1.349,2.382,1.425,3.612c0.07,1.132-0.243,2.049-0.789,2.815c0.023,0.139,0.039,0.267,0.043,0.383
	C-284.137,353.401-283.886,353.646-283.799,353.874z"/>
</svg>
