<?xml version="1.0" encoding="utf-8"?>
<!-- Generator: Adobe Illustrator 16.0.0, SVG Export Plug-In . SVG Version: 6.00 Build 0)  -->
<!DOCTYPE svg PUBLIC "-//W3C//DTD SVG 1.1//EN" "http://www.w3.org/Graphics/SVG/1.1/DTD/svg11.dtd">
<svg version="1.1" id="Layer_1" xmlns="http://www.w3.org/2000/svg" xmlns:xlink="http://www.w3.org/1999/xlink" x="0px" y="0px"
	 width="50px" height="50px" viewBox="-245.5 314.5 50 50" enable-background="new -245.5 314.5 50 50" xml:space="preserve">
<path d="M-202.376,324.834h-34.666c-1.104,0-2,0.896-2,2v26c0,1.104,0.896,2,2,2h34.666c1.104,0,2-0.896,2-2v-26
	C-200.376,325.729-201.271,324.834-202.376,324.834z M-204.376,350.834h-30.666v-22h30.666V350.834z M-231.77,344.82l2.863-4.563
	c-0.226-0.382-0.364-0.821-0.364-1.298c0-1.414,1.147-2.563,2.563-2.563s2.563,1.148,2.563,2.563c0,0.419-0.11,0.808-0.288,1.157
	l1.714,2.143l2.278-5.793c-0.434-0.459-0.705-1.075-0.705-1.757c0-1.414,1.147-2.563,2.563-2.563s2.563,1.148,2.563,2.563
	c0,0.494-0.146,0.95-0.388,1.342l3.097,5.874l3.081-8.45c-0.26-0.4-0.415-0.877-0.415-1.391c0-1.414,1.147-2.563,2.563-2.563
	s2.563,1.148,2.563,2.563c0,1.188-0.813,2.179-1.91,2.468l-4.221,11.579c-0.203,0.558-0.716,0.942-1.308,0.982
	c-0.591,0.045-1.151-0.271-1.428-0.797l-3.84-7.283l-2.648,6.734c-0.196,0.498-0.643,0.854-1.172,0.935
	c-0.529,0.075-1.061-0.129-1.396-0.546l-3.152-3.939l-2.634,4.197c-0.285,0.454-0.773,0.703-1.272,0.703
	c-0.272,0-0.548-0.074-0.796-0.229C-231.999,346.447-232.21,345.521-231.77,344.82z"/>
</svg>
