<?xml version="1.0" encoding="utf-8"?>
<!-- Generator: Adobe Illustrator 16.0.0, SVG Export Plug-In . SVG Version: 6.00 Build 0)  -->
<!DOCTYPE svg PUBLIC "-//W3C//DTD SVG 1.1//EN" "http://www.w3.org/Graphics/SVG/1.1/DTD/svg11.dtd">
<svg version="1.1" id="Layer_1" xmlns="http://www.w3.org/2000/svg" xmlns:xlink="http://www.w3.org/1999/xlink" x="0px" y="0px"
	 width="50px" height="50px" viewBox="-245.5 314.5 50 50" enable-background="new -245.5 314.5 50 50" xml:space="preserve">
<path d="M-213.493,359.872c0.107,0.283,0.143,0.874,0.143,0.874h-14.187c0,0,0.002-0.595,0.127-0.894
	c0.125-0.3,0.498-0.577,0.498-0.577h0.05c0.02-0.064,0.039-0.133,0.056-0.204h-0.022c-0.591-0.773-0.947-1.919-0.862-3.105
	c0.085-1.185,0.949-2.379,1.532-3.298l0.023-0.09c-0.021-0.068,0.006-0.051-0.005-0.124c-0.169-0.043-0.484-0.319-0.394-0.66
	c0.113-0.461,0.526-0.562,0.672-0.562h0.073l0.026-0.092l-0.005-0.091c1.442-3.293,2.606-5.107,2.997-11.321
	c-0.042-0.075-0.084-0.15-0.122-0.222c-0.752,0-1.372,0-1.401-0.002c-0.098-0.011-0.801-0.418-0.739-1.068
	c0.072-0.813,0.799-1.106,0.893-1.106c0.022,0,0.276,0,0.64,0l0.209-3.7c0,0-2.284-3.409-2.638-3.98
	c-0.254-0.413-0.486-0.945-0.486-1.471c0-1.197,0.951-2.17,2.123-2.17c0.339,0,0.866,0.001,1.205,0.001c0,0,0-0.386,0-0.531
	c0-0.345,0.272-0.622,0.609-0.622c0.658,0,3.525,0,4.07,0c0.335,0,0.607,0.277,0.607,0.622c0,0.146,0,0.531,0,0.531
	c0.34,0,0.866-0.001,1.205-0.001c1.172,0,2.123,0.973,2.123,2.17c0,0.525-0.231,1.058-0.487,1.471
	c-0.354,0.571-2.609,3.889-2.609,3.889l0.181,3.792c0.376,0,0.633,0,0.655,0c0.094,0,0.781,0.349,0.853,1.163
	c0.062,0.649-0.6,1.001-0.699,1.012c-0.027,0.002-0.643,0.002-1.406,0.002c-0.011,0.155-0.047,0.325-0.114,0.511
	c0.415,5.979,1.769,7.79,3.188,11.032l0.003,0.063l-0.002,0.119c0.067,0,0.109,0,0.12,0c0.146,0,0.56,0.101,0.672,0.562
	c0.098,0.368-0.277,0.663-0.432,0.67l-0.078,0.075c0.007,0.073,0.061,0.08,0.057,0.17c0.663,1.006,1.297,2.302,1.372,3.486
	c0.067,1.104-0.239,1.999-0.773,2.747c0.018,0.129,0.025,0.247,0.02,0.354C-213.868,359.37-213.585,359.632-213.493,359.872z
	 M-222.284,323.021c0.546-0.558,1.191-0.802,1.445-0.545c0.25,0.259,0.012,0.92-0.534,1.476c-0.084,0.086-0.173,0.165-0.259,0.234
	c0.378,0.237,0.825,0.372,1.298,0.372c0.47-0.001,0.909-0.133,1.285-0.359c-0.094-0.074-0.187-0.155-0.275-0.248
	c-0.546-0.558-0.785-1.217-0.534-1.475s0.898-0.013,1.444,0.545c0.09,0.091,0.17,0.185,0.243,0.281
	c0.223-0.385,0.351-0.833,0.351-1.313c0-0.484-0.131-0.938-0.361-1.325c-0.063,0.081-0.135,0.165-0.214,0.243
	c-0.546,0.56-1.193,0.803-1.444,0.545c-0.251-0.256-0.013-0.917,0.533-1.475c0.075-0.077,0.151-0.146,0.229-0.21
	c-0.371-0.221-0.8-0.346-1.258-0.346c-0.457,0-0.886,0.127-1.256,0.346c0.089,0.069,0.178,0.15,0.261,0.236
	c0.545,0.559,0.785,1.22,0.533,1.476c-0.251,0.256-0.897,0.013-1.443-0.544c-0.089-0.092-0.17-0.185-0.242-0.279
	c-0.23,0.388-0.364,0.845-0.364,1.335c0,0.466,0.123,0.907,0.336,1.285C-222.44,323.19-222.367,323.104-222.284,323.021z"/>
</svg>
