<?xml version="1.0" encoding="utf-8"?>
<!-- Generator: Adobe Illustrator 16.0.0, SVG Export Plug-In . SVG Version: 6.00 Build 0)  -->
<!DOCTYPE svg PUBLIC "-//W3C//DTD SVG 1.1//EN" "http://www.w3.org/Graphics/SVG/1.1/DTD/svg11.dtd">
<svg version="1.1" id="Layer_1" xmlns="http://www.w3.org/2000/svg" xmlns:xlink="http://www.w3.org/1999/xlink" x="0px" y="0px"
	 width="50px" height="50px" viewBox="-175.5 314.5 50 50" enable-background="new -175.5 314.5 50 50" xml:space="preserve">
<path d="M-151.364,320.874c0-1.482,1.202-2.684,2.685-2.684c1.482,0,2.684,1.201,2.684,2.684s-1.202,2.685-2.684,2.685
	C-150.163,323.559-151.364,322.356-151.364,320.874z M-141.452,359.149h-0.003c-0.02-0.078-0.044-0.162-0.073-0.248
	c0.647-0.839,1.02-1.848,0.941-3.108c-0.083-1.31-0.806-2.742-1.555-3.844h-0.02c0.023-0.075,0.042-0.151,0.058-0.224h0.013
	c0.171-0.007,0.589-0.328,0.48-0.73c-0.125-0.5-0.585-0.61-0.749-0.61h-0.026c-0.04-0.084-0.093-0.174-0.161-0.271h0.014
	c-1.627-2.981-3.176-5.608-3.615-12.438h-0.003l0.018-0.195c1.026,0,1.894,0,1.929-0.001c0.12-0.014,0.922-0.43,0.847-1.203
	c-0.088-0.966-0.921-1.38-1.034-1.38c-0.038,0-0.613,0-1.36,0l0.004-0.029c-0.234-3.832,1.688-7.257,3.2-8.321
	c0.486-0.341,1.151-1.111,0.502-2.039c-0.468-0.669-1.171-0.652-1.471-0.568c-0.302,0.083-0.886,0.568-1.571,0.568
	c-0.595,0-1.17-0.251-1.649-0.563l-0.194-0.151l-0.013,0.01l-0.016-0.011l-0.1,0.093c-0.492,0.346-1.084,0.689-1.713,0.689
	c-0.69,0-1.322-0.404-1.84-0.782c-0.518,0.378-1.182,0.715-1.872,0.715c-0.685,0-1.27-0.485-1.572-0.568
	c-0.3-0.084-1.003-0.101-1.471,0.568c-0.649,0.928,0.017,1.698,0.501,2.039c1.516,1.067,3.445,4.506,3.2,8.351
	c-0.828,0-1.506,0-1.549,0c-0.114,0-0.995,0.347-1.082,1.313c-0.076,0.774,0.775,1.257,0.895,1.271
	c0.04,0.001,1.03,0.001,2.124,0.001l0.069,0.195h-0.022c-0.439,6.829-1.952,9.368-3.601,12.438h0.008
	c-0.066,0.099-0.111,0.19-0.145,0.271h-0.09c-0.165,0-0.624,0.11-0.749,0.61c-0.106,0.389,0.281,0.701,0.462,0.727
	c-0.014,0.072-0.026,0.146-0.035,0.228h-0.01c-0.649,1-1.612,2.302-1.705,3.593c-0.094,1.276,0.292,2.51,0.936,3.351
	c-0.018,0.092-0.031,0.179-0.035,0.257h-0.037c0,0-0.413,0.303-0.552,0.628c-0.14,0.326-0.143,0.976-0.143,0.976h16.327
	c0,0-0.038-0.646-0.159-0.953C-141.036,359.492-141.452,359.149-141.452,359.149z"/>
</svg>
