<?xml version="1.0" encoding="utf-8"?>
<!-- Generator: Adobe Illustrator 16.0.0, SVG Export Plug-In . SVG Version: 6.00 Build 0)  -->
<!DOCTYPE svg PUBLIC "-//W3C//DTD SVG 1.1//EN" "http://www.w3.org/Graphics/SVG/1.1/DTD/svg11.dtd">
<svg version="1.1" id="Layer_1" xmlns="http://www.w3.org/2000/svg" xmlns:xlink="http://www.w3.org/1999/xlink" x="0px" y="0px"
	 width="50px" height="50px" viewBox="-105.5 314.5 50 50" enable-background="new -105.5 314.5 50 50" xml:space="preserve">
<path d="M-71.796,357.886c0.158,0.353,0.207,1.089,0.207,1.089h-21.404c0,0,0.004-0.742,0.186-1.113
	c0.184-0.372,0.726-0.718,0.726-0.718h0.095c0.004-0.079,0.014-0.164,0.032-0.254h-0.003c-0.862-0.963-1.649-2.391-1.526-3.866
	s1.653-2.957,2.504-4.103h0.011c0.019-0.089,0.043-0.173,0.072-0.254c-0.226-0.008-0.904-0.359-0.763-0.818
	c0.165-0.573,0.899-0.712,1.112-0.712h0.073c0.065-0.084,0.182-0.176,0.387-0.277c1.797-2.373,5.083-5.745,4.138-8.771
	c-0.878,0-1.545,0-1.581-0.001c-0.146-0.011-1.179-0.389-1.087-0.991c0.107-0.753,1.174-1.023,1.313-1.023c0.033,0,0.409,0,0.944,0
	c0,0-0.098-2.64-0.151-2.716c-0.531-0.055-0.937-0.367-0.937-0.747c0-0.419,0.491-0.762,1.1-0.762
	c-1.844-1.129-2.609-3.351-1.834-4.511c0.662-0.987,1.646-1.769,2.463-2.622l1.422,2.051c0,0,0.115,0.376,0.633,0.366
	c0.584-0.012,0.25-0.413,0.25-0.413l-1.791-2.563c0.515-0.506,1.605-1.531,2.305-2.21c-0.662-0.219-0.913-0.669-0.913-1.209
	c0-0.748,0.641-1.236,1.734-1.236c1.091,0,1.933,0.488,1.933,1.236c0,0.54-0.375,0.99-1.038,1.209
	c2.561,2.482,3.922,3.523,5.173,5.392c0.776,1.16,0.119,3.382-1.727,4.511c0.609,0,1.102,0.343,1.102,0.762
	c0,0.412-0.475,0.743-1.066,0.756l-0.047,2.707c0.746,0,1.294,0,1.333,0c0.138,0,1.148,0.322,1.255,1.076
	c0.092,0.603-0.882,0.928-1.029,0.938c-0.04,0.001-0.994,0.001-2.158,0.001c0.117,2.112,3.867,8.297,4.586,9.049h0.073
	c0.214,0,0.998,0.122,1.163,0.696c0.141,0.456-0.812,0.834-0.812,0.834c-0.005,0,2.222,3,2.328,4.491
	c0.103,1.402-0.694,2.675-1.525,3.627c0.042,0.131,0.068,0.261,0.064,0.382C-72.354,357.252-71.931,357.583-71.796,357.886z"/>
</svg>
