<?xml version="1.0" encoding="utf-8"?>
<!-- Generator: Adobe Illustrator 16.0.0, SVG Export Plug-In . SVG Version: 6.00 Build 0)  -->
<!DOCTYPE svg PUBLIC "-//W3C//DTD SVG 1.1//EN" "http://www.w3.org/Graphics/SVG/1.1/DTD/svg11.dtd">
<svg version="1.1" id="Layer_1" xmlns="http://www.w3.org/2000/svg" xmlns:xlink="http://www.w3.org/1999/xlink" x="0px" y="0px"
	 width="50px" height="50px" viewBox="-105.5 314.5 50 50" enable-background="new -105.5 314.5 50 50" xml:space="preserve">
<path d="M-88.484,327.333v24.334c0,1.381-1.119,2.5-2.5,2.5H-95.5c-1.381,0-2.5-1.119-2.5-2.5v-24.334c0-1.381,1.119-2.5,2.5-2.5
	h4.516C-89.603,324.833-88.484,325.952-88.484,327.333z M-65.5,335.499h-4.516c-1.381,0-2.5,1.119-2.5,2.5v13.668
	c0,1.381,1.119,2.5,2.5,2.5h4.516c1.381,0,2.5-1.119,2.5-2.5v-13.668C-63,336.618-64.119,335.499-65.5,335.499z M-78.242,330.167
	h-4.516c-1.381,0-2.5,1.119-2.5,2.5v19c0,1.381,1.119,2.5,2.5,2.5h4.516c1.381,0,2.5-1.119,2.5-2.5v-19
	C-75.742,331.286-76.861,330.167-78.242,330.167z"/>
</svg>
