<?xml version="1.0" encoding="utf-8"?>
<!-- Generator: Adobe Illustrator 16.0.0, SVG Export Plug-In . SVG Version: 6.00 Build 0)  -->
<!DOCTYPE svg PUBLIC "-//W3C//DTD SVG 1.1//EN" "http://www.w3.org/Graphics/SVG/1.1/DTD/svg11.dtd">
<svg version="1.1" id="Layer_1" xmlns="http://www.w3.org/2000/svg" xmlns:xlink="http://www.w3.org/1999/xlink" x="0px" y="0px"
	 width="50px" height="50px" viewBox="-35.5 314.5 50 50" enable-background="new -35.5 314.5 50 50" xml:space="preserve">
<path d="M0.923,355.084c0.169,0.375,0.349,1.025,0.349,1.025h-23.579c0,0,0.192-0.762,0.39-1.158
	c0.191-0.389,0.986-1.057,0.998-1.082c-0.923-1.025-1.7-2.342-1.567-3.912c0.13-1.576,3.285-4.77,3.303-4.854
	c-0.183,0-0.293,0-0.311,0c-0.231-0.01-0.933-0.385-0.784-0.873c0.169-0.613,0.925-0.764,1.149-0.764c0.03,0,0.248,0,0.593,0
	c0.059-0.098,0.157-0.297,0.157-0.297l1.509-11.682h0.007L-17,331.275c-0.215,0.002-1.651-0.09-1.638-1.027
	c0.012-1.014,1.379-1.051,1.419-1.154h-0.058c0,0-1.614-0.803-2.721-2.623c-1.107-1.822-1.221-3.58-1.221-3.58h5.326l-0.379,2.91
	h3.732l-0.377-2.91h4.77l-0.377,2.91h3.733l-0.38-2.91h5.327c0,0-0.243,2.102-1.22,3.58c-0.977,1.477-2.8,2.623-2.8,2.623
	s1.398,0.438,1.569,1.133c0.146,0.557-1.029,1.004-1.262,1.014c-0.025,0-0.209,0-0.506,0.002c0,0,1.528,12.139,1.541,12.225
	c0.466,0,0.761,0,0.797,0c0.222,0,1.03,0.133,1.197,0.744c0.147,0.488-0.602,0.883-0.836,0.893H-1.37
	c0.015,0.086,2.745,3.256,2.86,4.854c0.111,1.521-0.733,2.904-1.637,3.926C-0.113,354.002,0.753,354.709,0.923,355.084z"/>
</svg>
