<?xml version="1.0" encoding="utf-8"?>
<!-- Generator: Adobe Illustrator 16.0.0, SVG Export Plug-In . SVG Version: 6.00 Build 0)  -->
<!DOCTYPE svg PUBLIC "-//W3C//DTD SVG 1.1//EN" "http://www.w3.org/Graphics/SVG/1.1/DTD/svg11.dtd">
<svg version="1.1" id="Layer_1" xmlns="http://www.w3.org/2000/svg" xmlns:xlink="http://www.w3.org/1999/xlink" x="0px" y="0px"
	 width="50px" height="50px" viewBox="34.5 314.5 50 50" enable-background="new 34.5 314.5 50 50" xml:space="preserve">
<path d="M73.391,331.818c-0.739,1.109-1.765,1.849-1.765,1.849c-1.007-0.393-1.221-0.789-2.325-1.114
	c-1.135-0.337-2.669-0.243-4.195,0.079c-2.777,0.585-3.529-1.166-3.576-2.17c-0.025-0.522-0.836-0.607-0.86,0.121
	c-0.144,4.138,3.862,8.518,7.628,10.849l-0.91,5.609h-0.005c0.035,0.109,0.06,0.216,0.055,0.309h0.014
	c0.229,0,0.884,0.129,1.059,0.714c0.153,0.471-0.438,0.847-0.683,0.855h-0.112l0.03,0.234h0.011
	c1.061,1.291,2.085,2.968,2.203,4.498c0.115,1.489-0.426,2.68-1.359,3.667h-0.021c0.06,0.098,0.114,0.193,0.16,0.287
	c0.025,0.02,0.587,0.406,0.754,0.76c0.169,0.358,0.226,1.113,0.226,1.113h-21.17c0,0,0.003-0.759,0.201-1.141
	c0.197-0.381,0.784-0.734,0.784-0.734h0.002c0.043-0.094,0.089-0.189,0.139-0.285h-0.008c-0.932-0.987-1.493-2.448-1.358-3.96
	c0.132-1.511,1.494-3.031,2.416-4.205h0.009c-0.003-0.087,0-0.17,0.015-0.246c-0.269-0.061-0.759-0.411-0.615-0.844
	c0.178-0.585,0.83-0.714,1.062-0.714h0.01c0.021-0.097,0.048-0.201,0.082-0.309h-0.003c-3.513-3.651-5.359-19.171,2.831-23.883
	c2.935-1.685,7.119-2.105,9.727-1.464c0.482-0.432,1.005-0.766,1.515-1.051c1.57,1.041,0.83,1.594,0.592,2.195
	c0.672,0.271,1.546,0.892,2.116,1.981c0.753,1.43,2.969,3.444,4.589,4.29C74.497,330.069,74.072,330.798,73.391,331.818z"/>
</svg>
