<?xml version="1.0" encoding="utf-8"?>
<!-- Generator: Adobe Illustrator 16.0.0, SVG Export Plug-In . SVG Version: 6.00 Build 0)  -->
<!DOCTYPE svg PUBLIC "-//W3C//DTD SVG 1.1//EN" "http://www.w3.org/Graphics/SVG/1.1/DTD/svg11.dtd">
<svg version="1.1" id="Layer_1" xmlns="http://www.w3.org/2000/svg" xmlns:xlink="http://www.w3.org/1999/xlink" x="0px" y="0px"
	 width="50px" height="50px" viewBox="104.5 314.5 50 50" enable-background="new 104.5 314.5 50 50" xml:space="preserve">
<path d="M136.033,337.594c0.191,0.32,0.287,1.07,0.287,2.25c0,1.141-0.106,1.877-0.319,2.211s-0.683,0.502-1.409,0.502h-2.162
	v-5.443h2.256C135.393,337.113,135.842,337.273,136.033,337.594z M149.168,331.203v17.264c0,2.209-1.791,4-4,4h-29.754
	c-2.209,0-4-1.791-4-4v-17.264c0-2.209,1.791-4,4-4h29.754C147.377,327.203,149.168,328.994,149.168,331.203z M129.506,335.836
	h-1.518v3.264h-3.75v-3.264h-1.518v7.998h1.518v-3.457h3.75v3.457h1.518V335.836z M137.861,339.135c0-1.223-0.224-2.078-0.671-2.566
	s-1.229-0.732-2.347-0.732h-3.932v7.998h3.979c1.262,0,2.072-0.285,2.432-0.854S137.861,341.131,137.861,339.135z"/>
</svg>
