<?xml version="1.0" encoding="utf-8"?>
<!-- Generator: Adobe Illustrator 16.0.0, SVG Export Plug-In . SVG Version: 6.00 Build 0)  -->
<!DOCTYPE svg PUBLIC "-//W3C//DTD SVG 1.1//EN" "http://www.w3.org/Graphics/SVG/1.1/DTD/svg11.dtd">
<svg version="1.1" id="Layer_1" xmlns="http://www.w3.org/2000/svg" xmlns:xlink="http://www.w3.org/1999/xlink" x="0px" y="0px"
	 width="50px" height="50px" viewBox="104.5 314.5 50 50" enable-background="new 104.5 314.5 50 50" xml:space="preserve">
<path d="M144.834,356.667h-30.668c-1.381,0-2.5-1.119-2.5-2.5s1.119-2.5,2.5-2.5h30.668c1.381,0,2.5,1.119,2.5,2.5
	S146.215,356.667,144.834,356.667z M144.834,349.333h-30.668c-1.381,0-2.5-1.119-2.5-2.5s1.119-2.5,2.5-2.5h30.668
	c1.381,0,2.5,1.119,2.5,2.5S146.215,349.333,144.834,349.333z M144.834,341.999h-30.668c-1.381,0-2.5-1.119-2.5-2.5
	s1.119-2.5,2.5-2.5h30.668c1.381,0,2.5,1.119,2.5,2.5S146.215,341.999,144.834,341.999z M144.834,334.667h-30.668
	c-1.381,0-2.5-1.119-2.5-2.5s1.119-2.5,2.5-2.5h30.668c1.381,0,2.5,1.119,2.5,2.5S146.215,334.667,144.834,334.667z
	 M144.834,327.333h-30.668c-1.381,0-2.5-1.119-2.5-2.5s1.119-2.5,2.5-2.5h30.668c1.381,0,2.5,1.119,2.5,2.5
	S146.215,327.333,144.834,327.333z"/>
</svg>
