<?xml version="1.0" encoding="utf-8"?>
<!-- Generator: Adobe Illustrator 16.0.0, SVG Export Plug-In . SVG Version: 6.00 Build 0)  -->
<!DOCTYPE svg PUBLIC "-//W3C//DTD SVG 1.1//EN" "http://www.w3.org/Graphics/SVG/1.1/DTD/svg11.dtd">
<svg version="1.1" id="Layer_1" xmlns="http://www.w3.org/2000/svg" xmlns:xlink="http://www.w3.org/1999/xlink" x="0px" y="0px"
	 width="50px" height="50px" viewBox="174.5 314.5 50 50" enable-background="new 174.5 314.5 50 50" xml:space="preserve">
<path d="M214.834,327.333h-30.668c-1.381,0-2.5-1.119-2.5-2.5s1.119-2.5,2.5-2.5h30.668c1.381,0,2.5,1.119,2.5,2.5
	S216.215,327.333,214.834,327.333z M200.333,332.167c0-1.381-1.119-2.5-2.5-2.5h-13.667c-1.381,0-2.5,1.119-2.5,2.5
	s1.119,2.5,2.5,2.5h13.667C199.214,334.667,200.333,333.548,200.333,332.167z M217.334,339.499c0-1.381-1.119-2.5-2.5-2.5h-30.668
	c-1.381,0-2.5,1.119-2.5,2.5s1.119,2.5,2.5,2.5h30.668C216.215,341.999,217.334,340.88,217.334,339.499z M200.333,346.833
	c0-1.381-1.119-2.5-2.5-2.5h-13.667c-1.381,0-2.5,1.119-2.5,2.5s1.119,2.5,2.5,2.5h13.667
	C199.214,349.333,200.333,348.214,200.333,346.833z M217.334,354.167c0-1.381-1.119-2.5-2.5-2.5h-30.668c-1.381,0-2.5,1.119-2.5,2.5
	s1.119,2.5,2.5,2.5h30.668C216.215,356.667,217.334,355.548,217.334,354.167z"/>
</svg>
