<?xml version="1.0" encoding="utf-8"?>
<!-- Generator: Adobe Illustrator 16.0.0, SVG Export Plug-In . SVG Version: 6.00 Build 0)  -->
<!DOCTYPE svg PUBLIC "-//W3C//DTD SVG 1.1//EN" "http://www.w3.org/Graphics/SVG/1.1/DTD/svg11.dtd">
<svg version="1.1" id="Layer_1" xmlns="http://www.w3.org/2000/svg" xmlns:xlink="http://www.w3.org/1999/xlink" x="0px" y="0px"
	 width="50px" height="50px" viewBox="174.5 314.5 50 50" enable-background="new 174.5 314.5 50 50" xml:space="preserve">
<path d="M219.168,331.203v17.264c0,2.209-1.791,4-4,4h-29.754c-2.209,0-4-1.791-4-4v-17.264c0-2.209,1.791-4,4-4h29.754
	C217.377,327.203,219.168,328.994,219.168,331.203z M199.324,337.863c0-0.828-0.209-1.385-0.627-1.67s-1.229-0.428-2.432-0.428
	c-1.27,0-2.116,0.154-2.54,0.465s-0.636,0.934-0.636,1.867c0,0.914,0.176,1.51,0.527,1.787s1.16,0.453,2.426,0.527l0.838,0.053
	c0.473,0.027,0.78,0.104,0.923,0.23s0.214,0.385,0.214,0.771c0,0.523-0.094,0.857-0.281,1.002s-0.621,0.217-1.301,0.217
	c-0.871,0-1.404-0.063-1.6-0.188s-0.293-0.467-0.293-1.025l-0.006-0.17h-1.477l0.006,0.293c0,0.93,0.206,1.547,0.618,1.852
	s1.247,0.457,2.505,0.457c1.398,0,2.303-0.156,2.713-0.467s0.615-0.996,0.615-2.059c0-0.863-0.175-1.432-0.524-1.705
	s-1.12-0.443-2.312-0.51c-1.008-0.055-1.602-0.133-1.781-0.234s-0.27-0.404-0.27-0.908c0-0.426,0.11-0.705,0.331-0.838
	s0.69-0.199,1.409-0.199c0.609,0,0.996,0.057,1.16,0.172s0.264,0.398,0.299,0.848c0,0.035,0.004,0.09,0.012,0.164h1.482V337.863z
	 M204.551,343.834c1.262,0,2.072-0.285,2.432-0.854s0.539-1.85,0.539-3.846c0-1.223-0.224-2.078-0.671-2.566
	s-1.229-0.732-2.347-0.732h-3.932v7.998H204.551z M202.09,337.113h2.256c0.707,0,1.156,0.16,1.348,0.48s0.287,1.07,0.287,2.25
	c0,1.141-0.106,1.877-0.319,2.211s-0.683,0.502-1.409,0.502h-2.162V337.113z"/>
</svg>
