<?xml version="1.0" encoding="utf-8"?>
<!-- Generator: Adobe Illustrator 16.0.0, SVG Export Plug-In . SVG Version: 6.00 Build 0)  -->
<!DOCTYPE svg PUBLIC "-//W3C//DTD SVG 1.1//EN" "http://www.w3.org/Graphics/SVG/1.1/DTD/svg11.dtd">
<svg version="1.1" id="Layer_1" xmlns="http://www.w3.org/2000/svg" xmlns:xlink="http://www.w3.org/1999/xlink" x="0px" y="0px"
	 width="50px" height="50px" viewBox="244.5 314.5 50 50" enable-background="new 244.5 314.5 50 50" xml:space="preserve">
<path d="M252.975,333.219v-3.014c0-1.658,1.343-3,3-3h2.858l0.02-0.867c0.018-0.795,0.351-1.551,0.926-2.102
	c0.576-0.549,1.344-0.885,2.142-0.83l1.76,0.041c1.656,0.037,2.968,1.41,2.931,3.066l-0.016,0.691h7.488l0.02-0.867
	c0.018-0.795,0.351-1.551,0.926-2.102c0.575-0.549,1.352-0.885,2.142-0.83l1.76,0.041c1.656,0.037,2.968,1.41,2.931,3.066
	l-0.016,0.691h2.763c1.657,0,3,1.342,3,3v3.014H252.975z M287.607,335.139v14.326c0,1.656-1.343,3-3,3h-28.633c-1.657,0-3-1.344-3-3
	v-14.326H287.607z M267.512,338.615h-2.463l-3.324,3.098l1.161,1.258l2.675-2.652v8.582h1.951V338.615z M277.602,345.396
	c0-1.377-0.243-2.313-0.728-2.811s-1.402-0.746-2.754-0.746c-1.186,0-1.969,0.268-2.351,0.799h-0.037l0.022-2.479h5.401v-1.545
	h-7.21v5.508h1.763c0.121-0.477,0.791-0.715,2.012-0.715c0.839,0,1.374,0.109,1.605,0.328c0.23,0.217,0.347,0.721,0.347,1.51
	c0,1.01-0.103,1.623-0.31,1.842c-0.206,0.219-0.784,0.328-1.732,0.328c-0.854,0-1.391-0.082-1.609-0.244
	c-0.219-0.164-0.346-0.578-0.381-1.24h-1.905c0,1.201,0.267,2.01,0.799,2.426c0.532,0.418,1.567,0.627,3.104,0.627
	c1.558,0,2.607-0.246,3.149-0.736C277.33,347.758,277.602,346.807,277.602,345.396z"/>
</svg>
