<?xml version="1.0" encoding="utf-8"?>
<!-- Generator: Adobe Illustrator 16.0.0, SVG Export Plug-In . SVG Version: 6.00 Build 0)  -->
<!DOCTYPE svg PUBLIC "-//W3C//DTD SVG 1.1//EN" "http://www.w3.org/Graphics/SVG/1.1/DTD/svg11.dtd">
<svg version="1.1" id="Layer_1" xmlns="http://www.w3.org/2000/svg" xmlns:xlink="http://www.w3.org/1999/xlink" x="0px" y="0px"
	 width="50px" height="50px" viewBox="244.5 314.5 50 50" enable-background="new 244.5 314.5 50 50" xml:space="preserve">
<path d="M284.834,356.667h-30.668c-1.381,0-2.5-1.119-2.5-2.5s1.119-2.5,2.5-2.5h30.668c1.381,0,2.5,1.119,2.5,2.5
	S286.215,356.667,284.834,356.667z M287.334,346.833c0-1.381-1.119-2.5-2.5-2.5h-13.667c-1.381,0-2.5,1.119-2.5,2.5
	s1.119,2.5,2.5,2.5h13.667C286.215,349.333,287.334,348.214,287.334,346.833z M287.334,339.501c0-1.381-1.119-2.5-2.5-2.5h-30.668
	c-1.381,0-2.5,1.119-2.5,2.5s1.119,2.5,2.5,2.5h30.668C286.215,342.001,287.334,340.882,287.334,339.501z M287.334,332.167
	c0-1.381-1.119-2.5-2.5-2.5h-13.667c-1.381,0-2.5,1.119-2.5,2.5s1.119,2.5,2.5,2.5h13.667
	C286.215,334.667,287.334,333.548,287.334,332.167z M287.334,324.833c0-1.381-1.119-2.5-2.5-2.5h-30.668c-1.381,0-2.5,1.119-2.5,2.5
	s1.119,2.5,2.5,2.5h30.668C286.215,327.333,287.334,326.214,287.334,324.833z"/>
</svg>
