<?xml version="1.0" encoding="utf-8"?>
<!-- Generator: Adobe Illustrator 18.0.0, SVG Export Plug-In . SVG Version: 6.00 Build 0)  -->
<!DOCTYPE svg PUBLIC "-//W3C//DTD SVG 1.1//EN" "http://www.w3.org/Graphics/SVG/1.1/DTD/svg11.dtd">
<svg version="1.1" id="Capa_1" xmlns="http://www.w3.org/2000/svg" xmlns:xlink="http://www.w3.org/1999/xlink" x="0px" y="0px"
	 viewBox="0 142.6 612 520.4" enable-background="new 0 142.6 612 520.4" xml:space="preserve">
<g>
	<g>
		<path fill="#61F442" d="M315,435.8c1.5-8.7,4.8-17,10.1-24.4c4.2-5.8,9.4-10.6,15.1-14.5c-0.7-2.3-1.4-4.7-1.8-7.1
			c-2.6-15.6,1.3-30.8,9.5-43c-11.7-9-20.2-22.1-22.8-37.7c-1.7-10.1-0.4-20.2,2.9-29.6c0,0,0,0,0,0c-56.6-48.4-104-26.8-128.3-13.5
			c-12.7,7-21.9,10-27.8,11.3c-6,0.6-15.7,0.6-30-1.9c-27.3-4.9-79.1-10.4-117.4,53.5c-13,21.7-8.4,64,7,106.9L315,435.8L315,435.8
			L315,435.8z M92.7,315.5c17.7-9.6,33.5,17.4,15.8,27c-26.7,14.5-29.9,41.1-10.7,64.1c12.8,15.4-9.2,37.7-22.1,22.1
			C44.1,390.9,47.1,340.3,92.7,315.5z"/>
		<path fill="#61F442" d="M86.8,144.6c-14.2-9.1-25.2,15.1-11.1,24c40,25.6,69.6,38.4,78.3,87.7c2.9,16.7,29,14.1,26-2.7
			c-1-5.5-2.2-10.5-3.6-15.3c-8.3-2.7-18.1-9.8-24.3-27.7c-2.5-7.3-3-13.7-2-19.5C133.9,173.9,112.4,161,86.8,144.6z"/>
		<path fill="#830096" d="M375.6,435.8c-9-3.5-17-9.1-23.3-16.3c-2.8-3.2-5.3-6.7-7.4-10.5c-3.6,2.8-7,5.9-9.8,9.8
			c-3.7,5.2-6.3,11-7.7,17.1h22.2H375.6z"/>
		<path fill="#010002" d="M425,435.8c-0.2-0.4-0.4-0.8-0.6-1.2c-0.8,0.4-1.5,0.8-2.3,1.2H425z"/>
		<path fill="#830096" d="M415.4,350.1c-6.6,4.1-13.9,6.8-21.8,8.1c-3.2,0.5-6.5,0.8-9.7,0.8c-9.1,0-17.6-2.2-25.3-5.8
			c-1.4,2-2.6,4.2-3.7,6.4c-4.1,8.5-5.8,18.2-4.2,28.1c0.2,1.1,0.5,2,0.8,3.1c0.5,2.1,1,4.1,1.7,6.1c0.4,0.9,0.8,1.8,1.2,2.7
			c0.4,1,0.8,2,1.4,3c8,14.9,23.6,24.7,41.3,24.7c2.6,0,5.1-0.2,7.7-0.6c3.5-0.6,6.8-1.6,10.1-2.9c1.7-0.7,3.3-1.5,4.9-2.4
			c-0.2-1-0.6-1.9-0.7-2.9c0-0.2-0.1-0.3-0.1-0.4c-0.6-3.8-0.8-7.5-0.7-11.2c0.3-11.7,4-23,10.9-32.7
			C422.8,367.4,418.1,359.3,415.4,350.1z"/>
		<path fill="#830096" d="M431.3,416c0.1,0.8,0.4,1.5,0.6,2.2c0.1,0.6,0.3,1.3,0.5,1.9c0.4,1.4,0.6,2.8,1.1,4.1
			c0.3,0.8,0.7,1.4,1,2.2c0.5,1.2,1,2.4,1.6,3.5c1,2,2.2,3.9,3.6,5.8h33h10h9.1h24.4c0.6-0.8,1-1.8,1.5-2.6
			c-14-8.8-24.1-23.3-27-40.7c-0.1-0.9-0.1-1.7-0.2-2.6c-2.8,0.9-5.6,1.8-8.5,2.3c-3.2,0.5-6.5,0.8-9.7,0.8c-5.8,0-11.3-1-16.6-2.6
			c-2.1-0.6-4.1-1.2-6-2c-2-0.8-4-1.8-5.9-2.8c-1.8-1-3.5-2.1-5.1-3.2c-6,9-8.6,19.6-7.6,30.3C431.2,413.8,431.1,414.9,431.3,416z"
			/>
		<path fill="#830096" d="M413.7,323c2.1-12.2,8-23.3,16.6-31.9c-4-22.5-23.4-38.8-46.3-38.8c-2.6,0-5.1,0.2-7.7,0.6
			c-12.4,2-23.3,8.8-30.7,19c-4.2,5.8-6.8,12.5-8,19.3c-0.9,5.2-1.1,10.5-0.3,15.8c1.8,10.7,7.1,20,14.5,26.9
			c1.2,1.1,2.5,2.2,3.9,3.2c1.7,1.3,3.5,2.5,5.4,3.5c2.1,1.1,4.2,2.2,6.4,3c5.1,1.9,10.5,2.9,16.2,2.9c2.6,0,5.1-0.2,7.7-0.6
			c7.9-1.3,15.1-4.7,21.3-9.5c0-0.2,0-0.5,0-0.7c-0.1-2.1-0.1-4.3,0.1-6.4C413.1,327.2,413.4,325.1,413.7,323z"/>
		<path fill="#830096" d="M441.7,369.1c0.4,0.4,1,0.7,1.4,1c1.2,1,2.5,1.9,3.9,2.7c1,0.7,2.1,1.3,3.1,1.8c2.1,1.1,4.2,2.1,6.4,2.9
			c5,1.8,10.3,2.8,15.8,2.8c2.6,0,5.1-0.2,7.7-0.6c3.7-0.6,7.1-1.7,10.5-3.1c0.4-4.4,1.4-8.6,2.8-12.8c0.6-1.9,1.1-3.9,2-5.7
			c0.9-2,2.2-3.9,3.3-5.8c0.9-1.5,1.6-3,2.6-4.4c4.9-6.8,11.1-12.3,18.2-16.5c-0.1-1.9-0.1-3.9-0.4-5.8c-2.7-16.4-13.6-29.5-28-35.7
			c0.5-2,1.1-4,1.8-6c0.6-2,1.4-4,2.1-6c13.2-34.4,42.2-59.2,73.7-78.8c13-8.1,3.1-30.1-10.1-21.9c-38.9,24.3-72.5,53.9-87.4,96.5
			c-0.8,2.1-1.4,4.3-2.1,6.5c-0.6,2.1-1.2,4.2-1.8,6.3c-0.8,0.1-1.6,0.1-2.3,0.2c-8.2,1.3-15.4,4.9-21.5,9.8c-2.2,1.7-4.2,3.7-6,5.8
			c-6.3,7.1-10.3,16-11.4,25.6c-0.2,1.6-0.4,3.3-0.4,4.9c0,0.8,0.1,1.6,0.1,2.3c0.1,1.9,0,3.8,0.4,5.8c0,0.2,0.1,0.4,0.1,0.6
			c0.1,0.6,0.3,1.2,0.5,1.8c1.8,8.2,5.5,15.4,10.8,21.3C438.7,366.2,440.1,367.7,441.7,369.1z"/>
		<path fill="#830096" d="M528.4,424.8c1.9,0.9,3.7,1.8,5.7,2.5c4.9,1.7,10,2.7,15.4,2.7c2.6,0,5.1-0.2,7.7-0.6
			c12.4-2,23.3-8.8,30.7-19c7.3-10.2,10.3-22.7,8.2-35.1c-3.8-22.9-23.3-39.5-46.5-39.5c-2.6,0-5.1,0.2-7.7,0.6
			c-3.7,0.6-7.1,1.7-10.5,3.1c-2.3,1-4.6,2-6.8,3.3c-3,1.9-5.7,4.2-8.3,6.7c-1.8,1.8-3.6,3.7-5.2,5.9c-0.6,0.9-1,1.8-1.6,2.8
			c-1.1,1.8-2.3,3.6-3.2,5.6c-0.4,1-0.7,2.1-1.1,3.1c-0.4,1-0.7,2-1,3c-0.7,2.3-1.1,4.7-1.4,7.1c-0.3,2.6-0.5,5.2-0.4,7.8
			c0.1,2,0.1,3.9,0.4,5.9c2.1,13.1,9.6,24.1,19.8,31.1C524.7,422.7,526.5,423.8,528.4,424.8z"/>
		<path fill="#61F442" d="M522.2,256.8c-35.2,60.9,62.5,67.3,89.8,41.5C612,298.3,557.3,195.9,522.2,256.8z"/>
		<path fill="#F0F0F0" d="M297.1,663c164.1,0,297.1-41.7,297.1-216.8h-70.6h-8.3h-9.7h-6.3h-7.5h-7.6h-34.4h-9.5H433h-1.4h-4.9h-6.2
			h-9.8H403h-7.2h-48.3h-21h-6.2H314H35.4H0C0,621.3,133,663,297.1,663z"/>
		<path fill="#61F442" d="M237.2,178.3c-7.1-1.1-20.2-2.8-33.7-2.8c-21.3,0-35.5,4.1-41,11.8c-3.1,4.4-3.4,10.3-1.2,17.9
			c0.2,0.7,0.3,1.3,0.5,2c2.4,7,5.5,12.3,9.2,16c4.1,4.2,9,6.3,14.6,6.3C205.3,229.5,229.5,204.9,237.2,178.3z"/>
	</g>
</g>
</svg>
