<?xml version="1.0" encoding="utf-8"?>
<!-- Generator: Adobe Illustrator 18.0.0, SVG Export Plug-In . SVG Version: 6.00 Build 0)  -->
<!DOCTYPE svg PUBLIC "-//W3C//DTD SVG 1.1//EN" "http://www.w3.org/Graphics/SVG/1.1/DTD/svg11.dtd">
<svg version="1.1" id="Capa_1" xmlns="http://www.w3.org/2000/svg" xmlns:xlink="http://www.w3.org/1999/xlink" x="0px" y="0px"
	 viewBox="0.2 202.8 595.2 436.2" enable-background="new 0.2 202.8 595.2 436.2" xml:space="preserve">
<g>
	<g>
		<path fill="#EEEEEE" d="M489.3,521.5c-5.1,0-9.6,2-12.6,5.6c-2.7,3.1-4.2,7.3-4.2,11.6c0,8.3,5.9,17.2,16.8,17.2
			c5.1,0,9.6-2,12.7-5.6c2.7-3.1,4.2-7.3,4.2-11.6C506.2,530.5,500.3,521.5,489.3,521.5z"/>
		<path fill="#EEEEEE" d="M506.3,487.8c-2.7,3.1-4.2,7.3-4.2,11.6c0,8.3,5.9,17.2,16.8,17.2c5.1,0,9.6-2,12.7-5.7
			c2.7-3.1,4.2-7.3,4.2-11.6c0-8.3-5.9-17.2-16.8-17.2C513.8,482.2,509.3,484.2,506.3,487.8z"/>
		<path fill="#EEEEEE" d="M501.7,439.6c-2.7,3.1-4.2,7.3-4.2,11.6c0,8.3,5.9,17.2,16.8,17.2c5.1,0,9.6-2,12.7-5.6
			c2.7-3.1,4.2-7.3,4.2-11.6c0-8.3-5.9-17.2-16.8-17.2C509.3,434.1,504.8,436,501.7,439.6z"/>
		<path fill="#EEEEEE" d="M485.4,483.5c0-8.3-5.9-17.2-16.8-17.2c-5.1,0-9.6,2-12.7,5.6c-2.7,3.1-4.2,7.3-4.2,11.6
			c0,8.3,5.9,17.2,16.8,17.2c5.1,0,9.6-2,12.7-5.6C484,492,485.4,487.9,485.4,483.5z"/>
		<path fill="#EEEEEE" d="M285.2,523.3c5.1,0,9.6-2,12.7-5.6c2.7-3.1,4.2-7.3,4.2-11.6c0-8.3-5.9-17.2-16.8-17.2
			c-5.1,0-9.6,2-12.7,5.6c-2.7,3.1-4.2,7.3-4.2,11.6C268.3,514.4,274.2,523.3,285.2,523.3z"/>
		<path fill="#EEEEEE" d="M312.9,435.5c5.1,0,9.6-2,12.7-5.6c2.7-3.1,4.2-7.2,4.2-11.6c0-8.3-5.9-17.2-16.9-17.2
			c-5.1,0-9.6,2-12.6,5.6c-2.7,3.1-4.2,7.3-4.2,11.6C296.1,426.6,302,435.5,312.9,435.5z"/>
		<path fill="#EEEEEE" d="M308.5,452.1c-2.7,3.1-4.2,7.3-4.2,11.6c0,8.3,5.9,17.2,16.8,17.2c5.1,0,9.6-2,12.7-5.6
			c2.7-3.1,4.2-7.3,4.2-11.6c0-8.3-5.9-17.2-16.9-17.2C316,446.6,311.5,448.5,308.5,452.1z"/>
		<path fill="#EEEEEE" d="M244.5,524.7c5.1,0,9.6-2,12.7-5.6c2.7-3.1,4.2-7.3,4.2-11.6c0-8.3-5.9-17.2-16.9-17.2
			c-5.1,0-9.6,2-12.7,5.6c-2.7,3.1-4.2,7.3-4.2,11.6C227.7,515.9,233.6,524.7,244.5,524.7z"/>
		<path fill="#EEEEEE" d="M446.1,512.2c-5.1,0-9.6,2-12.7,5.6c-2.7,3.1-4.2,7.3-4.2,11.6c0,8.3,5.9,17.2,16.9,17.2
			c5.1,0,9.6-2,12.6-5.6c2.7-3.1,4.2-7.3,4.2-11.6C462.9,521.1,457,512.2,446.1,512.2z"/>
		<path fill="#EEEEEE" d="M475.8,449.7c5.1,0,9.6-2,12.7-5.6c2.7-3.1,4.2-7.3,4.2-11.6c0-8.3-5.9-17.2-16.9-17.2
			c-5.1,0-9.6,2-12.6,5.6c-2.7,3.1-4.2,7.2-4.2,11.6C459,440.8,464.9,449.7,475.8,449.7z"/>
		<path fill="#FFE59C" d="M544.5,364.7c-31.9-52.1-76.1-95.5-134.6-116.4c-61.3-22.1-118-12.3-166.3,16.4
			c-4.2-3.6-8.6-8.1-12.8-13.7c3.5-14.3,1.4-26.6-6.2-35.1c-7.4-8.3-19.1-13.2-31.1-13.2c-13.1,0-22.6,3.5-29.6,13
			c-4.7,6.4-8.9,17.4-10.1,27.4c-15.7,2.7-31.1,11.7-35.5,25.7c-4.2,13.4,2,29,15.6,37.4c14.8,9,42.6,2.2,44.5,1.7
			c0.5,0.2,4.5,2.7,7.6,4.7c-15,16.4-30.1,34.8-39.5,50.2c-5.3-2.1-19.8-9.6-32.6-26.3c3.5-14.3,1.4-26.6-6.1-35.1
			c-7.4-8.3-19.1-13.2-31.1-13.2c-13.1,0-22.6,3.5-29.6,13c-4.7,6.4-8.9,17.4-10.1,27.3c-15.7,2.7-31.1,11.7-35.5,25.7
			c-4.2,13.4,2,29,15.6,37.4c14.8,9,42.6,2.2,44.5,1.7c0.7,0.3,1.4,0.8,2.2,1.3c2.4,1.5,8.3,5,9.3,6.2c0.2,0.7,0.2,0.8-0.1,2
			c-1.3,3.8-1.6,8.1,3.5,13.7c3.7,3.9,8.9,6.6,13.9,9c3.2,1.6,6.4,3.1,8.6,4.9c4.3,3.4,8.4,7.1,12.4,10.9
			c-24.1,44.5-34.8,114.2,5.2,152.1c28.7,27.2,79.7,32.7,117.1,39c52.4,8.7,110.8,7.6,163.7,2.9c66.5-5.9,147.7-18.4,184.1-79.5
			C617.1,495.3,577,417.4,544.5,364.7z M157,286.6c-6.8,0-13.5-2.8-12.5-9.1c1.4-8.7,13.4-12.8,24.8-10.3
			c6.7,1.5,17.7-5.4,14.2-15.7c-4.2-9.5-4.2-17.8,3.8-21.2c8.1-3.5,14.1-0.3,16.3,2.4c3,3.9,2.8,9.5-0.6,17.9
			c-1.5,3.8-1.3,8,0.7,11.5c0.9,2.5,12.1,11.2,15.6,14.7c-5.2,5.1-10.8,10.8-16.4,16.7c-4.7-3.6-9.1-8.1-14.7-10.8
			C180.6,278.8,162,286.6,157,286.6z M86.1,378.7c-4.7-3.6-9.1-8.1-14.7-10.8c-7.6-3.7-26.4,4-31.2,4c-6.8,0-13.5-2.8-12.5-9.1
			c1.4-8.7,13.4-12.8,24.8-10.3c6.7,1.5,17.7-5.4,14.2-15.7c-4.2-9.5-4.2-17.8,3.8-21.2c8.1-3.5,14.1-0.3,16.3,2.4
			c3,3.9,2.8,9.5-0.6,17.9c-1.5,3.8-1.3,8,0.7,11.5c0.9,2.5,12.1,11.2,15.6,14.7C97.3,367.2,91.6,372.8,86.1,378.7z M102.3,401.2
			l19.8-21.2c11.2,8.3,24,12.4,38.9,12.4c13.2,0,26.7-3.1,39.6-6.2c32.3-8,58.7-10.3,81.2-7.2c21.2,2.9,48.9,12.4,60.9,41.3
			c11.9,29,6.9,61.4-13,84.5c-20.5,23.6-50.4,35.1-78.4,29.6c-21.2-4.2-40.4-16.2-58.5-36.7c-8.4-9.6-16.5-20-24.4-30.1
			C149.1,443.1,129.6,417.9,102.3,401.2z M530.5,572.8c-43,28.2-118.6,38.1-169.7,40c-76.7,3-199.1-8.9-231.9-41.2
			c-14.1-13.9-24.3-62.7,0.1-110.1c5.6,6.8,10.9,13.8,16.1,20.7c17.5,23.1,35.6,47,61.4,62.6c17.8,10.9,38.2,16.5,58.9,16.5l0,0
			c39.7,0,75.2-20.4,95.1-54.6c16.3-28.1,19.2-62.7,7.8-92.4c-10.8-27.8-32.2-48-60.4-57c-23-7.3-49.5-8.3-84.9-2.9
			c-7.9,1.3-16,3.2-23.8,5.2c-7.8,2-15.7,3.8-23.5,5c54.3-78,143.4-133.4,238.8-87.2c41.2,19.9,83.9,67.6,110,104
			C562.7,434.7,599.1,527.8,530.5,572.8z"/>
	</g>
</g>
</svg>
