<?xml version="1.0" encoding="utf-8"?>
<!-- Generator: Adobe Illustrator 18.0.0, SVG Export Plug-In . SVG Version: 6.00 Build 0)  -->
<!DOCTYPE svg PUBLIC "-//W3C//DTD SVG 1.1//EN" "http://www.w3.org/Graphics/SVG/1.1/DTD/svg11.dtd">
<svg version="1.1" id="Capa_1" xmlns="http://www.w3.org/2000/svg" xmlns:xlink="http://www.w3.org/1999/xlink" x="0px" y="0px"
	 viewBox="0 0 535.4 535.4" enable-background="new 0 0 535.4 535.4" xml:space="preserve">
<g>
	<g id="Layer_2_1_">
		<path fill="#F9EC55" d="M40.5,378.6c18.1,14.3,37.1,26.8,56.5,37.6c25.7-33.3,40.4-64.3,49.4-92.9c-25.2,2.2-53.3,2-85.4-1.6
			C40.2,317.3-11.9,337,40.5,378.6z"/>
		<path fill="#F9EC55" d="M489.4,417.5c54.9-35.5,20.6-114.2-26.8-156.3c-11.7-10.4-22.4-18.1-32.3-23.6
			c-13,66.6-48.8,132.8-102.3,188.3c-14.8,15.4-30.7,29.6-47.3,42.5C358.7,472.3,433.2,453.9,489.4,417.5z M444.4,276.6
			c9.3-4.2,24.7,10,34.5,31.6c9.8,21.7,10.1,42.6,0.9,46.8s-24.7-10-34.5-31.6S435.2,280.8,444.4,276.6z"/>
		<path fill="#02B202" d="M63.8,480.8c-15.1,11.7-31.6,54.6,11.4,54.6c5.3,0,11.4-0.6,18.6-2.1c59.2-11.8,112.4-35.7,157.8-67.3
			c87-60.6,145.1-149.5,160.8-236.2c0.8-4.4,1.5-8.7,2-13c4.3-32.5-14.3-54.9-41.7-68.1c-5.8,7.4-11.9,14.4-18.4,21
			c5,4.8,7.5,9.7,6.3,13.9c-2.8,9.8-23.6,12.3-46.4,5.7c-22.8-6.6-39-19.9-36.2-29.7c2-6.8,12.7-10,26.7-9.2c1.9-4.5,4-9.9,6.2-16.1
			c-2.5-0.1-5-0.2-7.5-0.2c-8.6,0-17,0.6-25.2,1.7c-116.3,16.5-82.1,84.6-110.8,185c-9.1,31.7-24.6,66.7-53,104.2
			C100.6,443.1,84.1,461.7,63.8,480.8z"/>
		<path fill="#55C918" d="M323.8,125.8c-1,3.2-2.1,6.3-3.1,9.3c-2.2,6.2-4.3,11.8-6.2,16.6c-5,12.4-8.8,19.5-8.8,19.5l24.1,7.5
			c5.9-4.5,11.5-9.6,16.9-15c5.9-5.9,11.5-12.3,16.8-19c2-2.6,4-5.2,6-7.8c1.9-2.6,3.8-5.3,5.7-7.9c35.6-51.4,54.6-110.8,54.6-110.8
			C418.7,6.3,400.3,0,382.1,0c-16.4,0-32.5,5.1-43.1,16c2.2,37.6-4.5,73-12.5,100.6C325.6,119.7,324.7,122.8,323.8,125.8z"/>
	</g>
</g>
</svg>
