<?xml version="1.0" encoding="utf-8"?>
<!-- Generator: Adobe Illustrator 18.0.0, SVG Export Plug-In . SVG Version: 6.00 Build 0)  -->
<!DOCTYPE svg PUBLIC "-//W3C//DTD SVG 1.1//EN" "http://www.w3.org/Graphics/SVG/1.1/DTD/svg11.dtd">
<svg version="1.1" id="Capa_1" xmlns="http://www.w3.org/2000/svg" xmlns:xlink="http://www.w3.org/1999/xlink" x="0px" y="0px"
	 viewBox="15.9 90 580.1 612" enable-background="new 15.9 90 580.1 612" xml:space="preserve">
<g>
	<g>
		<path fill="#EEEEEE" d="M35.8,131.2c15.5,0.9,30.5,3.2,43,10.9C56.9,171.2,38.2,203.3,39.7,243c0.5,13.7,9.5,22.5,22.9,22.5
			c2.5,0,5.1-0.4,7.6-1c0.9,4.2,2,8.3,3.3,12.3l0,0c0,0,0.1,0.2,0.1,0.2c2.1,6,4.8,11.9,7.9,17.8c21.5,46.4,87.2,175.6,200.7,299
			c15.4,19.3,32.3,36.4,50.1,50.9c0.1,0,0.1,0.1,0.1,0.1v0c67.1,54.7,146,73.8,198.7,41.5c70.1-43,93-170.3,19.5-272.2
			c-31.1-43.1-83.3-77.1-123-98.1l0,0c-0.1-0.1-0.3-0.1-0.4-0.2c-11.3-5.9-22.6-10.8-33.8-14.7c-73-36.7-93.9-83.3-93.9-83.3h0
			c-3.8-10.5-9.1-20.7-16.2-30.5c-0.8-1.1-1.7-2-2.5-3.1c2.8-3.7,4.9-7.9,5.9-12.6c2.6-12.5-3.3-23.6-15.5-29
			c-38.5-16.9-79.3-24.8-128.4-24.8c-8.1,0-16.4,0.2-24.7,0.6c-0.9,0.1-1.7,0.2-2.5,0.3c-21-20.9-50.9-27-79.9-28.7
			C9.3,88.5,9.4,129.7,35.8,131.2z M297.8,296.2l0.6,0.8c-0.4,0.1-0.7,0.2-1.1,0.4C297.5,297,297.6,296.6,297.8,296.2z M317.9,307.2
			c99.3,51.2,215.4,89.8,233.7,215.2c2.9,19.5-26.9,27.9-29.8,8.2c-17-116.3-128.1-149.6-219.5-196.8
			C284.5,324.7,300.2,298.1,317.9,307.2z M153.6,133.4c25,0.6,47.8,3.5,69.1,8.8c14.7,3.7,28.7,8.5,42.4,14.5
			c5.5,2.4,7.7,6.3,6.6,11.6c-0.3,1.3-0.8,2.6-1.4,3.8c-2.6,5.2-8.1,9.7-14.6,9.7c-2.1,0-4.3-0.5-6.4-1.4
			c-8.1-3.6-16.9-6.7-26.9-9.4l-23.3-6.6l16.7,20.7c1.1,1.3,2.2,2.7,3.3,4.2c2.8,4.1,3.3,8,1.3,11.7c-2.5,4.8-8.6,8.2-14.6,8.2
			c-3.4,0-8.2-1.1-11.9-6.5c-13.6-19.9-37.8-27.7-54.7-31.8l-4.4-1.1l-3.1,3.3c-27.9,30.2-16.6,62.9-3.6,88c3.1,6,1.6,10.9-0.2,13.8
			c-2.9,4.8-8.5,8.1-13.8,8.1c-4.4,0-7.8-2.3-10.2-6.9c-2.1-4-4.3-12.6-6.1-19.5c-1.3-5.1-2.6-9.9-3.7-13.1l-4.6-12.6l-8.6,10.2
			c-3,3.6-8.1,6.6-13,7.9c-1.8,0.5-3.6,0.8-5.3,0.8c-5.2,0-7.3-2.2-7.5-7.7c-1.3-34.6,15.6-63.6,35.6-90.3c0.4,0.5,0.9,0.9,1.4,1.4
			c2,2.4,4.2,4.1,6.4,5.2c11.9,6,25.8-4.8,27.6-18c0.3-2.3,0.2-4.7-0.3-7.1c5.8-0.2,11.6-0.4,17.3-0.4
			C146.6,133.2,150.1,133.4,153.6,133.4z M228,358.4l-0.3-0.4c0.2-0.1,0.4-0.1,0.6-0.2C228.2,358.1,228.1,358.3,228,358.4z"/>
	</g>
</g>
</svg>
