<?xml version="1.0" encoding="utf-8"?>
<!-- Generator: Adobe Illustrator 18.0.0, SVG Export Plug-In . SVG Version: 6.00 Build 0)  -->
<!DOCTYPE svg PUBLIC "-//W3C//DTD SVG 1.1//EN" "http://www.w3.org/Graphics/SVG/1.1/DTD/svg11.dtd">
<svg version="1.1" id="Layer_1" xmlns="http://www.w3.org/2000/svg" xmlns:xlink="http://www.w3.org/1999/xlink" x="0px" y="0px"
	 viewBox="0 123.3 595.3 595.3" enable-background="new 0 123.3 595.3 595.3" xml:space="preserve">
<path fill="#ABFCA2" d="M168.1,194.3h-64.8c-19.4,0-32.4,13-32.4,32.4v64.8c0,19.4,13,32.4,32.4,32.4h64.8c19.4,0,32.4-13,32.4-32.4
	v-64.8C200.5,207.3,187.6,194.3,168.1,194.3z M330,194.3h-64.8c-19.4,0-32.4,13-32.4,32.4v64.8c0,19.4,13,32.4,32.4,32.4H330
	c19.4,0,32.4-13,32.4-32.4v-64.8C362.4,207.3,349.4,194.3,330,194.3z M491.9,194.3h-64.8c-19.4,0-32.4,13-32.4,32.4v64.8
	c0,19.4,13,32.4,32.4,32.4h64.8c19.4,0,32.4-13,32.4-32.4v-64.8C524.3,207.3,511.3,194.3,491.9,194.3z M168.1,356.2h-64.8
	c-19.4,0-32.4,13-32.4,32.4v64.8c0,19.4,13,32.4,32.4,32.4h64.8c19.4,0,32.4-13,32.4-32.4v-64.8
	C200.5,369.1,187.6,356.2,168.1,356.2z M330,356.2h-64.8c-19.4,0-32.4,13-32.4,32.4v64.8c0,19.4,13,32.4,32.4,32.4H330
	c19.4,0,32.4-13,32.4-32.4v-64.8C362.4,369.1,349.4,356.2,330,356.2z M491.9,356.2h-64.8c-19.4,0-32.4,13-32.4,32.4v64.8
	c0,19.4,13,32.4,32.4,32.4h64.8c19.4,0,32.4-13,32.4-32.4v-64.8C524.3,369.1,511.3,356.2,491.9,356.2z M168.1,518.1h-64.8
	C84,518.1,71,531,71,550.5v64.8c0,19.4,13,32.4,32.4,32.4h64.8c19.4,0,32.4-13,32.4-32.4v-64.8C200.5,531,187.6,518.1,168.1,518.1z
	 M330,518.1h-64.8c-19.4,0-32.4,13-32.4,32.4v64.8c0,19.4,13,32.4,32.4,32.4H330c19.4,0,32.4-13,32.4-32.4v-64.8
	C362.4,531,349.4,518.1,330,518.1z M491.9,518.1h-64.8c-19.4,0-32.4,13-32.4,32.4v64.8c0,19.4,13,32.4,32.4,32.4h64.8
	c19.4,0,32.4-13,32.4-32.4v-64.8C524.3,531,511.3,518.1,491.9,518.1z"/>
</svg>
