<?xml version="1.0" encoding="utf-8"?>
<!-- Generator: Adobe Illustrator 18.0.0, SVG Export Plug-In . SVG Version: 6.00 Build 0)  -->
<!DOCTYPE svg PUBLIC "-//W3C//DTD SVG 1.1//EN" "http://www.w3.org/Graphics/SVG/1.1/DTD/svg11.dtd">
<svg version="1.1" id="Capa_1" xmlns="http://www.w3.org/2000/svg" xmlns:xlink="http://www.w3.org/1999/xlink" x="0px" y="0px"
	 viewBox="6.5 0 367.8 363.8" enable-background="new 6.5 0 367.8 363.8" xml:space="preserve">
<g>
	<g>
		<path fill="#F0F0F0" d="M6.5,231h12.3c-11.1,73.9,63.9,118.4,93.1,132.8h94.7c29.2-14.4,104.2-58.9,93.1-132.8h12.3v-30.5H6.5V231
			z M44.8,243.4c0.1-2.7,0.9-4.9,1.2-6.8c0.8-3.7,1.4-5.9,1.4-5.9s0.6,2.1,1.4,5.9c0.4,1.8,0.7,4.2,1.4,6.7c0.8,2.4,1.8,5.1,2.6,7.9
			c1,2.8,2.7,5.8,3.9,9c1.3,3.2,3.5,6.2,5.1,9.6c1.8,3.3,4.3,6.4,6.3,9.8c2.5,3.1,4.7,6.5,7.3,9.6c2.6,3.1,5,6.4,7.8,9.3
			c2.7,3,5.3,6.1,8,8.8c5.3,5.7,10.5,10.8,15,15.3c9.1,9.1,15.2,15.2,15.2,15.2s-8.6-2.2-20.1-8.7c-5.7-3.2-12.2-7.4-18.6-12.7
			c-6.5-5.1-12.6-11.6-18.4-18.5c-2.8-3.5-5.2-7.4-7.7-11c-2.2-3.9-4.2-7.8-5.9-11.7c-1.5-4-3.1-7.8-3.9-11.6
			c-0.8-3.9-1.6-7.4-1.8-10.9C44.7,249.2,44.8,246.1,44.8,243.4z"/>
		<path fill="#FDF0FF" d="M338.3,35.8C328.5,26,313.8,11.1,302.7,0c-23.4,7.9-42.3,32.8-42.7,56.5c-0.5,24.4-49.8,52.4-49.8,52.4
			l0.1,0.1c-0.3,0.2-0.6,0.4-0.8,0.7c-5.8,5.8,1.9,23,17.1,38.4c15.3,15.4,32.4,23.3,38.2,17.5c0.4-0.4,0.7-0.8,0.9-1.3l0,0
			c0,0,27.8-49.2,52.2-50.1c19.1-0.7,48.5-19.6,56.3-42.9C363.1,60.2,348.1,45.5,338.3,35.8z M223.6,127.6c-2.7-2.7-3.7-6-2.3-7.5
			c1.4-1.4,4.8-0.4,7.5,2.3c2.7,2.7,3.7,6,2.3,7.5C229.7,131.2,226.3,130.2,223.6,127.6z M237,147.4c-1.4,1.4-4.8,0.4-7.5-2.3
			c-2.7-2.7-3.7-6-2.3-7.5c1.4-1.5,4.8-0.4,7.5,2.2C237.4,142.7,238.4,146,237,147.4z M252,150.6c-1.4,1.4-4.8,0.4-7.5-2.3
			c-2.7-2.7-3.7-6-2.3-7.5c1.4-1.5,4.8-0.4,7.5,2.3C252.4,145.8,253.4,149.1,252,150.6z M357.8,76.8c-0.8,1.3-1.8,2.9-3,4.7
			c-1.2,1.9-2.9,3.6-4.7,5.6c-0.9,1-1.8,2.1-2.9,3.1c-1.1,0.9-2.4,1.8-3.6,2.8c-2.4,2.1-5.4,3.6-8.6,5.1c-3.2,1.3-6.6,2.7-10.2,3.2
			c-3.5,0.8-7.1,0.9-10.3,1.5c-2.5,0.6-5.6,2.1-8.5,3.6c-2.9,1.7-5.8,3.2-8.4,5c-2.7,1.7-5.3,3.4-7.7,5.1c-2.5,1.6-4.6,3.4-6.7,4.9
			c-2.1,1.5-3.8,3-5.5,4.3c-1.7,1.3-3.1,2.5-4.1,3.6c-2.2,2.2-3.5,3.3-3.5,3.3s0.8-1.6,2.4-4.2c0.8-1.3,1.8-2.8,3.2-4.5
			c1.3-1.7,2.8-3.8,4.8-5.6c1.9-1.9,3.8-4.1,6.2-6c2.3-2,4.7-4.2,7.4-6.1c2.7-2,5.6-4,8.6-5.8c3.2-1.7,6.3-3.5,10.5-4.6
			c3.7-0.6,7.1-0.6,10.3-1.3c3.2-0.4,6.2-1.3,9.1-2.2c2.8-1.3,5.6-2.2,8-3.8c2.4-1.4,4.8-2.8,6.7-4.5c1.9-1.7,4-2.9,5.4-4.4
			c1.5-1.5,2.8-2.8,3.8-3.9c2.2-2.2,3.5-3.3,3.5-3.3S359.4,74.2,357.8,76.8z"/>
		<path fill="#FFFFFF" d="M195.9,140.5c4.8,0,8.6,3.4,8.6,7.7c0,4.2-3.9,7.7-8.6,7.7s-8.6-3.4-8.6-7.7
			C187.2,143.9,191.1,140.5,195.9,140.5z"/>
		<path fill="#FFFFFF" d="M224.3,163c4.8,0,8.6,3.4,8.6,7.7c0,4.2-3.9,7.7-8.6,7.7s-8.6-3.4-8.6-7.7
			C215.7,166.4,219.6,163,224.3,163z"/>
		<ellipse fill="#FFFFFF" cx="188.7" cy="184.2" rx="8.6" ry="7.7"/>
	</g>
</g>
</svg>
