<?xml version="1.0" encoding="utf-8"?>
<!-- Generator: Adobe Illustrator 18.0.0, SVG Export Plug-In . SVG Version: 6.00 Build 0)  -->
<!DOCTYPE svg PUBLIC "-//W3C//DTD SVG 1.1//EN" "http://www.w3.org/Graphics/SVG/1.1/DTD/svg11.dtd">
<svg version="1.1" id="Capa_1" xmlns="http://www.w3.org/2000/svg" xmlns:xlink="http://www.w3.org/1999/xlink" x="0px" y="0px"
	 viewBox="49.2 90 513.7 612" enable-background="new 49.2 90 513.7 612" xml:space="preserve">
<g>
	<path fill="#EEEEEE" d="M432.1,367.4l-169-267.6c-8.5-12.7-19.4-12.5-30.9-1.9L57.4,253.1c-11.5,10.4-10.4,22.5-0.3,31.5l243.5,203
		l0,0c14.4,10.9,27.5,9.7,38,0.6l93-85.9C442.1,392.6,441.8,383.1,432.1,367.4z M395.8,383l-73.3,67.8c-8.2,7.2-18.6,8.1-30-0.5
		l-192-160.1c-8-7.1-8.9-16.6,0.2-24.8l137.8-122.4c9.1-8.4,17.7-8.6,24.3,1.5l133.3,211C403.8,367.9,404,375.4,395.8,383z"/>
	<path fill="#FFFFFF" d="M448.9,410.4L345.2,506C398.2,545.2,488.4,470.7,448.9,410.4z M397.1,511c-3.9,0-7-3.1-7-7c0-3.9,3.1-7,7-7
		c3.9,0,7,3.1,7,7C404.1,507.9,401,511,397.1,511z M427.3,491.1c-3.9,0-7-3.1-7-7c0-3.9,3.1-7,7-7c3.9,0,7,3.1,7,7
		C434.3,488,431.1,491.1,427.3,491.1z M446.7,461.4c-3.9,0-7-3.1-7-7c0-3.9,3.1-7,7-7c3.9,0,7,3.1,7,7
		C453.7,458.3,450.6,461.4,446.7,461.4z"/>
	<circle fill="#FCFC1D" cx="478" cy="522" r="15.4"/>
	<circle fill="#FCFC1D" cx="457.4" cy="583.7" r="15.4"/>
	<circle fill="#FCFC1D" cx="498.5" cy="604.3" r="15.4"/>
	<circle fill="#FCFC1D" cx="490.8" cy="655.7" r="15.4"/>
	<circle fill="#FCFC1D" cx="547.4" cy="686.6" r="15.4"/>
</g>
</svg>
