<?xml version="1.0" encoding="utf-8"?>
<!-- Generator: Adobe Illustrator 18.0.0, SVG Export Plug-In . SVG Version: 6.00 Build 0)  -->
<!DOCTYPE svg PUBLIC "-//W3C//DTD SVG 1.1//EN" "http://www.w3.org/Graphics/SVG/1.1/DTD/svg11.dtd">
<svg version="1.1" id="Capa_1" xmlns="http://www.w3.org/2000/svg" xmlns:xlink="http://www.w3.org/1999/xlink" x="0px" y="0px"
	 viewBox="0 3.7 544.6 460.8" enable-background="new 0 3.7 544.6 460.8" xml:space="preserve">
<g>
	<g>
		<path fill="#FFFFFF" d="M521.1,36.2c-75.1,32.1-141.5,81.1-195,142.1h41.4c48-49.1,105.5-88.5,169.1-115.7
			C554.6,54.9,539,28.5,521.1,36.2z"/>
		<path fill="#EEEEEE" d="M313.1,193.6H0c0,149.6,121.2,270.8,270.8,270.8s270.8-121.2,270.8-270.8H353.1L313.1,193.6L313.1,193.6z"
			/>
		<path fill="#FFFFFF" d="M184.7,118.7c0.3-0.7,0.5-1.3,0.7-1.9c0.2-0.6,0.7-1.2,1-1.8c0.4-0.6,0.5-1.1,0.9-1.6
			c0.4-0.5,0.8-1,1.1-1.4c0.3-0.5,0.7-0.9,1.2-1.3c0.4-0.4,0.8-0.8,1.2-1.2c0.9-0.8,2-1.6,2.7-2.4c1.2-0.8,2.2-1.7,3.2-2.6
			c1.1-0.6,2.1-1.3,2.9-2c0.1-0.1,0.7-0.5,1.2-0.9l1.5-1.1c1-0.7,2-1.5,3-2.2l2.2-1.7l3.9-3c5.1-4.3,9.9-9.6,13.7-15.7
			c3.8-6.1,6.5-13,7.7-19.9c1.2-6.9,0.9-13.6-0.3-19.5c-1.2-5.9-3.5-10.9-5.9-15c-5-8.3-11-13.2-15.5-16.1c-2.2-1.5-4.3-2.3-5.6-2.9
			c-1.3-0.6-2.1-0.8-2.1-0.8s0,0.8-0.1,2.2c0,1.4-0.2,3.5-0.3,5.9c-0.3,4.8-0.8,11.4-2.2,17.8c-0.7,3.2-1.7,6.3-2.8,9.1
			c-1.2,2.8-2.6,5.2-4.1,7.4c-1.6,2.1-3.2,4-5.2,6.1c-1.9,2-4.2,4.1-6.8,6.2l-2,1.6l-0.5,0.4l-0.1,0.1l-1.1,0.9l-0.1,0.1l-0.4,0.3
			l-1.4,1.3c-0.9,0.8-1.9,1.7-2.8,2.5l-1.4,1.3c-0.5,0.4-0.8,0.8-1.6,1.6c-2.6,2.8-5,5.7-7.2,8.7c-1.9,3.1-3.6,6.1-5.1,9.2
			c-0.7,1.7-1.3,3.4-1.8,5.1c-0.5,1.7-1.1,3.3-1.4,5.1c-0.3,1.8-0.5,3.5-0.7,5.2c-0.1,0.9-0.2,1.7-0.2,2.5c0,0.8,0,1.7,0.1,2.6
			c0.2,3.4,0.4,6.6,1.4,9.5c0.4,1.5,0.8,2.9,1.3,4.2c0.6,1.3,1.1,2.6,1.8,3.8c1.2,2.4,2.7,4.4,4.1,6.2c1.5,1.8,3,3.3,4.4,4.6
			c1.6,1.2,2.9,2.4,4.4,3.3c1.5,0.9,2.7,1.6,4,2.2c2.4,1.2,4.6,1.8,6,2.2c1.4,0.4,2.2,0.4,2.2,0.4s-0.1-0.8-0.3-2.2
			c-0.2-1.4-0.3-3.5-0.5-5.8c0-1.2-0.1-2.4-0.1-3.8c0-1.3,0.1-2.7,0.1-4.2C183.4,124.3,183.7,121.4,184.7,118.7z"/>
		<path fill="#FFFFFF" d="M272.4,118.7c0.3-0.7,0.5-1.3,0.7-1.9c0.2-0.6,0.7-1.2,1-1.8c0.4-0.6,0.5-1.1,0.9-1.6
			c0.4-0.5,0.8-1,1.1-1.4c0.3-0.5,0.7-0.9,1.2-1.3c0.4-0.4,0.8-0.8,1.2-1.2c0.9-0.8,2-1.6,2.7-2.4c1.2-0.8,2.2-1.7,3.2-2.6
			c1.1-0.6,2.1-1.3,2.9-2c0.1-0.1,0.7-0.5,1.2-0.9l1.5-1.1c1-0.7,2-1.5,3-2.2l2.2-1.7l3.9-3c5.1-4.3,9.9-9.6,13.7-15.7
			c3.8-6.1,6.5-13,7.7-19.9c1.2-6.9,0.9-13.6-0.3-19.5c-1.2-5.9-3.5-10.9-5.9-15c-5-8.3-11-13.2-15.5-16.1c-2.2-1.5-4.3-2.3-5.6-2.9
			c-1.3-0.6-2.1-0.8-2.1-0.8s0,0.8-0.1,2.2c0,1.4-0.2,3.5-0.3,5.9c-0.3,4.8-0.8,11.4-2.2,17.8c-0.7,3.2-1.7,6.3-2.8,9.1
			c-1.2,2.8-2.6,5.2-4.1,7.4c-1.6,2.1-3.2,4-5.2,6.1c-1.9,2-4.2,4.1-6.8,6.2l-2,1.6l-0.5,0.4l-0.1,0.1l-1.1,0.9l-0.1,0.1l-0.4,0.3
			L264,63c-0.9,0.8-1.9,1.7-2.8,2.5l-1.4,1.3c-0.5,0.4-0.8,0.8-1.6,1.6c-2.6,2.8-5,5.7-7.2,8.7c-1.9,3.1-3.6,6.1-5.1,9.2
			c-0.7,1.7-1.3,3.4-1.8,5.1c-0.5,1.7-1.1,3.3-1.4,5.1c-0.3,1.8-0.5,3.5-0.7,5.2c-0.1,0.9-0.2,1.7-0.2,2.5c0,0.8,0,1.7,0.1,2.6
			c0.2,3.4,0.4,6.6,1.4,9.5c0.4,1.5,0.8,2.9,1.3,4.2c0.6,1.3,1.1,2.6,1.8,3.8c1.2,2.4,2.7,4.4,4.1,6.2c1.5,1.8,3,3.3,4.4,4.6
			c1.6,1.2,2.9,2.4,4.4,3.3c1.5,0.9,2.7,1.6,4,2.2c2.4,1.2,4.6,1.8,6,2.2c1.4,0.4,2.2,0.4,2.2,0.4s-0.1-0.8-0.3-2.2
			c-0.2-1.4-0.3-3.5-0.5-5.8c0-1.2-0.1-2.4-0.1-3.8c0-1.3,0.1-2.7,0.1-4.2C271.1,124.3,271.4,121.4,272.4,118.7z"/>
	</g>
</g>
</svg>
