<?xml version="1.0" encoding="utf-8"?>
<!-- Generator: Adobe Illustrator 18.0.0, SVG Export Plug-In . SVG Version: 6.00 Build 0)  -->
<!DOCTYPE svg PUBLIC "-//W3C//DTD SVG 1.1//EN" "http://www.w3.org/Graphics/SVG/1.1/DTD/svg11.dtd">
<svg version="1.1" id="Capa_1" xmlns="http://www.w3.org/2000/svg" xmlns:xlink="http://www.w3.org/1999/xlink" x="0px" y="0px"
	 viewBox="0 0 486.1 486.1" enable-background="new 0 0 486.1 486.1" xml:space="preserve">
<g>
	<path fill="#EEEEEE" d="M229.9,43.8l-11.8,49.5l-4.9-0.1L225,43.7L229.9,43.8z M231.5,43.9l-11.8,49.5l2.4,0.1L234,43.9L231.5,43.9
		z M216.5,43.4l-11.8,49.5l2.4,0.1l11.8-49.5L216.5,43.4z M241.9,44.2l-11.8,49.5l2.4,0.1l11.8-49.5L241.9,44.2z M204.9,43.1
		l-11.8,49.5l4.9,0.1l11.7-49.5L204.9,43.1z M268.4,44.9l-11.8,49.5l2.4,0.1L270.9,45L268.4,44.9z M278.2,95l2.4,0.1l11.8-49.5
		l-2.4-0.1L278.2,95z M406.2,407.9l3.7,11.5c0,43.3-87.8,66.7-166.9,66.7c-79.1,0-166.9-23.4-166.9-66.7l3.7-12.7V75.4l-3.7-8.7
		C76.2,23.4,164,0,243.1,0c79.1,0,166.9,23.4,166.9,66.7l-3.7,6.8V407.9z M384,251.5c0,0-15.3,17-67,25.9c0.1,0.9,0.1,1.7,0.1,2.6
		c0,38.5-31.3,69.8-69.8,69.8c-38.5,0-69.8-31.3-69.8-69.8c0-0.8,0.1-1.6,0.1-2.3c-55.2-8.8-75.4-25.9-75.4-25.9v132.7v34.9
		c0,18.6,53.6,44.5,140.9,44.5c87.3,0,140.9-25.9,140.9-44.5v-34.9V251.5L384,251.5z M247.3,340.2c33.2,0,60.2-27,60.2-60.2
		c0-0.9-0.1-1.8-0.1-2.6c-2.7-30.9-28.5-55.1-60.1-55.1c-31.4,0-57,23.9-60,54.5l0,0.7c-0.1,0.9-0.1,1.7-0.1,2.6
		C187,313.2,214.1,340.2,247.3,340.2z M384,66.7c0-18.6-53.6-44.5-140.9-44.5c-87.3,0-140.9,25.9-140.9,44.5s53.6,44.5,140.9,44.5
		C330.3,111.2,384,85.3,384,66.7z M283.5,45.4l-11.8,49.5l4.9,0.1l11.8-49.5L283.5,45.4z M253.8,44.5L242.1,94l2.4,0.1l11.8-49.5
		L253.8,44.5z M246.3,44.3l-11.8,49.5l4.9,0.1l11.8-49.5L246.3,44.3z M274.9,45.1l-11.8,49.5l2.5,0.1l11.7-49.5L274.9,45.1z
		 M261.5,44.7l-11.8,49.5l4.9,0.1l11.8-49.5L261.5,44.7z M188.6,389c-6.7-2.6-9.6-4.4-9.6-8.3c0-2.9,2.5-6,8.3-6
		c4.7,0,8.2,1.4,10,2.4l2.2-7.4c-2.6-1.3-6.6-2.5-12-2.5c-10.9,0-17.7,6.3-17.7,14.4c0,7.2,5.3,11.6,13.5,14.6
		c6.4,2.3,8.9,4.5,8.9,8.3c0,4.1-3.3,6.9-9.2,6.9c-4.7,0-9.2-1.5-12.1-3.2l-2,7.6c2.8,1.6,8.3,3.1,13.5,3.1c13,0,19-7,19-15
		C201.5,396.7,197.3,392.3,188.6,389z M250.6,392.6c0,16.8-10.2,26.4-24,26.4c-14.1,0-23.1-10.8-23.1-25.5
		c0-15.4,9.7-26.3,23.8-26.3C241.9,367.2,250.6,378.3,250.6,392.6z M240.9,393c0-9.4-4.7-18.4-13.8-18.4c-9.1,0-13.9,8.4-13.9,18.8
		c0,10.2,5.1,18.3,13.9,18.3C235.9,411.7,240.9,403.5,240.9,393z M284.7,397.3c0,9.8-3.9,14.4-10.6,14.4c-6.2,0-10.3-4.5-10.3-14.4
		V368h-9.2v28.7c0,15.8,7.5,22.3,19.1,22.3c12.1,0,20-6.9,20-22.3V368h-9.2L284.7,397.3L284.7,397.3z M329.5,371.8
		c3,2.5,4.9,6.4,4.9,11.1c0,4.8-1.5,8.7-4.3,11.4c-3.7,3.6-9.4,5.4-15.8,5.4c-1.7,0-3.3-0.1-4.5-0.3v18.9h-9.1v-49.5
		c3.3-0.6,7.8-1,14-1C321.3,367.7,326.2,369.1,329.5,371.8z M325.2,383.2c0-5.6-3.9-8.6-10.2-8.6c-2.5,0-4.3,0.2-5.3,0.4v17
		c1.1,0.3,2.6,0.4,4.5,0.4C321,392.5,325.2,389.1,325.2,383.2z"/>
</g>
</svg>
